<?xml version="1.0" encoding="utf-8" standalone="no"?>
<!DOCTYPE svg PUBLIC "-//W3C//DTD SVG 1.1//EN"
  "http://www.w3.org/Graphics/SVG/1.1/DTD/svg11.dtd">
<svg xmlns:xlink="http://www.w3.org/1999/xlink" width="460.8pt" height="345.6pt" viewBox="0 0 460.8 345.6" xmlns="http://www.w3.org/2000/svg" version="1.1">
 <metadata>
  <rdf:RDF xmlns:dc="http://purl.org/dc/elements/1.1/" xmlns:cc="http://creativecommons.org/ns#" xmlns:rdf="http://www.w3.org/1999/02/22-rdf-syntax-ns#">
   <cc:Work>
    <dc:type rdf:resource="http://purl.org/dc/dcmitype/StillImage"/>
    <dc:date>2023-02-21T15:25:18.781309</dc:date>
    <dc:format>image/svg+xml</dc:format>
    <dc:creator>
     <cc:Agent>
      <dc:title>Matplotlib v3.7.0, https://matplotlib.org/</dc:title>
     </cc:Agent>
    </dc:creator>
   </cc:Work>
  </rdf:RDF>
 </metadata>
 <defs>
  <style type="text/css">*{stroke-linejoin: round; stroke-linecap: butt}</style>
 </defs>
 <g id="figure_1">
  <g id="patch_1">
   <path d="M 0 345.6 
L 460.8 345.6 
L 460.8 0 
L 0 0 
z
" style="fill: #ffffff"/>
  </g>
  <g id="axes_1">
   <g id="patch_2">
    <path d="M 57.6 307.584 
L 414.72 307.584 
L 414.72 41.472 
L 57.6 41.472 
z
" style="fill: #ffffff"/>
   </g>
   <g id="matplotlib.axis_1">
    <g id="xtick_1">
     <g id="line2d_1">
      <path d="M 73.832727 307.584 
L 73.832727 41.472 
" clip-path="url(#p910cb5bb8a)" style="fill: none; stroke: #b0b0b0; stroke-width: 0.8; stroke-linecap: square"/>
     </g>
     <g id="line2d_2">
      <defs>
       <path id="m37f69ce2de" d="M 0 0 
L 0 3.5 
" style="stroke: #000000; stroke-width: 0.8"/>
      </defs>
      <g>
       <use xlink:href="#m37f69ce2de" x="73.832727" y="307.584" style="stroke: #000000; stroke-width: 0.8"/>
      </g>
     </g>
     <g id="text_1">
      <!-- 0 -->
      <g transform="translate(70.651477 322.182437) scale(0.1 -0.1)">
       <defs>
        <path id="DejaVuSans-30" d="M 2034 4250 
Q 1547 4250 1301 3770 
Q 1056 3291 1056 2328 
Q 1056 1369 1301 889 
Q 1547 409 2034 409 
Q 2525 409 2770 889 
Q 3016 1369 3016 2328 
Q 3016 3291 2770 3770 
Q 2525 4250 2034 4250 
z
M 2034 4750 
Q 2819 4750 3233 4129 
Q 3647 3509 3647 2328 
Q 3647 1150 3233 529 
Q 2819 -91 2034 -91 
Q 1250 -91 836 529 
Q 422 1150 422 2328 
Q 422 3509 836 4129 
Q 1250 4750 2034 4750 
z
" transform="scale(0.015625)"/>
       </defs>
       <use xlink:href="#DejaVuSans-30"/>
      </g>
     </g>
    </g>
    <g id="xtick_2">
     <g id="line2d_3">
      <path d="M 138.893758 307.584 
L 138.893758 41.472 
" clip-path="url(#p910cb5bb8a)" style="fill: none; stroke: #b0b0b0; stroke-width: 0.8; stroke-linecap: square"/>
     </g>
     <g id="line2d_4">
      <g>
       <use xlink:href="#m37f69ce2de" x="138.893758" y="307.584" style="stroke: #000000; stroke-width: 0.8"/>
      </g>
     </g>
     <g id="text_2">
      <!-- 100 -->
      <g transform="translate(129.350008 322.182437) scale(0.1 -0.1)">
       <defs>
        <path id="DejaVuSans-31" d="M 794 531 
L 1825 531 
L 1825 4091 
L 703 3866 
L 703 4441 
L 1819 4666 
L 2450 4666 
L 2450 531 
L 3481 531 
L 3481 0 
L 794 0 
L 794 531 
z
" transform="scale(0.015625)"/>
       </defs>
       <use xlink:href="#DejaVuSans-31"/>
       <use xlink:href="#DejaVuSans-30" x="63.623047"/>
       <use xlink:href="#DejaVuSans-30" x="127.246094"/>
      </g>
     </g>
    </g>
    <g id="xtick_3">
     <g id="line2d_5">
      <path d="M 203.95479 307.584 
L 203.95479 41.472 
" clip-path="url(#p910cb5bb8a)" style="fill: none; stroke: #b0b0b0; stroke-width: 0.8; stroke-linecap: square"/>
     </g>
     <g id="line2d_6">
      <g>
       <use xlink:href="#m37f69ce2de" x="203.95479" y="307.584" style="stroke: #000000; stroke-width: 0.8"/>
      </g>
     </g>
     <g id="text_3">
      <!-- 200 -->
      <g transform="translate(194.41104 322.182437) scale(0.1 -0.1)">
       <defs>
        <path id="DejaVuSans-32" d="M 1228 531 
L 3431 531 
L 3431 0 
L 469 0 
L 469 531 
Q 828 903 1448 1529 
Q 2069 2156 2228 2338 
Q 2531 2678 2651 2914 
Q 2772 3150 2772 3378 
Q 2772 3750 2511 3984 
Q 2250 4219 1831 4219 
Q 1534 4219 1204 4116 
Q 875 4013 500 3803 
L 500 4441 
Q 881 4594 1212 4672 
Q 1544 4750 1819 4750 
Q 2544 4750 2975 4387 
Q 3406 4025 3406 3419 
Q 3406 3131 3298 2873 
Q 3191 2616 2906 2266 
Q 2828 2175 2409 1742 
Q 1991 1309 1228 531 
z
" transform="scale(0.015625)"/>
       </defs>
       <use xlink:href="#DejaVuSans-32"/>
       <use xlink:href="#DejaVuSans-30" x="63.623047"/>
       <use xlink:href="#DejaVuSans-30" x="127.246094"/>
      </g>
     </g>
    </g>
    <g id="xtick_4">
     <g id="line2d_7">
      <path d="M 269.015821 307.584 
L 269.015821 41.472 
" clip-path="url(#p910cb5bb8a)" style="fill: none; stroke: #b0b0b0; stroke-width: 0.8; stroke-linecap: square"/>
     </g>
     <g id="line2d_8">
      <g>
       <use xlink:href="#m37f69ce2de" x="269.015821" y="307.584" style="stroke: #000000; stroke-width: 0.8"/>
      </g>
     </g>
     <g id="text_4">
      <!-- 300 -->
      <g transform="translate(259.472071 322.182437) scale(0.1 -0.1)">
       <defs>
        <path id="DejaVuSans-33" d="M 2597 2516 
Q 3050 2419 3304 2112 
Q 3559 1806 3559 1356 
Q 3559 666 3084 287 
Q 2609 -91 1734 -91 
Q 1441 -91 1130 -33 
Q 819 25 488 141 
L 488 750 
Q 750 597 1062 519 
Q 1375 441 1716 441 
Q 2309 441 2620 675 
Q 2931 909 2931 1356 
Q 2931 1769 2642 2001 
Q 2353 2234 1838 2234 
L 1294 2234 
L 1294 2753 
L 1863 2753 
Q 2328 2753 2575 2939 
Q 2822 3125 2822 3475 
Q 2822 3834 2567 4026 
Q 2313 4219 1838 4219 
Q 1578 4219 1281 4162 
Q 984 4106 628 3988 
L 628 4550 
Q 988 4650 1302 4700 
Q 1616 4750 1894 4750 
Q 2613 4750 3031 4423 
Q 3450 4097 3450 3541 
Q 3450 3153 3228 2886 
Q 3006 2619 2597 2516 
z
" transform="scale(0.015625)"/>
       </defs>
       <use xlink:href="#DejaVuSans-33"/>
       <use xlink:href="#DejaVuSans-30" x="63.623047"/>
       <use xlink:href="#DejaVuSans-30" x="127.246094"/>
      </g>
     </g>
    </g>
    <g id="xtick_5">
     <g id="line2d_9">
      <path d="M 334.076852 307.584 
L 334.076852 41.472 
" clip-path="url(#p910cb5bb8a)" style="fill: none; stroke: #b0b0b0; stroke-width: 0.8; stroke-linecap: square"/>
     </g>
     <g id="line2d_10">
      <g>
       <use xlink:href="#m37f69ce2de" x="334.076852" y="307.584" style="stroke: #000000; stroke-width: 0.8"/>
      </g>
     </g>
     <g id="text_5">
      <!-- 400 -->
      <g transform="translate(324.533102 322.182437) scale(0.1 -0.1)">
       <defs>
        <path id="DejaVuSans-34" d="M 2419 4116 
L 825 1625 
L 2419 1625 
L 2419 4116 
z
M 2253 4666 
L 3047 4666 
L 3047 1625 
L 3713 1625 
L 3713 1100 
L 3047 1100 
L 3047 0 
L 2419 0 
L 2419 1100 
L 313 1100 
L 313 1709 
L 2253 4666 
z
" transform="scale(0.015625)"/>
       </defs>
       <use xlink:href="#DejaVuSans-34"/>
       <use xlink:href="#DejaVuSans-30" x="63.623047"/>
       <use xlink:href="#DejaVuSans-30" x="127.246094"/>
      </g>
     </g>
    </g>
    <g id="xtick_6">
     <g id="line2d_11">
      <path d="M 399.137883 307.584 
L 399.137883 41.472 
" clip-path="url(#p910cb5bb8a)" style="fill: none; stroke: #b0b0b0; stroke-width: 0.8; stroke-linecap: square"/>
     </g>
     <g id="line2d_12">
      <g>
       <use xlink:href="#m37f69ce2de" x="399.137883" y="307.584" style="stroke: #000000; stroke-width: 0.8"/>
      </g>
     </g>
     <g id="text_6">
      <!-- 500 -->
      <g transform="translate(389.594133 322.182437) scale(0.1 -0.1)">
       <defs>
        <path id="DejaVuSans-35" d="M 691 4666 
L 3169 4666 
L 3169 4134 
L 1269 4134 
L 1269 2991 
Q 1406 3038 1543 3061 
Q 1681 3084 1819 3084 
Q 2600 3084 3056 2656 
Q 3513 2228 3513 1497 
Q 3513 744 3044 326 
Q 2575 -91 1722 -91 
Q 1428 -91 1123 -41 
Q 819 9 494 109 
L 494 744 
Q 775 591 1075 516 
Q 1375 441 1709 441 
Q 2250 441 2565 725 
Q 2881 1009 2881 1497 
Q 2881 1984 2565 2268 
Q 2250 2553 1709 2553 
Q 1456 2553 1204 2497 
Q 953 2441 691 2322 
L 691 4666 
z
" transform="scale(0.015625)"/>
       </defs>
       <use xlink:href="#DejaVuSans-35"/>
       <use xlink:href="#DejaVuSans-30" x="63.623047"/>
       <use xlink:href="#DejaVuSans-30" x="127.246094"/>
      </g>
     </g>
    </g>
    <g id="text_7">
     <!-- Generations -->
     <g transform="translate(205.662344 335.860562) scale(0.1 -0.1)">
      <defs>
       <path id="DejaVuSans-47" d="M 3809 666 
L 3809 1919 
L 2778 1919 
L 2778 2438 
L 4434 2438 
L 4434 434 
Q 4069 175 3628 42 
Q 3188 -91 2688 -91 
Q 1594 -91 976 548 
Q 359 1188 359 2328 
Q 359 3472 976 4111 
Q 1594 4750 2688 4750 
Q 3144 4750 3555 4637 
Q 3966 4525 4313 4306 
L 4313 3634 
Q 3963 3931 3569 4081 
Q 3175 4231 2741 4231 
Q 1884 4231 1454 3753 
Q 1025 3275 1025 2328 
Q 1025 1384 1454 906 
Q 1884 428 2741 428 
Q 3075 428 3337 486 
Q 3600 544 3809 666 
z
" transform="scale(0.015625)"/>
       <path id="DejaVuSans-65" d="M 3597 1894 
L 3597 1613 
L 953 1613 
Q 991 1019 1311 708 
Q 1631 397 2203 397 
Q 2534 397 2845 478 
Q 3156 559 3463 722 
L 3463 178 
Q 3153 47 2828 -22 
Q 2503 -91 2169 -91 
Q 1331 -91 842 396 
Q 353 884 353 1716 
Q 353 2575 817 3079 
Q 1281 3584 2069 3584 
Q 2775 3584 3186 3129 
Q 3597 2675 3597 1894 
z
M 3022 2063 
Q 3016 2534 2758 2815 
Q 2500 3097 2075 3097 
Q 1594 3097 1305 2825 
Q 1016 2553 972 2059 
L 3022 2063 
z
" transform="scale(0.015625)"/>
       <path id="DejaVuSans-6e" d="M 3513 2113 
L 3513 0 
L 2938 0 
L 2938 2094 
Q 2938 2591 2744 2837 
Q 2550 3084 2163 3084 
Q 1697 3084 1428 2787 
Q 1159 2491 1159 1978 
L 1159 0 
L 581 0 
L 581 3500 
L 1159 3500 
L 1159 2956 
Q 1366 3272 1645 3428 
Q 1925 3584 2291 3584 
Q 2894 3584 3203 3211 
Q 3513 2838 3513 2113 
z
" transform="scale(0.015625)"/>
       <path id="DejaVuSans-72" d="M 2631 2963 
Q 2534 3019 2420 3045 
Q 2306 3072 2169 3072 
Q 1681 3072 1420 2755 
Q 1159 2438 1159 1844 
L 1159 0 
L 581 0 
L 581 3500 
L 1159 3500 
L 1159 2956 
Q 1341 3275 1631 3429 
Q 1922 3584 2338 3584 
Q 2397 3584 2469 3576 
Q 2541 3569 2628 3553 
L 2631 2963 
z
" transform="scale(0.015625)"/>
       <path id="DejaVuSans-61" d="M 2194 1759 
Q 1497 1759 1228 1600 
Q 959 1441 959 1056 
Q 959 750 1161 570 
Q 1363 391 1709 391 
Q 2188 391 2477 730 
Q 2766 1069 2766 1631 
L 2766 1759 
L 2194 1759 
z
M 3341 1997 
L 3341 0 
L 2766 0 
L 2766 531 
Q 2569 213 2275 61 
Q 1981 -91 1556 -91 
Q 1019 -91 701 211 
Q 384 513 384 1019 
Q 384 1609 779 1909 
Q 1175 2209 1959 2209 
L 2766 2209 
L 2766 2266 
Q 2766 2663 2505 2880 
Q 2244 3097 1772 3097 
Q 1472 3097 1187 3025 
Q 903 2953 641 2809 
L 641 3341 
Q 956 3463 1253 3523 
Q 1550 3584 1831 3584 
Q 2591 3584 2966 3190 
Q 3341 2797 3341 1997 
z
" transform="scale(0.015625)"/>
       <path id="DejaVuSans-74" d="M 1172 4494 
L 1172 3500 
L 2356 3500 
L 2356 3053 
L 1172 3053 
L 1172 1153 
Q 1172 725 1289 603 
Q 1406 481 1766 481 
L 2356 481 
L 2356 0 
L 1766 0 
Q 1100 0 847 248 
Q 594 497 594 1153 
L 594 3053 
L 172 3053 
L 172 3500 
L 594 3500 
L 594 4494 
L 1172 4494 
z
" transform="scale(0.015625)"/>
       <path id="DejaVuSans-69" d="M 603 3500 
L 1178 3500 
L 1178 0 
L 603 0 
L 603 3500 
z
M 603 4863 
L 1178 4863 
L 1178 4134 
L 603 4134 
L 603 4863 
z
" transform="scale(0.015625)"/>
       <path id="DejaVuSans-6f" d="M 1959 3097 
Q 1497 3097 1228 2736 
Q 959 2375 959 1747 
Q 959 1119 1226 758 
Q 1494 397 1959 397 
Q 2419 397 2687 759 
Q 2956 1122 2956 1747 
Q 2956 2369 2687 2733 
Q 2419 3097 1959 3097 
z
M 1959 3584 
Q 2709 3584 3137 3096 
Q 3566 2609 3566 1747 
Q 3566 888 3137 398 
Q 2709 -91 1959 -91 
Q 1206 -91 779 398 
Q 353 888 353 1747 
Q 353 2609 779 3096 
Q 1206 3584 1959 3584 
z
" transform="scale(0.015625)"/>
       <path id="DejaVuSans-73" d="M 2834 3397 
L 2834 2853 
Q 2591 2978 2328 3040 
Q 2066 3103 1784 3103 
Q 1356 3103 1142 2972 
Q 928 2841 928 2578 
Q 928 2378 1081 2264 
Q 1234 2150 1697 2047 
L 1894 2003 
Q 2506 1872 2764 1633 
Q 3022 1394 3022 966 
Q 3022 478 2636 193 
Q 2250 -91 1575 -91 
Q 1294 -91 989 -36 
Q 684 19 347 128 
L 347 722 
Q 666 556 975 473 
Q 1284 391 1588 391 
Q 1994 391 2212 530 
Q 2431 669 2431 922 
Q 2431 1156 2273 1281 
Q 2116 1406 1581 1522 
L 1381 1569 
Q 847 1681 609 1914 
Q 372 2147 372 2553 
Q 372 3047 722 3315 
Q 1072 3584 1716 3584 
Q 2034 3584 2315 3537 
Q 2597 3491 2834 3397 
z
" transform="scale(0.015625)"/>
      </defs>
      <use xlink:href="#DejaVuSans-47"/>
      <use xlink:href="#DejaVuSans-65" x="77.490234"/>
      <use xlink:href="#DejaVuSans-6e" x="139.013672"/>
      <use xlink:href="#DejaVuSans-65" x="202.392578"/>
      <use xlink:href="#DejaVuSans-72" x="263.916016"/>
      <use xlink:href="#DejaVuSans-61" x="305.029297"/>
      <use xlink:href="#DejaVuSans-74" x="366.308594"/>
      <use xlink:href="#DejaVuSans-69" x="405.517578"/>
      <use xlink:href="#DejaVuSans-6f" x="433.300781"/>
      <use xlink:href="#DejaVuSans-6e" x="494.482422"/>
      <use xlink:href="#DejaVuSans-73" x="557.861328"/>
     </g>
    </g>
   </g>
   <g id="matplotlib.axis_2">
    <g id="ytick_1">
     <g id="line2d_13">
      <path d="M 57.6 274.162449 
L 414.72 274.162449 
" clip-path="url(#p910cb5bb8a)" style="fill: none; stroke: #b0b0b0; stroke-width: 0.8; stroke-linecap: square"/>
     </g>
     <g id="line2d_14">
      <defs>
       <path id="ma3764279d8" d="M 0 0 
L -3.5 0 
" style="stroke: #000000; stroke-width: 0.8"/>
      </defs>
      <g>
       <use xlink:href="#ma3764279d8" x="57.6" y="274.162449" style="stroke: #000000; stroke-width: 0.8"/>
      </g>
     </g>
     <g id="text_8">
      <!-- 0 -->
      <g transform="translate(44.2375 277.961668) scale(0.1 -0.1)">
       <use xlink:href="#DejaVuSans-30"/>
      </g>
     </g>
    </g>
    <g id="ytick_2">
     <g id="line2d_15">
      <path d="M 57.6 235.580123 
L 414.72 235.580123 
" clip-path="url(#p910cb5bb8a)" style="fill: none; stroke: #b0b0b0; stroke-width: 0.8; stroke-linecap: square"/>
     </g>
     <g id="line2d_16">
      <g>
       <use xlink:href="#ma3764279d8" x="57.6" y="235.580123" style="stroke: #000000; stroke-width: 0.8"/>
      </g>
     </g>
     <g id="text_9">
      <!-- 20 -->
      <g transform="translate(37.875 239.379342) scale(0.1 -0.1)">
       <use xlink:href="#DejaVuSans-32"/>
       <use xlink:href="#DejaVuSans-30" x="63.623047"/>
      </g>
     </g>
    </g>
    <g id="ytick_3">
     <g id="line2d_17">
      <path d="M 57.6 196.997797 
L 414.72 196.997797 
" clip-path="url(#p910cb5bb8a)" style="fill: none; stroke: #b0b0b0; stroke-width: 0.8; stroke-linecap: square"/>
     </g>
     <g id="line2d_18">
      <g>
       <use xlink:href="#ma3764279d8" x="57.6" y="196.997797" style="stroke: #000000; stroke-width: 0.8"/>
      </g>
     </g>
     <g id="text_10">
      <!-- 40 -->
      <g transform="translate(37.875 200.797016) scale(0.1 -0.1)">
       <use xlink:href="#DejaVuSans-34"/>
       <use xlink:href="#DejaVuSans-30" x="63.623047"/>
      </g>
     </g>
    </g>
    <g id="ytick_4">
     <g id="line2d_19">
      <path d="M 57.6 158.415471 
L 414.72 158.415471 
" clip-path="url(#p910cb5bb8a)" style="fill: none; stroke: #b0b0b0; stroke-width: 0.8; stroke-linecap: square"/>
     </g>
     <g id="line2d_20">
      <g>
       <use xlink:href="#ma3764279d8" x="57.6" y="158.415471" style="stroke: #000000; stroke-width: 0.8"/>
      </g>
     </g>
     <g id="text_11">
      <!-- 60 -->
      <g transform="translate(37.875 162.21469) scale(0.1 -0.1)">
       <defs>
        <path id="DejaVuSans-36" d="M 2113 2584 
Q 1688 2584 1439 2293 
Q 1191 2003 1191 1497 
Q 1191 994 1439 701 
Q 1688 409 2113 409 
Q 2538 409 2786 701 
Q 3034 994 3034 1497 
Q 3034 2003 2786 2293 
Q 2538 2584 2113 2584 
z
M 3366 4563 
L 3366 3988 
Q 3128 4100 2886 4159 
Q 2644 4219 2406 4219 
Q 1781 4219 1451 3797 
Q 1122 3375 1075 2522 
Q 1259 2794 1537 2939 
Q 1816 3084 2150 3084 
Q 2853 3084 3261 2657 
Q 3669 2231 3669 1497 
Q 3669 778 3244 343 
Q 2819 -91 2113 -91 
Q 1303 -91 875 529 
Q 447 1150 447 2328 
Q 447 3434 972 4092 
Q 1497 4750 2381 4750 
Q 2619 4750 2861 4703 
Q 3103 4656 3366 4563 
z
" transform="scale(0.015625)"/>
       </defs>
       <use xlink:href="#DejaVuSans-36"/>
       <use xlink:href="#DejaVuSans-30" x="63.623047"/>
      </g>
     </g>
    </g>
    <g id="ytick_5">
     <g id="line2d_21">
      <path d="M 57.6 119.833145 
L 414.72 119.833145 
" clip-path="url(#p910cb5bb8a)" style="fill: none; stroke: #b0b0b0; stroke-width: 0.8; stroke-linecap: square"/>
     </g>
     <g id="line2d_22">
      <g>
       <use xlink:href="#ma3764279d8" x="57.6" y="119.833145" style="stroke: #000000; stroke-width: 0.8"/>
      </g>
     </g>
     <g id="text_12">
      <!-- 80 -->
      <g transform="translate(37.875 123.632364) scale(0.1 -0.1)">
       <defs>
        <path id="DejaVuSans-38" d="M 2034 2216 
Q 1584 2216 1326 1975 
Q 1069 1734 1069 1313 
Q 1069 891 1326 650 
Q 1584 409 2034 409 
Q 2484 409 2743 651 
Q 3003 894 3003 1313 
Q 3003 1734 2745 1975 
Q 2488 2216 2034 2216 
z
M 1403 2484 
Q 997 2584 770 2862 
Q 544 3141 544 3541 
Q 544 4100 942 4425 
Q 1341 4750 2034 4750 
Q 2731 4750 3128 4425 
Q 3525 4100 3525 3541 
Q 3525 3141 3298 2862 
Q 3072 2584 2669 2484 
Q 3125 2378 3379 2068 
Q 3634 1759 3634 1313 
Q 3634 634 3220 271 
Q 2806 -91 2034 -91 
Q 1263 -91 848 271 
Q 434 634 434 1313 
Q 434 1759 690 2068 
Q 947 2378 1403 2484 
z
M 1172 3481 
Q 1172 3119 1398 2916 
Q 1625 2713 2034 2713 
Q 2441 2713 2670 2916 
Q 2900 3119 2900 3481 
Q 2900 3844 2670 4047 
Q 2441 4250 2034 4250 
Q 1625 4250 1398 4047 
Q 1172 3844 1172 3481 
z
" transform="scale(0.015625)"/>
       </defs>
       <use xlink:href="#DejaVuSans-38"/>
       <use xlink:href="#DejaVuSans-30" x="63.623047"/>
      </g>
     </g>
    </g>
    <g id="ytick_6">
     <g id="line2d_23">
      <path d="M 57.6 81.250819 
L 414.72 81.250819 
" clip-path="url(#p910cb5bb8a)" style="fill: none; stroke: #b0b0b0; stroke-width: 0.8; stroke-linecap: square"/>
     </g>
     <g id="line2d_24">
      <g>
       <use xlink:href="#ma3764279d8" x="57.6" y="81.250819" style="stroke: #000000; stroke-width: 0.8"/>
      </g>
     </g>
     <g id="text_13">
      <!-- 100 -->
      <g transform="translate(31.5125 85.050038) scale(0.1 -0.1)">
       <use xlink:href="#DejaVuSans-31"/>
       <use xlink:href="#DejaVuSans-30" x="63.623047"/>
       <use xlink:href="#DejaVuSans-30" x="127.246094"/>
      </g>
     </g>
    </g>
    <g id="ytick_7">
     <g id="line2d_25">
      <path d="M 57.6 42.668493 
L 414.72 42.668493 
" clip-path="url(#p910cb5bb8a)" style="fill: none; stroke: #b0b0b0; stroke-width: 0.8; stroke-linecap: square"/>
     </g>
     <g id="line2d_26">
      <g>
       <use xlink:href="#ma3764279d8" x="57.6" y="42.668493" style="stroke: #000000; stroke-width: 0.8"/>
      </g>
     </g>
     <g id="text_14">
      <!-- 120 -->
      <g transform="translate(31.5125 46.467712) scale(0.1 -0.1)">
       <use xlink:href="#DejaVuSans-31"/>
       <use xlink:href="#DejaVuSans-32" x="63.623047"/>
       <use xlink:href="#DejaVuSans-30" x="127.246094"/>
      </g>
     </g>
    </g>
    <g id="text_15">
     <!-- Fitness -->
     <g transform="translate(25.432812 191.845187) rotate(-90) scale(0.1 -0.1)">
      <defs>
       <path id="DejaVuSans-46" d="M 628 4666 
L 3309 4666 
L 3309 4134 
L 1259 4134 
L 1259 2759 
L 3109 2759 
L 3109 2228 
L 1259 2228 
L 1259 0 
L 628 0 
L 628 4666 
z
" transform="scale(0.015625)"/>
      </defs>
      <use xlink:href="#DejaVuSans-46"/>
      <use xlink:href="#DejaVuSans-69" x="50.269531"/>
      <use xlink:href="#DejaVuSans-74" x="78.052734"/>
      <use xlink:href="#DejaVuSans-6e" x="117.261719"/>
      <use xlink:href="#DejaVuSans-65" x="180.640625"/>
      <use xlink:href="#DejaVuSans-73" x="242.164062"/>
      <use xlink:href="#DejaVuSans-73" x="294.263672"/>
     </g>
    </g>
   </g>
   <g id="line2d_27">
    <path d="M 73.832727 275.592503 
L 75.133948 275.290018 
L 79.68822 275.302875 
L 80.989441 275.330765 
L 82.290661 275.084311 
L 82.941272 275.128174 
L 83.591882 275.026709 
L 84.893103 275.024946 
L 86.194323 274.468341 
L 86.844934 274.759704 
L 87.495544 274.492625 
L 89.447375 274.511565 
L 90.097985 274.278157 
L 90.748595 273.183609 
L 91.399206 273.405598 
L 92.049816 272.305137 
L 92.700426 271.711612 
L 94.001647 271.105363 
L 94.652257 269.719358 
L 95.302868 269.53488 
L 95.953478 268.56144 
L 96.604088 268.315832 
L 97.254698 267.546316 
L 97.905309 267.591591 
L 98.555919 264.545747 
L 99.85714 265.782391 
L 100.50775 266.359347 
L 101.15836 265.806432 
L 101.808971 264.457139 
L 102.459581 263.680147 
L 103.110191 264.689949 
L 103.760802 263.377339 
L 104.411412 265.099847 
L 105.062022 263.775508 
L 105.712633 262.798797 
L 106.363243 262.056082 
L 107.013853 260.850775 
L 107.664463 261.666685 
L 108.315074 259.501743 
L 108.965684 258.935907 
L 109.616294 258.988213 
L 110.266905 256.804253 
L 110.917515 258.925324 
L 111.568125 259.519142 
L 112.218736 258.70526 
L 112.869346 263.247447 
L 113.519956 263.25753 
L 114.170567 260.676733 
L 114.821177 257.518398 
L 116.122398 255.828351 
L 116.773008 256.454785 
L 117.423618 255.342399 
L 118.074228 255.731479 
L 118.724839 257.577065 
L 119.375449 254.013429 
L 120.026059 254.364462 
L 120.67667 253.589388 
L 121.32728 252.314531 
L 121.97789 255.054707 
L 122.628501 251.89239 
L 123.279111 245.80154 
L 123.929721 247.369532 
L 124.580332 248.145422 
L 125.881552 244.601351 
L 126.532163 246.062236 
L 127.182773 248.984775 
L 127.833383 245.836206 
L 128.483993 248.989989 
L 129.134604 246.624988 
L 129.785214 247.176277 
L 130.435824 247.296018 
L 131.086435 245.469159 
L 131.737045 250.336902 
L 132.387655 246.22203 
L 133.038266 246.317708 
L 133.688876 244.54627 
L 134.339486 240.096308 
L 134.990097 246.146508 
L 135.640707 244.872808 
L 136.291317 242.565229 
L 136.941927 242.284286 
L 137.592538 246.02469 
L 138.243148 242.664544 
L 138.893758 246.145391 
L 139.544369 244.114349 
L 140.194979 246.378179 
L 140.845589 243.821438 
L 141.4962 245.917035 
L 142.14681 243.06753 
L 142.79742 247.378141 
L 144.098641 239.897928 
L 144.749251 241.921128 
L 145.399862 242.682551 
L 146.050472 237.525219 
L 146.701082 240.89248 
L 148.652913 245.036844 
L 149.303523 241.669597 
L 149.954134 237.704659 
L 150.604744 242.410159 
L 151.255354 246.06352 
L 151.905965 239.61394 
L 152.556575 239.185688 
L 153.207185 239.216314 
L 153.857796 241.318476 
L 154.508406 241.114758 
L 155.159016 243.049469 
L 155.809627 244.16643 
L 156.460237 238.378888 
L 157.110847 240.927849 
L 157.761457 239.17806 
L 158.412068 241.190379 
L 159.062678 240.264018 
L 159.713288 245.245535 
L 160.363899 239.711873 
L 161.014509 242.28496 
L 161.665119 239.938418 
L 162.31573 238.13736 
L 162.96634 238.804917 
L 163.61695 238.303412 
L 164.267561 234.451147 
L 164.918171 240.429536 
L 165.568781 238.075653 
L 166.219392 236.572983 
L 166.870002 236.53173 
L 167.520612 234.301069 
L 168.171222 238.95434 
L 168.821833 235.702658 
L 169.472443 233.983693 
L 170.123053 238.254317 
L 170.773664 232.767533 
L 171.424274 235.279953 
L 172.074884 236.321158 
L 172.725495 232.028268 
L 173.376105 230.700809 
L 174.026715 228.831689 
L 174.677326 231.195138 
L 175.327936 231.640067 
L 175.978546 229.693226 
L 176.629156 232.918251 
L 177.279767 237.961364 
L 177.930377 231.92059 
L 178.580987 238.911321 
L 179.231598 236.857872 
L 179.882208 238.045944 
L 180.532818 238.239989 
L 181.183429 241.283748 
L 181.834039 236.014078 
L 182.484649 235.098807 
L 183.13526 236.609948 
L 183.78587 234.909562 
L 184.43648 237.004105 
L 185.087091 236.165996 
L 185.737701 231.860015 
L 186.388311 233.719298 
L 187.038921 234.008336 
L 187.689532 236.869666 
L 188.340142 233.463475 
L 188.990752 233.690168 
L 189.641363 232.031128 
L 190.291973 236.139142 
L 190.942583 234.56618 
L 191.593194 229.293745 
L 192.243804 236.296543 
L 192.894414 232.281141 
L 193.545025 233.738606 
L 194.195635 233.297529 
L 194.846245 233.970589 
L 195.496856 226.705996 
L 196.147466 230.396872 
L 196.798076 231.170386 
L 197.448686 234.686222 
L 198.099297 226.765337 
L 198.749907 226.939225 
L 199.400517 225.246013 
L 200.051128 231.901851 
L 200.701738 230.702436 
L 201.352348 229.124487 
L 202.002959 226.902545 
L 202.653569 229.77009 
L 203.304179 230.960137 
L 203.95479 231.498741 
L 204.6054 225.469453 
L 205.25601 229.969354 
L 205.906621 227.776828 
L 206.557231 229.050969 
L 207.207841 225.674111 
L 207.858451 226.305868 
L 208.509062 229.167933 
L 209.159672 227.554574 
L 209.810282 230.831025 
L 210.460893 231.792599 
L 211.111503 231.794666 
L 211.762113 231.447763 
L 212.412724 229.296056 
L 213.063334 233.093148 
L 213.713944 233.444591 
L 214.364555 231.784394 
L 215.015165 231.795481 
L 215.665775 231.54229 
L 216.316385 230.777629 
L 216.966996 227.478027 
L 217.617606 230.636139 
L 218.918827 234.84675 
L 219.569437 230.53098 
L 220.220047 229.07904 
L 220.870658 232.014931 
L 221.521268 230.059424 
L 222.171878 233.257274 
L 222.822489 229.955145 
L 223.473099 228.674772 
L 224.123709 228.996391 
L 224.77432 234.874706 
L 225.42493 228.661 
L 226.07554 227.985861 
L 226.72615 227.597247 
L 228.027371 233.063031 
L 228.677981 228.76021 
L 229.328592 227.195634 
L 229.979202 222.848729 
L 231.280423 230.939634 
L 231.931033 234.350841 
L 232.581643 226.981223 
L 233.232254 231.400049 
L 233.882864 233.76248 
L 234.533474 227.618291 
L 235.184085 226.48984 
L 235.834695 226.997292 
L 236.485305 227.361429 
L 237.786526 231.773295 
L 238.437136 230.089487 
L 239.087746 231.907829 
L 239.738357 228.568483 
L 240.388967 231.997506 
L 241.039577 232.760141 
L 241.690188 233.296311 
L 242.340798 223.796182 
L 242.991408 227.014732 
L 243.642019 225.504509 
L 244.292629 227.585199 
L 244.943239 222.693819 
L 245.59385 223.72205 
L 246.24446 227.881671 
L 246.89507 227.390077 
L 247.54568 227.198519 
L 248.196291 231.032068 
L 248.846901 229.50283 
L 249.497511 230.092407 
L 250.148122 227.730356 
L 250.798732 223.900289 
L 251.449342 225.178939 
L 252.099953 225.751314 
L 252.750563 227.732478 
L 253.401173 226.590134 
L 254.051784 227.461823 
L 254.702394 225.187202 
L 255.353004 225.958607 
L 256.003615 224.643963 
L 256.654225 226.415081 
L 257.304835 227.59792 
L 257.955445 226.744116 
L 258.606056 230.174152 
L 259.256666 228.01084 
L 259.907276 227.992781 
L 260.557887 225.459014 
L 261.208497 224.127628 
L 261.859107 224.408383 
L 262.509718 224.230169 
L 263.160328 224.680616 
L 263.810938 229.420896 
L 264.461549 230.904322 
L 265.112159 230.098058 
L 265.762769 228.388678 
L 266.413379 226.000325 
L 267.06399 224.452873 
L 267.7146 222.488491 
L 268.36521 219.846556 
L 269.666431 221.225431 
L 270.317041 224.965538 
L 270.967652 217.398492 
L 271.618262 219.916738 
L 272.268872 226.849821 
L 272.919483 224.552836 
L 273.570093 219.148049 
L 274.220703 218.827343 
L 274.871314 221.160458 
L 275.521924 221.929604 
L 276.172534 215.716771 
L 276.823144 221.624077 
L 277.473755 220.825433 
L 278.124365 224.988923 
L 278.774975 219.683359 
L 279.425586 217.506523 
L 280.076196 219.339692 
L 280.726806 220.093263 
L 281.377417 218.963784 
L 282.028027 214.811119 
L 282.678637 225.208444 
L 283.329248 212.321232 
L 283.979858 217.945933 
L 285.281079 217.680262 
L 285.931689 216.870975 
L 286.582299 223.086689 
L 287.232909 217.277294 
L 287.88352 218.165045 
L 288.53413 220.846545 
L 289.18474 219.947596 
L 289.835351 217.331779 
L 290.485961 223.550262 
L 291.136571 221.68545 
L 291.787182 213.536304 
L 292.437792 221.867642 
L 293.088402 214.370345 
L 293.739013 218.749923 
L 294.389623 218.719647 
L 295.040233 222.459817 
L 295.690844 225.534855 
L 296.341454 221.651481 
L 296.992064 222.289617 
L 297.642674 221.159119 
L 298.293285 227.649886 
L 299.594505 219.796565 
L 300.245116 221.899213 
L 300.895726 217.64049 
L 301.546336 216.167051 
L 302.196947 217.314207 
L 302.847557 227.364189 
L 303.498167 223.421554 
L 304.148778 224.425725 
L 304.799388 219.626449 
L 305.449998 222.886766 
L 306.100608 215.462829 
L 306.751219 220.023815 
L 307.401829 217.05182 
L 308.052439 220.636682 
L 308.70305 223.174908 
L 309.35366 220.776244 
L 310.00427 220.465147 
L 310.654881 216.692773 
L 311.305491 217.824056 
L 311.956101 216.94817 
L 312.606712 217.689683 
L 313.257322 219.097923 
L 313.907932 224.26897 
L 314.558543 217.512971 
L 315.209153 219.799188 
L 315.859763 218.741721 
L 316.510373 223.424573 
L 317.160984 217.34348 
L 317.811594 222.236156 
L 318.462204 220.491486 
L 319.112815 221.513715 
L 319.763425 219.976749 
L 320.414035 220.588759 
L 321.064646 223.747304 
L 321.715256 223.53064 
L 322.365866 224.033783 
L 323.016477 224.819259 
L 324.317697 224.915775 
L 324.968308 224.377469 
L 325.618918 228.71513 
L 326.269528 228.16946 
L 326.920138 228.490047 
L 327.570749 223.55673 
L 328.871969 225.948981 
L 329.52258 223.338337 
L 330.17319 222.64411 
L 330.8238 229.778219 
L 331.474411 224.714317 
L 332.125021 223.598189 
L 332.775631 227.000331 
L 333.426242 225.603808 
L 334.076852 227.05243 
L 334.727462 230.363113 
L 335.378073 229.629378 
L 336.028683 231.383527 
L 336.679293 231.123903 
L 337.329903 229.360459 
L 337.980514 232.075626 
L 338.631124 236.740076 
L 339.281734 233.770237 
L 339.932345 234.327543 
L 340.582955 228.07959 
L 341.884176 231.792378 
L 342.534786 225.449957 
L 343.185396 225.013275 
L 343.836007 230.793745 
L 344.486617 228.366855 
L 345.137227 230.220318 
L 345.787837 230.397552 
L 346.438448 232.536884 
L 347.089058 236.505335 
L 347.739668 233.868513 
L 348.390279 235.710656 
L 349.040889 239.112125 
L 349.691499 234.163756 
L 350.34211 235.691889 
L 350.99272 231.066986 
L 351.64333 229.934699 
L 352.944551 235.49903 
L 353.595161 229.959622 
L 354.245772 232.859384 
L 354.896382 232.76388 
L 356.197602 230.493028 
L 356.848213 230.593071 
L 357.498823 234.412298 
L 358.149433 233.000076 
L 358.800044 230.200466 
L 359.450654 231.952247 
L 360.101264 231.489633 
L 360.751875 229.12614 
L 361.402485 229.534479 
L 362.053095 232.084711 
L 362.703706 230.660682 
L 363.354316 236.285492 
L 364.004926 233.818146 
L 364.655537 234.380358 
L 365.306147 237.430552 
L 365.956757 236.245531 
L 366.607367 231.852144 
L 367.257978 229.856631 
L 367.908588 228.989299 
L 368.559198 224.09918 
L 369.209809 229.988398 
L 369.860419 232.559656 
L 370.511029 229.462651 
L 371.16164 231.575209 
L 371.81225 227.947048 
L 372.46286 232.425845 
L 373.113471 230.019592 
L 373.764081 231.812998 
L 374.414691 230.572206 
L 375.065302 229.869786 
L 375.715912 224.870287 
L 376.366522 225.402136 
L 377.017132 228.73918 
L 377.667743 228.361187 
L 378.318353 231.001061 
L 378.968963 224.159373 
L 379.619574 227.617582 
L 380.270184 224.080929 
L 380.920794 227.517347 
L 381.571405 227.479191 
L 382.222015 223.233973 
L 382.872625 226.869451 
L 383.523236 222.55517 
L 384.173846 228.902267 
L 384.824456 230.869991 
L 385.475066 228.314356 
L 386.125677 226.874494 
L 386.776287 228.699608 
L 387.426897 225.767694 
L 388.077508 229.062136 
L 388.728118 227.459453 
L 389.378728 230.941285 
L 390.029339 226.585998 
L 390.679949 225.147576 
L 391.330559 227.984987 
L 391.98117 228.993487 
L 392.63178 233.121824 
L 393.28239 227.742426 
L 393.933001 229.189263 
L 394.583611 229.843601 
L 395.234221 226.990818 
L 395.884831 223.010177 
L 396.535442 232.06681 
L 397.186052 232.484062 
L 397.836662 228.559586 
L 398.487273 231.832615 
L 398.487273 231.832615 
" clip-path="url(#p910cb5bb8a)" style="fill: none; stroke: #0000ff; stroke-width: 1.5; stroke-linecap: square"/>
   </g>
   <g id="line2d_28">
    <path d="M 73.832727 276.413544 
L 75.133948 275.937163 
L 75.784558 276.288787 
L 76.435169 276.274004 
L 77.085779 276.389977 
L 77.736389 276.332605 
L 78.386999 276.122876 
L 79.03761 276.307101 
L 79.68822 276.10529 
L 81.640051 276.694956 
L 82.290661 278.67002 
L 82.941272 277.305669 
L 83.591882 277.831877 
L 84.242492 278.147968 
L 84.893103 277.221064 
L 85.543713 278.967645 
L 86.194323 280.05624 
L 86.844934 278.425567 
L 87.495544 279.067178 
L 88.146154 280.231288 
L 89.447375 279.461631 
L 90.097985 281.72136 
L 90.748595 284.751274 
L 91.399206 284.496056 
L 92.049816 286.864375 
L 92.700426 286.391671 
L 93.351037 287.502705 
L 94.001647 287.312358 
L 94.652257 289.202788 
L 95.302868 288.830792 
L 95.953478 288.875317 
L 96.604088 290.271201 
L 97.254698 289.654866 
L 97.905309 291.376457 
L 98.555919 291.662254 
L 99.206529 291.423518 
L 99.85714 291.817146 
L 100.50775 290.095926 
L 101.15836 292.135168 
L 101.808971 292.140675 
L 103.110191 293.425187 
L 103.760802 292.901888 
L 104.411412 291.522953 
L 105.062022 293.048045 
L 105.712633 293.453306 
L 106.363243 295.182633 
L 107.013853 293.540773 
L 107.664463 294.168657 
L 108.315074 292.273082 
L 108.965684 294.117045 
L 109.616294 293.172531 
L 110.266905 295.488 
L 110.917515 293.990891 
L 111.568125 293.493385 
L 112.218736 294.102997 
L 112.869346 291.967694 
L 113.519956 291.98495 
L 114.821177 294.403761 
L 115.471787 293.446688 
L 116.122398 295.206024 
L 116.773008 295.130851 
L 117.423618 292.773415 
L 118.724839 293.912675 
L 119.375449 295.132554 
L 120.026059 294.448482 
L 120.67667 294.509292 
L 121.32728 293.876302 
L 121.97789 294.026646 
L 122.628501 292.242238 
L 123.279111 291.266306 
L 123.929721 292.583307 
L 124.580332 292.658945 
L 125.230942 291.669341 
L 125.881552 291.468637 
L 126.532163 292.517025 
L 127.182773 291.660511 
L 127.833383 293.107176 
L 128.483993 293.218982 
L 129.134604 292.539509 
L 129.785214 292.735879 
L 131.086435 292.648962 
L 131.737045 291.870371 
L 132.387655 291.880751 
L 133.038266 292.158447 
L 133.688876 290.107826 
L 134.339486 287.431062 
L 134.990097 290.889397 
L 135.640707 289.833841 
L 136.291317 289.910052 
L 136.941927 288.681681 
L 137.592538 290.018293 
L 138.243148 289.872637 
L 138.893758 290.854437 
L 140.845589 290.319023 
L 141.4962 291.034492 
L 142.14681 291.008697 
L 142.79742 291.674032 
L 144.098641 288.907518 
L 144.749251 289.331354 
L 145.399862 290.576388 
L 146.050472 287.546882 
L 146.701082 290.053575 
L 147.351692 291.774131 
L 148.652913 290.769004 
L 149.303523 290.063024 
L 149.954134 287.871096 
L 150.604744 290.525785 
L 151.255354 292.100036 
L 151.905965 290.391783 
L 152.556575 289.194809 
L 153.207185 289.628104 
L 153.857796 289.804657 
L 154.508406 290.206551 
L 155.159016 291.215926 
L 155.809627 291.479642 
L 156.460237 287.837091 
L 157.110847 289.22059 
L 157.761457 289.679941 
L 158.412068 290.566402 
L 159.062678 292.051821 
L 159.713288 294.0103 
L 160.363899 291.055253 
L 161.014509 293.980319 
L 161.665119 291.716418 
L 162.31573 290.177892 
L 162.96634 290.073355 
L 163.61695 290.696441 
L 164.267561 288.541293 
L 164.918171 292.553937 
L 165.568781 289.424375 
L 166.219392 290.357892 
L 166.870002 289.790148 
L 167.520612 287.491358 
L 168.171222 289.671726 
L 168.821833 288.432634 
L 169.472443 287.82737 
L 170.123053 289.983722 
L 170.773664 287.846954 
L 171.424274 289.689467 
L 172.074884 289.92929 
L 172.725495 285.628843 
L 173.376105 285.594421 
L 174.026715 284.03584 
L 174.677326 286.180081 
L 175.327936 286.985965 
L 175.978546 285.261759 
L 177.279767 291.156462 
L 177.930377 286.386966 
L 178.580987 290.860567 
L 179.231598 288.317861 
L 179.882208 290.923947 
L 180.532818 290.61496 
L 181.183429 289.75219 
L 181.834039 290.052037 
L 182.484649 289.272544 
L 183.13526 290.721236 
L 183.78587 289.008851 
L 184.43648 291.121505 
L 185.087091 288.844571 
L 185.737701 286.993785 
L 187.038921 288.757821 
L 187.689532 290.373419 
L 188.340142 288.394441 
L 188.990752 288.611819 
L 189.641363 286.918843 
L 190.291973 290.90831 
L 190.942583 289.625365 
L 191.593194 286.172093 
L 192.243804 291.40942 
L 192.894414 288.46583 
L 193.545025 290.224077 
L 194.195635 288.615474 
L 194.846245 290.929195 
L 195.496856 286.607102 
L 196.147466 288.790206 
L 197.448686 292.018915 
L 198.099297 285.543241 
L 198.749907 287.393684 
L 199.400517 284.18647 
L 200.051128 290.268535 
L 200.701738 287.366233 
L 201.352348 288.251444 
L 202.002959 286.393966 
L 203.304179 289.05043 
L 203.95479 288.153337 
L 204.6054 285.023619 
L 205.25601 287.52949 
L 205.906621 288.872016 
L 206.557231 289.026139 
L 207.207841 287.536517 
L 207.858451 286.404432 
L 208.509062 288.532706 
L 209.159672 288.518564 
L 209.810282 289.67028 
L 210.460893 289.088885 
L 211.111503 291.263405 
L 211.762113 290.376863 
L 212.412724 287.354485 
L 213.063334 290.290021 
L 213.713944 291.568527 
L 214.364555 289.677428 
L 215.015165 291.603005 
L 215.665775 290.206443 
L 216.316385 290.709188 
L 216.966996 288.264471 
L 217.617606 291.111717 
L 218.268216 290.363278 
L 218.918827 292.451879 
L 219.569437 289.599306 
L 220.220047 288.336871 
L 220.870658 289.509115 
L 221.521268 289.007698 
L 222.171878 291.498927 
L 222.822489 289.553401 
L 223.473099 289.081511 
L 224.123709 288.033587 
L 224.77432 292.199574 
L 225.42493 288.640135 
L 226.07554 288.009094 
L 226.72615 288.082572 
L 228.027371 292.342858 
L 228.677981 287.892702 
L 229.328592 285.919019 
L 229.979202 282.813936 
L 230.629812 287.187645 
L 231.280423 288.441481 
L 231.931033 289.450135 
L 232.581643 285.929613 
L 233.232254 286.888456 
L 233.882864 290.839321 
L 234.533474 286.197701 
L 235.184085 287.096974 
L 235.834695 285.337257 
L 236.485305 285.511705 
L 237.135915 288.388603 
L 237.786526 286.7082 
L 238.437136 286.612615 
L 239.087746 288.647129 
L 239.738357 287.775126 
L 240.388967 290.081125 
L 241.039577 289.629577 
L 241.690188 291.248161 
L 242.340798 283.233073 
L 242.991408 285.48845 
L 243.642019 285.801518 
L 244.292629 287.621372 
L 244.943239 283.331684 
L 245.59385 283.176159 
L 246.24446 284.967067 
L 246.89507 284.860068 
L 247.54568 285.053477 
L 248.196291 288.638511 
L 248.846901 285.967219 
L 249.497511 287.327647 
L 250.148122 285.815096 
L 250.798732 282.324867 
L 251.449342 283.494645 
L 252.099953 284.243092 
L 252.750563 285.220806 
L 253.401173 284.37649 
L 254.051784 285.555902 
L 254.702394 284.147932 
L 255.353004 284.042814 
L 256.003615 283.415717 
L 256.654225 284.872664 
L 257.304835 284.280866 
L 257.955445 282.556673 
L 258.606056 286.282118 
L 259.256666 282.30334 
L 259.907276 284.625402 
L 261.208497 281.455517 
L 261.859107 282.473571 
L 262.509718 281.666893 
L 263.160328 283.429364 
L 263.810938 286.186829 
L 264.461549 287.056919 
L 265.112159 286.375537 
L 265.762769 285.462026 
L 266.413379 285.258303 
L 267.7146 281.375859 
L 268.36521 279.322304 
L 269.666431 280.767403 
L 270.317041 283.993978 
L 270.967652 278.385658 
L 271.618262 280.309096 
L 272.268872 287.331524 
L 272.919483 282.501873 
L 273.570093 279.213598 
L 274.220703 278.762582 
L 274.871314 280.595767 
L 275.521924 281.492633 
L 276.172534 277.382871 
L 276.823144 280.835915 
L 277.473755 280.627219 
L 278.124365 284.358444 
L 278.774975 279.195591 
L 279.425586 280.156361 
L 280.076196 280.808195 
L 280.726806 281.025595 
L 281.377417 280.817936 
L 282.028027 278.015726 
L 282.678637 286.865924 
L 283.329248 275.421521 
L 283.979858 279.308192 
L 284.630468 278.965555 
L 285.281079 279.327528 
L 285.931689 278.427731 
L 286.582299 283.050651 
L 287.232909 279.639637 
L 287.88352 280.375924 
L 289.18474 282.354322 
L 289.835351 278.66561 
L 290.485961 284.351042 
L 291.136571 282.717918 
L 291.787182 276.166357 
L 292.437792 282.559653 
L 293.088402 277.539531 
L 293.739013 280.750099 
L 294.389623 280.925342 
L 295.040233 284.455564 
L 295.690844 284.361609 
L 296.992064 281.790264 
L 297.642674 280.715957 
L 298.293285 287.003646 
L 298.943895 285.51857 
L 299.594505 281.17062 
L 300.245116 283.394076 
L 300.895726 280.330591 
L 301.546336 279.172606 
L 302.196947 279.947172 
L 302.847557 286.128671 
L 303.498167 284.256524 
L 304.148778 285.193563 
L 304.799388 281.262336 
L 305.449998 283.601013 
L 306.100608 278.390365 
L 306.751219 280.279769 
L 307.401829 279.322632 
L 308.052439 281.390433 
L 308.70305 284.821571 
L 309.35366 281.996447 
L 310.00427 281.741226 
L 310.654881 280.14605 
L 311.305491 280.371615 
L 311.956101 278.629648 
L 312.606712 278.942078 
L 313.257322 279.528901 
L 313.907932 284.922426 
L 314.558543 278.980455 
L 315.209153 280.765118 
L 315.859763 280.012872 
L 316.510373 283.988022 
L 317.160984 277.333703 
L 317.811594 283.171639 
L 318.462204 280.496278 
L 319.112815 280.425398 
L 319.763425 280.573582 
L 320.414035 280.410059 
L 321.064646 281.957708 
L 321.715256 281.977647 
L 322.365866 282.354852 
L 323.016477 282.353995 
L 323.667087 283.370205 
L 324.317697 282.245964 
L 324.968308 280.863985 
L 325.618918 285.675946 
L 326.920138 285.186157 
L 327.570749 282.176755 
L 328.221359 282.755893 
L 328.871969 283.160555 
L 329.52258 281.504378 
L 330.17319 280.481867 
L 330.8238 286.012975 
L 331.474411 281.957417 
L 332.125021 281.93192 
L 332.775631 284.066931 
L 333.426242 282.243328 
L 334.076852 284.065213 
L 334.727462 287.032915 
L 335.378073 285.23766 
L 336.028683 287.779582 
L 336.679293 287.917029 
L 337.329903 287.337276 
L 337.980514 288.363165 
L 338.631124 290.684887 
L 339.281734 289.91389 
L 339.932345 290.520913 
L 340.582955 287.713658 
L 341.233565 288.075226 
L 341.884176 290.396158 
L 342.534786 285.056696 
L 343.185396 285.888663 
L 343.836007 288.918958 
L 344.486617 287.864023 
L 345.137227 289.486722 
L 345.787837 289.278477 
L 346.438448 290.574616 
L 347.089058 293.097798 
L 347.739668 291.013523 
L 348.390279 292.552979 
L 349.040889 294.694097 
L 349.691499 292.038148 
L 350.34211 291.507764 
L 350.99272 288.942587 
L 351.64333 289.037777 
L 352.293941 290.61898 
L 352.944551 291.68592 
L 353.595161 288.503615 
L 354.245772 290.93644 
L 355.546992 289.950522 
L 356.197602 289.202647 
L 356.848213 287.848206 
L 357.498823 290.504391 
L 358.149433 289.481624 
L 358.800044 287.936505 
L 359.450654 288.924646 
L 360.101264 288.859807 
L 360.751875 287.036777 
L 361.402485 288.179233 
L 362.053095 290.302091 
L 362.703706 290.345003 
L 363.354316 291.301439 
L 364.004926 289.600828 
L 365.306147 293.341138 
L 365.956757 293.195079 
L 366.607367 289.632945 
L 367.257978 287.985058 
L 367.908588 287.044471 
L 368.559198 285.733049 
L 369.860419 290.597464 
L 370.511029 288.492168 
L 371.16164 291.176367 
L 371.81225 287.594515 
L 372.46286 289.883883 
L 373.113471 288.846645 
L 373.764081 290.244854 
L 375.065302 286.964175 
L 375.715912 284.700284 
L 376.366522 285.399941 
L 377.017132 288.33441 
L 377.667743 289.272805 
L 378.318353 288.738756 
L 378.968963 284.519489 
L 379.619574 286.927199 
L 380.270184 284.10806 
L 380.920794 287.285471 
L 381.571405 288.539537 
L 382.222015 284.794011 
L 382.872625 286.472914 
L 383.523236 284.892727 
L 384.173846 286.48605 
L 384.824456 286.72102 
L 385.475066 284.980943 
L 386.125677 283.899495 
L 386.776287 284.574165 
L 387.426897 283.956863 
L 388.077508 285.667801 
L 388.728118 284.278293 
L 389.378728 288.121556 
L 390.029339 284.457256 
L 390.679949 283.724835 
L 391.330559 285.739641 
L 391.98117 285.808092 
L 392.63178 290.248565 
L 393.28239 285.633393 
L 393.933001 287.432975 
L 394.583611 286.03073 
L 395.234221 285.503293 
L 395.884831 282.327892 
L 396.535442 286.832068 
L 397.186052 287.971052 
L 397.836662 286.144788 
L 398.487273 289.476229 
L 398.487273 289.476229 
" clip-path="url(#p910cb5bb8a)" style="fill: none; stroke-dasharray: 9.6,2.4,1.5,2.4; stroke-dashoffset: 0; stroke: #008000; stroke-width: 1.5"/>
   </g>
   <g id="line2d_29">
    <path d="M 73.832727 274.771462 
L 75.133948 274.642873 
L 75.784558 274.281217 
L 76.435169 274.494571 
L 77.085779 274.305255 
L 78.386999 274.488741 
L 79.03761 274.129754 
L 79.68822 274.500459 
L 80.33883 274.45666 
L 80.989441 274.290883 
L 81.640051 273.629806 
L 82.290661 271.498602 
L 82.941272 272.950679 
L 83.591882 272.22154 
L 84.242492 271.981062 
L 84.893103 272.828828 
L 85.543713 270.622493 
L 86.194323 268.880442 
L 86.844934 271.093841 
L 88.146154 268.765689 
L 89.447375 269.561498 
L 90.097985 266.834955 
L 90.748595 261.615943 
L 91.399206 262.31514 
L 92.049816 257.745899 
L 92.700426 257.031554 
L 93.351037 255.329841 
L 94.001647 254.898367 
L 94.652257 250.235927 
L 95.302868 250.238968 
L 96.604088 246.360464 
L 97.254698 245.437767 
L 97.905309 243.806725 
L 98.555919 237.429239 
L 99.206529 239.002822 
L 99.85714 239.747637 
L 100.50775 242.622768 
L 101.808971 236.773602 
L 102.459581 234.588456 
L 103.110191 235.954711 
L 103.760802 233.85279 
L 104.411412 238.67674 
L 105.062022 234.502972 
L 105.712633 232.144288 
L 106.363243 228.929532 
L 107.013853 228.160777 
L 107.664463 229.164713 
L 108.315074 226.730404 
L 108.965684 223.75477 
L 109.616294 224.803896 
L 110.266905 218.120506 
L 110.917515 223.859757 
L 111.568125 225.544899 
L 112.218736 223.307524 
L 112.869346 234.5272 
L 113.519956 234.530109 
L 114.170567 228.243534 
L 114.821177 220.633035 
L 115.471787 219.86745 
L 116.122398 216.450677 
L 116.773008 217.778719 
L 118.074228 218.144124 
L 118.724839 221.241454 
L 119.375449 212.894304 
L 120.026059 214.280441 
L 120.67667 212.669485 
L 121.32728 210.752759 
L 121.97789 216.082769 
L 122.628501 211.542542 
L 123.279111 200.336774 
L 123.929721 202.155756 
L 124.580332 203.631899 
L 125.230942 201.091197 
L 125.881552 197.734066 
L 126.532163 199.607447 
L 127.182773 206.30904 
L 127.833383 198.565237 
L 128.483993 204.760997 
L 129.134604 200.710466 
L 129.785214 201.616675 
L 130.435824 201.930044 
L 131.086435 198.289356 
L 131.737045 208.803433 
L 132.387655 200.563308 
L 133.038266 200.47697 
L 133.688876 198.984714 
L 134.339486 192.761555 
L 134.990097 201.403618 
L 135.640707 199.911776 
L 136.291317 195.220405 
L 136.941927 195.88689 
L 137.592538 202.031087 
L 138.243148 195.456451 
L 138.893758 201.436345 
L 139.544369 197.589971 
L 140.194979 202.272506 
L 140.845589 197.323854 
L 141.4962 200.799578 
L 142.14681 195.126363 
L 142.79742 203.082251 
L 143.448031 197.612941 
L 144.098641 190.888338 
L 144.749251 194.510903 
L 145.399862 194.788713 
L 146.050472 187.503556 
L 146.701082 191.731384 
L 147.351692 192.955519 
L 148.652913 199.304684 
L 149.954134 187.538222 
L 151.255354 200.027004 
L 151.905965 188.836097 
L 152.556575 189.176566 
L 153.207185 188.804525 
L 153.857796 192.832294 
L 154.508406 192.022965 
L 155.159016 194.883011 
L 155.809627 196.853219 
L 156.460237 188.920685 
L 157.110847 192.635108 
L 157.761457 188.676179 
L 158.412068 191.814356 
L 159.062678 188.476214 
L 159.713288 196.480769 
L 160.363899 188.368493 
L 161.014509 190.589601 
L 162.31573 186.096827 
L 162.96634 187.53648 
L 163.61695 185.910383 
L 164.267561 180.361002 
L 164.918171 188.305135 
L 165.568781 186.726931 
L 166.219392 182.788074 
L 166.870002 183.273313 
L 167.520612 181.110779 
L 168.171222 188.236955 
L 168.821833 182.972683 
L 169.472443 180.140016 
L 170.123053 186.524912 
L 170.773664 177.688112 
L 171.424274 180.870438 
L 172.074884 182.713026 
L 172.725495 178.427693 
L 174.026715 173.627538 
L 174.677326 176.210194 
L 175.327936 176.294169 
L 175.978546 174.124693 
L 176.629156 177.39674 
L 177.279767 184.766266 
L 177.930377 177.454213 
L 178.580987 186.962075 
L 179.231598 185.397883 
L 179.882208 185.167941 
L 180.532818 185.865018 
L 181.183429 192.815307 
L 181.834039 181.976119 
L 182.484649 180.92507 
L 183.13526 182.49866 
L 183.78587 180.810273 
L 184.43648 182.886706 
L 185.087091 183.48742 
L 185.737701 176.726246 
L 186.388311 179.56519 
L 187.038921 179.258852 
L 187.689532 183.365913 
L 188.340142 178.53251 
L 188.990752 178.768517 
L 189.641363 177.143413 
L 190.291973 181.369973 
L 190.942583 179.506994 
L 191.593194 172.415398 
L 192.243804 181.183665 
L 192.894414 176.096453 
L 193.545025 177.253136 
L 194.195635 177.979584 
L 194.846245 177.011984 
L 195.496856 166.80489 
L 196.147466 172.003538 
L 196.798076 172.067687 
L 197.448686 177.35353 
L 198.099297 167.987434 
L 198.749907 166.484766 
L 199.400517 166.305557 
L 200.051128 173.535167 
L 200.701738 174.038638 
L 201.352348 169.99753 
L 202.002959 167.411123 
L 202.653569 171.750706 
L 203.304179 172.869844 
L 203.95479 174.844145 
L 204.6054 165.915287 
L 205.25601 172.409218 
L 205.906621 166.68164 
L 206.557231 169.075799 
L 207.207841 163.811705 
L 207.858451 166.207304 
L 208.509062 169.803161 
L 209.159672 166.590584 
L 209.810282 171.991769 
L 210.460893 174.496314 
L 211.111503 172.325926 
L 211.762113 172.518664 
L 212.412724 171.237626 
L 213.063334 175.896275 
L 213.713944 175.320656 
L 214.364555 173.89136 
L 215.015165 171.987958 
L 215.665775 172.878136 
L 216.316385 170.846069 
L 216.966996 166.691584 
L 217.617606 170.160561 
L 218.268216 175.010391 
L 218.918827 177.241621 
L 219.569437 171.462654 
L 220.220047 169.821209 
L 220.870658 174.520746 
L 221.521268 171.111149 
L 222.171878 175.015621 
L 222.822489 170.356888 
L 223.473099 168.268034 
L 224.123709 169.959194 
L 224.77432 177.549837 
L 225.42493 168.681865 
L 226.72615 167.111922 
L 227.376761 170.886619 
L 228.027371 173.783204 
L 228.677981 169.627718 
L 229.328592 168.472248 
L 229.979202 162.883522 
L 230.629812 166.957103 
L 231.931033 179.251547 
L 232.581643 168.032832 
L 233.232254 175.911642 
L 233.882864 176.685638 
L 234.533474 169.038882 
L 235.184085 165.882707 
L 235.834695 168.657327 
L 236.485305 169.211153 
L 237.135915 171.04938 
L 237.786526 176.83839 
L 238.437136 173.566359 
L 239.087746 175.16853 
L 239.738357 169.36184 
L 240.388967 173.913887 
L 241.039577 175.890705 
L 241.690188 175.34446 
L 242.340798 164.35929 
L 242.991408 168.541014 
L 243.642019 165.2075 
L 244.292629 167.549026 
L 244.943239 162.055954 
L 245.59385 164.267941 
L 246.24446 170.796275 
L 246.89507 169.920086 
L 247.54568 169.343561 
L 248.196291 173.425624 
L 248.846901 173.038442 
L 249.497511 172.857167 
L 250.148122 169.645616 
L 250.798732 165.47571 
L 251.449342 166.863233 
L 252.099953 167.259537 
L 252.750563 170.24415 
L 253.401173 168.803777 
L 254.051784 169.367744 
L 254.702394 166.226472 
L 255.353004 167.874401 
L 256.003615 165.872209 
L 256.654225 167.957498 
L 257.304835 170.914975 
L 257.955445 170.931559 
L 258.606056 174.066185 
L 259.256666 173.71834 
L 259.907276 171.36016 
L 260.557887 167.748665 
L 261.208497 166.799739 
L 261.859107 166.343196 
L 262.509718 166.793446 
L 263.160328 165.931868 
L 263.810938 172.654964 
L 264.461549 174.751725 
L 265.112159 173.820579 
L 265.762769 171.31533 
L 266.413379 166.742346 
L 267.06399 165.751556 
L 267.7146 163.601122 
L 268.36521 160.370808 
L 269.015821 161.170526 
L 269.666431 161.683458 
L 270.317041 165.937097 
L 270.967652 156.411326 
L 271.618262 159.524381 
L 272.268872 166.368119 
L 272.919483 166.603799 
L 273.570093 159.0825 
L 274.220703 158.892103 
L 274.871314 161.725149 
L 275.521924 162.366574 
L 276.172534 154.050671 
L 276.823144 162.412239 
L 277.473755 161.023648 
L 278.124365 165.619402 
L 279.425586 154.856686 
L 280.076196 157.871189 
L 280.726806 159.16093 
L 281.377417 157.109631 
L 282.028027 151.606513 
L 282.678637 163.550963 
L 283.329248 149.220943 
L 283.979858 156.583675 
L 284.630468 156.720776 
L 285.931689 155.314218 
L 286.582299 163.122726 
L 287.232909 154.914951 
L 287.88352 155.954166 
L 288.53413 160.315428 
L 289.18474 157.54087 
L 289.835351 155.997947 
L 290.485961 162.749483 
L 291.136571 160.652981 
L 291.787182 150.906251 
L 292.437792 161.17563 
L 293.088402 151.201159 
L 293.739013 156.749747 
L 294.389623 156.513951 
L 295.040233 160.464071 
L 295.690844 166.708102 
L 296.341454 160.320539 
L 296.992064 162.788971 
L 297.642674 161.602282 
L 298.293285 168.296126 
L 298.943895 162.493445 
L 299.594505 158.422511 
L 300.245116 160.40435 
L 300.895726 154.950389 
L 301.546336 153.161495 
L 302.196947 154.681243 
L 302.847557 168.599706 
L 303.498167 162.586584 
L 304.148778 163.657886 
L 304.799388 157.990561 
L 305.449998 162.17252 
L 306.100608 152.535292 
L 306.751219 159.76786 
L 307.401829 154.781008 
L 308.052439 159.88293 
L 308.70305 161.528245 
L 309.35366 159.556041 
L 310.00427 159.189068 
L 310.654881 153.239496 
L 311.305491 155.276498 
L 311.956101 155.266692 
L 312.606712 156.437288 
L 313.257322 158.666944 
L 313.907932 163.615514 
L 314.558543 156.045487 
L 315.209153 158.833258 
L 315.859763 157.47057 
L 316.510373 162.861123 
L 317.160984 157.353257 
L 317.811594 161.300672 
L 318.462204 160.486694 
L 319.112815 162.602032 
L 319.763425 159.379915 
L 320.414035 160.767458 
L 321.064646 165.536901 
L 321.715256 165.083633 
L 322.365866 165.712715 
L 323.016477 167.284523 
L 323.667087 166.412377 
L 324.317697 167.585587 
L 324.968308 167.890954 
L 325.618918 171.754314 
L 326.269528 170.86411 
L 326.920138 171.793936 
L 327.570749 164.936705 
L 328.871969 168.737407 
L 329.52258 165.172296 
L 330.17319 164.806352 
L 330.8238 173.543462 
L 331.474411 167.471218 
L 332.125021 165.264458 
L 332.775631 169.933731 
L 333.426242 168.964289 
L 334.076852 170.039647 
L 334.727462 173.693311 
L 335.378073 174.021097 
L 336.028683 174.987472 
L 336.679293 174.330776 
L 337.329903 171.383643 
L 337.980514 175.788086 
L 338.631124 182.795265 
L 339.281734 177.626584 
L 339.932345 178.134172 
L 340.582955 168.445522 
L 341.233565 172.153231 
L 341.884176 173.188597 
L 342.534786 165.843218 
L 343.185396 164.137886 
L 343.836007 172.668533 
L 344.486617 168.869688 
L 345.137227 170.953915 
L 345.787837 171.516627 
L 346.438448 174.499151 
L 347.089058 179.912872 
L 347.739668 176.723503 
L 348.390279 178.868334 
L 349.040889 183.530153 
L 349.691499 176.289364 
L 350.34211 179.876014 
L 350.99272 173.191386 
L 351.64333 170.831621 
L 352.944551 179.31214 
L 353.595161 171.415629 
L 354.245772 174.782329 
L 354.896382 175.102555 
L 355.546992 173.161668 
L 356.197602 171.78341 
L 356.848213 173.337936 
L 357.498823 178.320206 
L 358.149433 176.518527 
L 358.800044 172.464427 
L 359.450654 174.979849 
L 360.101264 174.119458 
L 360.751875 171.215503 
L 361.402485 170.889724 
L 362.053095 173.867332 
L 362.703706 170.976362 
L 363.354316 181.269546 
L 364.004926 178.035464 
L 364.655537 177.34917 
L 365.306147 181.519966 
L 365.956757 179.295984 
L 366.607367 174.071342 
L 367.257978 171.728204 
L 367.908588 170.934128 
L 368.559198 162.465312 
L 369.209809 171.874782 
L 369.860419 174.521848 
L 370.511029 170.433133 
L 371.16164 171.974051 
L 371.81225 168.299581 
L 372.46286 174.967808 
L 373.113471 171.192538 
L 373.764081 173.381143 
L 374.414691 172.496584 
L 375.065302 172.775398 
L 375.715912 165.04029 
L 376.366522 165.404331 
L 377.017132 169.14395 
L 377.667743 167.449569 
L 378.318353 173.263366 
L 378.968963 163.799257 
L 379.619574 168.307964 
L 380.270184 164.053798 
L 380.920794 167.749222 
L 381.571405 166.418844 
L 382.222015 161.673934 
L 382.872625 167.265988 
L 383.523236 160.217614 
L 384.173846 171.318484 
L 384.824456 175.018962 
L 385.475066 171.647769 
L 386.125677 169.849493 
L 386.776287 172.825052 
L 387.426897 167.578525 
L 388.077508 172.456471 
L 388.728118 170.640614 
L 389.378728 173.761014 
L 390.029339 168.71474 
L 390.679949 166.570316 
L 391.330559 170.230333 
L 391.98117 172.178883 
L 392.63178 175.995082 
L 393.28239 169.851459 
L 393.933001 170.945552 
L 394.583611 173.656472 
L 395.884831 163.692461 
L 396.535442 177.301553 
L 397.186052 176.997072 
L 397.836662 170.974384 
L 398.487273 174.189001 
L 398.487273 174.189001 
" clip-path="url(#p910cb5bb8a)" style="fill: none; stroke-dasharray: 9.6,2.4,1.5,2.4; stroke-dashoffset: 0; stroke: #008000; stroke-width: 1.5"/>
   </g>
   <g id="line2d_30">
    <path d="M 73.832727 273.583714 
L 74.483338 272.812068 
L 75.133948 270.304217 
L 75.784558 260.658635 
L 76.435169 269.821938 
L 77.085779 261.912561 
L 77.736389 266.349528 
L 78.386999 267.506998 
L 79.03761 263.745221 
L 79.68822 269.725482 
L 80.33883 267.796365 
L 80.989441 263.938133 
L 81.640051 253.617361 
L 82.290661 214.552755 
L 82.941272 243.682412 
L 83.591882 232.20417 
L 84.242492 223.90897 
L 84.893103 246.768998 
L 86.194323 201.241853 
L 86.844934 234.422653 
L 87.495544 218.410988 
L 88.146154 177.513722 
L 88.796764 187.641583 
L 89.447375 208.476039 
L 90.097985 169.122067 
L 90.748595 152.91749 
L 91.399206 147.901787 
L 92.049816 150.506094 
L 92.700426 154.074959 
L 93.351037 146.165583 
L 94.001647 151.470652 
L 94.652257 143.947099 
L 95.302868 141.728615 
L 95.953478 153.496224 
L 96.604088 146.262038 
L 97.254698 146.647862 
L 98.555919 126.102773 
L 99.206529 122.437452 
L 99.85714 117.904029 
L 100.50775 126.488596 
L 101.15836 142.596717 
L 101.808971 131.69721 
L 102.459581 127.356699 
L 103.110191 116.167824 
L 103.760802 118.965043 
L 104.411412 143.561276 
L 105.062022 116.843015 
L 105.712633 123.209099 
L 107.013853 111.634401 
L 107.664463 119.543778 
L 108.315074 131.407843 
L 108.965684 120.026057 
L 109.616294 130.250373 
L 110.266905 113.852884 
L 110.917515 112.11668 
L 111.568125 120.701247 
L 112.218736 117.325294 
L 112.869346 101.313628 
L 113.519956 134.108606 
L 114.170567 113.563517 
L 114.821177 123.691378 
L 115.471787 115.299722 
L 116.122398 96.780205 
L 116.773008 118.386308 
L 117.423618 124.848847 
L 118.074228 130.057461 
L 118.724839 116.167824 
L 119.375449 112.888326 
L 120.026059 118.868587 
L 120.67667 121.762261 
L 121.32728 109.030094 
L 121.97789 112.79187 
L 122.628501 123.498466 
L 123.279111 106.618698 
L 123.929721 99.866791 
L 124.580332 102.471098 
L 125.230942 97.166028 
L 125.881552 90.607033 
L 126.532163 103.242745 
L 127.182773 118.868587 
L 127.833383 112.213136 
L 128.483993 122.24454 
L 129.134604 117.325294 
L 129.785214 100.156159 
L 130.435824 122.148085 
L 131.086435 91.185768 
L 131.737045 100.927805 
L 132.387655 120.122512 
L 133.038266 111.441489 
L 133.688876 108.64427 
L 134.339486 120.894159 
L 134.990097 124.077201 
L 135.640707 123.209099 
L 136.291317 109.319461 
L 136.941927 121.472894 
L 138.243148 107.872624 
L 138.893758 124.752392 
L 139.544369 103.435656 
L 140.194979 113.659973 
L 140.845589 108.065536 
L 141.4962 119.833145 
L 142.14681 111.441489 
L 142.79742 98.034131 
L 143.448031 115.396178 
L 144.098641 112.598959 
L 144.749251 118.000485 
L 145.399862 121.56935 
L 146.701082 103.435656 
L 147.351692 107.679712 
L 148.002303 116.939471 
L 148.652913 112.984782 
L 149.303523 119.543778 
L 149.954134 94.272354 
L 150.604744 109.12655 
L 151.255354 113.756429 
L 151.905965 114.913898 
L 152.556575 105.65414 
L 153.207185 85.012596 
L 153.857796 110.380475 
L 154.508406 99.577424 
L 155.159016 121.665805 
L 155.809627 118.000485 
L 157.110847 109.608829 
L 157.761457 96.683749 
L 158.412068 103.242745 
L 159.062678 77.296131 
L 159.713288 99.095145 
L 160.363899 102.374642 
L 161.014509 92.921973 
L 161.665119 88.195638 
L 162.31573 92.05387 
L 162.96634 104.207303 
L 163.61695 98.419954 
L 164.267561 106.425787 
L 164.918171 88.002726 
L 165.568781 99.963247 
L 166.219392 97.937675 
L 166.870002 91.475135 
L 167.520612 100.252615 
L 168.171222 101.795908 
L 168.821833 91.571591 
L 169.472443 101.602996 
L 170.123053 98.227042 
L 170.773664 105.461229 
L 171.424274 87.616903 
L 172.074884 98.709321 
L 172.725495 105.075405 
L 173.376105 80.093349 
L 174.026715 109.80174 
L 174.677326 89.160196 
L 175.327936 91.571591 
L 175.978546 90.799945 
L 176.629156 93.307796 
L 177.279767 100.541982 
L 177.930377 102.374642 
L 178.580987 82.408289 
L 179.231598 116.650103 
L 179.882208 107.197433 
L 180.532818 79.803982 
L 181.183429 98.034131 
L 181.834039 95.815647 
L 182.484649 103.435656 
L 183.13526 102.374642 
L 183.78587 81.347275 
L 184.43648 71.701693 
L 185.087091 103.435656 
L 185.737701 78.935879 
L 186.388311 105.847052 
L 187.038921 92.825517 
L 187.689532 94.36881 
L 188.340142 102.760466 
L 188.990752 96.490838 
L 189.641363 104.689582 
L 190.291973 89.546019 
L 190.942583 97.648308 
L 191.593194 96.008559 
L 192.243804 89.835386 
L 192.894414 85.784242 
L 193.545025 84.530317 
L 194.195635 92.150326 
L 194.846245 82.697656 
L 195.496856 82.6012 
L 196.147466 92.825517 
L 196.798076 88.967284 
L 197.448686 92.150326 
L 198.099297 86.845256 
L 198.749907 79.514614 
L 199.400517 79.514614 
L 200.051128 88.002726 
L 200.701738 79.707526 
L 201.352348 89.642475 
L 202.002959 81.443731 
L 202.653569 83.179935 
L 203.304179 82.987024 
L 203.95479 102.471098 
L 204.6054 89.256652 
L 205.25601 90.703489 
L 205.906621 78.839424 
L 206.557231 86.7488 
L 207.207841 88.195638 
L 207.858451 95.236912 
L 208.509062 85.109052 
L 209.159672 82.504745 
L 209.810282 90.22121 
L 210.460893 94.36881 
L 211.111503 90.607033 
L 211.762113 90.22121 
L 212.412724 92.246782 
L 213.063334 90.799945 
L 213.713944 86.170066 
L 214.364555 88.388549 
L 215.015165 84.626772 
L 215.665775 87.327535 
L 216.316385 95.52628 
L 216.966996 79.996893 
L 217.617606 79.225247 
L 218.268216 92.921973 
L 218.918827 86.941712 
L 219.569437 96.20147 
L 220.220047 96.490838 
L 220.870658 99.095145 
L 221.521268 82.022465 
L 222.171878 77.77841 
L 222.822489 82.215377 
L 224.123709 89.06374 
L 224.77432 94.658177 
L 225.42493 84.723228 
L 226.07554 91.37868 
L 226.72615 92.343238 
L 227.376761 89.353107 
L 228.027371 84.433861 
L 228.677981 97.262484 
L 229.328592 91.571591 
L 229.979202 84.723228 
L 230.629812 87.038168 
L 231.280423 93.018428 
L 231.931033 81.829554 
L 232.581643 90.414121 
L 233.232254 83.276391 
L 233.882864 90.703489 
L 234.533474 87.231079 
L 235.184085 85.977154 
L 235.834695 100.34907 
L 236.485305 82.504745 
L 237.135915 73.534354 
L 238.437136 99.866791 
L 239.087746 85.591331 
L 239.738357 89.738931 
L 240.388967 89.06374 
L 241.039577 90.414121 
L 241.690188 81.347275 
L 242.340798 96.490838 
L 242.991408 96.008559 
L 243.642019 81.92601 
L 244.292629 87.231079 
L 244.943239 89.449563 
L 245.59385 86.07361 
L 246.24446 93.500707 
L 246.89507 92.921973 
L 247.54568 97.841219 
L 248.196291 94.658177 
L 248.846901 90.703489 
L 249.497511 92.439694 
L 250.148122 86.07361 
L 250.798732 94.947545 
L 251.449342 94.079442 
L 252.099953 85.205507 
L 252.750563 93.018428 
L 253.401173 86.845256 
L 254.051784 92.825517 
L 254.702394 86.845256 
L 255.353004 82.215377 
L 256.003615 81.829554 
L 256.654225 97.069573 
L 257.304835 100.541982 
L 257.955445 101.410084 
L 258.606056 99.480968 
L 259.256666 107.390345 
L 259.907276 96.008559 
L 260.557887 91.089312 
L 261.208497 94.272354 
L 261.859107 94.851089 
L 262.509718 100.541982 
L 263.160328 102.567554 
L 263.810938 96.105014 
L 264.461549 99.480968 
L 265.112159 97.166028 
L 265.762769 101.988819 
L 266.413379 96.20147 
L 267.06399 103.242745 
L 267.7146 89.06374 
L 268.36521 93.597163 
L 269.015821 93.597163 
L 269.666431 100.252615 
L 270.317041 98.227042 
L 270.967652 90.124754 
L 272.268872 91.668047 
L 272.919483 105.750596 
L 273.570093 98.709321 
L 274.220703 100.252615 
L 274.871314 96.683749 
L 275.521924 100.445526 
L 276.172534 84.91614 
L 276.823144 92.825517 
L 277.473755 95.333368 
L 278.124365 89.642475 
L 278.774975 93.886531 
L 279.425586 67.747005 
L 280.076196 86.362977 
L 280.726806 91.089312 
L 281.377417 91.475135 
L 282.028027 84.819684 
L 282.678637 98.709321 
L 283.329248 98.034131 
L 283.979858 89.835386 
L 284.630468 98.51641 
L 285.281079 93.018428 
L 285.931689 93.307796 
L 286.582299 85.109052 
L 287.232909 81.347275 
L 287.88352 87.423991 
L 288.53413 90.028298 
L 289.18474 94.561721 
L 289.835351 90.124754 
L 290.485961 94.272354 
L 291.136571 82.6012 
L 291.787182 88.388549 
L 292.437792 91.860959 
L 293.088402 80.093349 
L 293.739013 82.697656 
L 294.389623 87.231079 
L 295.040233 86.652345 
L 295.690844 88.292093 
L 296.341454 81.636642 
L 296.992064 97.648308 
L 297.642674 102.567554 
L 298.293285 96.490838 
L 298.943895 79.032335 
L 299.594505 82.987024 
L 300.245116 92.536149 
L 300.895726 85.494875 
L 301.546336 92.825517 
L 302.196947 89.642475 
L 302.847557 88.195638 
L 303.498167 83.276391 
L 304.148778 88.774373 
L 304.799388 88.292093 
L 305.449998 83.565759 
L 306.100608 79.900438 
L 306.751219 93.886531 
L 307.401829 76.717396 
L 308.70305 93.114884 
L 309.35366 93.982987 
L 310.00427 92.632605 
L 310.654881 85.109052 
L 311.305491 96.008559 
L 311.956101 94.851089 
L 312.606712 97.744763 
L 313.257322 93.500707 
L 313.907932 96.394382 
L 314.558543 98.419954 
L 315.209153 91.282224 
L 315.859763 91.089312 
L 316.510373 92.05387 
L 317.160984 89.160196 
L 317.811594 91.37868 
L 318.462204 100.831349 
L 319.112815 97.648308 
L 319.763425 88.774373 
L 320.414035 91.764503 
L 321.064646 96.587294 
L 321.715256 95.52628 
L 322.365866 103.917936 
L 323.016477 94.272354 
L 323.667087 103.242745 
L 324.317697 100.156159 
L 324.968308 101.699452 
L 325.618918 93.114884 
L 326.269528 101.988819 
L 326.920138 102.856922 
L 327.570749 95.719191 
L 328.221359 98.709321 
L 328.871969 95.622735 
L 329.52258 96.876661 
L 330.17319 104.110847 
L 330.8238 92.150326 
L 331.474411 91.185768 
L 332.125021 91.185768 
L 332.775631 87.231079 
L 333.426242 101.024261 
L 334.727462 104.978949 
L 335.378073 104.882494 
L 336.028683 81.154363 
L 336.679293 103.049833 
L 337.329903 95.719191 
L 337.980514 100.541982 
L 338.631124 102.66401 
L 339.281734 83.179935 
L 339.932345 88.388549 
L 340.582955 92.05387 
L 341.233565 93.018428 
L 341.884176 83.469303 
L 342.534786 88.870828 
L 343.185396 90.028298 
L 343.836007 101.217173 
L 345.137227 79.996893 
L 345.787837 89.449563 
L 346.438448 91.282224 
L 347.089058 92.536149 
L 347.739668 86.652345 
L 349.040889 76.62094 
L 349.691499 94.36881 
L 350.34211 96.973117 
L 350.99272 91.571591 
L 351.64333 82.022465 
L 352.293941 80.672084 
L 352.944551 87.520447 
L 353.595161 84.433861 
L 354.245772 89.449563 
L 354.896382 95.912103 
L 355.546992 89.642475 
L 356.197602 93.404252 
L 356.848213 84.91614 
L 357.498823 97.551852 
L 358.149433 95.333368 
L 358.800044 89.160196 
L 359.450654 85.398419 
L 360.101264 92.05387 
L 360.751875 78.935879 
L 361.402485 96.490838 
L 362.053095 94.754633 
L 362.703706 88.388549 
L 363.354316 94.175898 
L 364.004926 105.364773 
L 364.655537 88.195638 
L 365.956757 99.866791 
L 366.607367 94.754633 
L 367.257978 98.998689 
L 367.908588 87.809814 
L 368.559198 83.372847 
L 369.209809 79.803982 
L 369.860419 53.568 
L 370.511029 67.650549 
L 371.16164 74.402456 
L 371.81225 70.544223 
L 372.46286 87.616903 
L 373.113471 71.31587 
L 373.764081 72.666251 
L 374.414691 83.469303 
L 375.065302 73.14853 
L 375.715912 75.752837 
L 376.366522 89.546019 
L 377.017132 70.930047 
L 377.667743 95.333368 
L 378.318353 86.170066 
L 378.968963 78.935879 
L 379.619574 75.559926 
L 380.270184 88.002726 
L 380.920794 85.301963 
L 381.571405 90.799945 
L 382.222015 85.784242 
L 382.872625 83.951582 
L 383.523236 73.052075 
L 384.173846 83.083479 
L 384.824456 88.292093 
L 385.475066 101.602996 
L 386.125677 100.34907 
L 386.776287 94.272354 
L 387.426897 92.246782 
L 388.077508 92.439694 
L 388.728118 99.480968 
L 389.378728 95.815647 
L 390.029339 87.713359 
L 390.679949 86.266521 
L 391.330559 88.099182 
L 391.98117 98.805777 
L 392.63178 92.632605 
L 393.28239 85.109052 
L 393.933001 82.022465 
L 394.583611 94.272354 
L 395.234221 85.880698 
L 395.884831 99.866791 
L 396.535442 90.799945 
L 397.186052 99.963247 
L 397.836662 97.841219 
L 398.487273 93.597163 
L 398.487273 93.597163 
" clip-path="url(#p910cb5bb8a)" style="fill: none; stroke: #ff0000; stroke-width: 1.5; stroke-linecap: square"/>
   </g>
   <g id="patch_3">
    <path d="M 57.6 307.584 
L 57.6 41.472 
" style="fill: none; stroke: #000000; stroke-width: 0.8; stroke-linejoin: miter; stroke-linecap: square"/>
   </g>
   <g id="patch_4">
    <path d="M 414.72 307.584 
L 414.72 41.472 
" style="fill: none; stroke: #000000; stroke-width: 0.8; stroke-linejoin: miter; stroke-linecap: square"/>
   </g>
   <g id="patch_5">
    <path d="M 57.6 307.584 
L 414.72 307.584 
" style="fill: none; stroke: #000000; stroke-width: 0.8; stroke-linejoin: miter; stroke-linecap: square"/>
   </g>
   <g id="patch_6">
    <path d="M 57.6 41.472 
L 414.72 41.472 
" style="fill: none; stroke: #000000; stroke-width: 0.8; stroke-linejoin: miter; stroke-linecap: square"/>
   </g>
   <g id="text_16">
    <!-- Population's average and best fitness -->
    <g transform="translate(123.529687 35.472) scale(0.12 -0.12)">
     <defs>
      <path id="DejaVuSans-50" d="M 1259 4147 
L 1259 2394 
L 2053 2394 
Q 2494 2394 2734 2622 
Q 2975 2850 2975 3272 
Q 2975 3691 2734 3919 
Q 2494 4147 2053 4147 
L 1259 4147 
z
M 628 4666 
L 2053 4666 
Q 2838 4666 3239 4311 
Q 3641 3956 3641 3272 
Q 3641 2581 3239 2228 
Q 2838 1875 2053 1875 
L 1259 1875 
L 1259 0 
L 628 0 
L 628 4666 
z
" transform="scale(0.015625)"/>
      <path id="DejaVuSans-70" d="M 1159 525 
L 1159 -1331 
L 581 -1331 
L 581 3500 
L 1159 3500 
L 1159 2969 
Q 1341 3281 1617 3432 
Q 1894 3584 2278 3584 
Q 2916 3584 3314 3078 
Q 3713 2572 3713 1747 
Q 3713 922 3314 415 
Q 2916 -91 2278 -91 
Q 1894 -91 1617 61 
Q 1341 213 1159 525 
z
M 3116 1747 
Q 3116 2381 2855 2742 
Q 2594 3103 2138 3103 
Q 1681 3103 1420 2742 
Q 1159 2381 1159 1747 
Q 1159 1113 1420 752 
Q 1681 391 2138 391 
Q 2594 391 2855 752 
Q 3116 1113 3116 1747 
z
" transform="scale(0.015625)"/>
      <path id="DejaVuSans-75" d="M 544 1381 
L 544 3500 
L 1119 3500 
L 1119 1403 
Q 1119 906 1312 657 
Q 1506 409 1894 409 
Q 2359 409 2629 706 
Q 2900 1003 2900 1516 
L 2900 3500 
L 3475 3500 
L 3475 0 
L 2900 0 
L 2900 538 
Q 2691 219 2414 64 
Q 2138 -91 1772 -91 
Q 1169 -91 856 284 
Q 544 659 544 1381 
z
M 1991 3584 
L 1991 3584 
z
" transform="scale(0.015625)"/>
      <path id="DejaVuSans-6c" d="M 603 4863 
L 1178 4863 
L 1178 0 
L 603 0 
L 603 4863 
z
" transform="scale(0.015625)"/>
      <path id="DejaVuSans-27" d="M 1147 4666 
L 1147 2931 
L 616 2931 
L 616 4666 
L 1147 4666 
z
" transform="scale(0.015625)"/>
      <path id="DejaVuSans-20" transform="scale(0.015625)"/>
      <path id="DejaVuSans-76" d="M 191 3500 
L 800 3500 
L 1894 563 
L 2988 3500 
L 3597 3500 
L 2284 0 
L 1503 0 
L 191 3500 
z
" transform="scale(0.015625)"/>
      <path id="DejaVuSans-67" d="M 2906 1791 
Q 2906 2416 2648 2759 
Q 2391 3103 1925 3103 
Q 1463 3103 1205 2759 
Q 947 2416 947 1791 
Q 947 1169 1205 825 
Q 1463 481 1925 481 
Q 2391 481 2648 825 
Q 2906 1169 2906 1791 
z
M 3481 434 
Q 3481 -459 3084 -895 
Q 2688 -1331 1869 -1331 
Q 1566 -1331 1297 -1286 
Q 1028 -1241 775 -1147 
L 775 -588 
Q 1028 -725 1275 -790 
Q 1522 -856 1778 -856 
Q 2344 -856 2625 -561 
Q 2906 -266 2906 331 
L 2906 616 
Q 2728 306 2450 153 
Q 2172 0 1784 0 
Q 1141 0 747 490 
Q 353 981 353 1791 
Q 353 2603 747 3093 
Q 1141 3584 1784 3584 
Q 2172 3584 2450 3431 
Q 2728 3278 2906 2969 
L 2906 3500 
L 3481 3500 
L 3481 434 
z
" transform="scale(0.015625)"/>
      <path id="DejaVuSans-64" d="M 2906 2969 
L 2906 4863 
L 3481 4863 
L 3481 0 
L 2906 0 
L 2906 525 
Q 2725 213 2448 61 
Q 2172 -91 1784 -91 
Q 1150 -91 751 415 
Q 353 922 353 1747 
Q 353 2572 751 3078 
Q 1150 3584 1784 3584 
Q 2172 3584 2448 3432 
Q 2725 3281 2906 2969 
z
M 947 1747 
Q 947 1113 1208 752 
Q 1469 391 1925 391 
Q 2381 391 2643 752 
Q 2906 1113 2906 1747 
Q 2906 2381 2643 2742 
Q 2381 3103 1925 3103 
Q 1469 3103 1208 2742 
Q 947 2381 947 1747 
z
" transform="scale(0.015625)"/>
      <path id="DejaVuSans-62" d="M 3116 1747 
Q 3116 2381 2855 2742 
Q 2594 3103 2138 3103 
Q 1681 3103 1420 2742 
Q 1159 2381 1159 1747 
Q 1159 1113 1420 752 
Q 1681 391 2138 391 
Q 2594 391 2855 752 
Q 3116 1113 3116 1747 
z
M 1159 2969 
Q 1341 3281 1617 3432 
Q 1894 3584 2278 3584 
Q 2916 3584 3314 3078 
Q 3713 2572 3713 1747 
Q 3713 922 3314 415 
Q 2916 -91 2278 -91 
Q 1894 -91 1617 61 
Q 1341 213 1159 525 
L 1159 0 
L 581 0 
L 581 4863 
L 1159 4863 
L 1159 2969 
z
" transform="scale(0.015625)"/>
      <path id="DejaVuSans-66" d="M 2375 4863 
L 2375 4384 
L 1825 4384 
Q 1516 4384 1395 4259 
Q 1275 4134 1275 3809 
L 1275 3500 
L 2222 3500 
L 2222 3053 
L 1275 3053 
L 1275 0 
L 697 0 
L 697 3053 
L 147 3053 
L 147 3500 
L 697 3500 
L 697 3744 
Q 697 4328 969 4595 
Q 1241 4863 1831 4863 
L 2375 4863 
z
" transform="scale(0.015625)"/>
     </defs>
     <use xlink:href="#DejaVuSans-50"/>
     <use xlink:href="#DejaVuSans-6f" x="56.677734"/>
     <use xlink:href="#DejaVuSans-70" x="117.859375"/>
     <use xlink:href="#DejaVuSans-75" x="181.335938"/>
     <use xlink:href="#DejaVuSans-6c" x="244.714844"/>
     <use xlink:href="#DejaVuSans-61" x="272.498047"/>
     <use xlink:href="#DejaVuSans-74" x="333.777344"/>
     <use xlink:href="#DejaVuSans-69" x="372.986328"/>
     <use xlink:href="#DejaVuSans-6f" x="400.769531"/>
     <use xlink:href="#DejaVuSans-6e" x="461.951172"/>
     <use xlink:href="#DejaVuSans-27" x="525.330078"/>
     <use xlink:href="#DejaVuSans-73" x="552.820312"/>
     <use xlink:href="#DejaVuSans-20" x="604.919922"/>
     <use xlink:href="#DejaVuSans-61" x="636.707031"/>
     <use xlink:href="#DejaVuSans-76" x="697.986328"/>
     <use xlink:href="#DejaVuSans-65" x="757.166016"/>
     <use xlink:href="#DejaVuSans-72" x="818.689453"/>
     <use xlink:href="#DejaVuSans-61" x="859.802734"/>
     <use xlink:href="#DejaVuSans-67" x="921.082031"/>
     <use xlink:href="#DejaVuSans-65" x="984.558594"/>
     <use xlink:href="#DejaVuSans-20" x="1046.082031"/>
     <use xlink:href="#DejaVuSans-61" x="1077.869141"/>
     <use xlink:href="#DejaVuSans-6e" x="1139.148438"/>
     <use xlink:href="#DejaVuSans-64" x="1202.527344"/>
     <use xlink:href="#DejaVuSans-20" x="1266.003906"/>
     <use xlink:href="#DejaVuSans-62" x="1297.791016"/>
     <use xlink:href="#DejaVuSans-65" x="1361.267578"/>
     <use xlink:href="#DejaVuSans-73" x="1422.791016"/>
     <use xlink:href="#DejaVuSans-74" x="1474.890625"/>
     <use xlink:href="#DejaVuSans-20" x="1514.099609"/>
     <use xlink:href="#DejaVuSans-66" x="1545.886719"/>
     <use xlink:href="#DejaVuSans-69" x="1581.091797"/>
     <use xlink:href="#DejaVuSans-74" x="1608.875"/>
     <use xlink:href="#DejaVuSans-6e" x="1648.083984"/>
     <use xlink:href="#DejaVuSans-65" x="1711.462891"/>
     <use xlink:href="#DejaVuSans-73" x="1772.986328"/>
     <use xlink:href="#DejaVuSans-73" x="1825.085938"/>
    </g>
   </g>
   <g id="legend_1">
    <g id="patch_7">
     <path d="M 64.6 108.1845 
L 137.540625 108.1845 
Q 139.540625 108.1845 139.540625 106.1845 
L 139.540625 48.472 
Q 139.540625 46.472 137.540625 46.472 
L 64.6 46.472 
Q 62.6 46.472 62.6 48.472 
L 62.6 106.1845 
Q 62.6 108.1845 64.6 108.1845 
z
" style="fill: #ffffff; opacity: 0.8; stroke: #cccccc; stroke-linejoin: miter"/>
    </g>
    <g id="line2d_31">
     <path d="M 66.6 54.570438 
L 76.6 54.570438 
L 86.6 54.570438 
" style="fill: none; stroke: #0000ff; stroke-width: 1.5; stroke-linecap: square"/>
    </g>
    <g id="text_17">
     <!-- average -->
     <g transform="translate(94.6 58.070438) scale(0.1 -0.1)">
      <use xlink:href="#DejaVuSans-61"/>
      <use xlink:href="#DejaVuSans-76" x="61.279297"/>
      <use xlink:href="#DejaVuSans-65" x="120.458984"/>
      <use xlink:href="#DejaVuSans-72" x="181.982422"/>
      <use xlink:href="#DejaVuSans-61" x="223.095703"/>
      <use xlink:href="#DejaVuSans-67" x="284.375"/>
      <use xlink:href="#DejaVuSans-65" x="347.851562"/>
     </g>
    </g>
    <g id="line2d_32">
     <path d="M 66.6 69.248563 
L 76.6 69.248563 
L 86.6 69.248563 
" style="fill: none; stroke-dasharray: 9.6,2.4,1.5,2.4; stroke-dashoffset: 0; stroke: #008000; stroke-width: 1.5"/>
    </g>
    <g id="text_18">
     <!-- -1 sd -->
     <g transform="translate(94.6 72.748563) scale(0.1 -0.1)">
      <defs>
       <path id="DejaVuSans-2d" d="M 313 2009 
L 1997 2009 
L 1997 1497 
L 313 1497 
L 313 2009 
z
" transform="scale(0.015625)"/>
      </defs>
      <use xlink:href="#DejaVuSans-2d"/>
      <use xlink:href="#DejaVuSans-31" x="36.083984"/>
      <use xlink:href="#DejaVuSans-20" x="99.707031"/>
      <use xlink:href="#DejaVuSans-73" x="131.494141"/>
      <use xlink:href="#DejaVuSans-64" x="183.59375"/>
     </g>
    </g>
    <g id="line2d_33">
     <path d="M 66.6 83.926688 
L 76.6 83.926688 
L 86.6 83.926688 
" style="fill: none; stroke-dasharray: 9.6,2.4,1.5,2.4; stroke-dashoffset: 0; stroke: #008000; stroke-width: 1.5"/>
    </g>
    <g id="text_19">
     <!-- +1 sd -->
     <g transform="translate(94.6 87.426688) scale(0.1 -0.1)">
      <defs>
       <path id="DejaVuSans-2b" d="M 2944 4013 
L 2944 2272 
L 4684 2272 
L 4684 1741 
L 2944 1741 
L 2944 0 
L 2419 0 
L 2419 1741 
L 678 1741 
L 678 2272 
L 2419 2272 
L 2419 4013 
L 2944 4013 
z
" transform="scale(0.015625)"/>
      </defs>
      <use xlink:href="#DejaVuSans-2b"/>
      <use xlink:href="#DejaVuSans-31" x="83.789062"/>
      <use xlink:href="#DejaVuSans-20" x="147.412109"/>
      <use xlink:href="#DejaVuSans-73" x="179.199219"/>
      <use xlink:href="#DejaVuSans-64" x="231.298828"/>
     </g>
    </g>
    <g id="line2d_34">
     <path d="M 66.6 98.604813 
L 76.6 98.604813 
L 86.6 98.604813 
" style="fill: none; stroke: #ff0000; stroke-width: 1.5; stroke-linecap: square"/>
    </g>
    <g id="text_20">
     <!-- best -->
     <g transform="translate(94.6 102.104813) scale(0.1 -0.1)">
      <use xlink:href="#DejaVuSans-62"/>
      <use xlink:href="#DejaVuSans-65" x="63.476562"/>
      <use xlink:href="#DejaVuSans-73" x="125"/>
      <use xlink:href="#DejaVuSans-74" x="177.099609"/>
     </g>
    </g>
   </g>
  </g>
 </g>
 <defs>
  <clipPath id="p910cb5bb8a">
   <rect x="57.6" y="41.472" width="357.12" height="266.112"/>
  </clipPath>
 </defs>
</svg>
