<?xml version="1.0" encoding="utf-8" standalone="no"?>
<!DOCTYPE svg PUBLIC "-//W3C//DTD SVG 1.1//EN"
  "http://www.w3.org/Graphics/SVG/1.1/DTD/svg11.dtd">
<svg xmlns:xlink="http://www.w3.org/1999/xlink" width="460.8pt" height="345.6pt" viewBox="0 0 460.8 345.6" xmlns="http://www.w3.org/2000/svg" version="1.1">
 <metadata>
  <rdf:RDF xmlns:dc="http://purl.org/dc/elements/1.1/" xmlns:cc="http://creativecommons.org/ns#" xmlns:rdf="http://www.w3.org/1999/02/22-rdf-syntax-ns#">
   <cc:Work>
    <dc:type rdf:resource="http://purl.org/dc/dcmitype/StillImage"/>
    <dc:date>2023-03-02T11:28:13.304505</dc:date>
    <dc:format>image/svg+xml</dc:format>
    <dc:creator>
     <cc:Agent>
      <dc:title>Matplotlib v3.7.0, https://matplotlib.org/</dc:title>
     </cc:Agent>
    </dc:creator>
   </cc:Work>
  </rdf:RDF>
 </metadata>
 <defs>
  <style type="text/css">*{stroke-linejoin: round; stroke-linecap: butt}</style>
 </defs>
 <g id="figure_1">
  <g id="patch_1">
   <path d="M 0 345.6 
L 460.8 345.6 
L 460.8 0 
L 0 0 
z
" style="fill: #ffffff"/>
  </g>
  <g id="axes_1">
   <g id="patch_2">
    <path d="M 57.6 307.584 
L 414.72 307.584 
L 414.72 41.472 
L 57.6 41.472 
z
" style="fill: #ffffff"/>
   </g>
   <g id="matplotlib.axis_1">
    <g id="xtick_1">
     <g id="line2d_1">
      <path d="M 73.832727 307.584 
L 73.832727 41.472 
" clip-path="url(#p04d6a52a7c)" style="fill: none; stroke: #b0b0b0; stroke-width: 0.8; stroke-linecap: square"/>
     </g>
     <g id="line2d_2">
      <defs>
       <path id="ma411b40774" d="M 0 0 
L 0 3.5 
" style="stroke: #000000; stroke-width: 0.8"/>
      </defs>
      <g>
       <use xlink:href="#ma411b40774" x="73.832727" y="307.584" style="stroke: #000000; stroke-width: 0.8"/>
      </g>
     </g>
     <g id="text_1">
      <!-- 0 -->
      <g transform="translate(70.651477 322.182437) scale(0.1 -0.1)">
       <defs>
        <path id="DejaVuSans-30" d="M 2034 4250 
Q 1547 4250 1301 3770 
Q 1056 3291 1056 2328 
Q 1056 1369 1301 889 
Q 1547 409 2034 409 
Q 2525 409 2770 889 
Q 3016 1369 3016 2328 
Q 3016 3291 2770 3770 
Q 2525 4250 2034 4250 
z
M 2034 4750 
Q 2819 4750 3233 4129 
Q 3647 3509 3647 2328 
Q 3647 1150 3233 529 
Q 2819 -91 2034 -91 
Q 1250 -91 836 529 
Q 422 1150 422 2328 
Q 422 3509 836 4129 
Q 1250 4750 2034 4750 
z
" transform="scale(0.015625)"/>
       </defs>
       <use xlink:href="#DejaVuSans-30"/>
      </g>
     </g>
    </g>
    <g id="xtick_2">
     <g id="line2d_3">
      <path d="M 138.893758 307.584 
L 138.893758 41.472 
" clip-path="url(#p04d6a52a7c)" style="fill: none; stroke: #b0b0b0; stroke-width: 0.8; stroke-linecap: square"/>
     </g>
     <g id="line2d_4">
      <g>
       <use xlink:href="#ma411b40774" x="138.893758" y="307.584" style="stroke: #000000; stroke-width: 0.8"/>
      </g>
     </g>
     <g id="text_2">
      <!-- 100 -->
      <g transform="translate(129.350008 322.182437) scale(0.1 -0.1)">
       <defs>
        <path id="DejaVuSans-31" d="M 794 531 
L 1825 531 
L 1825 4091 
L 703 3866 
L 703 4441 
L 1819 4666 
L 2450 4666 
L 2450 531 
L 3481 531 
L 3481 0 
L 794 0 
L 794 531 
z
" transform="scale(0.015625)"/>
       </defs>
       <use xlink:href="#DejaVuSans-31"/>
       <use xlink:href="#DejaVuSans-30" x="63.623047"/>
       <use xlink:href="#DejaVuSans-30" x="127.246094"/>
      </g>
     </g>
    </g>
    <g id="xtick_3">
     <g id="line2d_5">
      <path d="M 203.95479 307.584 
L 203.95479 41.472 
" clip-path="url(#p04d6a52a7c)" style="fill: none; stroke: #b0b0b0; stroke-width: 0.8; stroke-linecap: square"/>
     </g>
     <g id="line2d_6">
      <g>
       <use xlink:href="#ma411b40774" x="203.95479" y="307.584" style="stroke: #000000; stroke-width: 0.8"/>
      </g>
     </g>
     <g id="text_3">
      <!-- 200 -->
      <g transform="translate(194.41104 322.182437) scale(0.1 -0.1)">
       <defs>
        <path id="DejaVuSans-32" d="M 1228 531 
L 3431 531 
L 3431 0 
L 469 0 
L 469 531 
Q 828 903 1448 1529 
Q 2069 2156 2228 2338 
Q 2531 2678 2651 2914 
Q 2772 3150 2772 3378 
Q 2772 3750 2511 3984 
Q 2250 4219 1831 4219 
Q 1534 4219 1204 4116 
Q 875 4013 500 3803 
L 500 4441 
Q 881 4594 1212 4672 
Q 1544 4750 1819 4750 
Q 2544 4750 2975 4387 
Q 3406 4025 3406 3419 
Q 3406 3131 3298 2873 
Q 3191 2616 2906 2266 
Q 2828 2175 2409 1742 
Q 1991 1309 1228 531 
z
" transform="scale(0.015625)"/>
       </defs>
       <use xlink:href="#DejaVuSans-32"/>
       <use xlink:href="#DejaVuSans-30" x="63.623047"/>
       <use xlink:href="#DejaVuSans-30" x="127.246094"/>
      </g>
     </g>
    </g>
    <g id="xtick_4">
     <g id="line2d_7">
      <path d="M 269.015821 307.584 
L 269.015821 41.472 
" clip-path="url(#p04d6a52a7c)" style="fill: none; stroke: #b0b0b0; stroke-width: 0.8; stroke-linecap: square"/>
     </g>
     <g id="line2d_8">
      <g>
       <use xlink:href="#ma411b40774" x="269.015821" y="307.584" style="stroke: #000000; stroke-width: 0.8"/>
      </g>
     </g>
     <g id="text_4">
      <!-- 300 -->
      <g transform="translate(259.472071 322.182437) scale(0.1 -0.1)">
       <defs>
        <path id="DejaVuSans-33" d="M 2597 2516 
Q 3050 2419 3304 2112 
Q 3559 1806 3559 1356 
Q 3559 666 3084 287 
Q 2609 -91 1734 -91 
Q 1441 -91 1130 -33 
Q 819 25 488 141 
L 488 750 
Q 750 597 1062 519 
Q 1375 441 1716 441 
Q 2309 441 2620 675 
Q 2931 909 2931 1356 
Q 2931 1769 2642 2001 
Q 2353 2234 1838 2234 
L 1294 2234 
L 1294 2753 
L 1863 2753 
Q 2328 2753 2575 2939 
Q 2822 3125 2822 3475 
Q 2822 3834 2567 4026 
Q 2313 4219 1838 4219 
Q 1578 4219 1281 4162 
Q 984 4106 628 3988 
L 628 4550 
Q 988 4650 1302 4700 
Q 1616 4750 1894 4750 
Q 2613 4750 3031 4423 
Q 3450 4097 3450 3541 
Q 3450 3153 3228 2886 
Q 3006 2619 2597 2516 
z
" transform="scale(0.015625)"/>
       </defs>
       <use xlink:href="#DejaVuSans-33"/>
       <use xlink:href="#DejaVuSans-30" x="63.623047"/>
       <use xlink:href="#DejaVuSans-30" x="127.246094"/>
      </g>
     </g>
    </g>
    <g id="xtick_5">
     <g id="line2d_9">
      <path d="M 334.076852 307.584 
L 334.076852 41.472 
" clip-path="url(#p04d6a52a7c)" style="fill: none; stroke: #b0b0b0; stroke-width: 0.8; stroke-linecap: square"/>
     </g>
     <g id="line2d_10">
      <g>
       <use xlink:href="#ma411b40774" x="334.076852" y="307.584" style="stroke: #000000; stroke-width: 0.8"/>
      </g>
     </g>
     <g id="text_5">
      <!-- 400 -->
      <g transform="translate(324.533102 322.182437) scale(0.1 -0.1)">
       <defs>
        <path id="DejaVuSans-34" d="M 2419 4116 
L 825 1625 
L 2419 1625 
L 2419 4116 
z
M 2253 4666 
L 3047 4666 
L 3047 1625 
L 3713 1625 
L 3713 1100 
L 3047 1100 
L 3047 0 
L 2419 0 
L 2419 1100 
L 313 1100 
L 313 1709 
L 2253 4666 
z
" transform="scale(0.015625)"/>
       </defs>
       <use xlink:href="#DejaVuSans-34"/>
       <use xlink:href="#DejaVuSans-30" x="63.623047"/>
       <use xlink:href="#DejaVuSans-30" x="127.246094"/>
      </g>
     </g>
    </g>
    <g id="xtick_6">
     <g id="line2d_11">
      <path d="M 399.137883 307.584 
L 399.137883 41.472 
" clip-path="url(#p04d6a52a7c)" style="fill: none; stroke: #b0b0b0; stroke-width: 0.8; stroke-linecap: square"/>
     </g>
     <g id="line2d_12">
      <g>
       <use xlink:href="#ma411b40774" x="399.137883" y="307.584" style="stroke: #000000; stroke-width: 0.8"/>
      </g>
     </g>
     <g id="text_6">
      <!-- 500 -->
      <g transform="translate(389.594133 322.182437) scale(0.1 -0.1)">
       <defs>
        <path id="DejaVuSans-35" d="M 691 4666 
L 3169 4666 
L 3169 4134 
L 1269 4134 
L 1269 2991 
Q 1406 3038 1543 3061 
Q 1681 3084 1819 3084 
Q 2600 3084 3056 2656 
Q 3513 2228 3513 1497 
Q 3513 744 3044 326 
Q 2575 -91 1722 -91 
Q 1428 -91 1123 -41 
Q 819 9 494 109 
L 494 744 
Q 775 591 1075 516 
Q 1375 441 1709 441 
Q 2250 441 2565 725 
Q 2881 1009 2881 1497 
Q 2881 1984 2565 2268 
Q 2250 2553 1709 2553 
Q 1456 2553 1204 2497 
Q 953 2441 691 2322 
L 691 4666 
z
" transform="scale(0.015625)"/>
       </defs>
       <use xlink:href="#DejaVuSans-35"/>
       <use xlink:href="#DejaVuSans-30" x="63.623047"/>
       <use xlink:href="#DejaVuSans-30" x="127.246094"/>
      </g>
     </g>
    </g>
    <g id="text_7">
     <!-- Generations -->
     <g transform="translate(205.662344 335.860562) scale(0.1 -0.1)">
      <defs>
       <path id="DejaVuSans-47" d="M 3809 666 
L 3809 1919 
L 2778 1919 
L 2778 2438 
L 4434 2438 
L 4434 434 
Q 4069 175 3628 42 
Q 3188 -91 2688 -91 
Q 1594 -91 976 548 
Q 359 1188 359 2328 
Q 359 3472 976 4111 
Q 1594 4750 2688 4750 
Q 3144 4750 3555 4637 
Q 3966 4525 4313 4306 
L 4313 3634 
Q 3963 3931 3569 4081 
Q 3175 4231 2741 4231 
Q 1884 4231 1454 3753 
Q 1025 3275 1025 2328 
Q 1025 1384 1454 906 
Q 1884 428 2741 428 
Q 3075 428 3337 486 
Q 3600 544 3809 666 
z
" transform="scale(0.015625)"/>
       <path id="DejaVuSans-65" d="M 3597 1894 
L 3597 1613 
L 953 1613 
Q 991 1019 1311 708 
Q 1631 397 2203 397 
Q 2534 397 2845 478 
Q 3156 559 3463 722 
L 3463 178 
Q 3153 47 2828 -22 
Q 2503 -91 2169 -91 
Q 1331 -91 842 396 
Q 353 884 353 1716 
Q 353 2575 817 3079 
Q 1281 3584 2069 3584 
Q 2775 3584 3186 3129 
Q 3597 2675 3597 1894 
z
M 3022 2063 
Q 3016 2534 2758 2815 
Q 2500 3097 2075 3097 
Q 1594 3097 1305 2825 
Q 1016 2553 972 2059 
L 3022 2063 
z
" transform="scale(0.015625)"/>
       <path id="DejaVuSans-6e" d="M 3513 2113 
L 3513 0 
L 2938 0 
L 2938 2094 
Q 2938 2591 2744 2837 
Q 2550 3084 2163 3084 
Q 1697 3084 1428 2787 
Q 1159 2491 1159 1978 
L 1159 0 
L 581 0 
L 581 3500 
L 1159 3500 
L 1159 2956 
Q 1366 3272 1645 3428 
Q 1925 3584 2291 3584 
Q 2894 3584 3203 3211 
Q 3513 2838 3513 2113 
z
" transform="scale(0.015625)"/>
       <path id="DejaVuSans-72" d="M 2631 2963 
Q 2534 3019 2420 3045 
Q 2306 3072 2169 3072 
Q 1681 3072 1420 2755 
Q 1159 2438 1159 1844 
L 1159 0 
L 581 0 
L 581 3500 
L 1159 3500 
L 1159 2956 
Q 1341 3275 1631 3429 
Q 1922 3584 2338 3584 
Q 2397 3584 2469 3576 
Q 2541 3569 2628 3553 
L 2631 2963 
z
" transform="scale(0.015625)"/>
       <path id="DejaVuSans-61" d="M 2194 1759 
Q 1497 1759 1228 1600 
Q 959 1441 959 1056 
Q 959 750 1161 570 
Q 1363 391 1709 391 
Q 2188 391 2477 730 
Q 2766 1069 2766 1631 
L 2766 1759 
L 2194 1759 
z
M 3341 1997 
L 3341 0 
L 2766 0 
L 2766 531 
Q 2569 213 2275 61 
Q 1981 -91 1556 -91 
Q 1019 -91 701 211 
Q 384 513 384 1019 
Q 384 1609 779 1909 
Q 1175 2209 1959 2209 
L 2766 2209 
L 2766 2266 
Q 2766 2663 2505 2880 
Q 2244 3097 1772 3097 
Q 1472 3097 1187 3025 
Q 903 2953 641 2809 
L 641 3341 
Q 956 3463 1253 3523 
Q 1550 3584 1831 3584 
Q 2591 3584 2966 3190 
Q 3341 2797 3341 1997 
z
" transform="scale(0.015625)"/>
       <path id="DejaVuSans-74" d="M 1172 4494 
L 1172 3500 
L 2356 3500 
L 2356 3053 
L 1172 3053 
L 1172 1153 
Q 1172 725 1289 603 
Q 1406 481 1766 481 
L 2356 481 
L 2356 0 
L 1766 0 
Q 1100 0 847 248 
Q 594 497 594 1153 
L 594 3053 
L 172 3053 
L 172 3500 
L 594 3500 
L 594 4494 
L 1172 4494 
z
" transform="scale(0.015625)"/>
       <path id="DejaVuSans-69" d="M 603 3500 
L 1178 3500 
L 1178 0 
L 603 0 
L 603 3500 
z
M 603 4863 
L 1178 4863 
L 1178 4134 
L 603 4134 
L 603 4863 
z
" transform="scale(0.015625)"/>
       <path id="DejaVuSans-6f" d="M 1959 3097 
Q 1497 3097 1228 2736 
Q 959 2375 959 1747 
Q 959 1119 1226 758 
Q 1494 397 1959 397 
Q 2419 397 2687 759 
Q 2956 1122 2956 1747 
Q 2956 2369 2687 2733 
Q 2419 3097 1959 3097 
z
M 1959 3584 
Q 2709 3584 3137 3096 
Q 3566 2609 3566 1747 
Q 3566 888 3137 398 
Q 2709 -91 1959 -91 
Q 1206 -91 779 398 
Q 353 888 353 1747 
Q 353 2609 779 3096 
Q 1206 3584 1959 3584 
z
" transform="scale(0.015625)"/>
       <path id="DejaVuSans-73" d="M 2834 3397 
L 2834 2853 
Q 2591 2978 2328 3040 
Q 2066 3103 1784 3103 
Q 1356 3103 1142 2972 
Q 928 2841 928 2578 
Q 928 2378 1081 2264 
Q 1234 2150 1697 2047 
L 1894 2003 
Q 2506 1872 2764 1633 
Q 3022 1394 3022 966 
Q 3022 478 2636 193 
Q 2250 -91 1575 -91 
Q 1294 -91 989 -36 
Q 684 19 347 128 
L 347 722 
Q 666 556 975 473 
Q 1284 391 1588 391 
Q 1994 391 2212 530 
Q 2431 669 2431 922 
Q 2431 1156 2273 1281 
Q 2116 1406 1581 1522 
L 1381 1569 
Q 847 1681 609 1914 
Q 372 2147 372 2553 
Q 372 3047 722 3315 
Q 1072 3584 1716 3584 
Q 2034 3584 2315 3537 
Q 2597 3491 2834 3397 
z
" transform="scale(0.015625)"/>
      </defs>
      <use xlink:href="#DejaVuSans-47"/>
      <use xlink:href="#DejaVuSans-65" x="77.490234"/>
      <use xlink:href="#DejaVuSans-6e" x="139.013672"/>
      <use xlink:href="#DejaVuSans-65" x="202.392578"/>
      <use xlink:href="#DejaVuSans-72" x="263.916016"/>
      <use xlink:href="#DejaVuSans-61" x="305.029297"/>
      <use xlink:href="#DejaVuSans-74" x="366.308594"/>
      <use xlink:href="#DejaVuSans-69" x="405.517578"/>
      <use xlink:href="#DejaVuSans-6f" x="433.300781"/>
      <use xlink:href="#DejaVuSans-6e" x="494.482422"/>
      <use xlink:href="#DejaVuSans-73" x="557.861328"/>
     </g>
    </g>
   </g>
   <g id="matplotlib.axis_2">
    <g id="ytick_1">
     <g id="line2d_13">
      <path d="M 57.6 285.621661 
L 414.72 285.621661 
" clip-path="url(#p04d6a52a7c)" style="fill: none; stroke: #b0b0b0; stroke-width: 0.8; stroke-linecap: square"/>
     </g>
     <g id="line2d_14">
      <defs>
       <path id="m1aaa548706" d="M 0 0 
L -3.5 0 
" style="stroke: #000000; stroke-width: 0.8"/>
      </defs>
      <g>
       <use xlink:href="#m1aaa548706" x="57.6" y="285.621661" style="stroke: #000000; stroke-width: 0.8"/>
      </g>
     </g>
     <g id="text_8">
      <!-- 0 -->
      <g transform="translate(44.2375 289.42088) scale(0.1 -0.1)">
       <use xlink:href="#DejaVuSans-30"/>
      </g>
     </g>
    </g>
    <g id="ytick_2">
     <g id="line2d_15">
      <path d="M 57.6 253.417746 
L 414.72 253.417746 
" clip-path="url(#p04d6a52a7c)" style="fill: none; stroke: #b0b0b0; stroke-width: 0.8; stroke-linecap: square"/>
     </g>
     <g id="line2d_16">
      <g>
       <use xlink:href="#m1aaa548706" x="57.6" y="253.417746" style="stroke: #000000; stroke-width: 0.8"/>
      </g>
     </g>
     <g id="text_9">
      <!-- 1 -->
      <g transform="translate(44.2375 257.216965) scale(0.1 -0.1)">
       <use xlink:href="#DejaVuSans-31"/>
      </g>
     </g>
    </g>
    <g id="ytick_3">
     <g id="line2d_17">
      <path d="M 57.6 221.213832 
L 414.72 221.213832 
" clip-path="url(#p04d6a52a7c)" style="fill: none; stroke: #b0b0b0; stroke-width: 0.8; stroke-linecap: square"/>
     </g>
     <g id="line2d_18">
      <g>
       <use xlink:href="#m1aaa548706" x="57.6" y="221.213832" style="stroke: #000000; stroke-width: 0.8"/>
      </g>
     </g>
     <g id="text_10">
      <!-- 2 -->
      <g transform="translate(44.2375 225.01305) scale(0.1 -0.1)">
       <use xlink:href="#DejaVuSans-32"/>
      </g>
     </g>
    </g>
    <g id="ytick_4">
     <g id="line2d_19">
      <path d="M 57.6 189.009917 
L 414.72 189.009917 
" clip-path="url(#p04d6a52a7c)" style="fill: none; stroke: #b0b0b0; stroke-width: 0.8; stroke-linecap: square"/>
     </g>
     <g id="line2d_20">
      <g>
       <use xlink:href="#m1aaa548706" x="57.6" y="189.009917" style="stroke: #000000; stroke-width: 0.8"/>
      </g>
     </g>
     <g id="text_11">
      <!-- 3 -->
      <g transform="translate(44.2375 192.809136) scale(0.1 -0.1)">
       <use xlink:href="#DejaVuSans-33"/>
      </g>
     </g>
    </g>
    <g id="ytick_5">
     <g id="line2d_21">
      <path d="M 57.6 156.806002 
L 414.72 156.806002 
" clip-path="url(#p04d6a52a7c)" style="fill: none; stroke: #b0b0b0; stroke-width: 0.8; stroke-linecap: square"/>
     </g>
     <g id="line2d_22">
      <g>
       <use xlink:href="#m1aaa548706" x="57.6" y="156.806002" style="stroke: #000000; stroke-width: 0.8"/>
      </g>
     </g>
     <g id="text_12">
      <!-- 4 -->
      <g transform="translate(44.2375 160.605221) scale(0.1 -0.1)">
       <use xlink:href="#DejaVuSans-34"/>
      </g>
     </g>
    </g>
    <g id="ytick_6">
     <g id="line2d_23">
      <path d="M 57.6 124.602088 
L 414.72 124.602088 
" clip-path="url(#p04d6a52a7c)" style="fill: none; stroke: #b0b0b0; stroke-width: 0.8; stroke-linecap: square"/>
     </g>
     <g id="line2d_24">
      <g>
       <use xlink:href="#m1aaa548706" x="57.6" y="124.602088" style="stroke: #000000; stroke-width: 0.8"/>
      </g>
     </g>
     <g id="text_13">
      <!-- 5 -->
      <g transform="translate(44.2375 128.401306) scale(0.1 -0.1)">
       <use xlink:href="#DejaVuSans-35"/>
      </g>
     </g>
    </g>
    <g id="ytick_7">
     <g id="line2d_25">
      <path d="M 57.6 92.398173 
L 414.72 92.398173 
" clip-path="url(#p04d6a52a7c)" style="fill: none; stroke: #b0b0b0; stroke-width: 0.8; stroke-linecap: square"/>
     </g>
     <g id="line2d_26">
      <g>
       <use xlink:href="#m1aaa548706" x="57.6" y="92.398173" style="stroke: #000000; stroke-width: 0.8"/>
      </g>
     </g>
     <g id="text_14">
      <!-- 6 -->
      <g transform="translate(44.2375 96.197392) scale(0.1 -0.1)">
       <defs>
        <path id="DejaVuSans-36" d="M 2113 2584 
Q 1688 2584 1439 2293 
Q 1191 2003 1191 1497 
Q 1191 994 1439 701 
Q 1688 409 2113 409 
Q 2538 409 2786 701 
Q 3034 994 3034 1497 
Q 3034 2003 2786 2293 
Q 2538 2584 2113 2584 
z
M 3366 4563 
L 3366 3988 
Q 3128 4100 2886 4159 
Q 2644 4219 2406 4219 
Q 1781 4219 1451 3797 
Q 1122 3375 1075 2522 
Q 1259 2794 1537 2939 
Q 1816 3084 2150 3084 
Q 2853 3084 3261 2657 
Q 3669 2231 3669 1497 
Q 3669 778 3244 343 
Q 2819 -91 2113 -91 
Q 1303 -91 875 529 
Q 447 1150 447 2328 
Q 447 3434 972 4092 
Q 1497 4750 2381 4750 
Q 2619 4750 2861 4703 
Q 3103 4656 3366 4563 
z
" transform="scale(0.015625)"/>
       </defs>
       <use xlink:href="#DejaVuSans-36"/>
      </g>
     </g>
    </g>
    <g id="ytick_8">
     <g id="line2d_27">
      <path d="M 57.6 60.194258 
L 414.72 60.194258 
" clip-path="url(#p04d6a52a7c)" style="fill: none; stroke: #b0b0b0; stroke-width: 0.8; stroke-linecap: square"/>
     </g>
     <g id="line2d_28">
      <g>
       <use xlink:href="#m1aaa548706" x="57.6" y="60.194258" style="stroke: #000000; stroke-width: 0.8"/>
      </g>
     </g>
     <g id="text_15">
      <!-- 7 -->
      <g transform="translate(44.2375 63.993477) scale(0.1 -0.1)">
       <defs>
        <path id="DejaVuSans-37" d="M 525 4666 
L 3525 4666 
L 3525 4397 
L 1831 0 
L 1172 0 
L 2766 4134 
L 525 4134 
L 525 4666 
z
" transform="scale(0.015625)"/>
       </defs>
       <use xlink:href="#DejaVuSans-37"/>
      </g>
     </g>
    </g>
    <g id="text_16">
     <!-- Fitness -->
     <g transform="translate(38.157812 191.845187) rotate(-90) scale(0.1 -0.1)">
      <defs>
       <path id="DejaVuSans-46" d="M 628 4666 
L 3309 4666 
L 3309 4134 
L 1259 4134 
L 1259 2759 
L 3109 2759 
L 3109 2228 
L 1259 2228 
L 1259 0 
L 628 0 
L 628 4666 
z
" transform="scale(0.015625)"/>
      </defs>
      <use xlink:href="#DejaVuSans-46"/>
      <use xlink:href="#DejaVuSans-69" x="50.269531"/>
      <use xlink:href="#DejaVuSans-74" x="78.052734"/>
      <use xlink:href="#DejaVuSans-6e" x="117.261719"/>
      <use xlink:href="#DejaVuSans-65" x="180.640625"/>
      <use xlink:href="#DejaVuSans-73" x="242.164062"/>
      <use xlink:href="#DejaVuSans-73" x="294.263672"/>
     </g>
    </g>
    <g id="text_17">
     <!-- 1e16 -->
     <g transform="translate(57.6 38.472) scale(0.1 -0.1)">
      <use xlink:href="#DejaVuSans-31"/>
      <use xlink:href="#DejaVuSans-65" x="63.623047"/>
      <use xlink:href="#DejaVuSans-31" x="125.146484"/>
      <use xlink:href="#DejaVuSans-36" x="188.769531"/>
     </g>
    </g>
   </g>
   <g id="line2d_29">
    <path d="M 73.832727 285.621661 
L 216.966996 285.616488 
L 217.617606 285.382412 
L 218.268216 285.602934 
L 224.123709 285.616382 
L 224.77432 285.617799 
L 225.42493 285.502175 
L 226.07554 285.618844 
L 245.59385 285.606992 
L 254.702394 285.604526 
L 257.304835 285.600542 
L 264.461549 285.613966 
L 267.06399 285.598412 
L 271.618262 285.612344 
L 280.726806 285.583638 
L 281.377417 285.37054 
L 282.028027 285.606397 
L 289.835351 285.608443 
L 291.136571 285.610923 
L 310.00427 285.60959 
L 329.52258 285.605466 
L 331.474411 285.595411 
L 356.848213 285.573088 
L 357.498823 285.46696 
L 358.149433 285.59112 
L 363.354316 285.469546 
L 364.655537 285.580956 
L 372.46286 285.595067 
L 374.414691 285.595539 
L 384.173846 285.57798 
L 384.824456 285.117499 
L 385.475066 285.584738 
L 386.776287 285.570122 
L 387.426897 285.493642 
L 388.728118 285.58175 
L 389.378728 285.577978 
L 390.029339 285.348794 
L 390.679949 285.585723 
L 398.487273 285.621661 
L 398.487273 285.621661 
" clip-path="url(#p04d6a52a7c)" style="fill: none; stroke: #0000ff; stroke-width: 1.5; stroke-linecap: square"/>
   </g>
   <g id="line2d_30">
    <path d="M 73.832727 285.621661 
L 190.942583 285.624964 
L 191.593194 285.843356 
L 192.243804 285.631424 
L 192.894414 286.509203 
L 193.545025 285.625229 
L 200.051128 285.649399 
L 200.701738 286.508345 
L 201.352348 285.684658 
L 202.002959 285.763214 
L 203.304179 285.637031 
L 205.906621 285.636767 
L 209.810282 285.640076 
L 210.460893 285.865822 
L 211.762113 285.731617 
L 216.966996 285.683603 
L 217.617606 292.717052 
L 218.268216 286.064893 
L 218.918827 285.665153 
L 222.171878 285.652069 
L 224.77432 285.676457 
L 225.42493 289.169486 
L 226.07554 285.638982 
L 228.027371 285.665557 
L 229.328592 285.670414 
L 229.979202 285.865356 
L 230.629812 285.681691 
L 231.280423 285.707004 
L 231.931033 285.84733 
L 232.581643 285.668586 
L 233.232254 285.783476 
L 233.882864 285.642693 
L 235.184085 285.682829 
L 235.834695 286.065269 
L 236.485305 285.670825 
L 237.135915 285.693521 
L 237.786526 285.864735 
L 239.087746 285.684396 
L 239.738357 285.661249 
L 240.388967 285.928811 
L 241.039577 285.644853 
L 242.991408 285.841812 
L 243.642019 285.654292 
L 248.196291 285.737572 
L 248.846901 285.943193 
L 249.497511 285.690215 
L 250.798732 285.767592 
L 251.449342 285.701741 
L 252.750563 285.790299 
L 253.401173 285.743376 
L 254.051784 286.072615 
L 254.702394 285.790314 
L 255.353004 286.242183 
L 256.003615 285.716904 
L 256.654225 285.689666 
L 257.304835 286.060676 
L 257.955445 285.744997 
L 258.606056 285.689206 
L 259.256666 286.076143 
L 259.907276 285.685635 
L 260.557887 285.657329 
L 261.208497 285.867534 
L 261.859107 285.884741 
L 262.509718 285.723671 
L 263.160328 285.687443 
L 263.810938 285.841021 
L 264.461549 285.685406 
L 265.112159 286.504249 
L 265.762769 285.669507 
L 267.06399 285.873576 
L 267.7146 285.670277 
L 268.36521 285.794882 
L 269.015821 285.670057 
L 269.666431 285.784617 
L 270.967652 285.653173 
L 272.268872 285.750773 
L 272.919483 285.777398 
L 273.570093 285.665523 
L 274.220703 286.502321 
L 274.871314 285.66832 
L 275.521924 285.86553 
L 276.172534 285.691791 
L 277.473755 285.669768 
L 278.124365 286.073714 
L 278.774975 285.720367 
L 279.425586 286.061343 
L 280.076196 285.844134 
L 280.726806 286.125989 
L 281.377417 292.705748 
L 282.028027 285.842882 
L 282.678637 285.690581 
L 284.630468 285.665248 
L 285.931689 285.713846 
L 286.582299 286.072581 
L 287.232909 285.651013 
L 287.88352 285.747019 
L 288.53413 285.693467 
L 289.18474 286.065026 
L 289.835351 285.776786 
L 290.485961 286.601754 
L 291.136571 285.742711 
L 291.787182 285.781783 
L 293.088402 285.688539 
L 295.040233 285.679601 
L 295.690844 285.906445 
L 296.341454 285.712357 
L 296.992064 285.6721 
L 298.943895 286.061575 
L 299.594505 285.748082 
L 300.245116 286.066626 
L 300.895726 285.695815 
L 302.196947 285.724506 
L 302.847557 285.791323 
L 303.498167 285.712381 
L 304.148778 285.74805 
L 304.799388 285.641352 
L 306.751219 285.711019 
L 308.70305 285.702624 
L 309.35366 285.933812 
L 310.00427 285.706845 
L 312.606712 285.738221 
L 313.257322 286.08592 
L 313.907932 286.061478 
L 314.558543 285.732872 
L 315.209153 285.656423 
L 315.859763 285.848083 
L 317.160984 285.661424 
L 318.462204 285.74801 
L 319.763425 285.685973 
L 320.414035 286.060447 
L 321.064646 285.694329 
L 326.920138 285.762983 
L 327.570749 285.882869 
L 329.52258 285.696108 
L 330.17319 286.501465 
L 330.8238 289.156994 
L 331.474411 285.928186 
L 332.775631 285.925717 
L 333.426242 286.497835 
L 334.076852 285.698955 
L 335.378073 285.84182 
L 336.028683 285.720926 
L 336.679293 285.883042 
L 337.329903 285.902591 
L 337.980514 285.790841 
L 338.631124 285.863651 
L 339.281734 286.112432 
L 339.932345 287.393408 
L 340.582955 285.701012 
L 341.233565 286.074824 
L 341.884176 285.760838 
L 343.185396 286.244916 
L 343.836007 285.85323 
L 344.486617 286.118631 
L 345.137227 286.074103 
L 345.787837 286.531482 
L 346.438448 285.780186 
L 347.739668 285.681772 
L 349.040889 285.886816 
L 349.691499 286.522636 
L 350.34211 285.834764 
L 350.99272 286.106373 
L 351.64333 286.078776 
L 352.293941 285.786074 
L 352.944551 286.095374 
L 353.595161 285.857736 
L 354.245772 285.894214 
L 354.896382 285.797545 
L 355.546992 286.548498 
L 356.197602 285.877891 
L 356.848213 286.121902 
L 357.498823 288.086518 
L 358.149433 285.819888 
L 358.800044 286.157021 
L 359.450654 286.875189 
L 360.101264 285.757931 
L 360.751875 287.384489 
L 361.402485 285.866628 
L 362.053095 286.099089 
L 362.703706 285.868341 
L 363.354316 289.169994 
L 364.004926 286.153261 
L 365.306147 285.943909 
L 365.956757 285.862513 
L 367.257978 287.423681 
L 367.908588 285.854821 
L 368.559198 286.156577 
L 371.16164 285.931769 
L 371.81225 286.169978 
L 372.46286 285.746199 
L 373.764081 286.504481 
L 374.414691 285.883942 
L 375.065302 285.885039 
L 375.715912 286.520791 
L 376.366522 287.386538 
L 377.017132 286.525579 
L 377.667743 287.386883 
L 378.318353 285.875858 
L 378.968963 285.807684 
L 379.619574 285.892282 
L 380.270184 286.280778 
L 381.571405 285.967103 
L 382.222015 286.162882 
L 382.872625 286.674623 
L 383.523236 286.077272 
L 384.173846 286.10713 
L 384.824456 295.488 
L 385.475066 285.960504 
L 386.125677 285.718901 
L 386.776287 286.501887 
L 387.426897 287.474258 
L 388.077508 286.121865 
L 389.378728 286.122511 
L 390.029339 292.698722 
L 390.679949 285.961294 
L 391.98117 286.265706 
L 393.28239 285.876438 
L 394.583611 286.145149 
L 395.234221 285.621661 
L 398.487273 285.621661 
L 398.487273 285.621661 
" clip-path="url(#p04d6a52a7c)" style="fill: none; stroke-dasharray: 9.6,2.4,1.5,2.4; stroke-dashoffset: 0; stroke: #008000; stroke-width: 1.5"/>
   </g>
   <g id="line2d_31">
    <path d="M 73.832727 285.621661 
L 190.942583 285.617678 
L 191.593194 285.384068 
L 192.243804 285.610336 
L 192.894414 284.675577 
L 193.545025 285.617532 
L 200.051128 285.590684 
L 200.701738 284.671184 
L 201.352348 285.549429 
L 202.002959 285.458339 
L 203.304179 285.603244 
L 205.25601 285.558834 
L 207.207841 285.609722 
L 209.810282 285.59827 
L 210.460893 285.352977 
L 211.111503 285.485212 
L 216.966996 285.549374 
L 217.617606 278.047773 
L 218.268216 285.140974 
L 218.918827 285.567641 
L 221.521268 285.584429 
L 224.77432 285.55914 
L 225.42493 281.834865 
L 226.07554 285.598707 
L 227.376761 285.481442 
L 228.677981 285.582552 
L 229.328592 285.560147 
L 229.979202 285.344423 
L 230.629812 285.550746 
L 231.280423 285.513643 
L 231.931033 285.364527 
L 232.581643 285.562554 
L 233.232254 285.4313 
L 233.882864 285.594886 
L 235.184085 285.549281 
L 235.834695 285.139009 
L 236.485305 285.560249 
L 237.135915 285.533607 
L 237.786526 285.350603 
L 239.087746 285.545976 
L 239.738357 285.569428 
L 240.388967 285.275075 
L 241.039577 285.59004 
L 242.991408 285.374095 
L 243.642019 285.578539 
L 248.846901 285.250254 
L 249.497511 285.531141 
L 250.798732 285.44095 
L 251.449342 285.525368 
L 252.750563 285.417095 
L 253.401173 285.47707 
L 254.051784 285.12448 
L 254.702394 285.418739 
L 255.353004 284.92488 
L 256.003615 285.503282 
L 256.654225 285.535674 
L 257.304835 285.140409 
L 257.955445 285.477348 
L 258.606056 285.531258 
L 259.256666 285.116558 
L 259.907276 285.54266 
L 260.557887 285.574777 
L 261.208497 285.339004 
L 261.859107 285.322235 
L 262.509718 285.493529 
L 263.160328 285.538622 
L 263.810938 285.381291 
L 264.461549 285.542527 
L 265.112159 284.660941 
L 265.762769 285.561602 
L 267.06399 285.323248 
L 267.7146 285.557222 
L 268.36521 285.406687 
L 269.015821 285.557414 
L 269.666431 285.432696 
L 270.967652 285.580939 
L 272.268872 285.468079 
L 272.919483 285.438601 
L 273.570093 285.564848 
L 274.220703 284.662136 
L 274.871314 285.563866 
L 275.521924 285.341429 
L 276.172534 285.530305 
L 277.473755 285.560049 
L 278.124365 285.112873 
L 278.774975 285.501177 
L 279.425586 285.137551 
L 280.076196 285.368497 
L 280.726806 285.041288 
L 281.377417 278.035332 
L 282.028027 285.369912 
L 282.678637 285.534706 
L 284.630468 285.565221 
L 285.931689 285.509262 
L 286.582299 285.127017 
L 287.232909 285.582682 
L 287.88352 285.47171 
L 288.53413 285.530122 
L 289.18474 285.122305 
L 289.835351 285.440101 
L 290.485961 284.52415 
L 291.136571 285.479135 
L 291.787182 285.432352 
L 293.088402 285.540725 
L 295.040233 285.545867 
L 295.690844 285.2805 
L 296.341454 285.506164 
L 296.992064 285.552209 
L 298.943895 285.131861 
L 299.594505 285.469194 
L 300.245116 285.115484 
L 300.895726 285.523836 
L 302.196947 285.49118 
L 302.847557 285.41533 
L 303.498167 285.504723 
L 304.148778 285.457691 
L 304.799388 285.5931 
L 306.100608 285.385936 
L 307.401829 285.512222 
L 309.35366 285.261497 
L 310.00427 285.512336 
L 311.956101 285.567955 
L 312.606712 285.480203 
L 313.257322 285.090206 
L 313.907932 285.129753 
L 314.558543 285.489524 
L 315.209153 285.574787 
L 315.859763 285.359602 
L 317.160984 285.567169 
L 318.462204 285.46731 
L 319.763425 285.537744 
L 320.414035 285.139196 
L 321.064646 285.527068 
L 326.920138 285.448167 
L 327.570749 285.311972 
L 329.52258 285.514823 
L 330.17319 284.642897 
L 330.8238 281.818426 
L 331.474411 285.262636 
L 332.775631 285.274141 
L 333.426242 284.648009 
L 334.076852 285.520136 
L 335.378073 285.364624 
L 336.028683 285.488368 
L 336.679293 285.315736 
L 337.329903 285.286216 
L 337.980514 285.41452 
L 338.631124 285.342235 
L 339.281734 285.044635 
L 339.932345 283.673612 
L 340.582955 285.51458 
L 341.233565 285.10456 
L 341.884176 285.44612 
L 343.185396 284.897927 
L 343.836007 285.339588 
L 344.486617 285.03943 
L 345.137227 285.111896 
L 345.787837 284.593285 
L 346.438448 285.410489 
L 347.739668 285.535726 
L 349.040889 285.305772 
L 349.691499 284.62375 
L 350.34211 285.356372 
L 350.99272 285.071169 
L 351.64333 285.100304 
L 352.293941 285.413938 
L 352.944551 285.058571 
L 353.595161 285.329589 
L 354.245772 285.288779 
L 354.896382 285.402174 
L 355.546992 284.556168 
L 356.197602 285.307765 
L 356.848213 285.024273 
L 357.498823 282.847401 
L 358.149433 285.362353 
L 358.800044 284.994831 
L 359.450654 284.18942 
L 360.101264 285.448494 
L 360.751875 283.695604 
L 361.402485 285.324801 
L 362.053095 285.061555 
L 362.703706 285.32133 
L 363.354316 281.769098 
L 364.004926 284.993146 
L 365.306147 285.234999 
L 365.956757 285.328255 
L 367.257978 283.607843 
L 367.908588 285.333682 
L 368.559198 284.946783 
L 369.209809 285.058881 
L 369.860419 285.047358 
L 370.511029 285.221683 
L 371.16164 285.246074 
L 371.81225 284.959249 
L 372.46286 285.443934 
L 373.764081 284.646661 
L 374.414691 285.307135 
L 375.065302 285.306632 
L 375.715912 284.620574 
L 376.366522 283.702614 
L 377.017132 284.597862 
L 377.667743 283.697549 
L 378.318353 285.30809 
L 378.968963 285.375877 
L 379.619574 285.287179 
L 380.270184 284.827063 
L 381.571405 285.188049 
L 382.222015 284.984737 
L 382.872625 284.399352 
L 383.523236 285.089025 
L 384.173846 285.04883 
L 384.824456 274.746998 
L 385.475066 285.208973 
L 386.125677 285.487809 
L 386.776287 284.638358 
L 387.426897 283.513025 
L 388.077508 285.01892 
L 389.378728 285.033444 
L 390.029339 277.998865 
L 390.679949 285.210152 
L 391.98117 284.838791 
L 393.28239 285.297156 
L 394.583611 284.99579 
L 395.234221 285.621661 
L 398.487273 285.621661 
L 398.487273 285.621661 
" clip-path="url(#p04d6a52a7c)" style="fill: none; stroke-dasharray: 9.6,2.4,1.5,2.4; stroke-dashoffset: 0; stroke: #008000; stroke-width: 1.5"/>
   </g>
   <g id="line2d_32">
    <path d="M 73.832727 285.621661 
L 125.230942 285.620776 
L 125.881552 285.508353 
L 126.532163 285.61989 
L 139.544369 285.621218 
L 177.930377 285.607497 
L 178.580987 283.808742 
L 179.231598 285.395046 
L 179.882208 285.593334 
L 180.532818 284.715201 
L 181.183429 285.508353 
L 183.78587 285.565007 
L 184.43648 285.395046 
L 185.087091 285.395046 
L 185.737701 285.607497 
L 187.689532 285.395046 
L 188.340142 284.715201 
L 188.990752 285.508353 
L 189.641363 285.565007 
L 190.291973 285.395046 
L 190.942583 285.565007 
L 191.593194 278.369984 
L 192.243804 285.395046 
L 192.894414 256.614953 
L 193.545025 285.508353 
L 194.195635 285.395046 
L 194.846245 285.508353 
L 196.147466 284.715201 
L 196.798076 285.565007 
L 197.448686 285.395046 
L 198.099297 285.508353 
L 198.749907 285.395046 
L 199.400517 281.995822 
L 200.051128 284.715201 
L 200.701738 256.614953 
L 201.352348 283.808742 
L 202.002959 281.995822 
L 202.653569 283.808742 
L 203.304179 285.168431 
L 203.95479 284.715201 
L 204.6054 285.168431 
L 205.25601 283.808742 
L 205.906621 285.168431 
L 206.557231 285.395046 
L 207.858451 285.395046 
L 208.509062 283.808742 
L 209.159672 285.508353 
L 209.810282 285.168431 
L 210.460893 278.369984 
L 211.111503 281.995822 
L 212.412724 281.995822 
L 213.063334 285.168431 
L 213.713944 284.715201 
L 214.364555 281.995822 
L 215.015165 284.715201 
L 215.665775 283.808742 
L 216.316385 285.395046 
L 216.966996 283.808742 
L 217.617606 53.568 
L 218.268216 271.118307 
L 218.918827 284.715201 
L 219.569437 285.168431 
L 220.870658 285.565007 
L 221.521268 284.715201 
L 222.822489 284.715201 
L 223.473099 281.995822 
L 224.123709 283.808742 
L 224.77432 283.808742 
L 225.42493 169.59483 
L 226.07554 285.395046 
L 227.376761 281.995822 
L 228.027371 284.715201 
L 229.328592 284.715201 
L 229.979202 278.369984 
L 230.629812 283.808742 
L 231.280423 283.808742 
L 231.931033 278.369984 
L 232.581643 284.715201 
L 233.232254 281.995822 
L 233.882864 285.168431 
L 234.533474 283.808742 
L 235.184085 283.808742 
L 235.834695 271.118307 
L 236.485305 284.715201 
L 237.135915 283.808742 
L 237.786526 278.369984 
L 238.437136 281.995822 
L 239.087746 283.808742 
L 239.738357 284.715201 
L 240.388967 278.369984 
L 241.039577 285.168431 
L 241.690188 283.808742 
L 242.340798 281.995822 
L 242.991408 278.369984 
L 243.642019 284.715201 
L 244.292629 284.715201 
L 244.943239 281.995822 
L 245.59385 281.995822 
L 246.24446 284.715201 
L 246.89507 281.995822 
L 247.54568 283.808742 
L 248.196291 281.995822 
L 248.846901 278.369984 
L 249.497511 284.715201 
L 250.148122 281.995822 
L 250.798732 281.995822 
L 251.449342 283.808742 
L 252.099953 281.995822 
L 253.401173 281.995822 
L 254.051784 271.118307 
L 254.702394 281.995822 
L 255.353004 271.118307 
L 256.003615 283.808742 
L 256.654225 283.808742 
L 257.304835 271.118307 
L 257.955445 281.995822 
L 258.606056 284.715201 
L 259.256666 271.118307 
L 259.907276 283.808742 
L 260.557887 284.715201 
L 261.208497 278.369984 
L 261.859107 278.369984 
L 262.509718 283.808742 
L 263.160328 283.808742 
L 263.810938 278.369984 
L 264.461549 283.808742 
L 265.112159 256.614953 
L 265.762769 284.715201 
L 266.413379 281.995822 
L 267.06399 278.369984 
L 267.7146 284.715201 
L 268.36521 281.995822 
L 269.015821 284.715201 
L 269.666431 281.995822 
L 270.317041 283.808742 
L 270.967652 284.715201 
L 271.618262 281.995822 
L 272.919483 281.995822 
L 273.570093 284.715201 
L 274.220703 256.614953 
L 274.871314 284.715201 
L 275.521924 278.369984 
L 276.172534 283.808742 
L 276.823144 283.808742 
L 277.473755 284.715201 
L 278.124365 271.118307 
L 278.774975 283.808742 
L 279.425586 271.118307 
L 280.076196 278.369984 
L 280.726806 271.118307 
L 281.377417 53.568 
L 282.028027 278.369984 
L 282.678637 283.808742 
L 283.329248 284.715201 
L 283.979858 283.808742 
L 284.630468 284.715201 
L 285.281079 281.995822 
L 285.931689 283.808742 
L 286.582299 271.118307 
L 287.232909 285.168431 
L 287.88352 281.995822 
L 288.53413 283.808742 
L 289.18474 271.118307 
L 289.835351 281.995822 
L 290.485961 256.614953 
L 291.136571 281.995822 
L 291.787182 281.995822 
L 292.437792 283.808742 
L 293.739013 283.808742 
L 294.389623 285.395046 
L 295.040233 283.808742 
L 295.690844 278.369984 
L 296.341454 283.808742 
L 296.992064 284.715201 
L 297.642674 281.995822 
L 298.293285 278.369984 
L 298.943895 271.118307 
L 299.594505 281.995822 
L 300.245116 271.118307 
L 300.895726 283.808742 
L 301.546336 284.715201 
L 302.196947 283.808742 
L 302.847557 281.995822 
L 303.498167 283.808742 
L 304.148778 283.808742 
L 304.799388 285.168431 
L 305.449998 283.808742 
L 306.100608 281.995822 
L 306.751219 283.808742 
L 307.401829 283.808742 
L 308.052439 281.995822 
L 308.70305 283.808742 
L 309.35366 278.369984 
L 310.00427 283.808742 
L 311.305491 283.808742 
L 311.956101 284.715201 
L 312.606712 281.995822 
L 313.257322 271.118307 
L 313.907932 271.118307 
L 314.558543 281.995822 
L 315.209153 284.715201 
L 315.859763 278.369984 
L 316.510373 281.995822 
L 317.160984 284.715201 
L 317.811594 283.808742 
L 318.462204 281.995822 
L 319.112815 284.715201 
L 319.763425 283.808742 
L 320.414035 271.118307 
L 321.064646 283.808742 
L 321.715256 283.808742 
L 322.365866 281.995822 
L 323.016477 285.168431 
L 323.667087 281.995822 
L 324.317697 281.995822 
L 324.968308 283.808742 
L 326.269528 283.808742 
L 326.920138 281.995822 
L 327.570749 278.369984 
L 328.221359 281.995822 
L 328.871969 283.808742 
L 329.52258 284.715201 
L 330.17319 256.614953 
L 330.8238 169.59483 
L 331.474411 278.369984 
L 332.775631 278.369984 
L 333.426242 256.614953 
L 334.076852 283.808742 
L 334.727462 281.995822 
L 335.378073 278.369984 
L 336.028683 283.808742 
L 336.679293 278.369984 
L 337.329903 278.369984 
L 337.980514 281.995822 
L 338.631124 278.369984 
L 339.281734 271.118307 
L 339.932345 227.608246 
L 340.582955 283.808742 
L 341.233565 271.118307 
L 341.884176 281.995822 
L 342.534786 278.369984 
L 343.185396 271.118307 
L 343.836007 278.369984 
L 344.486617 271.118307 
L 345.137227 271.118307 
L 345.787837 256.614953 
L 346.438448 281.995822 
L 347.089058 283.808742 
L 347.739668 284.715201 
L 348.390279 281.995822 
L 349.040889 278.369984 
L 349.691499 256.614953 
L 350.34211 281.995822 
L 350.99272 271.118307 
L 351.64333 271.118307 
L 352.293941 281.995822 
L 352.944551 271.118307 
L 353.595161 278.369984 
L 354.245772 278.369984 
L 354.896382 281.995822 
L 355.546992 256.614953 
L 356.197602 278.369984 
L 356.848213 271.118307 
L 357.498823 227.608246 
L 358.149433 281.995822 
L 358.800044 271.118307 
L 359.450654 256.614953 
L 360.101264 281.995822 
L 360.751875 227.608246 
L 361.402485 278.369984 
L 362.053095 271.118307 
L 362.703706 278.369984 
L 363.354316 169.59483 
L 364.004926 271.118307 
L 364.655537 271.118307 
L 365.306147 278.369984 
L 365.956757 278.369984 
L 366.607367 256.614953 
L 367.257978 227.608246 
L 367.908588 281.995822 
L 368.559198 271.118307 
L 369.860419 271.118307 
L 370.511029 278.369984 
L 371.16164 278.369984 
L 371.81225 271.118307 
L 372.46286 283.808742 
L 373.764081 256.614953 
L 374.414691 278.369984 
L 375.065302 278.369984 
L 375.715912 256.614953 
L 376.366522 227.608246 
L 377.017132 256.614953 
L 377.667743 227.608246 
L 378.318353 278.369984 
L 378.968963 281.995822 
L 379.619574 278.369984 
L 380.270184 271.118307 
L 380.920794 271.118307 
L 381.571405 278.369984 
L 382.222015 271.118307 
L 382.872625 256.614953 
L 383.523236 271.118307 
L 384.173846 271.118307 
L 384.824456 53.568 
L 385.475066 278.369984 
L 386.125677 283.808742 
L 387.426897 227.608246 
L 388.077508 271.118307 
L 389.378728 271.118307 
L 390.029339 53.568 
L 390.679949 278.369984 
L 391.330559 271.118307 
L 392.63178 271.118307 
L 393.28239 278.369984 
L 393.933001 278.369984 
L 394.583611 271.118307 
L 395.234221 285.621661 
L 398.487273 285.621661 
L 398.487273 285.621661 
" clip-path="url(#p04d6a52a7c)" style="fill: none; stroke: #ff0000; stroke-width: 1.5; stroke-linecap: square"/>
   </g>
   <g id="patch_3">
    <path d="M 57.6 307.584 
L 57.6 41.472 
" style="fill: none; stroke: #000000; stroke-width: 0.8; stroke-linejoin: miter; stroke-linecap: square"/>
   </g>
   <g id="patch_4">
    <path d="M 414.72 307.584 
L 414.72 41.472 
" style="fill: none; stroke: #000000; stroke-width: 0.8; stroke-linejoin: miter; stroke-linecap: square"/>
   </g>
   <g id="patch_5">
    <path d="M 57.6 307.584 
L 414.72 307.584 
" style="fill: none; stroke: #000000; stroke-width: 0.8; stroke-linejoin: miter; stroke-linecap: square"/>
   </g>
   <g id="patch_6">
    <path d="M 57.6 41.472 
L 414.72 41.472 
" style="fill: none; stroke: #000000; stroke-width: 0.8; stroke-linejoin: miter; stroke-linecap: square"/>
   </g>
   <g id="text_18">
    <!-- Population's average and best fitness -->
    <g transform="translate(123.529687 35.472) scale(0.12 -0.12)">
     <defs>
      <path id="DejaVuSans-50" d="M 1259 4147 
L 1259 2394 
L 2053 2394 
Q 2494 2394 2734 2622 
Q 2975 2850 2975 3272 
Q 2975 3691 2734 3919 
Q 2494 4147 2053 4147 
L 1259 4147 
z
M 628 4666 
L 2053 4666 
Q 2838 4666 3239 4311 
Q 3641 3956 3641 3272 
Q 3641 2581 3239 2228 
Q 2838 1875 2053 1875 
L 1259 1875 
L 1259 0 
L 628 0 
L 628 4666 
z
" transform="scale(0.015625)"/>
      <path id="DejaVuSans-70" d="M 1159 525 
L 1159 -1331 
L 581 -1331 
L 581 3500 
L 1159 3500 
L 1159 2969 
Q 1341 3281 1617 3432 
Q 1894 3584 2278 3584 
Q 2916 3584 3314 3078 
Q 3713 2572 3713 1747 
Q 3713 922 3314 415 
Q 2916 -91 2278 -91 
Q 1894 -91 1617 61 
Q 1341 213 1159 525 
z
M 3116 1747 
Q 3116 2381 2855 2742 
Q 2594 3103 2138 3103 
Q 1681 3103 1420 2742 
Q 1159 2381 1159 1747 
Q 1159 1113 1420 752 
Q 1681 391 2138 391 
Q 2594 391 2855 752 
Q 3116 1113 3116 1747 
z
" transform="scale(0.015625)"/>
      <path id="DejaVuSans-75" d="M 544 1381 
L 544 3500 
L 1119 3500 
L 1119 1403 
Q 1119 906 1312 657 
Q 1506 409 1894 409 
Q 2359 409 2629 706 
Q 2900 1003 2900 1516 
L 2900 3500 
L 3475 3500 
L 3475 0 
L 2900 0 
L 2900 538 
Q 2691 219 2414 64 
Q 2138 -91 1772 -91 
Q 1169 -91 856 284 
Q 544 659 544 1381 
z
M 1991 3584 
L 1991 3584 
z
" transform="scale(0.015625)"/>
      <path id="DejaVuSans-6c" d="M 603 4863 
L 1178 4863 
L 1178 0 
L 603 0 
L 603 4863 
z
" transform="scale(0.015625)"/>
      <path id="DejaVuSans-27" d="M 1147 4666 
L 1147 2931 
L 616 2931 
L 616 4666 
L 1147 4666 
z
" transform="scale(0.015625)"/>
      <path id="DejaVuSans-20" transform="scale(0.015625)"/>
      <path id="DejaVuSans-76" d="M 191 3500 
L 800 3500 
L 1894 563 
L 2988 3500 
L 3597 3500 
L 2284 0 
L 1503 0 
L 191 3500 
z
" transform="scale(0.015625)"/>
      <path id="DejaVuSans-67" d="M 2906 1791 
Q 2906 2416 2648 2759 
Q 2391 3103 1925 3103 
Q 1463 3103 1205 2759 
Q 947 2416 947 1791 
Q 947 1169 1205 825 
Q 1463 481 1925 481 
Q 2391 481 2648 825 
Q 2906 1169 2906 1791 
z
M 3481 434 
Q 3481 -459 3084 -895 
Q 2688 -1331 1869 -1331 
Q 1566 -1331 1297 -1286 
Q 1028 -1241 775 -1147 
L 775 -588 
Q 1028 -725 1275 -790 
Q 1522 -856 1778 -856 
Q 2344 -856 2625 -561 
Q 2906 -266 2906 331 
L 2906 616 
Q 2728 306 2450 153 
Q 2172 0 1784 0 
Q 1141 0 747 490 
Q 353 981 353 1791 
Q 353 2603 747 3093 
Q 1141 3584 1784 3584 
Q 2172 3584 2450 3431 
Q 2728 3278 2906 2969 
L 2906 3500 
L 3481 3500 
L 3481 434 
z
" transform="scale(0.015625)"/>
      <path id="DejaVuSans-64" d="M 2906 2969 
L 2906 4863 
L 3481 4863 
L 3481 0 
L 2906 0 
L 2906 525 
Q 2725 213 2448 61 
Q 2172 -91 1784 -91 
Q 1150 -91 751 415 
Q 353 922 353 1747 
Q 353 2572 751 3078 
Q 1150 3584 1784 3584 
Q 2172 3584 2448 3432 
Q 2725 3281 2906 2969 
z
M 947 1747 
Q 947 1113 1208 752 
Q 1469 391 1925 391 
Q 2381 391 2643 752 
Q 2906 1113 2906 1747 
Q 2906 2381 2643 2742 
Q 2381 3103 1925 3103 
Q 1469 3103 1208 2742 
Q 947 2381 947 1747 
z
" transform="scale(0.015625)"/>
      <path id="DejaVuSans-62" d="M 3116 1747 
Q 3116 2381 2855 2742 
Q 2594 3103 2138 3103 
Q 1681 3103 1420 2742 
Q 1159 2381 1159 1747 
Q 1159 1113 1420 752 
Q 1681 391 2138 391 
Q 2594 391 2855 752 
Q 3116 1113 3116 1747 
z
M 1159 2969 
Q 1341 3281 1617 3432 
Q 1894 3584 2278 3584 
Q 2916 3584 3314 3078 
Q 3713 2572 3713 1747 
Q 3713 922 3314 415 
Q 2916 -91 2278 -91 
Q 1894 -91 1617 61 
Q 1341 213 1159 525 
L 1159 0 
L 581 0 
L 581 4863 
L 1159 4863 
L 1159 2969 
z
" transform="scale(0.015625)"/>
      <path id="DejaVuSans-66" d="M 2375 4863 
L 2375 4384 
L 1825 4384 
Q 1516 4384 1395 4259 
Q 1275 4134 1275 3809 
L 1275 3500 
L 2222 3500 
L 2222 3053 
L 1275 3053 
L 1275 0 
L 697 0 
L 697 3053 
L 147 3053 
L 147 3500 
L 697 3500 
L 697 3744 
Q 697 4328 969 4595 
Q 1241 4863 1831 4863 
L 2375 4863 
z
" transform="scale(0.015625)"/>
     </defs>
     <use xlink:href="#DejaVuSans-50"/>
     <use xlink:href="#DejaVuSans-6f" x="56.677734"/>
     <use xlink:href="#DejaVuSans-70" x="117.859375"/>
     <use xlink:href="#DejaVuSans-75" x="181.335938"/>
     <use xlink:href="#DejaVuSans-6c" x="244.714844"/>
     <use xlink:href="#DejaVuSans-61" x="272.498047"/>
     <use xlink:href="#DejaVuSans-74" x="333.777344"/>
     <use xlink:href="#DejaVuSans-69" x="372.986328"/>
     <use xlink:href="#DejaVuSans-6f" x="400.769531"/>
     <use xlink:href="#DejaVuSans-6e" x="461.951172"/>
     <use xlink:href="#DejaVuSans-27" x="525.330078"/>
     <use xlink:href="#DejaVuSans-73" x="552.820312"/>
     <use xlink:href="#DejaVuSans-20" x="604.919922"/>
     <use xlink:href="#DejaVuSans-61" x="636.707031"/>
     <use xlink:href="#DejaVuSans-76" x="697.986328"/>
     <use xlink:href="#DejaVuSans-65" x="757.166016"/>
     <use xlink:href="#DejaVuSans-72" x="818.689453"/>
     <use xlink:href="#DejaVuSans-61" x="859.802734"/>
     <use xlink:href="#DejaVuSans-67" x="921.082031"/>
     <use xlink:href="#DejaVuSans-65" x="984.558594"/>
     <use xlink:href="#DejaVuSans-20" x="1046.082031"/>
     <use xlink:href="#DejaVuSans-61" x="1077.869141"/>
     <use xlink:href="#DejaVuSans-6e" x="1139.148438"/>
     <use xlink:href="#DejaVuSans-64" x="1202.527344"/>
     <use xlink:href="#DejaVuSans-20" x="1266.003906"/>
     <use xlink:href="#DejaVuSans-62" x="1297.791016"/>
     <use xlink:href="#DejaVuSans-65" x="1361.267578"/>
     <use xlink:href="#DejaVuSans-73" x="1422.791016"/>
     <use xlink:href="#DejaVuSans-74" x="1474.890625"/>
     <use xlink:href="#DejaVuSans-20" x="1514.099609"/>
     <use xlink:href="#DejaVuSans-66" x="1545.886719"/>
     <use xlink:href="#DejaVuSans-69" x="1581.091797"/>
     <use xlink:href="#DejaVuSans-74" x="1608.875"/>
     <use xlink:href="#DejaVuSans-6e" x="1648.083984"/>
     <use xlink:href="#DejaVuSans-65" x="1711.462891"/>
     <use xlink:href="#DejaVuSans-73" x="1772.986328"/>
     <use xlink:href="#DejaVuSans-73" x="1825.085938"/>
    </g>
   </g>
   <g id="legend_1">
    <g id="patch_7">
     <path d="M 64.6 108.1845 
L 137.540625 108.1845 
Q 139.540625 108.1845 139.540625 106.1845 
L 139.540625 48.472 
Q 139.540625 46.472 137.540625 46.472 
L 64.6 46.472 
Q 62.6 46.472 62.6 48.472 
L 62.6 106.1845 
Q 62.6 108.1845 64.6 108.1845 
z
" style="fill: #ffffff; opacity: 0.8; stroke: #cccccc; stroke-linejoin: miter"/>
    </g>
    <g id="line2d_33">
     <path d="M 66.6 54.570438 
L 76.6 54.570438 
L 86.6 54.570438 
" style="fill: none; stroke: #0000ff; stroke-width: 1.5; stroke-linecap: square"/>
    </g>
    <g id="text_19">
     <!-- average -->
     <g transform="translate(94.6 58.070438) scale(0.1 -0.1)">
      <use xlink:href="#DejaVuSans-61"/>
      <use xlink:href="#DejaVuSans-76" x="61.279297"/>
      <use xlink:href="#DejaVuSans-65" x="120.458984"/>
      <use xlink:href="#DejaVuSans-72" x="181.982422"/>
      <use xlink:href="#DejaVuSans-61" x="223.095703"/>
      <use xlink:href="#DejaVuSans-67" x="284.375"/>
      <use xlink:href="#DejaVuSans-65" x="347.851562"/>
     </g>
    </g>
    <g id="line2d_34">
     <path d="M 66.6 69.248563 
L 76.6 69.248563 
L 86.6 69.248563 
" style="fill: none; stroke-dasharray: 9.6,2.4,1.5,2.4; stroke-dashoffset: 0; stroke: #008000; stroke-width: 1.5"/>
    </g>
    <g id="text_20">
     <!-- -1 sd -->
     <g transform="translate(94.6 72.748563) scale(0.1 -0.1)">
      <defs>
       <path id="DejaVuSans-2d" d="M 313 2009 
L 1997 2009 
L 1997 1497 
L 313 1497 
L 313 2009 
z
" transform="scale(0.015625)"/>
      </defs>
      <use xlink:href="#DejaVuSans-2d"/>
      <use xlink:href="#DejaVuSans-31" x="36.083984"/>
      <use xlink:href="#DejaVuSans-20" x="99.707031"/>
      <use xlink:href="#DejaVuSans-73" x="131.494141"/>
      <use xlink:href="#DejaVuSans-64" x="183.59375"/>
     </g>
    </g>
    <g id="line2d_35">
     <path d="M 66.6 83.926688 
L 76.6 83.926688 
L 86.6 83.926688 
" style="fill: none; stroke-dasharray: 9.6,2.4,1.5,2.4; stroke-dashoffset: 0; stroke: #008000; stroke-width: 1.5"/>
    </g>
    <g id="text_21">
     <!-- +1 sd -->
     <g transform="translate(94.6 87.426688) scale(0.1 -0.1)">
      <defs>
       <path id="DejaVuSans-2b" d="M 2944 4013 
L 2944 2272 
L 4684 2272 
L 4684 1741 
L 2944 1741 
L 2944 0 
L 2419 0 
L 2419 1741 
L 678 1741 
L 678 2272 
L 2419 2272 
L 2419 4013 
L 2944 4013 
z
" transform="scale(0.015625)"/>
      </defs>
      <use xlink:href="#DejaVuSans-2b"/>
      <use xlink:href="#DejaVuSans-31" x="83.789062"/>
      <use xlink:href="#DejaVuSans-20" x="147.412109"/>
      <use xlink:href="#DejaVuSans-73" x="179.199219"/>
      <use xlink:href="#DejaVuSans-64" x="231.298828"/>
     </g>
    </g>
    <g id="line2d_36">
     <path d="M 66.6 98.604813 
L 76.6 98.604813 
L 86.6 98.604813 
" style="fill: none; stroke: #ff0000; stroke-width: 1.5; stroke-linecap: square"/>
    </g>
    <g id="text_22">
     <!-- best -->
     <g transform="translate(94.6 102.104813) scale(0.1 -0.1)">
      <use xlink:href="#DejaVuSans-62"/>
      <use xlink:href="#DejaVuSans-65" x="63.476562"/>
      <use xlink:href="#DejaVuSans-73" x="125"/>
      <use xlink:href="#DejaVuSans-74" x="177.099609"/>
     </g>
    </g>
   </g>
  </g>
 </g>
 <defs>
  <clipPath id="p04d6a52a7c">
   <rect x="57.6" y="41.472" width="357.12" height="266.112"/>
  </clipPath>
 </defs>
</svg>
