<?xml version="1.0" encoding="UTF-8" standalone="no"?>
<!DOCTYPE svg PUBLIC "-//W3C//DTD SVG 1.1//EN"
 "http://www.w3.org/Graphics/SVG/1.1/DTD/svg11.dtd">
<!-- Generated by graphviz version 7.1.0 (20230121.1956)
 -->
<!-- Pages: 1 -->
<svg width="1077pt" height="92pt"
 viewBox="0.00 0.00 1077.35 91.70" xmlns="http://www.w3.org/2000/svg" xmlns:xlink="http://www.w3.org/1999/xlink">
<g id="graph0" class="graph" transform="scale(1 1) rotate(0) translate(4 87.7)">
<polygon fill="white" stroke="none" points="-4,4 -4,-87.7 1073.35,-87.7 1073.35,4 -4,4"/>
<!-- &#45;1 -->
<g id="node1" class="node">
<title>&#45;1</title>
<polygon fill="lightgray" stroke="black" points="26.85,-83.7 2.85,-83.7 2.85,-65.7 26.85,-65.7 26.85,-83.7"/>
<text text-anchor="middle" x="14.85" y="-72.5" font-family="Times,serif" font-size="9.00">&#45;1</text>
</g>
<!-- 1 -->
<g id="node26" class="node">
<title>1</title>
<ellipse fill="lightblue" stroke="black" cx="14.85" cy="-14.85" rx="14.7" ry="14.7"/>
<text text-anchor="middle" x="14.85" y="-12.65" font-family="Times,serif" font-size="9.00">1</text>
</g>
<!-- &#45;1&#45;&gt;1 -->
<g id="edge5" class="edge">
<title>&#45;1&#45;&gt;1</title>
<path fill="none" stroke="red" stroke-width="0.12" stroke-dasharray="1,5" d="M14.85,-65.65C14.85,-58.89 14.85,-48.86 14.85,-39.57"/>
<polygon fill="red" stroke="red" stroke-width="0.12" points="18.35,-39.79 14.85,-29.79 11.35,-39.79 18.35,-39.79"/>
</g>
<!-- &#45;2 -->
<g id="node2" class="node">
<title>&#45;2</title>
<polygon fill="lightgray" stroke="black" points="68.85,-83.7 44.85,-83.7 44.85,-65.7 68.85,-65.7 68.85,-83.7"/>
<text text-anchor="middle" x="56.85" y="-72.5" font-family="Times,serif" font-size="9.00">&#45;2</text>
</g>
<!-- &#45;3 -->
<g id="node3" class="node">
<title>&#45;3</title>
<polygon fill="lightgray" stroke="black" points="110.85,-83.7 86.85,-83.7 86.85,-65.7 110.85,-65.7 110.85,-83.7"/>
<text text-anchor="middle" x="98.85" y="-72.5" font-family="Times,serif" font-size="9.00">&#45;3</text>
</g>
<!-- &#45;4 -->
<g id="node4" class="node">
<title>&#45;4</title>
<polygon fill="lightgray" stroke="black" points="152.85,-83.7 128.85,-83.7 128.85,-65.7 152.85,-65.7 152.85,-83.7"/>
<text text-anchor="middle" x="140.85" y="-72.5" font-family="Times,serif" font-size="9.00">&#45;4</text>
</g>
<!-- &#45;5 -->
<g id="node5" class="node">
<title>&#45;5</title>
<polygon fill="lightgray" stroke="black" points="194.85,-83.7 170.85,-83.7 170.85,-65.7 194.85,-65.7 194.85,-83.7"/>
<text text-anchor="middle" x="182.85" y="-72.5" font-family="Times,serif" font-size="9.00">&#45;5</text>
</g>
<!-- &#45;6 -->
<g id="node6" class="node">
<title>&#45;6</title>
<polygon fill="lightgray" stroke="black" points="236.85,-83.7 212.85,-83.7 212.85,-65.7 236.85,-65.7 236.85,-83.7"/>
<text text-anchor="middle" x="224.85" y="-72.5" font-family="Times,serif" font-size="9.00">&#45;6</text>
</g>
<!-- 2 -->
<g id="node27" class="node">
<title>2</title>
<ellipse fill="lightblue" stroke="black" cx="269.85" cy="-14.85" rx="14.7" ry="14.7"/>
<text text-anchor="middle" x="269.85" y="-12.65" font-family="Times,serif" font-size="9.00">2</text>
</g>
<!-- &#45;6&#45;&gt;2 -->
<g id="edge1" class="edge">
<title>&#45;6&#45;&gt;2</title>
<path fill="none" stroke="green" stroke-width="3.99" d="M231.11,-65.65C236.36,-58.9 244.15,-48.88 251.37,-39.6"/>
<polygon fill="green" stroke="green" stroke-width="3.99" points="254.1,-41.8 257.47,-31.76 248.57,-37.5 254.1,-41.8"/>
</g>
<!-- &#45;7 -->
<g id="node7" class="node">
<title>&#45;7</title>
<polygon fill="lightgray" stroke="black" points="467.85,-83.7 443.85,-83.7 443.85,-65.7 467.85,-65.7 467.85,-83.7"/>
<text text-anchor="middle" x="455.85" y="-72.5" font-family="Times,serif" font-size="9.00">&#45;7</text>
</g>
<!-- &#45;8 -->
<g id="node8" class="node">
<title>&#45;8</title>
<polygon fill="lightgray" stroke="black" points="509.85,-83.7 485.85,-83.7 485.85,-65.7 509.85,-65.7 509.85,-83.7"/>
<text text-anchor="middle" x="497.85" y="-72.5" font-family="Times,serif" font-size="9.00">&#45;8</text>
</g>
<!-- &#45;9 -->
<g id="node9" class="node">
<title>&#45;9</title>
<polygon fill="lightgray" stroke="black" points="551.85,-83.7 527.85,-83.7 527.85,-65.7 551.85,-65.7 551.85,-83.7"/>
<text text-anchor="middle" x="539.85" y="-72.5" font-family="Times,serif" font-size="9.00">&#45;9</text>
</g>
<!-- &#45;10 -->
<g id="node10" class="node">
<title>&#45;10</title>
<polygon fill="lightgray" stroke="black" points="599.35,-83.7 570.35,-83.7 570.35,-65.7 599.35,-65.7 599.35,-83.7"/>
<text text-anchor="middle" x="584.85" y="-72.5" font-family="Times,serif" font-size="9.00">&#45;10</text>
</g>
<!-- &#45;11 -->
<g id="node11" class="node">
<title>&#45;11</title>
<polygon fill="lightgray" stroke="black" points="646.35,-83.7 617.35,-83.7 617.35,-65.7 646.35,-65.7 646.35,-83.7"/>
<text text-anchor="middle" x="631.85" y="-72.5" font-family="Times,serif" font-size="9.00">&#45;11</text>
</g>
<!-- &#45;12 -->
<g id="node12" class="node">
<title>&#45;12</title>
<polygon fill="lightgray" stroke="black" points="693.35,-83.7 664.35,-83.7 664.35,-65.7 693.35,-65.7 693.35,-83.7"/>
<text text-anchor="middle" x="678.85" y="-72.5" font-family="Times,serif" font-size="9.00">&#45;12</text>
</g>
<!-- &#45;13 -->
<g id="node13" class="node">
<title>&#45;13</title>
<polygon fill="lightgray" stroke="black" points="740.35,-83.7 711.35,-83.7 711.35,-65.7 740.35,-65.7 740.35,-83.7"/>
<text text-anchor="middle" x="725.85" y="-72.5" font-family="Times,serif" font-size="9.00">&#45;13</text>
</g>
<!-- &#45;14 -->
<g id="node14" class="node">
<title>&#45;14</title>
<polygon fill="lightgray" stroke="black" points="331.35,-83.7 302.35,-83.7 302.35,-65.7 331.35,-65.7 331.35,-83.7"/>
<text text-anchor="middle" x="316.85" y="-72.5" font-family="Times,serif" font-size="9.00">&#45;14</text>
</g>
<!-- 0 -->
<g id="node25" class="node">
<title>0</title>
<ellipse fill="lightblue" stroke="black" cx="363.85" cy="-14.85" rx="14.7" ry="14.7"/>
<text text-anchor="middle" x="363.85" y="-12.65" font-family="Times,serif" font-size="9.00">0</text>
</g>
<!-- &#45;14&#45;&gt;0 -->
<g id="edge4" class="edge">
<title>&#45;14&#45;&gt;0</title>
<path fill="none" stroke="green" stroke-width="0.3" stroke-dasharray="1,5" d="M323.38,-65.65C329.83,-57.72 339.93,-45.29 348.43,-34.83"/>
<polygon fill="green" stroke="green" stroke-width="0.3" points="350.92,-37.31 354.51,-27.34 345.49,-32.9 350.92,-37.31"/>
</g>
<!-- &#45;14&#45;&gt;2 -->
<g id="edge3" class="edge">
<title>&#45;14&#45;&gt;2</title>
<path fill="none" stroke="green" stroke-width="4.88" d="M310.31,-65.65C304.76,-58.82 296.5,-48.65 288.88,-39.28"/>
<polygon fill="green" stroke="green" stroke-width="4.88" points="292.44,-36.89 282.82,-31.82 285.81,-42.27 292.44,-36.89"/>
</g>
<!-- &#45;15 -->
<g id="node15" class="node">
<title>&#45;15</title>
<polygon fill="lightgray" stroke="black" points="787.35,-83.7 758.35,-83.7 758.35,-65.7 787.35,-65.7 787.35,-83.7"/>
<text text-anchor="middle" x="772.85" y="-72.5" font-family="Times,serif" font-size="9.00">&#45;15</text>
</g>
<!-- &#45;16 -->
<g id="node16" class="node">
<title>&#45;16</title>
<polygon fill="lightgray" stroke="black" points="834.35,-83.7 805.35,-83.7 805.35,-65.7 834.35,-65.7 834.35,-83.7"/>
<text text-anchor="middle" x="819.85" y="-72.5" font-family="Times,serif" font-size="9.00">&#45;16</text>
</g>
<!-- &#45;17 -->
<g id="node17" class="node">
<title>&#45;17</title>
<polygon fill="lightgray" stroke="black" points="881.35,-83.7 852.35,-83.7 852.35,-65.7 881.35,-65.7 881.35,-83.7"/>
<text text-anchor="middle" x="866.85" y="-72.5" font-family="Times,serif" font-size="9.00">&#45;17</text>
</g>
<!-- &#45;18 -->
<g id="node18" class="node">
<title>&#45;18</title>
<polygon fill="lightgray" stroke="black" points="928.35,-83.7 899.35,-83.7 899.35,-65.7 928.35,-65.7 928.35,-83.7"/>
<text text-anchor="middle" x="913.85" y="-72.5" font-family="Times,serif" font-size="9.00">&#45;18</text>
</g>
<!-- &#45;19 -->
<g id="node19" class="node">
<title>&#45;19</title>
<polygon fill="lightgray" stroke="black" points="284.35,-83.7 255.35,-83.7 255.35,-65.7 284.35,-65.7 284.35,-83.7"/>
<text text-anchor="middle" x="269.85" y="-72.5" font-family="Times,serif" font-size="9.00">&#45;19</text>
</g>
<!-- &#45;19&#45;&gt;2 -->
<g id="edge2" class="edge">
<title>&#45;19&#45;&gt;2</title>
<path fill="none" stroke="red" stroke-width="3.51" d="M269.85,-65.65C269.85,-60.12 269.85,-52.41 269.85,-44.71"/>
<polygon fill="red" stroke="red" stroke-width="3.51" points="273.35,-44.91 269.85,-34.91 266.35,-44.91 273.35,-44.91"/>
</g>
<!-- &#45;20 -->
<g id="node20" class="node">
<title>&#45;20</title>
<polygon fill="lightgray" stroke="black" points="975.35,-83.7 946.35,-83.7 946.35,-65.7 975.35,-65.7 975.35,-83.7"/>
<text text-anchor="middle" x="960.85" y="-72.5" font-family="Times,serif" font-size="9.00">&#45;20</text>
</g>
<!-- &#45;21 -->
<g id="node21" class="node">
<title>&#45;21</title>
<polygon fill="lightgray" stroke="black" points="1022.35,-83.7 993.35,-83.7 993.35,-65.7 1022.35,-65.7 1022.35,-83.7"/>
<text text-anchor="middle" x="1007.85" y="-72.5" font-family="Times,serif" font-size="9.00">&#45;21</text>
</g>
<!-- &#45;22 -->
<g id="node22" class="node">
<title>&#45;22</title>
<polygon fill="lightgray" stroke="black" points="1069.35,-83.7 1040.35,-83.7 1040.35,-65.7 1069.35,-65.7 1069.35,-83.7"/>
<text text-anchor="middle" x="1054.85" y="-72.5" font-family="Times,serif" font-size="9.00">&#45;22</text>
</g>
<!-- &#45;23 -->
<g id="node23" class="node">
<title>&#45;23</title>
<polygon fill="lightgray" stroke="black" points="378.35,-83.7 349.35,-83.7 349.35,-65.7 378.35,-65.7 378.35,-83.7"/>
<text text-anchor="middle" x="363.85" y="-72.5" font-family="Times,serif" font-size="9.00">&#45;23</text>
</g>
<!-- &#45;23&#45;&gt;0 -->
<g id="edge6" class="edge">
<title>&#45;23&#45;&gt;0</title>
<path fill="none" stroke="red" stroke-width="0.37" stroke-dasharray="1,5" d="M363.85,-65.65C363.85,-59.03 363.85,-49.29 363.85,-40.17"/>
<polygon fill="red" stroke="red" stroke-width="0.37" points="367.35,-40.17 363.85,-30.17 360.35,-40.17 367.35,-40.17"/>
</g>
<!-- &#45;24 -->
<g id="node24" class="node">
<title>&#45;24</title>
<polygon fill="lightgray" stroke="black" points="425.35,-83.7 396.35,-83.7 396.35,-65.7 425.35,-65.7 425.35,-83.7"/>
<text text-anchor="middle" x="410.85" y="-72.5" font-family="Times,serif" font-size="9.00">&#45;24</text>
</g>
<!-- &#45;24&#45;&gt;0 -->
<g id="edge7" class="edge">
<title>&#45;24&#45;&gt;0</title>
<path fill="none" stroke="red" stroke-width="0.1" stroke-dasharray="1,5" d="M404.31,-65.65C397.87,-57.72 387.77,-45.29 379.27,-34.83"/>
<polygon fill="red" stroke="red" stroke-width="0.1" points="382.02,-32.67 373,-27.12 376.59,-37.08 382.02,-32.67"/>
</g>
</g>
</svg>
