<?xml version="1.0" encoding="UTF-8" standalone="no"?>
<!DOCTYPE svg PUBLIC "-//W3C//DTD SVG 1.1//EN"
 "http://www.w3.org/Graphics/SVG/1.1/DTD/svg11.dtd">
<!-- Generated by graphviz version 7.1.0 (20230121.1956)
 -->
<!-- Pages: 1 -->
<svg width="1078pt" height="92pt"
 viewBox="0.00 0.00 1077.50 91.70" xmlns="http://www.w3.org/2000/svg" xmlns:xlink="http://www.w3.org/1999/xlink">
<g id="graph0" class="graph" transform="scale(1 1) rotate(0) translate(4 87.7)">
<polygon fill="white" stroke="none" points="-4,4 -4,-87.7 1073.5,-87.7 1073.5,4 -4,4"/>
<!-- &#45;1 -->
<g id="node1" class="node">
<title>&#45;1</title>
<polygon fill="lightgray" stroke="black" points="114,-83.7 90,-83.7 90,-65.7 114,-65.7 114,-83.7"/>
<text text-anchor="middle" x="102" y="-72.5" font-family="Times,serif" font-size="9.00">&#45;1</text>
</g>
<!-- 0 -->
<g id="node25" class="node">
<title>0</title>
<ellipse fill="lightblue" stroke="black" cx="320" cy="-14.85" rx="14.7" ry="14.7"/>
<text text-anchor="middle" x="320" y="-12.65" font-family="Times,serif" font-size="9.00">0</text>
</g>
<!-- &#45;1&#45;&gt;0 -->
<g id="edge49" class="edge">
<title>&#45;1&#45;&gt;0</title>
<path fill="none" stroke="red" stroke-width="0.46" d="M114.35,-68.72C117.17,-67.66 120.17,-66.59 123,-65.7 184.24,-46.36 257.99,-29.32 295.5,-21.09"/>
<polygon fill="red" stroke="red" stroke-width="0.46" points="295.8,-24.6 304.83,-19.06 294.31,-17.76 295.8,-24.6"/>
</g>
<!-- 2 -->
<g id="node27" class="node">
<title>2</title>
<ellipse fill="lightblue" stroke="black" cx="391" cy="-14.85" rx="14.7" ry="14.7"/>
<text text-anchor="middle" x="391" y="-12.65" font-family="Times,serif" font-size="9.00">2</text>
</g>
<!-- &#45;1&#45;&gt;2 -->
<g id="edge25" class="edge">
<title>&#45;1&#45;&gt;2</title>
<path fill="none" stroke="red" stroke-width="0.25" d="M114.3,-68.54C117.12,-67.49 120.14,-66.47 123,-65.7 219.1,-39.85 246.97,-51.81 344,-29.7 351.67,-27.95 359.92,-25.66 367.35,-23.45"/>
<polygon fill="red" stroke="red" stroke-width="0.25" points="368.25,-26.83 376.78,-20.54 366.19,-20.14 368.25,-26.83"/>
</g>
<!-- &#45;2 -->
<g id="node2" class="node">
<title>&#45;2</title>
<polygon fill="lightgray" stroke="black" points="796,-83.7 772,-83.7 772,-65.7 796,-65.7 796,-83.7"/>
<text text-anchor="middle" x="784" y="-72.5" font-family="Times,serif" font-size="9.00">&#45;2</text>
</g>
<!-- 1 -->
<g id="node26" class="node">
<title>1</title>
<ellipse fill="lightblue" stroke="black" cx="624" cy="-14.85" rx="14.7" ry="14.7"/>
<text text-anchor="middle" x="624" y="-12.65" font-family="Times,serif" font-size="9.00">1</text>
</g>
<!-- &#45;2&#45;&gt;1 -->
<g id="edge23" class="edge">
<title>&#45;2&#45;&gt;1</title>
<path fill="none" stroke="green" stroke-width="0.78" stroke-dasharray="1,5" d="M771.58,-68.92C768.76,-67.85 765.78,-66.73 763,-65.7 722.85,-50.85 675.93,-34.16 648.16,-24.35"/>
<polygon fill="green" stroke="green" stroke-width="0.78" points="649.54,-21.13 638.95,-21.1 647.22,-27.73 649.54,-21.13"/>
</g>
<!-- &#45;2&#45;&gt;2 -->
<g id="edge12" class="edge">
<title>&#45;2&#45;&gt;2</title>
<path fill="none" stroke="red" stroke-width="1.33" stroke-dasharray="1,5" d="M771.72,-68.48C768.89,-67.43 765.87,-66.43 763,-65.7 635.93,-33.44 478.83,-21.1 417.38,-17.29"/>
<polygon fill="red" stroke="red" stroke-width="1.33" points="417.96,-13.82 407.77,-16.72 417.54,-20.81 417.96,-13.82"/>
</g>
<!-- &#45;3 -->
<g id="node3" class="node">
<title>&#45;3</title>
<polygon fill="lightgray" stroke="black" points="659,-83.7 635,-83.7 635,-65.7 659,-65.7 659,-83.7"/>
<text text-anchor="middle" x="647" y="-72.5" font-family="Times,serif" font-size="9.00">&#45;3</text>
</g>
<!-- &#45;3&#45;&gt;0 -->
<g id="edge48" class="edge">
<title>&#45;3&#45;&gt;0</title>
<path fill="none" stroke="red" stroke-width="0.2" stroke-dasharray="1,5" d="M634.71,-68.49C631.89,-67.44 628.87,-66.44 626,-65.7 513.43,-36.83 480.61,-54.19 367,-29.7 359.31,-28.04 351.05,-25.78 343.63,-23.56"/>
<polygon fill="red" stroke="red" stroke-width="0.2" points="344.72,-20.23 334.13,-20.61 342.65,-26.92 344.72,-20.23"/>
</g>
<!-- &#45;3&#45;&gt;1 -->
<g id="edge13" class="edge">
<title>&#45;3&#45;&gt;1</title>
<path fill="none" stroke="green" stroke-width="5.91" d="M643.8,-65.65C641.51,-59.9 638.29,-51.79 635.11,-43.78"/>
<polygon fill="green" stroke="green" stroke-width="5.91" points="639.99,-42.07 631.49,-34.69 630.38,-45.9 639.99,-42.07"/>
</g>
<!-- &#45;4 -->
<g id="node4" class="node">
<title>&#45;4</title>
<polygon fill="lightgray" stroke="black" points="838,-83.7 814,-83.7 814,-65.7 838,-65.7 838,-83.7"/>
<text text-anchor="middle" x="826" y="-72.5" font-family="Times,serif" font-size="9.00">&#45;4</text>
</g>
<!-- &#45;4&#45;&gt;1 -->
<g id="edge39" class="edge">
<title>&#45;4&#45;&gt;1</title>
<path fill="none" stroke="green" stroke-width="0.34" stroke-dasharray="1,5" d="M813.63,-68.76C810.81,-67.7 807.82,-66.62 805,-65.7 749.42,-47.5 682.83,-30.32 647.97,-21.68"/>
<polygon fill="green" stroke="green" stroke-width="0.34" points="649.26,-18.39 638.71,-19.4 647.59,-25.19 649.26,-18.39"/>
</g>
<!-- &#45;4&#45;&gt;2 -->
<g id="edge30" class="edge">
<title>&#45;4&#45;&gt;2</title>
<path fill="none" stroke="green" stroke-width="0.64" stroke-dasharray="1,5" d="M813.72,-68.45C810.9,-67.4 807.88,-66.41 805,-65.7 661.08,-30.19 482.54,-19.59 416.82,-16.77"/>
<polygon fill="green" stroke="green" stroke-width="0.64" points="417,-13.28 406.87,-16.37 416.72,-20.27 417,-13.28"/>
</g>
<!-- &#45;5 -->
<g id="node5" class="node">
<title>&#45;5</title>
<polygon fill="lightgray" stroke="black" points="198,-83.7 174,-83.7 174,-65.7 198,-65.7 198,-83.7"/>
<text text-anchor="middle" x="186" y="-72.5" font-family="Times,serif" font-size="9.00">&#45;5</text>
</g>
<!-- &#45;5&#45;&gt;0 -->
<g id="edge43" class="edge">
<title>&#45;5&#45;&gt;0</title>
<path fill="none" stroke="green" stroke-width="1.04" stroke-dasharray="1,5" d="M198.37,-68.36C220.56,-58.78 267.5,-38.52 296.14,-26.15"/>
<polygon fill="green" stroke="green" stroke-width="1.04" points="297.24,-29.49 305.03,-22.31 294.46,-23.06 297.24,-29.49"/>
</g>
<!-- &#45;5&#45;&gt;1 -->
<g id="edge3" class="edge">
<title>&#45;5&#45;&gt;1</title>
<path fill="none" stroke="red" stroke-width="0.11" d="M198.28,-68.45C201.1,-67.4 204.12,-66.41 207,-65.7 352.86,-29.78 534.04,-19.39 599.21,-16.7"/>
<polygon fill="red" stroke="red" stroke-width="0.11" points="598.97,-20.21 608.83,-16.33 598.7,-13.22 598.97,-20.21"/>
</g>
<!-- &#45;5&#45;&gt;2 -->
<g id="edge44" class="edge">
<title>&#45;5&#45;&gt;2</title>
<path fill="none" stroke="red" stroke-width="0.82" d="M198.36,-68.74C201.18,-67.68 204.18,-66.6 207,-65.7 266.95,-46.46 283.35,-46.6 344,-29.7 351.31,-27.66 359.24,-25.36 366.46,-23.23"/>
<polygon fill="red" stroke="red" stroke-width="0.82" points="367.27,-26.64 375.86,-20.43 365.28,-19.93 367.27,-26.64"/>
</g>
<!-- &#45;6 -->
<g id="node6" class="node">
<title>&#45;6</title>
<polygon fill="lightgray" stroke="black" points="156,-83.7 132,-83.7 132,-65.7 156,-65.7 156,-83.7"/>
<text text-anchor="middle" x="144" y="-72.5" font-family="Times,serif" font-size="9.00">&#45;6</text>
</g>
<!-- &#45;6&#45;&gt;0 -->
<g id="edge2" class="edge">
<title>&#45;6&#45;&gt;0</title>
<path fill="none" stroke="green" stroke-width="2.98" d="M156.4,-68.85C159.21,-67.78 162.2,-66.68 165,-65.7 209.24,-50.17 261.22,-33.84 292.34,-24.26"/>
<polygon fill="green" stroke="green" stroke-width="2.98" points="292.96,-27.73 301.5,-21.46 290.91,-21.04 292.96,-27.73"/>
</g>
<!-- &#45;6&#45;&gt;2 -->
<g id="edge15" class="edge">
<title>&#45;6&#45;&gt;2</title>
<path fill="none" stroke="green" stroke-width="0.76" d="M156.32,-68.62C159.14,-67.56 162.15,-66.52 165,-65.7 242.96,-43.18 265.23,-49.19 344,-29.7 351.37,-27.88 359.31,-25.64 366.54,-23.5"/>
<polygon fill="green" stroke="green" stroke-width="0.76" points="367.45,-26.88 376,-20.63 365.42,-20.18 367.45,-26.88"/>
</g>
<!-- &#45;7 -->
<g id="node7" class="node">
<title>&#45;7</title>
<polygon fill="lightgray" stroke="black" points="240,-83.7 216,-83.7 216,-65.7 240,-65.7 240,-83.7"/>
<text text-anchor="middle" x="228" y="-72.5" font-family="Times,serif" font-size="9.00">&#45;7</text>
</g>
<!-- &#45;7&#45;&gt;0 -->
<g id="edge37" class="edge">
<title>&#45;7&#45;&gt;0</title>
<path fill="none" stroke="red" stroke-width="0.94" stroke-dasharray="1,5" d="M240.41,-65.9C255.24,-56.57 280.31,-40.81 298.35,-29.46"/>
<polygon fill="red" stroke="red" stroke-width="0.94" points="299.98,-32.57 306.59,-24.28 296.26,-26.64 299.98,-32.57"/>
</g>
<!-- &#45;7&#45;&gt;1 -->
<g id="edge14" class="edge">
<title>&#45;7&#45;&gt;1</title>
<path fill="none" stroke="red" stroke-width="0.74" stroke-dasharray="1,5" d="M240.28,-68.47C243.11,-67.43 246.13,-66.43 249,-65.7 377.63,-33.12 536.79,-20.92 598.18,-17.22"/>
<polygon fill="red" stroke="red" stroke-width="0.74" points="598.22,-20.72 608,-16.65 597.82,-13.73 598.22,-20.72"/>
</g>
<!-- &#45;7&#45;&gt;2 -->
<g id="edge35" class="edge">
<title>&#45;7&#45;&gt;2</title>
<path fill="none" stroke="red" stroke-width="0.11" d="M240.42,-68.91C243.23,-67.84 246.22,-66.72 249,-65.7 290.74,-50.42 339.71,-33.44 367.87,-23.76"/>
<polygon fill="red" stroke="red" stroke-width="0.11" points="368.76,-27.15 377.09,-20.6 366.49,-20.53 368.76,-27.15"/>
</g>
<!-- &#45;8 -->
<g id="node8" class="node">
<title>&#45;8</title>
<polygon fill="lightgray" stroke="black" points="928,-83.7 904,-83.7 904,-65.7 928,-65.7 928,-83.7"/>
<text text-anchor="middle" x="916" y="-72.5" font-family="Times,serif" font-size="9.00">&#45;8</text>
</g>
<!-- &#45;8&#45;&gt;1 -->
<g id="edge8" class="edge">
<title>&#45;8&#45;&gt;1</title>
<path fill="none" stroke="red" stroke-width="0.57" stroke-dasharray="1,5" d="M903.69,-68.58C900.87,-67.53 897.86,-66.5 895,-65.7 806.48,-40.92 698.16,-25.25 649.64,-18.98"/>
<polygon fill="red" stroke="red" stroke-width="0.57" points="650.11,-15.51 639.75,-17.73 649.23,-22.46 650.11,-15.51"/>
</g>
<!-- &#45;9 -->
<g id="node9" class="node">
<title>&#45;9</title>
<polygon fill="lightgray" stroke="black" points="24,-83.7 0,-83.7 0,-65.7 24,-65.7 24,-83.7"/>
<text text-anchor="middle" x="12" y="-72.5" font-family="Times,serif" font-size="9.00">&#45;9</text>
</g>
<!-- &#45;9&#45;&gt;0 -->
<g id="edge9" class="edge">
<title>&#45;9&#45;&gt;0</title>
<path fill="none" stroke="green" stroke-width="2.73" d="M24.31,-68.56C27.13,-67.51 30.14,-66.48 33,-65.7 125.79,-40.22 239.19,-25.08 291.31,-18.98"/>
<polygon fill="green" stroke="green" stroke-width="2.73" points="291.49,-22.48 301.03,-17.88 290.7,-15.53 291.49,-22.48"/>
</g>
<!-- &#45;9&#45;&gt;2 -->
<g id="edge27" class="edge">
<title>&#45;9&#45;&gt;2</title>
<path fill="none" stroke="green" stroke-width="1.63" stroke-dasharray="1,5" d="M24.27,-68.44C27.1,-67.39 30.12,-66.4 33,-65.7 168.17,-32.68 207.65,-57.46 344,-29.7 351,-28.27 358.46,-26.29 365.33,-24.28"/>
<polygon fill="green" stroke="green" stroke-width="1.63" points="366.3,-27.64 374.82,-21.33 364.23,-20.95 366.3,-27.64"/>
</g>
<!-- &#45;10 -->
<g id="node10" class="node">
<title>&#45;10</title>
<polygon fill="lightgray" stroke="black" points="287.5,-83.7 258.5,-83.7 258.5,-65.7 287.5,-65.7 287.5,-83.7"/>
<text text-anchor="middle" x="273" y="-72.5" font-family="Times,serif" font-size="9.00">&#45;10</text>
</g>
<!-- &#45;10&#45;&gt;0 -->
<g id="edge4" class="edge">
<title>&#45;10&#45;&gt;0</title>
<path fill="none" stroke="red" stroke-width="2.17" d="M279.54,-65.65C285.54,-58.27 294.7,-46.99 302.79,-37.03"/>
<polygon fill="red" stroke="red" stroke-width="2.17" points="305.28,-39.52 308.87,-29.55 299.85,-35.1 305.28,-39.52"/>
</g>
<!-- &#45;10&#45;&gt;1 -->
<g id="edge33" class="edge">
<title>&#45;10&#45;&gt;1</title>
<path fill="none" stroke="green" stroke-width="0.45" stroke-dasharray="1,5" d="M287.97,-68.05C290.62,-67.17 293.37,-66.35 296,-65.7 406.92,-38.23 542.91,-23.4 598.49,-18.11"/>
<polygon fill="green" stroke="green" stroke-width="0.45" points="598.79,-21.6 608.42,-17.19 598.14,-14.63 598.79,-21.6"/>
</g>
<!-- &#45;10&#45;&gt;2 -->
<g id="edge51" class="edge">
<title>&#45;10&#45;&gt;2</title>
<path fill="none" stroke="green" stroke-width="0.47" stroke-dasharray="1,5" d="M287.94,-66.37C308.26,-56.41 344.75,-38.52 368.42,-26.92"/>
<polygon fill="green" stroke="green" stroke-width="0.47" points="369.91,-30.08 377.35,-22.54 366.83,-23.8 369.91,-30.08"/>
</g>
<!-- &#45;11 -->
<g id="node11" class="node">
<title>&#45;11</title>
<polygon fill="lightgray" stroke="black" points="975.5,-83.7 946.5,-83.7 946.5,-65.7 975.5,-65.7 975.5,-83.7"/>
<text text-anchor="middle" x="961" y="-72.5" font-family="Times,serif" font-size="9.00">&#45;11</text>
</g>
<!-- &#45;11&#45;&gt;1 -->
<g id="edge36" class="edge">
<title>&#45;11&#45;&gt;1</title>
<path fill="none" stroke="green" stroke-width="0.35" d="M946.13,-68.32C943.13,-67.36 939.99,-66.43 937,-65.7 831.46,-39.89 702.52,-24.24 649.06,-18.43"/>
<polygon fill="green" stroke="green" stroke-width="0.35" points="649.67,-14.97 639.36,-17.39 648.93,-21.93 649.67,-14.97"/>
</g>
<!-- &#45;12 -->
<g id="node12" class="node">
<title>&#45;12</title>
<polygon fill="lightgray" stroke="black" points="71.5,-83.7 42.5,-83.7 42.5,-65.7 71.5,-65.7 71.5,-83.7"/>
<text text-anchor="middle" x="57" y="-72.5" font-family="Times,serif" font-size="9.00">&#45;12</text>
</g>
<!-- &#45;12&#45;&gt;0 -->
<g id="edge26" class="edge">
<title>&#45;12&#45;&gt;0</title>
<path fill="none" stroke="red" stroke-width="0.9" d="M71.9,-68.43C74.89,-67.46 78.03,-66.5 81,-65.7 157.68,-45 250.15,-27.89 294.22,-20.21"/>
<polygon fill="red" stroke="red" stroke-width="0.9" points="294.7,-23.68 303.96,-18.53 293.51,-16.78 294.7,-23.68"/>
</g>
<!-- &#45;12&#45;&gt;2 -->
<g id="edge40" class="edge">
<title>&#45;12&#45;&gt;2</title>
<path fill="none" stroke="red" stroke-width="0.34" d="M71.86,-68.27C74.85,-67.31 78.01,-66.4 81,-65.7 195.9,-38.93 228.64,-54.44 344,-29.7 351.69,-28.05 359.95,-25.79 367.37,-23.57"/>
<polygon fill="red" stroke="red" stroke-width="0.34" points="368.16,-26.99 376.67,-20.68 366.08,-20.3 368.16,-26.99"/>
</g>
<!-- &#45;13 -->
<g id="node13" class="node">
<title>&#45;13</title>
<polygon fill="lightgray" stroke="black" points="334.5,-83.7 305.5,-83.7 305.5,-65.7 334.5,-65.7 334.5,-83.7"/>
<text text-anchor="middle" x="320" y="-72.5" font-family="Times,serif" font-size="9.00">&#45;13</text>
</g>
<!-- &#45;13&#45;&gt;0 -->
<g id="edge10" class="edge">
<title>&#45;13&#45;&gt;0</title>
<path fill="none" stroke="green" stroke-width="0.13" stroke-dasharray="1,5" d="M320,-65.65C320,-58.89 320,-48.86 320,-39.57"/>
<polygon fill="green" stroke="green" stroke-width="0.13" points="323.5,-39.8 320,-29.8 316.5,-39.8 323.5,-39.8"/>
</g>
<!-- &#45;13&#45;&gt;1 -->
<g id="edge17" class="edge">
<title>&#45;13&#45;&gt;1</title>
<path fill="none" stroke="red" stroke-width="0.21" stroke-dasharray="1,5" d="M334.99,-68.1C337.64,-67.22 340.38,-66.38 343,-65.7 436.15,-41.4 549.78,-25.27 599.14,-18.91"/>
<polygon fill="red" stroke="red" stroke-width="0.21" points="599.4,-22.4 608.88,-17.67 598.52,-15.46 599.4,-22.4"/>
</g>
<!-- &#45;13&#45;&gt;2 -->
<g id="edge45" class="edge">
<title>&#45;13&#45;&gt;2</title>
<path fill="none" stroke="red" stroke-width="0.68" d="M330.17,-65.41C340.89,-56.68 358.03,-42.71 371.39,-31.83"/>
<polygon fill="red" stroke="red" stroke-width="0.68" points="373.57,-34.57 379.11,-25.54 369.15,-29.14 373.57,-34.57"/>
</g>
<!-- &#45;14 -->
<g id="node14" class="node">
<title>&#45;14</title>
<polygon fill="lightgray" stroke="black" points="381.5,-83.7 352.5,-83.7 352.5,-65.7 381.5,-65.7 381.5,-83.7"/>
<text text-anchor="middle" x="367" y="-72.5" font-family="Times,serif" font-size="9.00">&#45;14</text>
</g>
<!-- &#45;14&#45;&gt;0 -->
<g id="edge38" class="edge">
<title>&#45;14&#45;&gt;0</title>
<path fill="none" stroke="red" stroke-width="0.15" stroke-dasharray="1,5" d="M360.46,-65.65C354.02,-57.72 343.92,-45.29 335.42,-34.83"/>
<polygon fill="red" stroke="red" stroke-width="0.15" points="338.22,-32.72 329.2,-27.17 332.79,-37.14 338.22,-32.72"/>
</g>
<!-- &#45;14&#45;&gt;1 -->
<g id="edge6" class="edge">
<title>&#45;14&#45;&gt;1</title>
<path fill="none" stroke="red" stroke-width="4.18" d="M381.51,-68.34C384.31,-67.4 387.23,-66.47 390,-65.7 462.07,-45.57 548.57,-29.09 593.52,-21.09"/>
<polygon fill="red" stroke="red" stroke-width="4.18" points="594.12,-24.69 603.34,-19.37 592.86,-17.49 594.12,-24.69"/>
</g>
<!-- &#45;14&#45;&gt;2 -->
<g id="edge28" class="edge">
<title>&#45;14&#45;&gt;2</title>
<path fill="none" stroke="green" stroke-width="0.23" stroke-dasharray="1,5" d="M370.34,-65.65C373.28,-58.56 377.72,-47.87 381.72,-38.21"/>
<polygon fill="green" stroke="green" stroke-width="0.23" points="384.93,-39.61 385.53,-29.03 378.47,-36.93 384.93,-39.61"/>
</g>
<!-- &#45;15 -->
<g id="node15" class="node">
<title>&#45;15</title>
<polygon fill="lightgray" stroke="black" points="885.5,-83.7 856.5,-83.7 856.5,-65.7 885.5,-65.7 885.5,-83.7"/>
<text text-anchor="middle" x="871" y="-72.5" font-family="Times,serif" font-size="9.00">&#45;15</text>
</g>
<!-- &#45;15&#45;&gt;1 -->
<g id="edge16" class="edge">
<title>&#45;15&#45;&gt;1</title>
<path fill="none" stroke="green" stroke-width="0.26" stroke-dasharray="1,5" d="M856.09,-68.47C853.1,-67.49 849.96,-66.52 847,-65.7 775.75,-45.91 690.02,-28.51 648.68,-20.51"/>
<polygon fill="green" stroke="green" stroke-width="0.26" points="649.35,-17.08 638.87,-18.63 648.03,-23.95 649.35,-17.08"/>
</g>
<!-- &#45;15&#45;&gt;2 -->
<g id="edge46" class="edge">
<title>&#45;15&#45;&gt;2</title>
<path fill="none" stroke="red" stroke-width="0.64" d="M856.16,-68.21C853.16,-67.25 850,-66.36 847,-65.7 763.49,-47.43 499.38,-24.75 416.29,-17.9"/>
<polygon fill="red" stroke="red" stroke-width="0.64" points="416.81,-14.43 406.56,-17.1 416.24,-21.41 416.81,-14.43"/>
</g>
<!-- &#45;16 -->
<g id="node16" class="node">
<title>&#45;16</title>
<polygon fill="lightgray" stroke="black" points="706.5,-83.7 677.5,-83.7 677.5,-65.7 706.5,-65.7 706.5,-83.7"/>
<text text-anchor="middle" x="692" y="-72.5" font-family="Times,serif" font-size="9.00">&#45;16</text>
</g>
<!-- &#45;16&#45;&gt;1 -->
<g id="edge11" class="edge">
<title>&#45;16&#45;&gt;1</title>
<path fill="none" stroke="green" stroke-width="0.46" d="M682.26,-65.41C671.89,-56.59 655.26,-42.44 642.41,-31.51"/>
<polygon fill="green" stroke="green" stroke-width="0.46" points="645.03,-29.15 635.15,-25.33 640.49,-34.48 645.03,-29.15"/>
</g>
<!-- &#45;16&#45;&gt;2 -->
<g id="edge41" class="edge">
<title>&#45;16&#45;&gt;2</title>
<path fill="none" stroke="green" stroke-width="0.3" d="M677.12,-68.37C674.12,-67.4 670.98,-66.46 668,-65.7 576.42,-42.32 465.09,-25.81 416.14,-19.14"/>
<polygon fill="green" stroke="green" stroke-width="0.3" points="416.71,-15.68 406.33,-17.82 415.78,-22.62 416.71,-15.68"/>
</g>
<!-- &#45;17 -->
<g id="node17" class="node">
<title>&#45;17</title>
<polygon fill="lightgray" stroke="black" points="428.5,-83.7 399.5,-83.7 399.5,-65.7 428.5,-65.7 428.5,-83.7"/>
<text text-anchor="middle" x="414" y="-72.5" font-family="Times,serif" font-size="9.00">&#45;17</text>
</g>
<!-- &#45;17&#45;&gt;0 -->
<g id="edge34" class="edge">
<title>&#45;17&#45;&gt;0</title>
<path fill="none" stroke="red" stroke-width="0.71" d="M400.53,-65.41C385.11,-55.92 359.64,-40.25 341.48,-29.07"/>
<polygon fill="red" stroke="red" stroke-width="0.71" points="343.51,-26.21 333.16,-23.95 339.84,-32.17 343.51,-26.21"/>
</g>
<!-- &#45;17&#45;&gt;1 -->
<g id="edge22" class="edge">
<title>&#45;17&#45;&gt;1</title>
<path fill="none" stroke="green" stroke-width="0.2" stroke-dasharray="1,5" d="M428.55,-68.46C431.34,-67.5 434.25,-66.54 437,-65.7 494.93,-47.93 564.04,-30.46 599.83,-21.68"/>
<polygon fill="green" stroke="green" stroke-width="0.2" points="600.64,-25.09 609.53,-19.32 598.98,-18.29 600.64,-25.09"/>
</g>
<!-- &#45;17&#45;&gt;2 -->
<g id="edge47" class="edge">
<title>&#45;17&#45;&gt;2</title>
<path fill="none" stroke="red" stroke-width="0.53" d="M410.8,-65.65C408.01,-58.63 403.82,-48.09 400.01,-38.52"/>
<polygon fill="red" stroke="red" stroke-width="0.53" points="403.36,-37.45 396.41,-29.45 396.85,-40.04 403.36,-37.45"/>
</g>
<!-- &#45;18 -->
<g id="node18" class="node">
<title>&#45;18</title>
<polygon fill="lightgray" stroke="black" points="522.5,-83.7 493.5,-83.7 493.5,-65.7 522.5,-65.7 522.5,-83.7"/>
<text text-anchor="middle" x="508" y="-72.5" font-family="Times,serif" font-size="9.00">&#45;18</text>
</g>
<!-- &#45;18&#45;&gt;0 -->
<g id="edge7" class="edge">
<title>&#45;18&#45;&gt;0</title>
<path fill="none" stroke="green" stroke-width="0.67" d="M493.04,-68.64C490.05,-67.65 486.93,-66.63 484,-65.7 434.54,-49.94 376.34,-32.51 344.27,-23.01"/>
<polygon fill="green" stroke="green" stroke-width="0.67" points="345.64,-19.76 335.06,-20.28 343.65,-26.47 345.64,-19.76"/>
</g>
<!-- &#45;18&#45;&gt;1 -->
<g id="edge18" class="edge">
<title>&#45;18&#45;&gt;1</title>
<path fill="none" stroke="red" stroke-width="0.82" d="M522.69,-66.37C542.46,-56.51 577.84,-38.87 601.11,-27.26"/>
<polygon fill="red" stroke="red" stroke-width="0.82" points="602.36,-30.55 609.75,-22.96 599.24,-24.29 602.36,-30.55"/>
</g>
<!-- &#45;18&#45;&gt;2 -->
<g id="edge20" class="edge">
<title>&#45;18&#45;&gt;2</title>
<path fill="none" stroke="red" stroke-width="0.54" stroke-dasharray="1,5" d="M493.18,-66.37C473.04,-56.41 436.85,-38.52 413.39,-26.92"/>
<polygon fill="red" stroke="red" stroke-width="0.54" points="415.15,-23.89 404.63,-22.59 412.05,-30.16 415.15,-23.89"/>
</g>
<!-- &#45;19 -->
<g id="node19" class="node">
<title>&#45;19</title>
<polygon fill="lightgray" stroke="black" points="1022.5,-83.7 993.5,-83.7 993.5,-65.7 1022.5,-65.7 1022.5,-83.7"/>
<text text-anchor="middle" x="1008" y="-72.5" font-family="Times,serif" font-size="9.00">&#45;19</text>
</g>
<!-- &#45;19&#45;&gt;1 -->
<g id="edge42" class="edge">
<title>&#45;19&#45;&gt;1</title>
<path fill="none" stroke="red" stroke-width="0.47" d="M993.03,-68.02C990.38,-67.15 987.63,-66.33 985,-65.7 861.3,-35.95 709.18,-22.18 649.62,-17.64"/>
<polygon fill="red" stroke="red" stroke-width="0.47" points="649.93,-14.15 639.7,-16.91 649.41,-21.13 649.93,-14.15"/>
</g>
<!-- &#45;20 -->
<g id="node20" class="node">
<title>&#45;20</title>
<polygon fill="lightgray" stroke="black" points="475.5,-83.7 446.5,-83.7 446.5,-65.7 475.5,-65.7 475.5,-83.7"/>
<text text-anchor="middle" x="461" y="-72.5" font-family="Times,serif" font-size="9.00">&#45;20</text>
</g>
<!-- &#45;20&#45;&gt;0 -->
<g id="edge1" class="edge">
<title>&#45;20&#45;&gt;0</title>
<path fill="none" stroke="green" stroke-width="5.9" d="M446.18,-67.62C423.02,-58.12 377.85,-39.58 348.31,-27.47"/>
<polygon fill="green" stroke="green" stroke-width="5.9" points="350.54,-22.8 339.33,-23.78 346.62,-32.35 350.54,-22.8"/>
</g>
<!-- &#45;20&#45;&gt;1 -->
<g id="edge24" class="edge">
<title>&#45;20&#45;&gt;1</title>
<path fill="none" stroke="green" stroke-width="1.62" stroke-dasharray="1,5" d="M475.75,-68.46C503.67,-58.55 564.51,-36.96 598.94,-24.74"/>
<polygon fill="green" stroke="green" stroke-width="1.62" points="599.76,-28.17 608.01,-21.52 597.42,-21.57 599.76,-28.17"/>
</g>
<!-- &#45;21 -->
<g id="node21" class="node">
<title>&#45;21</title>
<polygon fill="lightgray" stroke="black" points="569.5,-83.7 540.5,-83.7 540.5,-65.7 569.5,-65.7 569.5,-83.7"/>
<text text-anchor="middle" x="555" y="-72.5" font-family="Times,serif" font-size="9.00">&#45;21</text>
</g>
<!-- &#45;21&#45;&gt;0 -->
<g id="edge52" class="edge">
<title>&#45;21&#45;&gt;0</title>
<path fill="none" stroke="green" stroke-width="0.24" d="M540.1,-68.46C537.1,-67.48 533.96,-66.52 531,-65.7 459.06,-45.87 439.28,-48.26 367,-29.7 359.38,-27.74 351.14,-25.39 343.71,-23.19"/>
<polygon fill="green" stroke="green" stroke-width="0.24" points="344.84,-19.88 334.26,-20.33 342.82,-26.58 344.84,-19.88"/>
</g>
<!-- &#45;21&#45;&gt;1 -->
<g id="edge31" class="edge">
<title>&#45;21&#45;&gt;1</title>
<path fill="none" stroke="green" stroke-width="0.1" stroke-dasharray="1,5" d="M564.89,-65.41C575.5,-56.51 592.6,-42.17 605.69,-31.2"/>
<polygon fill="green" stroke="green" stroke-width="0.1" points="607.69,-34.09 613.11,-24.98 603.2,-28.72 607.69,-34.09"/>
</g>
<!-- &#45;21&#45;&gt;2 -->
<g id="edge5" class="edge">
<title>&#45;21&#45;&gt;2</title>
<path fill="none" stroke="green" stroke-width="0.38" d="M540.16,-68.46C511.57,-58.38 448.7,-36.2 414.41,-24.11"/>
<polygon fill="green" stroke="green" stroke-width="0.38" points="415.9,-20.92 405.3,-20.89 413.57,-27.52 415.9,-20.92"/>
</g>
<!-- &#45;22 -->
<g id="node22" class="node">
<title>&#45;22</title>
<polygon fill="lightgray" stroke="black" points="616.5,-83.7 587.5,-83.7 587.5,-65.7 616.5,-65.7 616.5,-83.7"/>
<text text-anchor="middle" x="602" y="-72.5" font-family="Times,serif" font-size="9.00">&#45;22</text>
</g>
<!-- &#45;22&#45;&gt;0 -->
<g id="edge32" class="edge">
<title>&#45;22&#45;&gt;0</title>
<path fill="none" stroke="red" stroke-width="0.27" d="M587.13,-68.35C584.13,-67.38 580.98,-66.45 578,-65.7 485.72,-42.59 459.68,-51.18 367,-29.7 359.34,-27.92 351.08,-25.62 343.66,-23.41"/>
<polygon fill="red" stroke="red" stroke-width="0.27" points="344.85,-20.11 334.26,-20.52 342.79,-26.8 344.85,-20.11"/>
</g>
<!-- &#45;22&#45;&gt;1 -->
<g id="edge53" class="edge">
<title>&#45;22&#45;&gt;1</title>
<path fill="none" stroke="red" stroke-width="1.36" d="M605.06,-65.65C607.55,-59.09 611.22,-49.46 614.66,-40.41"/>
<polygon fill="red" stroke="red" stroke-width="1.36" points="617.93,-41.67 618.21,-31.07 611.38,-39.18 617.93,-41.67"/>
</g>
<!-- &#45;22&#45;&gt;2 -->
<g id="edge29" class="edge">
<title>&#45;22&#45;&gt;2</title>
<path fill="none" stroke="green" stroke-width="0.61" d="M587.07,-68.56C584.07,-67.58 580.95,-66.58 578,-65.7 520.21,-48.38 451.48,-30.83 415.6,-21.9"/>
<polygon fill="green" stroke="green" stroke-width="0.61" points="416.6,-18.54 406.05,-19.53 414.92,-25.33 416.6,-18.54"/>
</g>
<!-- &#45;23 -->
<g id="node23" class="node">
<title>&#45;23</title>
<polygon fill="lightgray" stroke="black" points="753.5,-83.7 724.5,-83.7 724.5,-65.7 753.5,-65.7 753.5,-83.7"/>
<text text-anchor="middle" x="739" y="-72.5" font-family="Times,serif" font-size="9.00">&#45;23</text>
</g>
<!-- &#45;23&#45;&gt;1 -->
<g id="edge21" class="edge">
<title>&#45;23&#45;&gt;1</title>
<path fill="none" stroke="green" stroke-width="0.55" stroke-dasharray="1,5" d="M724.44,-66.37C704.83,-56.51 669.76,-38.87 646.69,-27.26"/>
<polygon fill="green" stroke="green" stroke-width="0.55" points="648.28,-24.15 637.78,-22.78 645.14,-30.4 648.28,-24.15"/>
</g>
<!-- &#45;23&#45;&gt;2 -->
<g id="edge50" class="edge">
<title>&#45;23&#45;&gt;2</title>
<path fill="none" stroke="green" stroke-width="0.42" d="M724.03,-68.05C721.38,-67.18 718.63,-66.35 716,-65.7 606.09,-38.4 471.35,-23.47 416.27,-18.14"/>
<polygon fill="green" stroke="green" stroke-width="0.42" points="416.69,-14.66 406.4,-17.21 416.03,-21.63 416.69,-14.66"/>
</g>
<!-- &#45;24 -->
<g id="node24" class="node">
<title>&#45;24</title>
<polygon fill="lightgray" stroke="black" points="1069.5,-83.7 1040.5,-83.7 1040.5,-65.7 1069.5,-65.7 1069.5,-83.7"/>
<text text-anchor="middle" x="1055" y="-72.5" font-family="Times,serif" font-size="9.00">&#45;24</text>
</g>
<!-- &#45;24&#45;&gt;1 -->
<g id="edge19" class="edge">
<title>&#45;24&#45;&gt;1</title>
<path fill="none" stroke="green" stroke-width="0.24" stroke-dasharray="1,5" d="M1040.04,-67.98C1037.39,-67.12 1034.64,-66.31 1032,-65.7 889.41,-32.59 713.37,-20.53 649.04,-17.05"/>
<polygon fill="green" stroke="green" stroke-width="0.24" points="649.56,-13.57 639.39,-16.55 649.19,-20.56 649.56,-13.57"/>
</g>
</g>
</svg>
