<?xml version="1.0" encoding="UTF-8" standalone="no"?>
<!DOCTYPE svg PUBLIC "-//W3C//DTD SVG 1.1//EN"
 "http://www.w3.org/Graphics/SVG/1.1/DTD/svg11.dtd">
<!-- Generated by graphviz version 7.1.0 (20230121.1956)
 -->
<!-- Pages: 1 -->
<svg width="2179pt" height="639pt"
 viewBox="0.00 0.00 2179.16 638.62" xmlns="http://www.w3.org/2000/svg" xmlns:xlink="http://www.w3.org/1999/xlink">
<g id="graph0" class="graph" transform="scale(1 1) rotate(0) translate(4 634.62)">
<polygon fill="white" stroke="none" points="-4,4 -4,-634.62 2175.16,-634.62 2175.16,4 -4,4"/>
<!-- &#45;1 -->
<g id="node1" class="node">
<title>&#45;1</title>
<polygon fill="lightgray" stroke="black" points="1735.25,-375.74 1711.25,-375.74 1711.25,-357.74 1735.25,-357.74 1735.25,-375.74"/>
<text text-anchor="middle" x="1723.25" y="-364.54" font-family="Times,serif" font-size="9.00">&#45;1</text>
</g>
<!-- 0 -->
<g id="node25" class="node">
<title>0</title>
<ellipse fill="lightblue" stroke="black" cx="917.25" cy="-14.85" rx="14.7" ry="14.7"/>
<text text-anchor="middle" x="917.25" y="-12.65" font-family="Times,serif" font-size="9.00">0</text>
</g>
<!-- &#45;1&#45;&gt;0 -->
<g id="edge13" class="edge">
<title>&#45;1&#45;&gt;0</title>
<path fill="none" stroke="green" stroke-width="0.35" stroke-dasharray="1,5" d="M1723.25,-357.33C1722.86,-336.99 1719.63,-284.13 1697.25,-248.01 1629.28,-138.3 1590.89,-114.08 1471.25,-65.7 1373.28,-26.08 1037.93,-17.77 942.67,-16.19"/>
<polygon fill="green" stroke="green" stroke-width="0.35" points="942.86,-12.69 932.8,-16.04 942.75,-19.69 942.86,-12.69"/>
</g>
<!-- 50151 -->
<g id="node30" class="node">
<title>50151</title>
<ellipse fill="white" stroke="black" cx="1363.25" cy="-275.58" rx="27.65" ry="27.65"/>
<text text-anchor="middle" x="1363.25" y="-273.38" font-family="Times,serif" font-size="9.00">50151</text>
</g>
<!-- &#45;1&#45;&gt;50151 -->
<g id="edge51" class="edge">
<title>&#45;1&#45;&gt;50151</title>
<path fill="none" stroke="red" stroke-width="0.15" stroke-dasharray="1,5" d="M1711.03,-362.25C1692.68,-357.04 1656.87,-347 1626.25,-339.16 1545.85,-318.59 1451.05,-296.58 1400.09,-284.94"/>
<polygon fill="red" stroke="red" stroke-width="0.15" points="1400.96,-281.54 1390.43,-282.73 1399.4,-288.37 1400.96,-281.54"/>
</g>
<!-- 46735 -->
<g id="node34" class="node">
<title>46735</title>
<ellipse fill="white" stroke="black" cx="826.25" cy="-275.58" rx="27.65" ry="27.65"/>
<text text-anchor="middle" x="826.25" y="-273.38" font-family="Times,serif" font-size="9.00">46735</text>
</g>
<!-- &#45;1&#45;&gt;46735 -->
<g id="edge65" class="edge">
<title>&#45;1&#45;&gt;46735</title>
<path fill="none" stroke="red" stroke-width="0.72" d="M1710.86,-361.53C1692.59,-355.51 1657.21,-344.56 1626.25,-339.16 1477.08,-313.13 1004.37,-286.19 865.18,-278.65"/>
<polygon fill="red" stroke="red" stroke-width="0.72" points="865.51,-275.16 855.33,-278.12 865.13,-282.15 865.51,-275.16"/>
</g>
<!-- 46032 -->
<g id="node35" class="node">
<title>46032</title>
<ellipse fill="white" stroke="black" cx="985.25" cy="-184.43" rx="27.65" ry="27.65"/>
<text text-anchor="middle" x="985.25" y="-182.23" font-family="Times,serif" font-size="9.00">46032</text>
</g>
<!-- &#45;1&#45;&gt;46032 -->
<g id="edge25" class="edge">
<title>&#45;1&#45;&gt;46032</title>
<path fill="none" stroke="red" stroke-width="0.17" stroke-dasharray="1,5" d="M1721.82,-357.38C1717.53,-335.18 1702.56,-274.65 1663.25,-248.01 1610.03,-211.93 1157.5,-191.97 1022.88,-186.8"/>
<polygon fill="red" stroke="red" stroke-width="0.17" points="1023.4,-183.31 1013.28,-186.43 1023.14,-190.31 1023.4,-183.31"/>
</g>
<!-- 54133 -->
<g id="node39" class="node">
<title>54133</title>
<ellipse fill="white" stroke="black" cx="1892.25" cy="-184.43" rx="27.65" ry="27.65"/>
<text text-anchor="middle" x="1892.25" y="-182.23" font-family="Times,serif" font-size="9.00">54133</text>
</g>
<!-- &#45;1&#45;&gt;54133 -->
<g id="edge82" class="edge">
<title>&#45;1&#45;&gt;54133</title>
<path fill="none" stroke="red" stroke-width="0.36" d="M1730.95,-357.52C1754.67,-332.22 1827.38,-254.64 1866.57,-212.82"/>
<polygon fill="red" stroke="red" stroke-width="0.36" points="1869.05,-215.3 1873.34,-205.61 1863.95,-210.51 1869.05,-215.3"/>
</g>
<!-- &#45;2 -->
<g id="node2" class="node">
<title>&#45;2</title>
<polygon fill="lightgray" stroke="black" points="311.25,-630.62 287.25,-630.62 287.25,-612.62 311.25,-612.62 311.25,-630.62"/>
<text text-anchor="middle" x="299.25" y="-619.42" font-family="Times,serif" font-size="9.00">&#45;2</text>
</g>
<!-- &#45;2&#45;&gt;0 -->
<g id="edge31" class="edge">
<title>&#45;2&#45;&gt;0</title>
<path fill="none" stroke="red" stroke-width="0.76" d="M286.78,-619.9C230.19,-615.88 0.25,-591.39 0.25,-458.89 0.25,-458.89 0.25,-458.89 0.25,-183.43 0.25,-128.17 -3.74,-99.14 40.25,-65.7 109.56,-13.01 753.05,-14.65 891.21,-15.62"/>
<polygon fill="red" stroke="red" stroke-width="0.76" points="891.13,-19.12 901.16,-15.7 891.19,-12.12 891.13,-19.12"/>
</g>
<!-- 1 -->
<g id="node26" class="node">
<title>1</title>
<ellipse fill="lightblue" stroke="black" cx="801.25" cy="-366.74" rx="14.7" ry="14.7"/>
<text text-anchor="middle" x="801.25" y="-364.54" font-family="Times,serif" font-size="9.00">1</text>
</g>
<!-- &#45;2&#45;&gt;1 -->
<g id="edge21" class="edge">
<title>&#45;2&#45;&gt;1</title>
<path fill="none" stroke="red" stroke-width="0.21" d="M311.54,-614.38C347.94,-595.77 458.19,-538.69 546.25,-485.47 584.16,-462.56 588.75,-448.24 629.25,-430.32 689.18,-403.8 714.55,-425.4 772.25,-394.32 776.68,-391.93 780.95,-388.72 784.81,-385.35"/>
<polygon fill="red" stroke="red" stroke-width="0.21" points="786.99,-388.11 791.79,-378.66 782.15,-383.05 786.99,-388.11"/>
</g>
<!-- 2 -->
<g id="node27" class="node">
<title>2</title>
<ellipse fill="lightblue" stroke="black" cx="925.25" cy="-366.74" rx="14.7" ry="14.7"/>
<text text-anchor="middle" x="925.25" y="-364.54" font-family="Times,serif" font-size="9.00">2</text>
</g>
<!-- &#45;2&#45;&gt;2 -->
<g id="edge90" class="edge">
<title>&#45;2&#45;&gt;2</title>
<path fill="none" stroke="red" stroke-width="0.43" d="M311.73,-620.2C387.85,-617.55 787.8,-602.48 835.25,-576.62 880.1,-552.18 884.81,-532.28 905.25,-485.47 918.5,-455.12 923,-416.82 924.51,-392.3"/>
<polygon fill="red" stroke="red" stroke-width="0.43" points="928,-392.58 925,-382.42 921.01,-392.24 928,-392.58"/>
</g>
<!-- 54605 -->
<g id="node33" class="node">
<title>54605</title>
<ellipse fill="white" stroke="black" cx="1056.25" cy="-549.05" rx="27.65" ry="27.65"/>
<text text-anchor="middle" x="1056.25" y="-546.85" font-family="Times,serif" font-size="9.00">54605</text>
</g>
<!-- &#45;2&#45;&gt;54605 -->
<g id="edge120" class="edge">
<title>&#45;2&#45;&gt;54605</title>
<path fill="none" stroke="green" stroke-width="0.19" d="M311.51,-620.48C376.51,-619.55 687.38,-613.29 938.25,-576.62 965.94,-572.58 996.78,-565.54 1019.99,-559.72"/>
<polygon fill="green" stroke="green" stroke-width="0.19" points="1020.64,-563.17 1029.47,-557.31 1018.91,-556.39 1020.64,-563.17"/>
</g>
<!-- &#45;3 -->
<g id="node3" class="node">
<title>&#45;3</title>
<polygon fill="lightgray" stroke="black" points="399.25,-466.89 375.25,-466.89 375.25,-448.89 399.25,-448.89 399.25,-466.89"/>
<text text-anchor="middle" x="387.25" y="-455.69" font-family="Times,serif" font-size="9.00">&#45;3</text>
</g>
<!-- &#45;3&#45;&gt;0 -->
<g id="edge9" class="edge">
<title>&#45;3&#45;&gt;0</title>
<path fill="none" stroke="red" stroke-width="1.39" stroke-dasharray="1,5" d="M381.02,-448.7C376.78,-443.3 370.92,-436.16 365.25,-430.32 293.13,-356.05 190.25,-380.11 190.25,-276.58 190.25,-276.58 190.25,-276.58 190.25,-183.43 190.25,-95.86 266.41,-96.87 348.25,-65.7 449.35,-27.19 791.49,-18.11 890.31,-16.27"/>
<polygon fill="red" stroke="red" stroke-width="1.39" points="890.08,-19.78 900.01,-16.1 889.95,-12.78 890.08,-19.78"/>
</g>
<!-- &#45;3&#45;&gt;1 -->
<g id="edge16" class="edge">
<title>&#45;3&#45;&gt;1</title>
<path fill="none" stroke="green" stroke-width="2.81" d="M391.54,-448.44C395.12,-442.31 400.84,-434.41 408.25,-430.32 537.74,-358.7 596.12,-431.88 739.25,-394.32 751.67,-391.05 764.83,-385.71 775.82,-380.66"/>
<polygon fill="green" stroke="green" stroke-width="2.81" points="777.03,-383.96 784.52,-376.46 773.99,-377.66 777.03,-383.96"/>
</g>
<!-- &#45;3&#45;&gt;50151 -->
<g id="edge62" class="edge">
<title>&#45;3&#45;&gt;50151</title>
<path fill="none" stroke="red" stroke-width="0.43" stroke-dasharray="1,5" d="M391.96,-448.62C395.69,-442.76 401.41,-435.1 408.25,-430.32 450.05,-401.07 469.12,-411.23 517.25,-394.32 583.48,-371.05 596.79,-354.69 665.25,-339.16 911.92,-283.21 1218.27,-276.86 1324.7,-276.46"/>
<polygon fill="red" stroke="red" stroke-width="0.43" points="1324.59,-279.96 1334.59,-276.43 1324.58,-272.96 1324.59,-279.96"/>
</g>
<!-- &#45;3&#45;&gt;46735 -->
<g id="edge52" class="edge">
<title>&#45;3&#45;&gt;46735</title>
<path fill="none" stroke="red" stroke-width="0.78" stroke-dasharray="1,5" d="M392.49,-448.84C396.39,-443.22 402.1,-435.79 408.25,-430.32 465.97,-378.97 484.79,-368.52 556.25,-339.16 635.03,-306.79 733.95,-289.27 787.5,-281.53"/>
<polygon fill="red" stroke="red" stroke-width="0.78" points="787.95,-285.01 797.36,-280.15 786.98,-278.07 787.95,-285.01"/>
</g>
<!-- &#45;3&#45;&gt;46032 -->
<g id="edge54" class="edge">
<title>&#45;3&#45;&gt;46032</title>
<path fill="none" stroke="red" stroke-width="0.21" d="M390.29,-448.55C402.67,-415.97 452.69,-296.69 538.25,-248.01 608,-208.32 852.28,-192.08 947.16,-187.17"/>
<polygon fill="red" stroke="red" stroke-width="0.21" points="947.06,-190.68 956.87,-186.69 946.71,-183.69 947.06,-190.68"/>
</g>
<!-- 53238 -->
<g id="node40" class="node">
<title>53238</title>
<ellipse fill="white" stroke="black" cx="418.25" cy="-93.28" rx="27.65" ry="27.65"/>
<text text-anchor="middle" x="418.25" y="-91.08" font-family="Times,serif" font-size="9.00">53238</text>
</g>
<!-- &#45;3&#45;&gt;53238 -->
<g id="edge97" class="edge">
<title>&#45;3&#45;&gt;53238</title>
<path fill="none" stroke="green" stroke-width="0.2" d="M387.96,-448.64C391.56,-406.42 408.06,-213.47 415.08,-131.4"/>
<polygon fill="green" stroke="green" stroke-width="0.2" points="418.55,-131.84 415.92,-121.58 411.58,-131.24 418.55,-131.84"/>
</g>
<!-- 55006 -->
<g id="node41" class="node">
<title>55006</title>
<ellipse fill="white" stroke="black" cx="985.25" cy="-366.74" rx="27.65" ry="27.65"/>
<text text-anchor="middle" x="985.25" y="-364.54" font-family="Times,serif" font-size="9.00">55006</text>
</g>
<!-- &#45;3&#45;&gt;55006 -->
<g id="edge83" class="edge">
<title>&#45;3&#45;&gt;55006</title>
<path fill="none" stroke="green" stroke-width="1.14" d="M391.34,-448.6C394.89,-442.4 400.65,-434.31 408.25,-430.32 514.88,-374.22 836.12,-435.77 949.25,-394.32 951.11,-393.64 952.95,-392.83 954.76,-391.93"/>
<polygon fill="green" stroke="green" stroke-width="1.14" points="956.47,-394.98 963.24,-386.83 952.87,-388.98 956.47,-394.98"/>
</g>
<!-- &#45;4 -->
<g id="node4" class="node">
<title>&#45;4</title>
<polygon fill="lightgray" stroke="black" points="489.25,-466.89 465.25,-466.89 465.25,-448.89 489.25,-448.89 489.25,-466.89"/>
<text text-anchor="middle" x="477.25" y="-455.69" font-family="Times,serif" font-size="9.00">&#45;4</text>
</g>
<!-- &#45;4&#45;&gt;0 -->
<g id="edge11" class="edge">
<title>&#45;4&#45;&gt;0</title>
<path fill="none" stroke="green" d="M470.44,-448.41C434.61,-402.74 273.62,-183.8 381.25,-65.7 415.92,-27.65 787.89,-18.17 890.92,-16.27"/>
<polygon fill="green" stroke="green" points="890.92,-19.77 900.85,-16.09 890.79,-12.77 890.92,-19.77"/>
</g>
<!-- &#45;4&#45;&gt;1 -->
<g id="edge64" class="edge">
<title>&#45;4&#45;&gt;1</title>
<path fill="none" stroke="red" stroke-width="0.24" d="M481.86,-448.48C485.68,-442.38 491.7,-434.49 499.25,-430.32 606.34,-371.08 661.34,-446.05 772.25,-394.32 776.81,-392.19 781.14,-389.09 785,-385.75"/>
<polygon fill="red" stroke="red" stroke-width="0.24" points="787.18,-388.51 791.93,-379.05 782.31,-383.48 787.18,-388.51"/>
</g>
<!-- 51683 -->
<g id="node28" class="node">
<title>51683</title>
<ellipse fill="white" stroke="black" cx="1589.25" cy="-366.74" rx="27.65" ry="27.65"/>
<text text-anchor="middle" x="1589.25" y="-364.54" font-family="Times,serif" font-size="9.00">51683</text>
</g>
<!-- &#45;4&#45;&gt;51683 -->
<g id="edge56" class="edge">
<title>&#45;4&#45;&gt;51683</title>
<path fill="none" stroke="green" stroke-width="0.22" d="M481.6,-448.53C485.36,-442.29 491.41,-434.19 499.25,-430.32 592.86,-384.07 1334.43,-405.39 1438.25,-394.32 1477.49,-390.13 1521.92,-381.88 1552.37,-375.68"/>
<polygon fill="green" stroke="green" stroke-width="0.22" points="1552.72,-379.18 1561.81,-373.73 1551.3,-372.32 1552.72,-379.18"/>
</g>
<!-- &#45;4&#45;&gt;50151 -->
<g id="edge69" class="edge">
<title>&#45;4&#45;&gt;50151</title>
<path fill="none" stroke="green" stroke-width="0.82" stroke-dasharray="1,5" d="M481.89,-448.52C485.72,-442.44 491.74,-434.56 499.25,-430.32 593.17,-377.27 647.76,-451.44 739.25,-394.32 764.5,-378.55 751.67,-354.39 777.25,-339.16 870.11,-283.88 1208.73,-277.22 1324.3,-276.58"/>
<polygon fill="green" stroke="green" stroke-width="0.82" points="1324.17,-280.09 1334.16,-276.54 1324.14,-273.09 1324.17,-280.09"/>
</g>
<!-- 57287 -->
<g id="node31" class="node">
<title>57287</title>
<ellipse fill="white" stroke="black" cx="702.25" cy="-366.74" rx="27.65" ry="27.65"/>
<text text-anchor="middle" x="702.25" y="-364.54" font-family="Times,serif" font-size="9.00">57287</text>
</g>
<!-- &#45;4&#45;&gt;57287 -->
<g id="edge102" class="edge">
<title>&#45;4&#45;&gt;57287</title>
<path fill="none" stroke="red" stroke-width="0.81" stroke-dasharray="1,5" d="M482.14,-448.42C486.02,-442.45 492,-434.76 499.25,-430.32 561.77,-392.01 592.49,-422.33 660.25,-394.32 663.6,-392.93 666.98,-391.29 670.29,-389.5"/>
<polygon fill="red" stroke="red" stroke-width="0.81" points="672,-392.56 678.86,-384.48 668.46,-386.52 672,-392.56"/>
</g>
<!-- &#45;4&#45;&gt;46735 -->
<g id="edge32" class="edge">
<title>&#45;4&#45;&gt;46735</title>
<path fill="none" stroke="red" stroke-width="0.33" stroke-dasharray="1,5" d="M482.73,-448.76C486.81,-443.11 492.79,-435.66 499.25,-430.32 590.81,-354.63 725.84,-306.8 789.93,-287.02"/>
<polygon fill="red" stroke="red" stroke-width="0.33" points="790.56,-290.49 799.11,-284.24 788.53,-283.79 790.56,-290.49"/>
</g>
<!-- &#45;4&#45;&gt;46032 -->
<g id="edge129" class="edge">
<title>&#45;4&#45;&gt;46032</title>
<path fill="none" stroke="green" stroke-width="0.32" d="M482.98,-448.62C505.88,-416.29 594.72,-297.83 700.25,-248.01 783.09,-208.9 891.12,-193.81 947.4,-188.33"/>
<polygon fill="green" stroke="green" stroke-width="0.32" points="947.5,-191.84 957.14,-187.43 946.86,-184.87 947.5,-191.84"/>
</g>
<!-- &#45;5 -->
<g id="node5" class="node">
<title>&#45;5</title>
<polygon fill="lightgray" stroke="black" points="309.25,-466.89 285.25,-466.89 285.25,-448.89 309.25,-448.89 309.25,-466.89"/>
<text text-anchor="middle" x="297.25" y="-455.69" font-family="Times,serif" font-size="9.00">&#45;5</text>
</g>
<!-- &#45;5&#45;&gt;0 -->
<g id="edge5" class="edge">
<title>&#45;5&#45;&gt;0</title>
<path fill="none" stroke="green" stroke-width="0.35" d="M285.05,-453.57C238.72,-440.14 76.25,-385.28 76.25,-276.58 76.25,-276.58 76.25,-276.58 76.25,-183.43 76.25,-120.66 99.95,-97.18 154.25,-65.7 219.26,-28.01 766.19,-17.99 891.67,-16.18"/>
<polygon fill="green" stroke="green" stroke-width="0.35" points="891.68,-19.68 901.63,-16.04 891.59,-12.68 891.68,-19.68"/>
</g>
<!-- &#45;5&#45;&gt;1 -->
<g id="edge12" class="edge">
<title>&#45;5&#45;&gt;1</title>
<path fill="none" stroke="red" stroke-width="0.19" d="M301.22,-448.9C304.76,-442.68 310.59,-434.44 318.25,-430.32 400.93,-385.82 648.16,-417.1 739.25,-394.32 753.1,-390.85 767.81,-384.66 779.43,-379.13"/>
<polygon fill="red" stroke="red" stroke-width="0.19" points="780.7,-382.4 788.11,-374.83 777.6,-376.13 780.7,-382.4"/>
</g>
<!-- &#45;5&#45;&gt;57287 -->
<g id="edge106" class="edge">
<title>&#45;5&#45;&gt;57287</title>
<path fill="none" stroke="red" stroke-width="0.5" d="M301.6,-448.55C305.22,-442.48 310.95,-434.61 318.25,-430.32 376.53,-396.02 578.55,-377.09 663.81,-370.47"/>
<polygon fill="red" stroke="red" stroke-width="0.5" points="663.86,-373.98 673.57,-369.73 663.33,-367 663.86,-373.98"/>
</g>
<!-- &#45;6 -->
<g id="node6" class="node">
<title>&#45;6</title>
<polygon fill="lightgray" stroke="black" points="1138.25,-466.89 1114.25,-466.89 1114.25,-448.89 1138.25,-448.89 1138.25,-466.89"/>
<text text-anchor="middle" x="1126.25" y="-455.69" font-family="Times,serif" font-size="9.00">&#45;6</text>
</g>
<!-- &#45;6&#45;&gt;2 -->
<g id="edge1" class="edge">
<title>&#45;6&#45;&gt;2</title>
<path fill="none" stroke="red" stroke-width="1.21" d="M1121.66,-448.43C1118,-442.47 1112.31,-434.78 1105.25,-430.32 1044.74,-392.06 1009.6,-431.21 948.25,-394.32 945.41,-392.61 942.73,-390.42 940.29,-388.05"/>
<polygon fill="red" stroke="red" stroke-width="1.21" points="943.34,-386.22 934.13,-381 938.07,-390.83 943.34,-386.22"/>
</g>
<!-- 54047 -->
<g id="node42" class="node">
<title>54047</title>
<ellipse fill="white" stroke="black" cx="1544.25" cy="-275.58" rx="27.65" ry="27.65"/>
<text text-anchor="middle" x="1544.25" y="-273.38" font-family="Times,serif" font-size="9.00">54047</text>
</g>
<!-- &#45;6&#45;&gt;54047 -->
<g id="edge98" class="edge">
<title>&#45;6&#45;&gt;54047</title>
<path fill="none" stroke="red" stroke-width="0.35" d="M1138.39,-450.21C1172.99,-431.31 1275.4,-376.41 1364.25,-339.16 1413.06,-318.7 1471.15,-299.38 1507.86,-287.76"/>
<polygon fill="red" stroke="red" stroke-width="0.35" points="1508.63,-291.19 1517.12,-284.85 1506.53,-284.51 1508.63,-291.19"/>
</g>
<!-- &#45;7 -->
<g id="node7" class="node">
<title>&#45;7</title>
<polygon fill="lightgray" stroke="black" points="1454.25,-558.05 1430.25,-558.05 1430.25,-540.05 1454.25,-540.05 1454.25,-558.05"/>
<text text-anchor="middle" x="1442.25" y="-546.85" font-family="Times,serif" font-size="9.00">&#45;7</text>
</g>
<!-- &#45;7&#45;&gt;0 -->
<g id="edge66" class="edge">
<title>&#45;7&#45;&gt;0</title>
<path fill="none" stroke="green" stroke-width="0.93" d="M1443.06,-539.61C1446.17,-506.27 1457.25,-380.43 1457.25,-276.58 1457.25,-276.58 1457.25,-276.58 1457.25,-183.43 1457.25,-115.06 1418.5,-98 1358.25,-65.7 1285.67,-26.79 1026.83,-18.1 943.38,-16.3"/>
<polygon fill="green" stroke="green" stroke-width="0.93" points="943.64,-12.8 933.58,-16.1 943.5,-19.8 943.64,-12.8"/>
</g>
<!-- &#45;7&#45;&gt;1 -->
<g id="edge24" class="edge">
<title>&#45;7&#45;&gt;1</title>
<path fill="none" stroke="green" stroke-width="0.29" stroke-dasharray="1,5" d="M1429.86,-545.06C1406.45,-539.54 1354.03,-527.71 1309.25,-521.47 1209.67,-507.6 941.24,-542.22 858.25,-485.47 826.48,-463.74 811.79,-419.18 805.49,-391.54"/>
<polygon fill="green" stroke="green" stroke-width="0.29" points="808.96,-391.02 803.5,-381.94 802.11,-392.45 808.96,-391.02"/>
</g>
<!-- 49101 -->
<g id="node32" class="node">
<title>49101</title>
<ellipse fill="white" stroke="black" cx="1819.25" cy="-366.74" rx="27.65" ry="27.65"/>
<text text-anchor="middle" x="1819.25" y="-364.54" font-family="Times,serif" font-size="9.00">49101</text>
</g>
<!-- &#45;7&#45;&gt;49101 -->
<g id="edge72" class="edge">
<title>&#45;7&#45;&gt;49101</title>
<path fill="none" stroke="red" stroke-width="0.91" d="M1454.74,-545.54C1511.47,-534.13 1742.18,-487.65 1745.25,-485.47 1768.54,-468.93 1763.09,-454.52 1778.25,-430.32 1784.56,-420.24 1791.6,-409.38 1798.03,-399.57"/>
<polygon fill="red" stroke="red" stroke-width="0.91" points="1800.88,-401.61 1803.47,-391.34 1795.04,-397.76 1800.88,-401.61"/>
</g>
<!-- &#45;7&#45;&gt;46032 -->
<g id="edge29" class="edge">
<title>&#45;7&#45;&gt;46032</title>
<path fill="none" stroke="red" stroke-width="1.38" d="M1429.79,-542.36C1409.27,-532.63 1367.73,-511.3 1338.25,-485.47 1314.67,-464.8 1314.98,-453.84 1294.25,-430.32 1279.5,-413.57 1274.38,-410.72 1259.25,-394.32 1200.67,-330.81 1201.14,-298.8 1131.25,-248.01 1098.02,-223.85 1054.02,-206.62 1023.05,-196.43"/>
<polygon fill="red" stroke="red" stroke-width="1.38" points="1024.43,-193.2 1013.84,-193.51 1022.31,-199.87 1024.43,-193.2"/>
</g>
<!-- 53684 -->
<g id="node38" class="node">
<title>53684</title>
<ellipse fill="white" stroke="black" cx="1584.25" cy="-457.89" rx="27.65" ry="27.65"/>
<text text-anchor="middle" x="1584.25" y="-455.69" font-family="Times,serif" font-size="9.00">53684</text>
</g>
<!-- &#45;7&#45;&gt;53684 -->
<g id="edge87" class="edge">
<title>&#45;7&#45;&gt;53684</title>
<path fill="none" stroke="red" stroke-width="1.41" d="M1454.58,-540.36C1473.47,-528.58 1510.7,-505.32 1542.25,-485.47 1545.13,-483.66 1548.11,-481.78 1551.1,-479.89"/>
<polygon fill="red" stroke="red" stroke-width="1.41" points="1552.76,-482.98 1559.35,-474.68 1549.02,-477.06 1552.76,-482.98"/>
</g>
<!-- &#45;8 -->
<g id="node8" class="node">
<title>&#45;8</title>
<polygon fill="lightgray" stroke="black" points="826.25,-558.05 802.25,-558.05 802.25,-540.05 826.25,-540.05 826.25,-558.05"/>
<text text-anchor="middle" x="814.25" y="-546.85" font-family="Times,serif" font-size="9.00">&#45;8</text>
</g>
<!-- &#45;8&#45;&gt;1 -->
<g id="edge17" class="edge">
<title>&#45;8&#45;&gt;1</title>
<path fill="none" stroke="green" stroke-width="0.35" d="M801.92,-547.37C771.66,-544.95 693.88,-534.08 661.25,-485.47 647.59,-465.12 646.84,-450.14 661.25,-430.32 691.75,-388.37 727.44,-420.43 772.25,-394.32 776.41,-391.89 780.48,-388.78 784.19,-385.56"/>
<polygon fill="green" stroke="green" stroke-width="0.35" points="786.4,-388.29 791.26,-378.88 781.59,-383.2 786.4,-388.29"/>
</g>
<!-- &#45;8&#45;&gt;51683 -->
<g id="edge58" class="edge">
<title>&#45;8&#45;&gt;51683</title>
<path fill="none" stroke="red" stroke-width="1.26" d="M826.7,-546.19C858.63,-541.47 946.05,-528.9 1019.25,-521.47 1127.87,-510.45 1414.7,-540.07 1509.25,-485.47 1510.37,-484.82 1544.26,-434.64 1567.57,-400.01"/>
<polygon fill="red" stroke="red" stroke-width="1.26" points="1570.38,-402.1 1573.06,-391.85 1564.57,-398.19 1570.38,-402.1"/>
</g>
<!-- 58080 -->
<g id="node29" class="node">
<title>58080</title>
<ellipse fill="white" stroke="black" cx="744.25" cy="-457.89" rx="27.65" ry="27.65"/>
<text text-anchor="middle" x="744.25" y="-455.69" font-family="Times,serif" font-size="9.00">58080</text>
</g>
<!-- &#45;8&#45;&gt;58080 -->
<g id="edge112" class="edge">
<title>&#45;8&#45;&gt;58080</title>
<path fill="none" stroke="green" stroke-width="0.25" d="M807.79,-539.82C798.63,-528.16 781.41,-506.22 767.2,-488.13"/>
<polygon fill="green" stroke="green" stroke-width="0.25" points="770.09,-486.14 761.16,-480.43 764.58,-490.46 770.09,-486.14"/>
</g>
<!-- &#45;8&#45;&gt;50151 -->
<g id="edge73" class="edge">
<title>&#45;8&#45;&gt;50151</title>
<path fill="none" stroke="green" stroke-width="1.14" d="M826.52,-546.7C879.55,-540.72 1088.99,-515.6 1147.25,-485.47 1231.61,-441.85 1305.22,-354.63 1340.71,-307.89"/>
<polygon fill="green" stroke="green" stroke-width="1.14" points="1343.47,-310.04 1346.66,-299.93 1337.87,-305.84 1343.47,-310.04"/>
</g>
<!-- &#45;9 -->
<g id="node9" class="node">
<title>&#45;9</title>
<polygon fill="lightgray" stroke="black" points="794.25,-630.62 770.25,-630.62 770.25,-612.62 794.25,-612.62 794.25,-630.62"/>
<text text-anchor="middle" x="782.25" y="-619.42" font-family="Times,serif" font-size="9.00">&#45;9</text>
</g>
<!-- &#45;9&#45;&gt;0 -->
<g id="edge39" class="edge">
<title>&#45;9&#45;&gt;0</title>
<path fill="none" stroke="red" stroke-width="0.3" d="M769.87,-620.62C702.16,-620.45 376.42,-617.46 286.25,-576.62 128.65,-505.24 38.25,-449.59 38.25,-276.58 38.25,-276.58 38.25,-276.58 38.25,-183.43 38.25,-126.75 41.06,-98.55 87.25,-65.7 154.26,-18.04 759.53,-15.73 891.8,-15.8"/>
<polygon fill="red" stroke="red" stroke-width="0.3" points="891.67,-19.3 901.67,-15.81 891.68,-12.3 891.67,-19.3"/>
</g>
<!-- &#45;9&#45;&gt;1 -->
<g id="edge15" class="edge">
<title>&#45;9&#45;&gt;1</title>
<path fill="none" stroke="red" stroke-width="3.12" d="M769.75,-613.44C727.18,-588.09 593.31,-500.51 646.25,-430.32 681.32,-383.82 721.42,-422.75 772.25,-394.32 775.37,-392.57 778.42,-390.43 781.31,-388.13"/>
<polygon fill="red" stroke="red" stroke-width="3.12" points="783.48,-390.88 788.48,-381.54 778.75,-385.73 783.48,-390.88"/>
</g>
<!-- &#45;9&#45;&gt;2 -->
<g id="edge20" class="edge">
<title>&#45;9&#45;&gt;2</title>
<path fill="none" stroke="red" stroke-width="2.27" d="M794.3,-619.09C827.76,-614.56 920.5,-600.07 938.25,-576.62 979.41,-522.25 953.23,-435.33 936.33,-392.81"/>
<polygon fill="red" stroke="red" stroke-width="2.27" points="939.66,-391.71 932.58,-383.83 933.2,-394.41 939.66,-391.71"/>
</g>
<!-- &#45;9&#45;&gt;54605 -->
<g id="edge79" class="edge">
<title>&#45;9&#45;&gt;54605</title>
<path fill="none" stroke="red" stroke-width="1.72" d="M794.52,-619.92C829.85,-617.54 934.36,-608.15 1014.25,-576.62 1017.38,-575.39 1020.53,-573.92 1023.62,-572.3"/>
<polygon fill="red" stroke="red" stroke-width="1.72" points="1025.27,-575.39 1032.16,-567.35 1021.76,-569.34 1025.27,-575.39"/>
</g>
<!-- &#45;9&#45;&gt;46032 -->
<g id="edge55" class="edge">
<title>&#45;9&#45;&gt;46032</title>
<path fill="none" stroke="red" stroke-width="0.39" d="M770.18,-619.58C696.54,-612.95 308.5,-574.07 239.25,-485.47 199.21,-434.24 216.15,-399.94 239.25,-339.16 258.51,-288.5 271.91,-272.51 320.25,-248.01 431.07,-191.84 822.29,-185.86 946.86,-185.4"/>
<polygon fill="red" stroke="red" stroke-width="0.39" points="946.82,-188.9 956.81,-185.37 946.8,-181.9 946.82,-188.9"/>
</g>
<!-- &#45;9&#45;&gt;55006 -->
<g id="edge91" class="edge">
<title>&#45;9&#45;&gt;55006</title>
<path fill="none" stroke="green" stroke-width="0.7" d="M794.4,-619.84C824.61,-617.45 904.79,-608.34 962.25,-576.62 993.11,-559.59 988.68,-539.03 1019.25,-521.47 1070.49,-492.03 1111.56,-532.58 1147.25,-485.47 1162.05,-465.93 1162.07,-449.84 1147.25,-430.32 1111.26,-382.91 1071.18,-421.54 1018.25,-394.32 1016.86,-393.6 1015.47,-392.82 1014.1,-391.99"/>
<polygon fill="green" stroke="green" stroke-width="0.7" points="1016.41,-389.33 1006.18,-386.58 1012.46,-395.11 1016.41,-389.33"/>
</g>
<!-- &#45;10 -->
<g id="node10" class="node">
<title>&#45;10</title>
<polygon fill="lightgray" stroke="black" points="1070.75,-630.62 1041.75,-630.62 1041.75,-612.62 1070.75,-612.62 1070.75,-630.62"/>
<text text-anchor="middle" x="1056.25" y="-619.42" font-family="Times,serif" font-size="9.00">&#45;10</text>
</g>
<!-- &#45;10&#45;&gt;54605 -->
<g id="edge92" class="edge">
<title>&#45;10&#45;&gt;54605</title>
<path fill="none" stroke="red" stroke-width="1.07" d="M1056.25,-612.25C1056.25,-606.14 1056.25,-597.38 1056.25,-588.35"/>
<polygon fill="red" stroke="red" stroke-width="1.07" points="1059.75,-588.57 1056.25,-578.57 1052.75,-588.57 1059.75,-588.57"/>
</g>
<!-- &#45;11 -->
<g id="node11" class="node">
<title>&#45;11</title>
<polygon fill="lightgray" stroke="black" points="1095.75,-466.89 1066.75,-466.89 1066.75,-448.89 1095.75,-448.89 1095.75,-466.89"/>
<text text-anchor="middle" x="1081.25" y="-455.69" font-family="Times,serif" font-size="9.00">&#45;11</text>
</g>
<!-- &#45;11&#45;&gt;0 -->
<g id="edge4" class="edge">
<title>&#45;11&#45;&gt;0</title>
<path fill="none" stroke="red" stroke-width="0.53" stroke-dasharray="1,5" d="M1080.77,-448.69C1078.46,-412.82 1066.63,-266.6 1022.25,-156.85 1001.89,-106.52 959.13,-58.05 934.92,-33.16"/>
<polygon fill="red" stroke="red" stroke-width="0.53" points="937.57,-30.86 928.05,-26.22 932.6,-35.79 937.57,-30.86"/>
</g>
<!-- &#45;11&#45;&gt;1 -->
<g id="edge41" class="edge">
<title>&#45;11&#45;&gt;1</title>
<path fill="none" stroke="green" stroke-width="0.18" stroke-dasharray="1,5" d="M1066.59,-452.23C1020.92,-437.68 880.94,-393.11 824.85,-375.25"/>
<polygon fill="green" stroke="green" stroke-width="0.18" points="825.96,-371.93 815.37,-372.23 823.83,-378.6 825.96,-371.93"/>
</g>
<!-- &#45;11&#45;&gt;55006 -->
<g id="edge104" class="edge">
<title>&#45;11&#45;&gt;55006</title>
<path fill="none" stroke="red" stroke-width="0.34" d="M1072.39,-448.67C1058.95,-436.18 1032.84,-411.94 1012.69,-393.22"/>
<polygon fill="red" stroke="red" stroke-width="0.34" points="1015.11,-390.69 1005.4,-386.45 1010.34,-395.82 1015.11,-390.69"/>
</g>
<!-- &#45;12 -->
<g id="node12" class="node">
<title>&#45;12</title>
<polygon fill="lightgray" stroke="black" points="1299.75,-558.05 1270.75,-558.05 1270.75,-540.05 1299.75,-540.05 1299.75,-558.05"/>
<text text-anchor="middle" x="1285.25" y="-546.85" font-family="Times,serif" font-size="9.00">&#45;12</text>
</g>
<!-- &#45;12&#45;&gt;2 -->
<g id="edge78" class="edge">
<title>&#45;12&#45;&gt;2</title>
<path fill="none" stroke="green" stroke-width="0.51" d="M1270.59,-545.77C1221.99,-538.04 1066.86,-511.8 1024.25,-485.47 1018.88,-482.15 967.36,-419.42 940.85,-386.92"/>
<polygon fill="green" stroke="green" stroke-width="0.51" points="943.61,-384.76 934.58,-379.22 938.18,-389.18 943.61,-384.76"/>
</g>
<!-- &#45;12&#45;&gt;53684 -->
<g id="edge93" class="edge">
<title>&#45;12&#45;&gt;53684</title>
<path fill="none" stroke="green" stroke-width="0.19" d="M1300.08,-545.1C1347.82,-535.5 1497.02,-504.67 1542.25,-485.47 1545.9,-483.92 1549.59,-482.07 1553.19,-480.08"/>
<polygon fill="green" stroke="green" stroke-width="0.19" points="1554.82,-483.18 1561.64,-475.07 1551.25,-477.16 1554.82,-483.18"/>
</g>
<!-- &#45;13 -->
<g id="node13" class="node">
<title>&#45;13</title>
<polygon fill="lightgray" stroke="black" points="446.75,-466.89 417.75,-466.89 417.75,-448.89 446.75,-448.89 446.75,-466.89"/>
<text text-anchor="middle" x="432.25" y="-455.69" font-family="Times,serif" font-size="9.00">&#45;13</text>
</g>
<!-- &#45;13&#45;&gt;2 -->
<g id="edge6" class="edge">
<title>&#45;13&#45;&gt;2</title>
<path fill="none" stroke="green" stroke-width="1.03" d="M437.42,-448.4C441.66,-442.25 448.25,-434.34 456.25,-430.32 529.82,-393.24 744.17,-408.95 825.25,-394.32 851.14,-389.64 880.13,-381.62 900.2,-375.61"/>
<polygon fill="green" stroke="green" stroke-width="1.03" points="901.14,-378.98 909.68,-372.71 899.1,-372.29 901.14,-378.98"/>
</g>
<!-- &#45;13&#45;&gt;46032 -->
<g id="edge38" class="edge">
<title>&#45;13&#45;&gt;46032</title>
<path fill="none" stroke="green" stroke-width="0.12" stroke-dasharray="1,5" d="M436.52,-448.51C453.69,-415.79 521.41,-296.06 616.25,-248.01 726.79,-192 877.41,-184.71 947.06,-184.64"/>
<polygon fill="green" stroke="green" stroke-width="0.12" points="946.93,-188.13 956.94,-184.67 946.95,-181.13 946.93,-188.13"/>
</g>
<!-- &#45;13&#45;&gt;53238 -->
<g id="edge89" class="edge">
<title>&#45;13&#45;&gt;53238</title>
<path fill="none" stroke="green" stroke-width="0.86" d="M431.93,-448.64C430.31,-406.59 422.91,-215.04 419.72,-132.41"/>
<polygon fill="green" stroke="green" stroke-width="0.86" points="423.23,-132.43 419.34,-122.57 416.23,-132.7 423.23,-132.43"/>
</g>
<!-- &#45;14 -->
<g id="node14" class="node">
<title>&#45;14</title>
<polygon fill="lightgray" stroke="black" points="1375.75,-466.89 1346.75,-466.89 1346.75,-448.89 1375.75,-448.89 1375.75,-466.89"/>
<text text-anchor="middle" x="1361.25" y="-455.69" font-family="Times,serif" font-size="9.00">&#45;14</text>
</g>
<!-- &#45;14&#45;&gt;0 -->
<g id="edge2" class="edge">
<title>&#45;14&#45;&gt;0</title>
<path fill="none" stroke="green" stroke-width="0.51" stroke-dasharray="1,5" d="M1356.83,-448.53C1343.93,-423.31 1307.25,-345.53 1307.25,-276.58 1307.25,-276.58 1307.25,-276.58 1307.25,-183.43 1307.25,-24.2 1029.43,-14.38 942.76,-15.19"/>
<polygon fill="green" stroke="green" stroke-width="0.51" points="942.77,-11.69 932.83,-15.34 942.88,-18.69 942.77,-11.69"/>
</g>
<!-- &#45;14&#45;&gt;1 -->
<g id="edge105" class="edge">
<title>&#45;14&#45;&gt;1</title>
<path fill="none" stroke="red" stroke-width="0.4" d="M1346.6,-455.01C1273.1,-445.55 946.1,-403.29 901.25,-394.32 875.09,-389.08 845.63,-380.98 825.5,-375.09"/>
<polygon fill="red" stroke="red" stroke-width="0.4" points="826.53,-371.75 815.95,-372.26 824.54,-378.46 826.53,-371.75"/>
</g>
<!-- &#45;14&#45;&gt;2 -->
<g id="edge22" class="edge">
<title>&#45;14&#45;&gt;2</title>
<path fill="none" stroke="green" stroke-width="1.44" d="M1346.3,-454.92C1274.33,-445.4 966.19,-404.21 948.25,-394.32 945.54,-392.82 943,-390.87 940.67,-388.71"/>
<polygon fill="green" stroke="green" stroke-width="1.44" points="943.49,-386.63 934.25,-381.46 938.25,-391.27 943.49,-386.63"/>
</g>
<!-- &#45;14&#45;&gt;49101 -->
<g id="edge44" class="edge">
<title>&#45;14&#45;&gt;49101</title>
<path fill="none" stroke="green" stroke-width="0.65" d="M1376.17,-452.31C1395.75,-446.45 1431.28,-436.34 1462.25,-430.32 1586.27,-406.19 1621.34,-423.58 1744.25,-394.32 1757.24,-391.22 1771.12,-386.67 1783.36,-382.21"/>
<polygon fill="green" stroke="green" stroke-width="0.65" points="1784.58,-385.49 1792.71,-378.7 1782.12,-378.94 1784.58,-385.49"/>
</g>
<!-- &#45;14&#45;&gt;46735 -->
<g id="edge40" class="edge">
<title>&#45;14&#45;&gt;46735</title>
<path fill="none" stroke="red" stroke-width="1.61" stroke-dasharray="1,5" d="M1346.43,-451.59C1299.23,-434.76 1148.15,-381.11 1022.25,-339.16 967.55,-320.93 903.9,-300.81 864.34,-288.43"/>
<polygon fill="red" stroke="red" stroke-width="1.61" points="865.55,-285.14 854.96,-285.5 863.46,-291.83 865.55,-285.14"/>
</g>
<!-- &#45;14&#45;&gt;46032 -->
<g id="edge107" class="edge">
<title>&#45;14&#45;&gt;46032</title>
<path fill="none" stroke="green" stroke-width="0.79" d="M1352.18,-448.58C1333.8,-431.73 1293.87,-395.08 1293.25,-394.32 1245.87,-335.63 1266.97,-294.08 1207.25,-248.01 1152.92,-206.09 1071.84,-192.25 1024.18,-187.68"/>
<polygon fill="green" stroke="green" stroke-width="0.79" points="1024.55,-184.2 1014.29,-186.83 1023.95,-191.18 1024.55,-184.2"/>
</g>
<!-- 58030 -->
<g id="node36" class="node">
<title>58030</title>
<ellipse fill="white" stroke="black" cx="1401.25" cy="-366.74" rx="27.65" ry="27.65"/>
<text text-anchor="middle" x="1401.25" y="-364.54" font-family="Times,serif" font-size="9.00">58030</text>
</g>
<!-- &#45;14&#45;&gt;58030 -->
<g id="edge109" class="edge">
<title>&#45;14&#45;&gt;58030</title>
<path fill="none" stroke="red" stroke-width="0.27" d="M1364.94,-448.67C1369.74,-437.97 1378.41,-418.64 1386.08,-401.56"/>
<polygon fill="red" stroke="red" stroke-width="0.27" points="1389.13,-403.29 1390.04,-392.73 1382.75,-400.43 1389.13,-403.29"/>
</g>
<!-- &#45;14&#45;&gt;54047 -->
<g id="edge85" class="edge">
<title>&#45;14&#45;&gt;54047</title>
<path fill="none" stroke="green" stroke-width="0.36" stroke-dasharray="1,5" d="M1372.67,-448.5C1388.12,-436.95 1416.28,-415.2 1438.25,-394.32 1468.34,-365.71 1499.79,-329.91 1520.55,-305.34"/>
<polygon fill="green" stroke="green" stroke-width="0.36" points="1523.06,-307.79 1526.81,-297.88 1517.7,-303.29 1523.06,-307.79"/>
</g>
<!-- &#45;15 -->
<g id="node15" class="node">
<title>&#45;15</title>
<polygon fill="lightgray" stroke="black" points="1735.75,-466.89 1706.75,-466.89 1706.75,-448.89 1735.75,-448.89 1735.75,-466.89"/>
<text text-anchor="middle" x="1721.25" y="-455.69" font-family="Times,serif" font-size="9.00">&#45;15</text>
</g>
<!-- &#45;15&#45;&gt;51683 -->
<g id="edge114" class="edge">
<title>&#45;15&#45;&gt;51683</title>
<path fill="none" stroke="green" stroke-width="0.47" d="M1709.07,-448.67C1689.14,-435.21 1648.96,-408.07 1620.64,-388.94"/>
<polygon fill="green" stroke="green" stroke-width="0.47" points="1622.74,-386.13 1612.49,-383.44 1618.82,-391.93 1622.74,-386.13"/>
</g>
<!-- &#45;15&#45;&gt;49101 -->
<g id="edge76" class="edge">
<title>&#45;15&#45;&gt;49101</title>
<path fill="none" stroke="red" stroke-width="0.22" stroke-dasharray="1,5" d="M1730.38,-448.5C1736.09,-443.27 1743.59,-436.39 1750.25,-430.32 1763.81,-417.95 1778.9,-404.26 1791.51,-392.84"/>
<polygon fill="red" stroke="red" stroke-width="0.22" points="1793.69,-395.59 1798.75,-386.28 1788.99,-390.4 1793.69,-395.59"/>
</g>
<!-- &#45;15&#45;&gt;46032 -->
<g id="edge28" class="edge">
<title>&#45;15&#45;&gt;46032</title>
<path fill="none" stroke="green" stroke-width="0.77" stroke-dasharray="1,5" d="M1725.35,-448.65C1730.93,-436.93 1740.64,-414.6 1744.25,-394.32 1756.22,-327.07 1753.96,-286.07 1697.25,-248.01 1641.13,-210.34 1164.81,-191.46 1024.19,-186.67"/>
<polygon fill="green" stroke="green" stroke-width="0.77" points="1024.41,-183.18 1014.3,-186.34 1024.18,-190.18 1024.41,-183.18"/>
</g>
<!-- &#45;16 -->
<g id="node16" class="node">
<title>&#45;16</title>
<polygon fill="lightgray" stroke="black" points="356.75,-466.89 327.75,-466.89 327.75,-448.89 356.75,-448.89 356.75,-466.89"/>
<text text-anchor="middle" x="342.25" y="-455.69" font-family="Times,serif" font-size="9.00">&#45;16</text>
</g>
<!-- &#45;16&#45;&gt;0 -->
<g id="edge18" class="edge">
<title>&#45;16&#45;&gt;0</title>
<path fill="none" stroke="red" stroke-width="0.19" stroke-dasharray="1,5" d="M336.42,-448.41C332.02,-442.59 325.53,-435.09 318.25,-430.32 276.29,-402.8 245.71,-430.79 211.25,-394.32 110.95,-288.15 93.28,-153.17 210.25,-65.7 265.85,-24.12 772.97,-17.11 892.22,-16.03"/>
<polygon fill="red" stroke="red" stroke-width="0.19" points="891.98,-19.53 901.95,-15.95 891.92,-12.53 891.98,-19.53"/>
</g>
<!-- &#45;16&#45;&gt;1 -->
<g id="edge45" class="edge">
<title>&#45;16&#45;&gt;1</title>
<path fill="none" stroke="green" stroke-width="0.86" d="M347.42,-448.39C351.66,-442.25 358.25,-434.34 366.25,-430.32 515.02,-355.44 577.9,-435.62 739.25,-394.32 752.66,-390.88 766.91,-384.95 778.36,-379.56"/>
<polygon fill="green" stroke="green" stroke-width="0.86" points="779.76,-382.78 787.2,-375.23 776.68,-376.49 779.76,-382.78"/>
</g>
<!-- &#45;16&#45;&gt;2 -->
<g id="edge30" class="edge">
<title>&#45;16&#45;&gt;2</title>
<path fill="none" stroke="green" stroke-width="1.25" stroke-dasharray="1,5" d="M347.22,-448.61C351.44,-442.4 358.11,-434.32 366.25,-430.32 458.05,-385.14 724.39,-411.53 825.25,-394.32 851.06,-389.91 879.89,-381.91 899.94,-375.83"/>
<polygon fill="green" stroke="green" stroke-width="1.25" points="900.87,-379.21 909.38,-372.9 898.79,-372.52 900.87,-379.21"/>
</g>
<!-- &#45;16&#45;&gt;46032 -->
<g id="edge35" class="edge">
<title>&#45;16&#45;&gt;46032</title>
<path fill="none" stroke="green" stroke-width="0.1" d="M344.44,-448.62C353.46,-416.31 391.1,-297.91 470.25,-248.01 549.79,-197.86 842.17,-187.89 947.29,-185.91"/>
<polygon fill="green" stroke="green" stroke-width="0.1" points="947.06,-189.42 957,-185.74 946.94,-182.42 947.06,-189.42"/>
</g>
<!-- &#45;17 -->
<g id="node17" class="node">
<title>&#45;17</title>
<polygon fill="lightgray" stroke="black" points="2011.75,-466.89 1982.75,-466.89 1982.75,-448.89 2011.75,-448.89 2011.75,-466.89"/>
<text text-anchor="middle" x="1997.25" y="-455.69" font-family="Times,serif" font-size="9.00">&#45;17</text>
</g>
<!-- &#45;17&#45;&gt;0 -->
<g id="edge7" class="edge">
<title>&#45;17&#45;&gt;0</title>
<path fill="none" stroke="green" stroke-width="0.8" d="M2000.77,-448.43C2011.04,-422.95 2040.25,-344.49 2040.25,-276.58 2040.25,-276.58 2040.25,-276.58 2040.25,-183.43 2040.25,-68.71 1111.62,-24.06 943.26,-16.9"/>
<polygon fill="green" stroke="green" stroke-width="0.8" points="943.62,-13.41 933.49,-16.49 943.33,-20.41 943.62,-13.41"/>
</g>
<!-- &#45;17&#45;&gt;1 -->
<g id="edge23" class="edge">
<title>&#45;17&#45;&gt;1</title>
<path fill="none" stroke="green" stroke-width="1.11" d="M1982.51,-455.01C1943.73,-450.14 1835.63,-437 1745.25,-430.32 1370.82,-402.61 1272.42,-450.87 901.25,-394.32 875.24,-390.35 846.27,-382.23 826.23,-376"/>
<polygon fill="green" stroke="green" stroke-width="1.11" points="827.47,-372.72 816.88,-373.02 825.34,-379.39 827.47,-372.72"/>
</g>
<!-- &#45;17&#45;&gt;50151 -->
<g id="edge59" class="edge">
<title>&#45;17&#45;&gt;50151</title>
<path fill="none" stroke="green" stroke-width="0.3" stroke-dasharray="1,5" d="M1991.15,-448.6C1972.16,-422.88 1914.58,-345.76 1902.25,-339.16 1824.54,-297.57 1594.57,-315.17 1507.25,-303.16 1470.8,-298.15 1429.54,-290.31 1400.56,-284.44"/>
<polygon fill="green" stroke="green" stroke-width="0.3" points="1401.41,-281.04 1390.91,-282.47 1400.01,-287.9 1401.41,-281.04"/>
</g>
<!-- &#45;17&#45;&gt;54133 -->
<g id="edge77" class="edge">
<title>&#45;17&#45;&gt;54133</title>
<path fill="none" stroke="red" stroke-width="0.96" d="M1993.99,-448.47C1980.77,-414.29 1930.67,-284.75 1906.06,-221.13"/>
<polygon fill="red" stroke="red" stroke-width="0.96" points="1909.45,-220.2 1902.58,-212.13 1902.92,-222.72 1909.45,-220.2"/>
</g>
<!-- &#45;18 -->
<g id="node18" class="node">
<title>&#45;18</title>
<polygon fill="lightgray" stroke="black" points="1484.75,-630.62 1455.75,-630.62 1455.75,-612.62 1484.75,-612.62 1484.75,-630.62"/>
<text text-anchor="middle" x="1470.25" y="-619.42" font-family="Times,serif" font-size="9.00">&#45;18</text>
</g>
<!-- &#45;18&#45;&gt;49101 -->
<g id="edge96" class="edge">
<title>&#45;18&#45;&gt;49101</title>
<path fill="none" stroke="green" stroke-width="0.52" d="M1485.13,-620.21C1540.21,-618.42 1731.82,-609.89 1781.25,-576.62 1838.63,-538.01 1842.37,-499 1834.25,-430.32 1833.24,-421.73 1831.46,-412.63 1829.49,-404.09"/>
<polygon fill="green" stroke="green" stroke-width="0.52" points="1832.9,-403.31 1827.1,-394.44 1826.1,-404.99 1832.9,-403.31"/>
</g>
<!-- &#45;18&#45;&gt;46735 -->
<g id="edge42" class="edge">
<title>&#45;18&#45;&gt;46735</title>
<path fill="none" stroke="red" stroke-width="0.84" d="M1455.35,-619.35C1415.7,-615.7 1304.63,-603.63 1216.25,-576.62 1158.95,-559.12 1150.71,-538.42 1093.25,-521.47 1042.58,-506.53 895.61,-522.83 858.25,-485.47 834.87,-462.09 828.55,-368.05 826.85,-314.47"/>
<polygon fill="red" stroke="red" stroke-width="0.84" points="830.36,-314.55 826.59,-304.65 823.36,-314.74 830.36,-314.55"/>
</g>
<!-- &#45;18&#45;&gt;46032 -->
<g id="edge94" class="edge">
<title>&#45;18&#45;&gt;46032</title>
<path fill="none" stroke="green" stroke-width="1.07" d="M1458.35,-612.22C1429.42,-591.63 1353.42,-536.61 1294.25,-485.47 1184.71,-390.78 1064.09,-267.67 1011.82,-213.31"/>
<polygon fill="green" stroke="green" stroke-width="1.07" points="1014.6,-211.15 1005.15,-206.36 1009.55,-215.99 1014.6,-211.15"/>
</g>
<!-- 58671 -->
<g id="node37" class="node">
<title>58671</title>
<ellipse fill="white" stroke="black" cx="1612.25" cy="-549.05" rx="27.65" ry="27.65"/>
<text text-anchor="middle" x="1612.25" y="-546.85" font-family="Times,serif" font-size="9.00">58671</text>
</g>
<!-- &#45;18&#45;&gt;58671 -->
<g id="edge117" class="edge">
<title>&#45;18&#45;&gt;58671</title>
<path fill="none" stroke="red" stroke-width="0.96" d="M1485.18,-613.2C1506.96,-602.38 1548.08,-581.94 1577.65,-567.24"/>
<polygon fill="red" stroke="red" stroke-width="0.96" points="1578.88,-570.54 1586.28,-562.96 1575.76,-564.27 1578.88,-570.54"/>
</g>
<!-- &#45;18&#45;&gt;54133 -->
<g id="edge130" class="edge">
<title>&#45;18&#45;&gt;54133</title>
<path fill="none" stroke="green" stroke-width="0.54" d="M1484.84,-620.66C1556.87,-620.62 1874.42,-618.08 1962.25,-576.62 2028.68,-545.27 2078.25,-532.35 2078.25,-458.89 2078.25,-458.89 2078.25,-458.89 2078.25,-365.74 2078.25,-282.54 1981.13,-225.43 1927.25,-200.15"/>
<polygon fill="green" stroke="green" stroke-width="0.54" points="1929.02,-197.11 1918.47,-196.14 1926.11,-203.48 1929.02,-197.11"/>
</g>
<!-- &#45;18&#45;&gt;55006 -->
<g id="edge128" class="edge">
<title>&#45;18&#45;&gt;55006</title>
<path fill="none" stroke="green" stroke-width="0.41" d="M1455.42,-621.18C1419.12,-621.81 1324.27,-618.99 1262.25,-576.62 1198.03,-532.76 1229.8,-475.15 1166.25,-430.32 1110.93,-391.29 1078.96,-424.27 1018.25,-394.32 1016.71,-393.56 1015.17,-392.71 1013.65,-391.81"/>
<polygon fill="green" stroke="green" stroke-width="0.41" points="1016,-389.17 1005.76,-386.45 1012.07,-394.96 1016,-389.17"/>
</g>
<!-- &#45;19 -->
<g id="node19" class="node">
<title>&#45;19</title>
<polygon fill="lightgray" stroke="black" points="1499.75,-466.89 1470.75,-466.89 1470.75,-448.89 1499.75,-448.89 1499.75,-466.89"/>
<text text-anchor="middle" x="1485.25" y="-455.69" font-family="Times,serif" font-size="9.00">&#45;19</text>
</g>
<!-- &#45;19&#45;&gt;2 -->
<g id="edge26" class="edge">
<title>&#45;19&#45;&gt;2</title>
<path fill="none" stroke="red" stroke-width="1.16" stroke-dasharray="1,5" d="M1470.52,-452.1C1451.18,-446 1416.05,-435.63 1385.25,-430.32 1289.23,-413.74 1035.13,-438.43 948.25,-394.32 945.34,-392.84 942.64,-390.82 940.2,-388.55"/>
<polygon fill="red" stroke="red" stroke-width="1.16" points="942.87,-386.29 933.65,-381.06 937.6,-390.89 942.87,-386.29"/>
</g>
<!-- &#45;19&#45;&gt;49101 -->
<g id="edge67" class="edge">
<title>&#45;19&#45;&gt;49101</title>
<path fill="none" stroke="green" stroke-width="2.51" d="M1500.18,-449.37C1512.53,-443.42 1530.66,-435.32 1547.25,-430.32 1632.47,-404.62 1658.25,-417.25 1744.25,-394.32 1756.24,-391.12 1769.05,-386.89 1780.63,-382.75"/>
<polygon fill="green" stroke="green" stroke-width="2.51" points="1781.8,-386.05 1789.97,-379.31 1779.38,-379.48 1781.8,-386.05"/>
</g>
<!-- &#45;19&#45;&gt;54047 -->
<g id="edge111" class="edge">
<title>&#45;19&#45;&gt;54047</title>
<path fill="none" stroke="green" stroke-width="0.86" d="M1488.72,-448.47C1493.59,-436.52 1502.59,-413.93 1509.25,-394.32 1518.39,-367.42 1527.49,-336.64 1534.12,-313.3"/>
<polygon fill="green" stroke="green" stroke-width="0.86" points="1537.47,-314.32 1536.82,-303.75 1530.73,-312.42 1537.47,-314.32"/>
</g>
<!-- &#45;20 -->
<g id="node20" class="node">
<title>&#45;20</title>
<polygon fill="lightgray" stroke="black" points="895.75,-466.89 866.75,-466.89 866.75,-448.89 895.75,-448.89 895.75,-466.89"/>
<text text-anchor="middle" x="881.25" y="-455.69" font-family="Times,serif" font-size="9.00">&#45;20</text>
</g>
<!-- &#45;20&#45;&gt;0 -->
<g id="edge19" class="edge">
<title>&#45;20&#45;&gt;0</title>
<path fill="none" stroke="green" stroke-width="1.19" stroke-dasharray="1,5" d="M881.33,-448.63C881.56,-423.05 882.25,-342.95 882.25,-276.58 882.25,-276.58 882.25,-276.58 882.25,-183.43 882.25,-131.51 898.55,-72.42 908.9,-40.12"/>
<polygon fill="green" stroke="green" stroke-width="1.19" points="912.16,-41.42 911.97,-30.82 905.51,-39.22 912.16,-41.42"/>
</g>
<!-- &#45;20&#45;&gt;1 -->
<g id="edge34" class="edge">
<title>&#45;20&#45;&gt;1</title>
<path fill="none" stroke="green" stroke-width="1.13" stroke-dasharray="1,5" d="M873.87,-448.67C861.37,-434.74 835.72,-406.16 818.5,-386.97"/>
<polygon fill="green" stroke="green" stroke-width="1.13" points="821.25,-384.79 811.97,-379.68 816.04,-389.46 821.25,-384.79"/>
</g>
<!-- &#45;20&#45;&gt;2 -->
<g id="edge10" class="edge">
<title>&#45;20&#45;&gt;2</title>
<path fill="none" stroke="red" stroke-width="2.6" d="M885.31,-448.67C891.51,-436.11 903.58,-411.64 912.84,-392.89"/>
<polygon fill="red" stroke="red" stroke-width="2.6" points="915.93,-394.53 917.22,-384.01 909.65,-391.43 915.93,-394.53"/>
</g>
<!-- &#45;20&#45;&gt;55006 -->
<g id="edge86" class="edge">
<title>&#45;20&#45;&gt;55006</title>
<path fill="none" stroke="red" stroke-width="1.35" d="M890.85,-448.67C905.46,-436.14 933.88,-411.78 955.73,-393.04"/>
<polygon fill="red" stroke="red" stroke-width="1.35" points="957.77,-395.9 963.09,-386.74 953.22,-390.59 957.77,-395.9"/>
</g>
<!-- &#45;21 -->
<g id="node21" class="node">
<title>&#45;21</title>
<polygon fill="lightgray" stroke="black" points="536.75,-466.89 507.75,-466.89 507.75,-448.89 536.75,-448.89 536.75,-466.89"/>
<text text-anchor="middle" x="522.25" y="-455.69" font-family="Times,serif" font-size="9.00">&#45;21</text>
</g>
<!-- &#45;21&#45;&gt;2 -->
<g id="edge68" class="edge">
<title>&#45;21&#45;&gt;2</title>
<path fill="none" stroke="green" stroke-width="0.51" d="M537.13,-454.13C581.27,-445.86 715.2,-420.28 825.25,-394.32 851.21,-388.19 880.7,-380.23 900.89,-374.62"/>
<polygon fill="green" stroke="green" stroke-width="0.51" points="901.64,-378.05 910.33,-371.98 899.76,-371.3 901.64,-378.05"/>
</g>
<!-- &#45;21&#45;&gt;57287 -->
<g id="edge125" class="edge">
<title>&#45;21&#45;&gt;57287</title>
<path fill="none" stroke="green" stroke-width="0.31" d="M529.64,-448.45C535.1,-442.65 543,-435.15 551.25,-430.32 595.26,-404.51 614.13,-416.12 660.25,-394.32 663.73,-392.67 667.27,-390.79 670.75,-388.81"/>
<polygon fill="green" stroke="green" stroke-width="0.31" points="672.56,-391.81 679.32,-383.66 668.95,-385.81 672.56,-391.81"/>
</g>
<!-- &#45;21&#45;&gt;46032 -->
<g id="edge36" class="edge">
<title>&#45;21&#45;&gt;46032</title>
<path fill="none" stroke="green" stroke-width="0.64" d="M530.17,-448.73C560.66,-417.8 674.42,-306.55 789.25,-248.01 841.43,-221.41 907.17,-203.21 947.7,-193.56"/>
<polygon fill="green" stroke="green" stroke-width="0.64" points="948.28,-197.02 957.23,-191.35 946.7,-190.2 948.28,-197.02"/>
</g>
<!-- &#45;22 -->
<g id="node22" class="node">
<title>&#45;22</title>
<polygon fill="lightgray" stroke="black" points="1771.75,-558.05 1742.75,-558.05 1742.75,-540.05 1771.75,-540.05 1771.75,-558.05"/>
<text text-anchor="middle" x="1757.25" y="-546.85" font-family="Times,serif" font-size="9.00">&#45;22</text>
</g>
<!-- &#45;22&#45;&gt;0 -->
<g id="edge14" class="edge">
<title>&#45;22&#45;&gt;0</title>
<path fill="none" stroke="green" stroke-width="1.06" d="M1772.18,-545.42C1827.21,-535.62 2016.72,-501.05 2039.25,-485.47 2090.68,-449.91 2116.25,-430.26 2116.25,-367.74 2116.25,-367.74 2116.25,-367.74 2116.25,-183.43 2116.25,-149.12 2243.17,-154.51 1781.25,-65.7 1614.71,-33.68 1070.03,-19.37 943.62,-16.43"/>
<polygon fill="green" stroke="green" stroke-width="1.06" points="943.78,-12.93 933.7,-16.21 943.62,-19.93 943.78,-12.93"/>
</g>
<!-- &#45;22&#45;&gt;2 -->
<g id="edge43" class="edge">
<title>&#45;22&#45;&gt;2</title>
<path fill="none" stroke="red" stroke-width="0.12" stroke-dasharray="1,5" d="M1742.4,-543.49C1721.73,-537.35 1683.04,-526.61 1649.25,-521.47 1519.17,-501.67 1175.01,-546.13 1058.25,-485.47 1030.42,-471.01 1038.27,-450.48 1014.25,-430.32 988.66,-408.83 974.26,-415.28 948.25,-394.32 945.37,-392 942.57,-389.29 939.97,-386.5"/>
<polygon fill="red" stroke="red" stroke-width="0.12" points="942.93,-384.58 933.75,-379.31 937.64,-389.16 942.93,-384.58"/>
</g>
<!-- &#45;22&#45;&gt;49101 -->
<g id="edge60" class="edge">
<title>&#45;22&#45;&gt;49101</title>
<path fill="none" stroke="green" stroke-width="0.12" d="M1769.48,-539.55C1783.74,-528.83 1806.58,-508.94 1816.25,-485.47 1826.83,-459.78 1827.02,-428.19 1824.88,-404.2"/>
<polygon fill="green" stroke="green" stroke-width="0.12" points="1828.36,-403.85 1823.81,-394.28 1821.4,-404.6 1828.36,-403.85"/>
</g>
<!-- &#45;22&#45;&gt;46032 -->
<g id="edge27" class="edge">
<title>&#45;22&#45;&gt;46032</title>
<path fill="none" stroke="green" stroke-width="0.29" stroke-dasharray="1,5" d="M1747.08,-539.76C1734.07,-528.65 1711.62,-507.75 1698.25,-485.47 1640.95,-389.98 1705.39,-317.36 1618.25,-248.01 1571.6,-210.89 1153.3,-191.87 1023.49,-186.82"/>
<polygon fill="green" stroke="green" stroke-width="0.29" points="1023.81,-183.33 1013.68,-186.45 1023.54,-190.33 1023.81,-183.33"/>
</g>
<!-- &#45;22&#45;&gt;53684 -->
<g id="edge100" class="edge">
<title>&#45;22&#45;&gt;53684</title>
<path fill="none" stroke="green" stroke-width="0.39" d="M1742.5,-540.45C1715.08,-526.32 1655.63,-495.68 1617.91,-476.24"/>
<polygon fill="green" stroke="green" stroke-width="0.39" points="1619.83,-473.29 1609.34,-471.82 1616.62,-479.51 1619.83,-473.29"/>
</g>
<!-- &#45;22&#45;&gt;54047 -->
<g id="edge116" class="edge">
<title>&#45;22&#45;&gt;54047</title>
<path fill="none" stroke="green" stroke-width="0.14" d="M1771.92,-545.65C1825.08,-536.83 2005.33,-505.61 2021.25,-485.47 2036.45,-466.24 2030.03,-453.2 2021.25,-430.32 2001.73,-379.44 1987.13,-365.18 1939.25,-339.16 1877.83,-305.79 1668.67,-286.2 1582.17,-279.36"/>
<polygon fill="green" stroke="green" stroke-width="0.14" points="1582.45,-275.87 1572.21,-278.59 1581.91,-282.85 1582.45,-275.87"/>
</g>
<!-- &#45;23 -->
<g id="node23" class="node">
<title>&#45;23</title>
<polygon fill="lightgray" stroke="black" points="1952.75,-558.05 1923.75,-558.05 1923.75,-540.05 1952.75,-540.05 1952.75,-558.05"/>
<text text-anchor="middle" x="1938.25" y="-546.85" font-family="Times,serif" font-size="9.00">&#45;23</text>
</g>
<!-- &#45;23&#45;&gt;0 -->
<g id="edge8" class="edge">
<title>&#45;23&#45;&gt;0</title>
<path fill="none" stroke="red" stroke-width="1.22" d="M1953.15,-544.92C1981.57,-538.3 2044.22,-520.55 2084.25,-485.47 2130.03,-445.35 2154.25,-428.61 2154.25,-367.74 2154.25,-367.74 2154.25,-367.74 2154.25,-183.43 2154.25,-105.51 2264.21,-146.16 1921.25,-65.7 1727.65,-20.28 1083.14,-16.22 943.91,-15.88"/>
<polygon fill="red" stroke="red" stroke-width="1.22" points="944.24,-12.38 934.23,-15.86 944.23,-19.38 944.24,-12.38"/>
</g>
<!-- &#45;23&#45;&gt;50151 -->
<g id="edge53" class="edge">
<title>&#45;23&#45;&gt;50151</title>
<path fill="none" stroke="green" stroke-width="0.94" d="M1938.15,-539.72C1937.66,-519.99 1934.85,-469.12 1919.25,-430.32 1910.06,-407.47 1877.44,-351.7 1856.25,-339.16 1789.15,-299.45 1584.42,-314.25 1507.25,-303.16 1471.15,-297.98 1430.29,-290.26 1401.34,-284.47"/>
<polygon fill="green" stroke="green" stroke-width="0.94" points="1402.37,-281.11 1391.88,-282.56 1400.99,-287.97 1402.37,-281.11"/>
</g>
<!-- &#45;23&#45;&gt;49101 -->
<g id="edge61" class="edge">
<title>&#45;23&#45;&gt;49101</title>
<path fill="none" stroke="green" stroke-width="0.69" d="M1936.47,-539.67C1931.85,-519.39 1918.03,-466.64 1892.25,-430.32 1881.05,-414.53 1865.02,-400.21 1850.83,-389.26"/>
<polygon fill="green" stroke="green" stroke-width="0.69" points="1853.24,-386.7 1843.14,-383.53 1849.06,-392.31 1853.24,-386.7"/>
</g>
<!-- &#45;23&#45;&gt;53684 -->
<g id="edge124" class="edge">
<title>&#45;23&#45;&gt;53684</title>
<path fill="none" stroke="red" stroke-width="0.61" d="M1923.49,-544.33C1871.81,-531.32 1698.02,-487.55 1621.24,-468.21"/>
<polygon fill="red" stroke="red" stroke-width="0.61" points="1622.52,-464.92 1611.97,-465.87 1620.81,-471.71 1622.52,-464.92"/>
</g>
<!-- &#45;24 -->
<g id="node24" class="node">
<title>&#45;24</title>
<polygon fill="lightgray" stroke="black" points="698.75,-466.89 669.75,-466.89 669.75,-448.89 698.75,-448.89 698.75,-466.89"/>
<text text-anchor="middle" x="684.25" y="-455.69" font-family="Times,serif" font-size="9.00">&#45;24</text>
</g>
<!-- &#45;24&#45;&gt;1 -->
<g id="edge3" class="edge">
<title>&#45;24&#45;&gt;1</title>
<path fill="none" stroke="red" stroke-width="0.55" stroke-dasharray="1,5" d="M690.05,-448.78C694.36,-443.14 700.62,-435.7 707.25,-430.32 732.89,-409.51 745.45,-413.61 772.25,-394.32 776.05,-391.58 779.9,-388.4 783.5,-385.21"/>
<polygon fill="red" stroke="red" stroke-width="0.55" points="785.75,-387.9 790.68,-378.52 780.98,-382.77 785.75,-387.9"/>
</g>
<!-- &#45;24&#45;&gt;57287 -->
<g id="edge123" class="edge">
<title>&#45;24&#45;&gt;57287</title>
<path fill="none" stroke="green" stroke-width="0.25" d="M685.91,-448.67C687.96,-438.53 691.57,-420.63 694.88,-404.24"/>
<polygon fill="green" stroke="green" stroke-width="0.25" points="698.26,-405.17 696.81,-394.68 691.4,-403.79 698.26,-405.17"/>
</g>
<!-- &#45;24&#45;&gt;49101 -->
<g id="edge47" class="edge">
<title>&#45;24&#45;&gt;49101</title>
<path fill="none" stroke="red" stroke-width="0.75" d="M688.89,-448.52C692.86,-442.26 699.21,-434.16 707.25,-430.32 811.26,-380.58 1630.98,-415.82 1744.25,-394.32 1757.48,-391.8 1771.5,-387.35 1783.8,-382.8"/>
<polygon fill="red" stroke="red" stroke-width="0.75" points="1784.97,-386.11 1793.04,-379.24 1782.45,-379.58 1784.97,-386.11"/>
</g>
<!-- 1&#45;&gt;46735 -->
<g id="edge46" class="edge">
<title>1&#45;&gt;46735</title>
<path fill="none" stroke="green" stroke-width="1.12" d="M805.05,-352.2C807.93,-341.92 812.03,-327.28 815.87,-313.61"/>
<polygon fill="green" stroke="green" stroke-width="1.12" points="819.2,-314.68 818.53,-304.11 812.46,-312.79 819.2,-314.68"/>
</g>
<!-- 1&#45;&gt;53238 -->
<g id="edge126" class="edge">
<title>1&#45;&gt;53238</title>
<path fill="none" stroke="green" stroke-width="0.54" d="M789.37,-357.32C737.33,-320.44 528.62,-172.51 449.17,-116.19"/>
<polygon fill="green" stroke="green" stroke-width="0.54" points="451.42,-113.5 441.24,-110.57 447.37,-119.21 451.42,-113.5"/>
</g>
<!-- 2&#45;&gt;50151 -->
<g id="edge122" class="edge">
<title>2&#45;&gt;50151</title>
<path fill="none" stroke="green" stroke-width="0.66" stroke-dasharray="1,5" d="M932.8,-353.65C936.75,-348.35 942.05,-342.58 948.25,-339.16 1012.74,-303.63 1234.06,-285.2 1324.39,-279.01"/>
<polygon fill="green" stroke="green" stroke-width="0.66" points="1324.5,-282.51 1334.24,-278.35 1324.03,-275.53 1324.5,-282.51"/>
</g>
<!-- 2&#45;&gt;46735 -->
<g id="edge37" class="edge">
<title>2&#45;&gt;46735</title>
<path fill="none" stroke="red" stroke-width="0.36" stroke-dasharray="1,5" d="M914.65,-356.2C900.3,-343.27 874.15,-319.72 854,-301.58"/>
<polygon fill="red" stroke="red" stroke-width="0.36" points="856.51,-299.13 846.74,-295.04 851.83,-304.33 856.51,-299.13"/>
</g>
<!-- 51683&#45;&gt;50151 -->
<g id="edge57" class="edge">
<title>51683&#45;&gt;50151</title>
<path fill="none" stroke="green" stroke-width="0.72" stroke-dasharray="1,5" d="M1563.76,-355.68C1523.5,-339.8 1445.02,-308.84 1399.1,-290.73"/>
<polygon fill="green" stroke="green" stroke-width="0.72" points="1400.59,-287.55 1390,-287.14 1398.02,-294.06 1400.59,-287.55"/>
</g>
<!-- 51683&#45;&gt;54047 -->
<g id="edge75" class="edge">
<title>51683&#45;&gt;54047</title>
<path fill="none" stroke="green" stroke-width="0.26" d="M1577.19,-341.85C1572.24,-332.03 1566.42,-320.5 1561.06,-309.88"/>
<polygon fill="green" stroke="green" stroke-width="0.26" points="1564.31,-308.56 1556.68,-301.2 1558.06,-311.71 1564.31,-308.56"/>
</g>
<!-- 58080&#45;&gt;1 -->
<g id="edge113" class="edge">
<title>58080&#45;&gt;1</title>
<path fill="none" stroke="green" stroke-width="2.33" d="M758.93,-433.93C767.41,-420.66 778.06,-404.02 786.55,-390.74"/>
<polygon fill="green" stroke="green" stroke-width="2.33" points="789.28,-392.96 791.72,-382.65 783.38,-389.19 789.28,-392.96"/>
</g>
<!-- 50151&#45;&gt;46032 -->
<g id="edge50" class="edge">
<title>50151&#45;&gt;46032</title>
<path fill="none" stroke="red" stroke-width="0.24" d="M1336.37,-268.24C1270,-252.59 1098.26,-212.08 1022.31,-194.17"/>
<polygon fill="red" stroke="red" stroke-width="0.24" points="1023.13,-190.77 1012.59,-191.88 1021.52,-197.58 1023.13,-190.77"/>
</g>
<!-- 50151&#45;&gt;54133 -->
<g id="edge108" class="edge">
<title>50151&#45;&gt;54133</title>
<path fill="none" stroke="green" stroke-width="0.54" d="M1390.56,-269.36C1419.5,-263.88 1466.55,-255.07 1507.25,-248.01 1634.23,-225.97 1785.19,-202.11 1854.3,-191.32"/>
<polygon fill="green" stroke="green" stroke-width="0.54" points="1854.52,-194.83 1863.86,-189.83 1853.44,-187.91 1854.52,-194.83"/>
</g>
<!-- 57287&#45;&gt;50151 -->
<g id="edge115" class="edge">
<title>57287&#45;&gt;50151</title>
<path fill="none" stroke="green" stroke-width="0.22" d="M723.93,-349.35C730.19,-345.38 737.24,-341.58 744.25,-339.16 852.66,-301.73 1207.19,-283.34 1324.89,-278.16"/>
<polygon fill="green" stroke="green" stroke-width="0.22" points="1325.04,-281.65 1334.88,-277.72 1324.73,-274.66 1325.04,-281.65"/>
</g>
<!-- 57287&#45;&gt;46735 -->
<g id="edge103" class="edge">
<title>57287&#45;&gt;46735</title>
<path fill="none" stroke="green" stroke-width="1.13" d="M724.42,-349.8C744.08,-335.66 773.01,-314.86 795.01,-299.04"/>
<polygon fill="green" stroke="green" stroke-width="1.13" points="796.8,-302.07 802.88,-293.39 792.72,-296.38 796.8,-302.07"/>
</g>
<!-- 49101&#45;&gt;50151 -->
<g id="edge49" class="edge">
<title>49101&#45;&gt;50151</title>
<path fill="none" stroke="red" stroke-width="0.39" d="M1793.59,-355.28C1779.27,-349.8 1761,-343.36 1744.25,-339.16 1640.91,-313.25 1612.32,-320.83 1507.25,-303.16 1470.97,-297.06 1429.68,-289.36 1400.65,-283.82"/>
<polygon fill="red" stroke="red" stroke-width="0.39" points="1401.61,-280.44 1391.13,-282 1400.29,-287.32 1401.61,-280.44"/>
</g>
<!-- 49101&#45;&gt;46032 -->
<g id="edge48" class="edge">
<title>49101&#45;&gt;46032</title>
<path fill="none" stroke="green" stroke-width="0.82" d="M1817.74,-338.68C1814.62,-311.11 1805.25,-269.45 1777.25,-248.01 1717.01,-201.88 1175.31,-188.82 1024.22,-186.06"/>
<polygon fill="green" stroke="green" stroke-width="0.82" points="1024.52,-182.56 1014.46,-185.88 1024.4,-189.56 1024.52,-182.56"/>
</g>
<!-- 49101&#45;&gt;54047 -->
<g id="edge81" class="edge">
<title>49101&#45;&gt;54047</title>
<path fill="none" stroke="red" stroke-width="0.21" stroke-dasharray="1,5" d="M1793.3,-356.27C1778.9,-351.09 1760.63,-344.62 1744.25,-339.16 1687.3,-320.17 1620.67,-299.66 1580.5,-287.48"/>
<polygon fill="red" stroke="red" stroke-width="0.21" points="1581.77,-284.21 1571.18,-284.66 1579.74,-290.91 1581.77,-284.21"/>
</g>
<!-- 54605&#45;&gt;50151 -->
<g id="edge99" class="edge">
<title>54605&#45;&gt;50151</title>
<path fill="none" stroke="red" stroke-width="0.28" d="M1084.03,-544.79C1159.84,-535.64 1365.93,-508.82 1385.25,-485.47 1400.88,-466.59 1391.65,-453.98 1385.25,-430.32 1380.42,-412.43 1369.16,-412.18 1364.25,-394.32 1357.01,-368 1357.06,-337.1 1358.75,-313.56"/>
<polygon fill="red" stroke="red" stroke-width="0.28" points="1362.23,-313.99 1359.59,-303.73 1355.25,-313.4 1362.23,-313.99"/>
</g>
<!-- 54605&#45;&gt;46032 -->
<g id="edge80" class="edge">
<title>54605&#45;&gt;46032</title>
<path fill="none" stroke="red" stroke-width="1.35" d="M1028.74,-544.24C986.99,-538.58 905.09,-527.91 835.25,-521.47 773.27,-515.75 318.82,-530.87 276.25,-485.47 191.95,-395.57 260.62,-334.69 412.25,-248.01 503.52,-195.83 830.99,-187.15 945.43,-185.71"/>
<polygon fill="red" stroke="red" stroke-width="1.35" points="945.38,-189.21 955.34,-185.6 945.3,-182.21 945.38,-189.21"/>
</g>
<!-- 54605&#45;&gt;53684 -->
<g id="edge101" class="edge">
<title>54605&#45;&gt;53684</title>
<path fill="none" stroke="green" stroke-width="0.49" d="M1083.9,-544.48C1123.44,-539.37 1198.41,-529.69 1262.25,-521.47 1386.69,-505.44 1424.22,-528.02 1542.25,-485.47 1545.96,-484.13 1549.68,-482.43 1553.29,-480.53"/>
<polygon fill="green" stroke="green" stroke-width="0.49" points="1555,-483.58 1561.88,-475.53 1551.48,-477.53 1555,-483.58"/>
</g>
<!-- 46735&#45;&gt;0 -->
<g id="edge33" class="edge">
<title>46735&#45;&gt;0</title>
<path fill="none" stroke="green" stroke-width="0.34" d="M826.83,-247.56C828.74,-206.1 836.62,-125.34 868.25,-65.7 875.43,-52.16 887.44,-39.85 897.78,-30.85"/>
<polygon fill="green" stroke="green" stroke-width="0.34" points="899.72,-33.79 905.19,-24.71 895.26,-28.4 899.72,-33.79"/>
</g>
<!-- 46032&#45;&gt;0 -->
<g id="edge63" class="edge">
<title>46032&#45;&gt;0</title>
<path fill="none" stroke="red" stroke-width="0.37" stroke-dasharray="1,5" d="M975.07,-158.34C961.89,-125.86 939.11,-69.71 926.43,-38.48"/>
<polygon fill="red" stroke="red" stroke-width="0.37" points="929.76,-37.37 922.76,-29.42 923.27,-40.01 929.76,-37.37"/>
</g>
<!-- 46032&#45;&gt;53238 -->
<g id="edge70" class="edge">
<title>46032&#45;&gt;53238</title>
<path fill="none" stroke="red" stroke-width="1.03" d="M957.9,-179.13C865.47,-164.6 564.5,-117.27 456.92,-100.36"/>
<polygon fill="red" stroke="red" stroke-width="1.03" points="457.62,-96.92 447.19,-98.83 456.53,-103.84 457.62,-96.92"/>
</g>
<!-- 58030&#45;&gt;0 -->
<g id="edge110" class="edge">
<title>58030&#45;&gt;0</title>
<path fill="none" stroke="green" stroke-width="1.66" d="M1403.77,-339.13C1407.85,-278.56 1408.01,-130.61 1321.25,-65.7 1261.47,-20.98 1025.19,-16.12 944.46,-15.79"/>
<polygon fill="green" stroke="green" stroke-width="1.66" points="944.59,-12.29 934.58,-15.77 944.58,-19.29 944.59,-12.29"/>
</g>
<!-- 58030&#45;&gt;50151 -->
<g id="edge119" class="edge">
<title>58030&#45;&gt;50151</title>
<path fill="none" stroke="green" stroke-width="0.27" d="M1390.66,-340.9C1386.7,-331.61 1382.13,-320.88 1377.87,-310.89"/>
<polygon fill="green" stroke="green" stroke-width="0.27" points="1381.21,-309.8 1374.07,-301.97 1374.77,-312.54 1381.21,-309.8"/>
</g>
<!-- 58671&#45;&gt;51683 -->
<g id="edge121" class="edge">
<title>58671&#45;&gt;51683</title>
<path fill="none" stroke="green" stroke-width="0.3" d="M1618.82,-521.96C1623.82,-497.85 1628.69,-461.21 1621.25,-430.32 1618.72,-419.82 1614.12,-409.1 1609.17,-399.57"/>
<polygon fill="green" stroke="green" stroke-width="0.3" points="1612.28,-397.96 1604.4,-390.88 1606.15,-401.33 1612.28,-397.96"/>
</g>
<!-- 58671&#45;&gt;49101 -->
<g id="edge118" class="edge">
<title>58671&#45;&gt;49101</title>
<path fill="none" stroke="red" stroke-width="0.33" d="M1639.98,-544.86C1676.5,-539.22 1740.52,-524.17 1778.25,-485.47 1799.5,-463.68 1809.77,-430.3 1814.72,-404.64"/>
<polygon fill="red" stroke="red" stroke-width="0.33" points="1818.13,-405.48 1816.39,-395.02 1811.23,-404.28 1818.13,-405.48"/>
</g>
<!-- 58671&#45;&gt;53684 -->
<g id="edge131" class="edge">
<title>58671&#45;&gt;53684</title>
<path fill="none" stroke="red" stroke-width="0.61" stroke-dasharray="1,5" d="M1604.15,-522.26C1601.48,-513.76 1598.46,-504.14 1595.59,-495.01"/>
<polygon fill="red" stroke="red" stroke-width="0.61" points="1598.94,-493.99 1592.6,-485.5 1592.26,-496.09 1598.94,-493.99"/>
</g>
<!-- 53684&#45;&gt;51683 -->
<g id="edge95" class="edge">
<title>53684&#45;&gt;51683</title>
<path fill="none" stroke="red" stroke-width="0.13" d="M1585.75,-430.14C1586.2,-422.19 1586.69,-413.34 1587.17,-404.86"/>
<polygon fill="red" stroke="red" stroke-width="0.13" points="1590.66,-405.15 1587.72,-394.97 1583.67,-404.76 1590.66,-405.15"/>
</g>
<!-- 53684&#45;&gt;46032 -->
<g id="edge74" class="edge">
<title>53684&#45;&gt;46032</title>
<path fill="none" stroke="red" stroke-width="1.2" d="M1602.46,-436.52C1611.52,-425 1621.52,-409.84 1626.25,-394.32 1646.07,-329.23 1637.07,-286.89 1581.25,-248.01 1490.96,-185.12 1143.01,-183.43 1024.81,-184.74"/>
<polygon fill="red" stroke="red" stroke-width="1.2" points="1024.92,-181.24 1014.96,-184.87 1025,-188.24 1024.92,-181.24"/>
</g>
<!-- 53684&#45;&gt;58030 -->
<g id="edge127" class="edge">
<title>53684&#45;&gt;58030</title>
<path fill="none" stroke="green" stroke-width="0.34" d="M1559.57,-444.87C1527.51,-429.25 1471.38,-401.9 1435.29,-384.32"/>
<polygon fill="green" stroke="green" stroke-width="0.34" points="1437.11,-381.31 1426.58,-380.08 1434.04,-387.61 1437.11,-381.31"/>
</g>
<!-- 53238&#45;&gt;0 -->
<g id="edge71" class="edge">
<title>53238&#45;&gt;0</title>
<path fill="none" stroke="green" stroke-width="0.36" d="M445.79,-88.06C533.89,-74.56 807.97,-32.59 892.3,-19.67"/>
<polygon fill="green" stroke="green" stroke-width="0.36" points="892.8,-23.13 902.16,-18.16 891.74,-16.22 892.8,-23.13"/>
</g>
<!-- 55006&#45;&gt;50151 -->
<g id="edge88" class="edge">
<title>55006&#45;&gt;50151</title>
<path fill="none" stroke="red" stroke-width="0.13" stroke-dasharray="1,5" d="M1012.13,-359.4C1078.64,-343.71 1250.95,-303.07 1326.66,-285.22"/>
<polygon fill="red" stroke="red" stroke-width="0.13" points="1327.13,-288.7 1336.06,-283 1325.52,-281.89 1327.13,-288.7"/>
</g>
<!-- 55006&#45;&gt;46032 -->
<g id="edge84" class="edge">
<title>55006&#45;&gt;46032</title>
<path fill="none" stroke="green" stroke-width="0.27" d="M985.25,-338.74C985.25,-307.85 985.25,-257.07 985.25,-222.49"/>
<polygon fill="green" stroke="green" stroke-width="0.27" points="988.75,-222.73 985.25,-212.73 981.75,-222.73 988.75,-222.73"/>
</g>
</g>
</svg>
