<?xml version="1.0" encoding="UTF-8" standalone="no"?>
<!DOCTYPE svg PUBLIC "-//W3C//DTD SVG 1.1//EN"
 "http://www.w3.org/Graphics/SVG/1.1/DTD/svg11.dtd">
<!-- Generated by graphviz version 7.1.0 (20230121.1956)
 -->
<!-- Pages: 1 -->
<svg width="1094pt" height="456pt"
 viewBox="0.00 0.00 1094.14 456.32" xmlns="http://www.w3.org/2000/svg" xmlns:xlink="http://www.w3.org/1999/xlink">
<g id="graph0" class="graph" transform="scale(1 1) rotate(0) translate(4 452.32)">
<polygon fill="white" stroke="none" points="-4,4 -4,-452.32 1090.14,-452.32 1090.14,4 -4,4"/>
<!-- &#45;1 -->
<g id="node1" class="node">
<title>&#45;1</title>
<polygon fill="lightgray" stroke="black" points="1017.96,-448.32 993.96,-448.32 993.96,-430.32 1017.96,-430.32 1017.96,-448.32"/>
<text text-anchor="middle" x="1005.96" y="-437.12" font-family="Times,serif" font-size="9.00">&#45;1</text>
</g>
<!-- 0 -->
<g id="node16" class="node">
<title>0</title>
<ellipse fill="lightblue" stroke="black" cx="644.96" cy="-118.73" rx="14.7" ry="14.7"/>
<text text-anchor="middle" x="644.96" y="-116.53" font-family="Times,serif" font-size="9.00">0</text>
</g>
<!-- &#45;1&#45;&gt;0 -->
<g id="edge30" class="edge">
<title>&#45;1&#45;&gt;0</title>
<path fill="none" stroke="red" stroke-width="0.61" d="M1018.45,-429.87C1028.82,-422.04 1042.83,-409.35 1048.96,-394.32 1084.52,-307.06 1110.28,-253.85 1048.96,-182.31 999.66,-124.78 751.6,-119.68 670.59,-119.58"/>
<polygon fill="red" stroke="red" stroke-width="0.61" points="670.82,-116.08 660.82,-119.59 670.83,-123.08 670.82,-116.08"/>
</g>
<!-- 1 -->
<g id="node17" class="node">
<title>1</title>
<ellipse fill="lightblue" stroke="black" cx="484.96" cy="-379.47" rx="14.7" ry="14.7"/>
<text text-anchor="middle" x="484.96" y="-377.27" font-family="Times,serif" font-size="9.00">1</text>
</g>
<!-- &#45;1&#45;&gt;1 -->
<g id="edge54" class="edge">
<title>&#45;1&#45;&gt;1</title>
<path fill="none" stroke="red" stroke-width="0.56" d="M993.7,-437.95C926.6,-435.82 603.54,-424.18 508.96,-394.32 508.04,-394.02 507.11,-393.69 506.19,-393.33"/>
<polygon fill="red" stroke="red" stroke-width="0.56" points="507.97,-390.31 497.46,-388.98 504.84,-396.57 507.97,-390.31"/>
</g>
<!-- 92388 -->
<g id="node20" class="node">
<title>92388</title>
<ellipse fill="white" stroke="black" cx="672.96" cy="-209.89" rx="27.65" ry="27.65"/>
<text text-anchor="middle" x="672.96" y="-207.69" font-family="Times,serif" font-size="9.00">92388</text>
</g>
<!-- &#45;1&#45;&gt;92388 -->
<g id="edge25" class="edge">
<title>&#45;1&#45;&gt;92388</title>
<path fill="none" stroke="green" stroke-width="0.34" d="M998.66,-430.06C975.27,-403.99 899.16,-322.31 821.96,-273.46 786.02,-250.72 740.39,-232.97 709.16,-222.27"/>
<polygon fill="green" stroke="green" stroke-width="0.34" points="710.64,-219.08 700.05,-219.22 708.41,-225.72 710.64,-219.08"/>
</g>
<!-- 87369 -->
<g id="node24" class="node">
<title>87369</title>
<ellipse fill="white" stroke="black" cx="389.96" cy="-118.73" rx="27.65" ry="27.65"/>
<text text-anchor="middle" x="389.96" y="-116.53" font-family="Times,serif" font-size="9.00">87369</text>
</g>
<!-- &#45;1&#45;&gt;87369 -->
<g id="edge43" class="edge">
<title>&#45;1&#45;&gt;87369</title>
<path fill="none" stroke="green" stroke-width="0.52" d="M1007.1,-430.02C1011.51,-394.02 1023.77,-249.99 947.96,-182.31 893.43,-133.62 693.61,-154.49 620.96,-146.31 553.14,-138.67 474.15,-129.53 428.32,-124.2"/>
<polygon fill="green" stroke="green" stroke-width="0.52" points="428.81,-120.74 418.47,-123.06 428,-127.69 428.81,-120.74"/>
</g>
<!-- &#45;2 -->
<g id="node2" class="node">
<title>&#45;2</title>
<polygon fill="lightgray" stroke="black" points="474.96,-218.89 450.96,-218.89 450.96,-200.89 474.96,-200.89 474.96,-218.89"/>
<text text-anchor="middle" x="462.96" y="-207.69" font-family="Times,serif" font-size="9.00">&#45;2</text>
</g>
<!-- &#45;2&#45;&gt;0 -->
<g id="edge2" class="edge">
<title>&#45;2&#45;&gt;0</title>
<path fill="none" stroke="green" stroke-width="1.56" d="M469.51,-200.55C474.37,-194.81 481.45,-187.33 488.96,-182.31 530.73,-154.4 586.87,-135.73 619.16,-126.49"/>
<polygon fill="green" stroke="green" stroke-width="1.56" points="619.69,-129.98 628.4,-123.94 617.83,-123.23 619.69,-129.98"/>
</g>
<!-- 87365 -->
<g id="node21" class="node">
<title>87365</title>
<ellipse fill="white" stroke="black" cx="228.96" cy="-27.58" rx="27.65" ry="27.65"/>
<text text-anchor="middle" x="228.96" y="-25.38" font-family="Times,serif" font-size="9.00">87365</text>
</g>
<!-- &#45;2&#45;&gt;87365 -->
<g id="edge28" class="edge">
<title>&#45;2&#45;&gt;87365</title>
<path fill="none" stroke="green" stroke-width="0.49" stroke-dasharray="1,5" d="M462.91,-200.44C462.33,-179.05 457.8,-122.28 426.96,-91.15 384.16,-47.95 311.78,-34.51 267.4,-30.37"/>
<polygon fill="green" stroke="green" stroke-width="0.49" points="267.74,-26.89 257.49,-29.57 267.18,-33.87 267.74,-26.89"/>
</g>
<!-- &#45;3 -->
<g id="node3" class="node">
<title>&#45;3</title>
<polygon fill="lightgray" stroke="black" points="356.96,-218.89 332.96,-218.89 332.96,-200.89 356.96,-200.89 356.96,-218.89"/>
<text text-anchor="middle" x="344.96" y="-207.69" font-family="Times,serif" font-size="9.00">&#45;3</text>
</g>
<!-- &#45;3&#45;&gt;87369 -->
<g id="edge19" class="edge">
<title>&#45;3&#45;&gt;87369</title>
<path fill="none" stroke="red" stroke-width="0.13" stroke-dasharray="1,5" d="M349.11,-200.66C354.6,-189.79 364.58,-170.01 373.31,-152.73"/>
<polygon fill="red" stroke="red" stroke-width="0.13" points="376.25,-154.66 377.63,-144.15 370,-151.5 376.25,-154.66"/>
</g>
<!-- &#45;4 -->
<g id="node4" class="node">
<title>&#45;4</title>
<polygon fill="lightgray" stroke="black" points="590.96,-448.32 566.96,-448.32 566.96,-430.32 590.96,-430.32 590.96,-448.32"/>
<text text-anchor="middle" x="578.96" y="-437.12" font-family="Times,serif" font-size="9.00">&#45;4</text>
</g>
<!-- &#45;4&#45;&gt;1 -->
<g id="edge1" class="edge">
<title>&#45;4&#45;&gt;1</title>
<path fill="none" stroke="red" stroke-width="1.06" d="M566.67,-430.75C551.54,-421.44 525.57,-405.46 506.96,-394.01"/>
<polygon fill="red" stroke="red" stroke-width="1.06" points="508.97,-391.13 498.62,-388.87 505.3,-397.09 508.97,-391.13"/>
</g>
<!-- 87368 -->
<g id="node23" class="node">
<title>87368</title>
<ellipse fill="white" stroke="black" cx="854.96" cy="-27.58" rx="27.65" ry="27.65"/>
<text text-anchor="middle" x="854.96" y="-25.38" font-family="Times,serif" font-size="9.00">87368</text>
</g>
<!-- &#45;4&#45;&gt;87368 -->
<g id="edge18" class="edge">
<title>&#45;4&#45;&gt;87368</title>
<path fill="none" stroke="green" stroke-width="0.57" d="M591.19,-437.8C643.11,-435.41 845.06,-424.35 899.96,-394.32 933.62,-375.9 939.62,-363.33 955.96,-328.62 1001.11,-232.68 997.09,-175.6 932.96,-91.15 920.41,-74.63 902.57,-59.89 887.12,-48.87"/>
<polygon fill="green" stroke="green" stroke-width="0.57" points="889.29,-46.12 879.07,-43.32 885.32,-51.88 889.29,-46.12"/>
</g>
<!-- &#45;4&#45;&gt;87369 -->
<g id="edge49" class="edge">
<title>&#45;4&#45;&gt;87369</title>
<path fill="none" stroke="green" stroke-width="0.38" d="M577.92,-430.27C573.18,-396.4 550.89,-263.53 483.96,-182.31 467.78,-162.68 443.85,-146.87 424.19,-136.05"/>
<polygon fill="green" stroke="green" stroke-width="0.38" points="425.91,-133 415.44,-131.42 422.64,-139.19 425.91,-133"/>
</g>
<!-- &#45;5 -->
<g id="node5" class="node">
<title>&#45;5</title>
<polygon fill="lightgray" stroke="black" points="541.96,-388.47 517.96,-388.47 517.96,-370.47 541.96,-370.47 541.96,-388.47"/>
<text text-anchor="middle" x="529.96" y="-377.27" font-family="Times,serif" font-size="9.00">&#45;5</text>
</g>
<!-- &#45;5&#45;&gt;0 -->
<g id="edge26" class="edge">
<title>&#45;5&#45;&gt;0</title>
<path fill="none" stroke="red" stroke-width="0.2" d="M533.66,-370.15C549.4,-334.73 611.16,-195.77 635.26,-141.56"/>
<polygon fill="red" stroke="red" stroke-width="0.2" points="638.31,-143.31 639.18,-132.75 631.92,-140.46 638.31,-143.31"/>
</g>
<!-- &#45;5&#45;&gt;87369 -->
<g id="edge13" class="edge">
<title>&#45;5&#45;&gt;87369</title>
<path fill="none" stroke="green" stroke-width="0.15" d="M517.59,-370.16C514.77,-368.31 511.78,-366.38 508.96,-364.62 482.26,-347.95 468.41,-352.55 447.96,-328.62 406.01,-279.5 394.24,-202.35 391.04,-156.84"/>
<polygon fill="green" stroke="green" stroke-width="0.15" points="394.54,-156.81 390.45,-147.04 387.55,-157.23 394.54,-156.81"/>
</g>
<!-- 92055 -->
<g id="node26" class="node">
<title>92055</title>
<ellipse fill="white" stroke="black" cx="484.96" cy="-301.04" rx="27.65" ry="27.65"/>
<text text-anchor="middle" x="484.96" y="-298.84" font-family="Times,serif" font-size="9.00">92055</text>
</g>
<!-- &#45;5&#45;&gt;92055 -->
<g id="edge29" class="edge">
<title>&#45;5&#45;&gt;92055</title>
<path fill="none" stroke="red" stroke-width="0.19" d="M524.97,-370C519.88,-361.34 511.65,-347.37 503.97,-334.33"/>
<polygon fill="red" stroke="red" stroke-width="0.19" points="507.03,-332.62 498.94,-325.78 501,-336.18 507.03,-332.62"/>
</g>
<!-- &#45;6 -->
<g id="node6" class="node">
<title>&#45;6</title>
<polygon fill="lightgray" stroke="black" points="890.96,-388.47 866.96,-388.47 866.96,-370.47 890.96,-370.47 890.96,-388.47"/>
<text text-anchor="middle" x="878.96" y="-377.27" font-family="Times,serif" font-size="9.00">&#45;6</text>
</g>
<!-- &#45;6&#45;&gt;87365 -->
<g id="edge27" class="edge">
<title>&#45;6&#45;&gt;87365</title>
<path fill="none" stroke="green" stroke-width="0.15" d="M875.95,-370.01C861.15,-329.79 791.71,-157.07 668.96,-91.15 599.5,-53.85 360.51,-36.23 266.95,-30.63"/>
<polygon fill="green" stroke="green" stroke-width="0.15" points="267.22,-27.14 257.03,-30.05 266.81,-34.13 267.22,-27.14"/>
</g>
<!-- 98792 -->
<g id="node25" class="node">
<title>98792</title>
<ellipse fill="white" stroke="black" cx="784.96" cy="-301.04" rx="27.65" ry="27.65"/>
<text text-anchor="middle" x="784.96" y="-298.84" font-family="Times,serif" font-size="9.00">98792</text>
</g>
<!-- &#45;6&#45;&gt;98792 -->
<g id="edge57" class="edge">
<title>&#45;6&#45;&gt;98792</title>
<path fill="none" stroke="red" stroke-width="0.13" d="M868.54,-370C855.47,-359.37 832.51,-340.7 813.96,-325.62"/>
<polygon fill="red" stroke="red" stroke-width="0.13" points="816.18,-322.91 806.21,-319.32 811.76,-328.34 816.18,-322.91"/>
</g>
<!-- 93500 -->
<g id="node27" class="node">
<title>93500</title>
<ellipse fill="white" stroke="black" cx="910.96" cy="-209.89" rx="27.65" ry="27.65"/>
<text text-anchor="middle" x="910.96" y="-207.69" font-family="Times,serif" font-size="9.00">93500</text>
</g>
<!-- &#45;6&#45;&gt;93500 -->
<g id="edge50" class="edge">
<title>&#45;6&#45;&gt;93500</title>
<path fill="none" stroke="red" stroke-width="0.21" stroke-dasharray="1,5" d="M891.35,-372.62C906.09,-364.89 929.94,-349.75 939.96,-328.62 953,-301.13 942.07,-267.15 930.08,-242.77"/>
<polygon fill="red" stroke="red" stroke-width="0.21" points="933.35,-241.47 925.63,-234.22 927.14,-244.7 933.35,-241.47"/>
</g>
<!-- &#45;7 -->
<g id="node7" class="node">
<title>&#45;7</title>
<polygon fill="lightgray" stroke="black" points="930.96,-310.04 906.96,-310.04 906.96,-292.04 930.96,-292.04 930.96,-310.04"/>
<text text-anchor="middle" x="918.96" y="-298.84" font-family="Times,serif" font-size="9.00">&#45;7</text>
</g>
<!-- 95968 -->
<g id="node19" class="node">
<title>95968</title>
<ellipse fill="white" stroke="black" cx="172.96" cy="-209.89" rx="27.65" ry="27.65"/>
<text text-anchor="middle" x="172.96" y="-207.69" font-family="Times,serif" font-size="9.00">95968</text>
</g>
<!-- &#45;7&#45;&gt;95968 -->
<g id="edge33" class="edge">
<title>&#45;7&#45;&gt;95968</title>
<path fill="none" stroke="red" stroke-width="0.12" d="M906.58,-295.81C888.31,-289.76 852.94,-278.77 821.96,-273.46 603.24,-235.96 544.19,-264.73 323.96,-237.46 284.8,-232.61 240.36,-224.47 209.88,-218.47"/>
<polygon fill="red" stroke="red" stroke-width="0.12" points="210.78,-215.08 200.29,-216.56 209.41,-221.95 210.78,-215.08"/>
</g>
<!-- &#45;7&#45;&gt;87368 -->
<g id="edge8" class="edge">
<title>&#45;7&#45;&gt;87368</title>
<path fill="none" stroke="green" stroke-width="0.88" stroke-dasharray="1,5" d="M910.57,-291.61C899.96,-280.35 882.1,-259.28 873.96,-237.46 852.8,-180.74 851.11,-109.59 852.53,-66.68"/>
<polygon fill="green" stroke="green" stroke-width="0.88" points="856.01,-67.09 852.93,-56.95 849.02,-66.8 856.01,-67.09"/>
</g>
<!-- &#45;7&#45;&gt;93500 -->
<g id="edge20" class="edge">
<title>&#45;7&#45;&gt;93500</title>
<path fill="none" stroke="green" stroke-width="0.74" stroke-dasharray="1,5" d="M918.22,-291.81C917.34,-281.94 915.79,-264.69 914.35,-248.65"/>
<polygon fill="green" stroke="green" stroke-width="0.74" points="917.86,-248.61 913.48,-238.96 910.89,-249.23 917.86,-248.61"/>
</g>
<!-- &#45;8 -->
<g id="node8" class="node">
<title>&#45;8</title>
<polygon fill="lightgray" stroke="black" points="638.96,-388.47 614.96,-388.47 614.96,-370.47 638.96,-370.47 638.96,-388.47"/>
<text text-anchor="middle" x="626.96" y="-377.27" font-family="Times,serif" font-size="9.00">&#45;8</text>
</g>
<!-- 97729 -->
<g id="node22" class="node">
<title>97729</title>
<ellipse fill="white" stroke="black" cx="634.96" cy="-301.04" rx="27.65" ry="27.65"/>
<text text-anchor="middle" x="634.96" y="-298.84" font-family="Times,serif" font-size="9.00">97729</text>
</g>
<!-- &#45;8&#45;&gt;97729 -->
<g id="edge53" class="edge">
<title>&#45;8&#45;&gt;97729</title>
<path fill="none" stroke="red" stroke-width="0.56" d="M627.85,-370C628.63,-362.51 629.83,-351.05 631.02,-339.66"/>
<polygon fill="red" stroke="red" stroke-width="0.56" points="634.5,-340.05 632.06,-329.74 627.54,-339.33 634.5,-340.05"/>
</g>
<!-- &#45;8&#45;&gt;92055 -->
<g id="edge17" class="edge">
<title>&#45;8&#45;&gt;92055</title>
<path fill="none" stroke="green" stroke-width="0.4" d="M614.85,-371.95C593.7,-360.57 549.32,-336.68 518.36,-320.02"/>
<polygon fill="green" stroke="green" stroke-width="0.4" points="520.21,-317.04 509.75,-315.38 516.89,-323.2 520.21,-317.04"/>
</g>
<!-- &#45;9 -->
<g id="node9" class="node">
<title>&#45;9</title>
<polygon fill="lightgray" stroke="black" points="406.96,-448.32 382.96,-448.32 382.96,-430.32 406.96,-430.32 406.96,-448.32"/>
<text text-anchor="middle" x="394.96" y="-437.12" font-family="Times,serif" font-size="9.00">&#45;9</text>
</g>
<!-- &#45;9&#45;&gt;0 -->
<g id="edge9" class="edge">
<title>&#45;9&#45;&gt;0</title>
<path fill="none" stroke="green" stroke-width="0.48" stroke-dasharray="1,5" d="M396.06,-430.13C399.77,-404.95 413.5,-327.08 447.96,-273.46 460.19,-254.43 468.04,-253.55 483.96,-237.46 508.09,-213.08 510.91,-203.41 537.96,-182.31 565.03,-161.19 599.93,-142.08 622.37,-130.69"/>
<polygon fill="green" stroke="green" stroke-width="0.48" points="623.7,-133.94 631.08,-126.34 620.57,-127.68 623.7,-133.94"/>
</g>
<!-- &#45;9&#45;&gt;1 -->
<g id="edge5" class="edge">
<title>&#45;9&#45;&gt;1</title>
<path fill="none" stroke="red" stroke-width="2.65" stroke-dasharray="1,5" d="M407.1,-430.51C420.85,-421.67 443.62,-407.04 460.99,-395.88"/>
<polygon fill="red" stroke="red" stroke-width="2.65" points="462.83,-398.85 469.35,-390.5 459.05,-392.96 462.83,-398.85"/>
</g>
<!-- &#45;9&#45;&gt;95968 -->
<g id="edge38" class="edge">
<title>&#45;9&#45;&gt;95968</title>
<path fill="none" stroke="green" stroke-width="1.18" d="M382.48,-436.26C344.46,-429.26 229.65,-402.53 180.96,-328.62 165.66,-305.39 164.34,-273.68 166.47,-249.02"/>
<polygon fill="green" stroke="green" stroke-width="1.18" points="169.92,-249.66 167.55,-239.33 162.97,-248.88 169.92,-249.66"/>
</g>
<!-- &#45;10 -->
<g id="node10" class="node">
<title>&#45;10</title>
<polygon fill="lightgray" stroke="black" points="252.46,-448.32 223.46,-448.32 223.46,-430.32 252.46,-430.32 252.46,-448.32"/>
<text text-anchor="middle" x="237.96" y="-437.12" font-family="Times,serif" font-size="9.00">&#45;10</text>
</g>
<!-- &#45;10&#45;&gt;1 -->
<g id="edge14" class="edge">
<title>&#45;10&#45;&gt;1</title>
<path fill="none" stroke="green" stroke-width="0.32" d="M252.76,-437.08C289.21,-433.69 385.78,-422.54 460.96,-394.32 462,-393.93 463.04,-393.5 464.08,-393.03"/>
<polygon fill="green" stroke="green" stroke-width="0.32" points="465.45,-396.27 472.7,-388.54 462.22,-390.06 465.45,-396.27"/>
</g>
<!-- 2 -->
<g id="node18" class="node">
<title>2</title>
<ellipse fill="lightblue" stroke="black" cx="121.96" cy="-379.47" rx="14.7" ry="14.7"/>
<text text-anchor="middle" x="121.96" y="-377.27" font-family="Times,serif" font-size="9.00">2</text>
</g>
<!-- &#45;10&#45;&gt;2 -->
<g id="edge7" class="edge">
<title>&#45;10&#45;&gt;2</title>
<path fill="none" stroke="green" stroke-width="3.52" d="M223.27,-430.99C204.56,-421.66 171.9,-405.37 148.72,-393.81"/>
<polygon fill="green" stroke="green" stroke-width="3.52" points="150.38,-390.73 139.86,-389.4 147.25,-396.99 150.38,-390.73"/>
</g>
<!-- &#45;11 -->
<g id="node11" class="node">
<title>&#45;11</title>
<polygon fill="lightgray" stroke="black" points="326.46,-310.04 297.46,-310.04 297.46,-292.04 326.46,-292.04 326.46,-310.04"/>
<text text-anchor="middle" x="311.96" y="-298.84" font-family="Times,serif" font-size="9.00">&#45;11</text>
</g>
<!-- &#45;11&#45;&gt;95968 -->
<g id="edge41" class="edge">
<title>&#45;11&#45;&gt;95968</title>
<path fill="none" stroke="green" stroke-width="0.82" d="M298.88,-291.65C277.6,-278 234.86,-250.59 205.11,-231.51"/>
<polygon fill="green" stroke="green" stroke-width="0.82" points="207.3,-228.75 196.99,-226.3 203.52,-234.64 207.3,-228.75"/>
</g>
<!-- &#45;11&#45;&gt;92388 -->
<g id="edge40" class="edge">
<title>&#45;11&#45;&gt;92388</title>
<path fill="none" stroke="green" stroke-width="0.36" d="M326.56,-296.43C378.89,-283.51 558.07,-239.26 636.13,-219.98"/>
<polygon fill="green" stroke="green" stroke-width="0.36" points="636.61,-223.47 645.48,-217.67 634.94,-216.67 636.61,-223.47"/>
</g>
<!-- &#45;11&#45;&gt;87369 -->
<g id="edge36" class="edge">
<title>&#45;11&#45;&gt;87369</title>
<path fill="none" stroke="green" stroke-width="0.29" stroke-dasharray="1,5" d="M310.92,-291.8C308.8,-271.84 305.56,-219.74 323.96,-182.31 331.92,-166.11 345.92,-151.91 358.99,-141.14"/>
<polygon fill="green" stroke="green" stroke-width="0.29" points="360.9,-144.1 366.6,-135.17 356.57,-138.59 360.9,-144.1"/>
</g>
<!-- &#45;12 -->
<g id="node12" class="node">
<title>&#45;12</title>
<polygon fill="lightgray" stroke="black" points="93.46,-448.32 64.46,-448.32 64.46,-430.32 93.46,-430.32 93.46,-448.32"/>
<text text-anchor="middle" x="78.96" y="-437.12" font-family="Times,serif" font-size="9.00">&#45;12</text>
</g>
<!-- &#45;12&#45;&gt;1 -->
<g id="edge3" class="edge">
<title>&#45;12&#45;&gt;1</title>
<path fill="none" stroke="green" stroke-width="1.16" d="M93.66,-437.42C155,-433.58 390.6,-417.56 460.96,-394.32 461.62,-394.1 462.28,-393.86 462.93,-393.61"/>
<polygon fill="green" stroke="green" stroke-width="1.16" points="464.22,-396.88 471.63,-389.31 461.12,-390.6 464.22,-396.88"/>
</g>
<!-- &#45;12&#45;&gt;2 -->
<g id="edge39" class="edge">
<title>&#45;12&#45;&gt;2</title>
<path fill="none" stroke="red" stroke-width="0.79" d="M84.94,-430.27C90.66,-422.57 99.53,-410.64 107.15,-400.39"/>
<polygon fill="red" stroke="red" stroke-width="0.79" points="109.8,-402.69 112.96,-392.58 104.18,-398.51 109.8,-402.69"/>
</g>
<!-- &#45;12&#45;&gt;87365 -->
<g id="edge23" class="edge">
<title>&#45;12&#45;&gt;87365</title>
<path fill="none" stroke="green" stroke-width="0.14" d="M64.93,-429.96C53.07,-422.19 36.53,-409.53 26.96,-394.32 4.4,-358.45 2.96,-344.42 2.96,-302.04 2.96,-302.04 2.96,-302.04 2.96,-208.89 2.96,-155.48 -8.88,-130.74 26.96,-91.15 69.14,-44.57 145.22,-32.3 191.01,-29.29"/>
<polygon fill="green" stroke="green" stroke-width="0.14" points="191.12,-32.79 200.91,-28.76 190.74,-25.8 191.12,-32.79"/>
</g>
<!-- &#45;12&#45;&gt;87368 -->
<g id="edge52" class="edge">
<title>&#45;12&#45;&gt;87368</title>
<path fill="none" stroke="green" stroke-width="0.41" d="M74.89,-429.93C65.09,-408.93 40.96,-352.15 40.96,-302.04 40.96,-302.04 40.96,-302.04 40.96,-208.89 40.96,-47.94 655.25,-30.55 816.55,-28.76"/>
<polygon fill="green" stroke="green" stroke-width="0.41" points="816.36,-32.26 826.32,-28.67 816.29,-25.26 816.36,-32.26"/>
</g>
<!-- &#45;12&#45;&gt;87369 -->
<g id="edge24" class="edge">
<title>&#45;12&#45;&gt;87369</title>
<path fill="none" stroke="green" stroke-width="0.29" d="M78.02,-430.27C74.41,-395.29 64.97,-254.91 135.96,-182.31 165.82,-151.77 288.95,-132.32 352.15,-124.16"/>
<polygon fill="green" stroke="green" stroke-width="0.29" points="352.58,-127.63 362.06,-122.91 351.7,-120.68 352.58,-127.63"/>
</g>
<!-- &#45;13 -->
<g id="node13" class="node">
<title>&#45;13</title>
<polygon fill="lightgray" stroke="black" points="743.46,-388.47 714.46,-388.47 714.46,-370.47 743.46,-370.47 743.46,-388.47"/>
<text text-anchor="middle" x="728.96" y="-377.27" font-family="Times,serif" font-size="9.00">&#45;13</text>
</g>
<!-- &#45;13&#45;&gt;0 -->
<g id="edge22" class="edge">
<title>&#45;13&#45;&gt;0</title>
<path fill="none" stroke="green" stroke-width="0.23" d="M731.42,-370.02C739.18,-341.63 760.79,-247.76 727.96,-182.31 715.43,-157.33 687.69,-139.68 667.73,-129.62"/>
<polygon fill="green" stroke="green" stroke-width="0.23" points="669.23,-126.46 658.7,-125.33 666.23,-132.78 669.23,-126.46"/>
</g>
<!-- &#45;13&#45;&gt;92388 -->
<g id="edge42" class="edge">
<title>&#45;13&#45;&gt;92388</title>
<path fill="none" stroke="green" stroke-width="0.2" stroke-dasharray="1,5" d="M726.26,-370.38C718.89,-348.32 698.08,-286.07 684.75,-246.18"/>
<polygon fill="green" stroke="green" stroke-width="0.2" points="688.12,-245.22 681.63,-236.84 681.48,-247.44 688.12,-245.22"/>
</g>
<!-- &#45;13&#45;&gt;97729 -->
<g id="edge45" class="edge">
<title>&#45;13&#45;&gt;97729</title>
<path fill="none" stroke="red" stroke-width="0.11" d="M718.54,-370C705.41,-359.32 682.3,-340.53 663.71,-325.41"/>
<polygon fill="red" stroke="red" stroke-width="0.11" points="666.16,-322.89 656.19,-319.3 661.74,-328.32 666.16,-322.89"/>
</g>
<!-- &#45;13&#45;&gt;87368 -->
<g id="edge37" class="edge">
<title>&#45;13&#45;&gt;87368</title>
<path fill="none" stroke="green" stroke-width="0.42" d="M743.82,-377.17C787.49,-373.04 913.98,-358.65 939.96,-328.62 1009.17,-248.61 923.21,-115.95 878.64,-57.61"/>
<polygon fill="green" stroke="green" stroke-width="0.42" points="881.67,-55.82 872.77,-50.07 876.14,-60.11 881.67,-55.82"/>
</g>
<!-- &#45;13&#45;&gt;98792 -->
<g id="edge55" class="edge">
<title>&#45;13&#45;&gt;98792</title>
<path fill="none" stroke="red" stroke-width="0.3" d="M735.17,-370C741.86,-360.86 752.92,-345.77 762.91,-332.14"/>
<polygon fill="red" stroke="red" stroke-width="0.3" points="765.58,-334.4 768.67,-324.27 759.94,-330.27 765.58,-334.4"/>
</g>
<!-- &#45;14 -->
<g id="node14" class="node">
<title>&#45;14</title>
<polygon fill="lightgray" stroke="black" points="452.46,-388.47 423.46,-388.47 423.46,-370.47 452.46,-370.47 452.46,-388.47"/>
<text text-anchor="middle" x="437.96" y="-377.27" font-family="Times,serif" font-size="9.00">&#45;14</text>
</g>
<!-- &#45;14&#45;&gt;95968 -->
<g id="edge31" class="edge">
<title>&#45;14&#45;&gt;95968</title>
<path fill="none" stroke="green" stroke-width="0.14" d="M423.09,-376.95C378.7,-372.15 248.3,-355.97 216.96,-328.62 193.52,-308.16 182.54,-273.97 177.41,-247.69"/>
<polygon fill="green" stroke="green" stroke-width="0.14" points="180.87,-247.15 175.7,-237.9 173.98,-248.36 180.87,-247.15"/>
</g>
<!-- &#45;14&#45;&gt;92055 -->
<g id="edge51" class="edge">
<title>&#45;14&#45;&gt;92055</title>
<path fill="none" stroke="red" stroke-width="0.28" d="M443.17,-370C448.53,-361.28 457.21,-347.16 465.28,-334.05"/>
<polygon fill="red" stroke="red" stroke-width="0.28" points="468.24,-335.92 470.49,-325.56 462.27,-332.25 468.24,-335.92"/>
</g>
<!-- &#45;15 -->
<g id="node15" class="node">
<title>&#45;15</title>
<polygon fill="lightgray" stroke="black" points="499.46,-448.32 470.46,-448.32 470.46,-430.32 499.46,-430.32 499.46,-448.32"/>
<text text-anchor="middle" x="484.96" y="-437.12" font-family="Times,serif" font-size="9.00">&#45;15</text>
</g>
<!-- &#45;15&#45;&gt;1 -->
<g id="edge44" class="edge">
<title>&#45;15&#45;&gt;1</title>
<path fill="none" stroke="red" stroke-width="0.36" d="M484.96,-430.27C484.96,-423.58 484.96,-413.69 484.96,-404.48"/>
<polygon fill="red" stroke="red" stroke-width="0.36" points="488.46,-404.77 484.96,-394.77 481.46,-404.77 488.46,-404.77"/>
</g>
<!-- 0&#45;&gt;87365 -->
<g id="edge16" class="edge">
<title>0&#45;&gt;87365</title>
<path fill="none" stroke="red" stroke-width="0.53" d="M630.64,-114.66C572.76,-102.26 355.01,-55.59 266.61,-36.65"/>
<polygon fill="red" stroke="red" stroke-width="0.53" points="267.54,-33.27 257.03,-34.59 266.08,-40.11 267.54,-33.27"/>
</g>
<!-- 0&#45;&gt;87368 -->
<g id="edge4" class="edge">
<title>0&#45;&gt;87368</title>
<path fill="none" stroke="green" stroke-width="0.64" d="M658.42,-112.02C690.55,-98.38 772.59,-63.55 819.9,-43.46"/>
<polygon fill="green" stroke="green" stroke-width="0.64" points="820.99,-46.8 828.83,-39.67 818.25,-40.36 820.99,-46.8"/>
</g>
<!-- 1&#45;&gt;87365 -->
<g id="edge48" class="edge">
<title>1&#45;&gt;87365</title>
<path fill="none" stroke="red" stroke-width="0.67" d="M473.15,-370.56C469.39,-368.34 465.12,-366.13 460.96,-364.62 373.59,-332.91 317.78,-397.12 254.96,-328.62 220.66,-291.21 223.43,-138.02 226.77,-66.14"/>
<polygon fill="red" stroke="red" stroke-width="0.67" points="230.26,-66.51 227.26,-56.35 223.27,-66.17 230.26,-66.51"/>
</g>
<!-- 1&#45;&gt;87368 -->
<g id="edge47" class="edge">
<title>1&#45;&gt;87368</title>
<path fill="none" stroke="red" stroke-width="0.81" d="M473.12,-370.64C469.36,-368.43 465.1,-366.19 460.96,-364.62 387.58,-336.64 337.51,-389.55 287.96,-328.62 218.92,-243.73 263.51,-154.17 352.96,-91.15 427.53,-38.62 711.58,-30.14 816.08,-28.81"/>
<polygon fill="red" stroke="red" stroke-width="0.81" points="815.86,-32.31 825.82,-28.7 815.78,-25.31 815.86,-32.31"/>
</g>
<!-- 1&#45;&gt;92055 -->
<g id="edge15" class="edge">
<title>1&#45;&gt;92055</title>
<path fill="none" stroke="red" stroke-width="0.98" d="M484.96,-364.45C484.96,-357.56 484.96,-348.88 484.96,-340.21"/>
<polygon fill="red" stroke="red" stroke-width="0.98" points="488.46,-340.44 484.96,-330.44 481.46,-340.44 488.46,-340.44"/>
</g>
<!-- 2&#45;&gt;87365 -->
<g id="edge6" class="edge">
<title>2&#45;&gt;87365</title>
<path fill="none" stroke="red" stroke-width="0.52" d="M120.85,-364.76C118.67,-332.25 115.65,-248.22 135.96,-182.31 150.59,-134.83 183.02,-86.92 205.43,-57.5"/>
<polygon fill="red" stroke="red" stroke-width="0.52" points="207.91,-60.01 211.27,-49.97 202.37,-55.73 207.91,-60.01"/>
</g>
<!-- 95968&#45;&gt;87365 -->
<g id="edge32" class="edge">
<title>95968&#45;&gt;87365</title>
<path fill="none" stroke="green" stroke-width="0.11" stroke-dasharray="1,5" d="M180.98,-183.05C190.71,-151.72 207.16,-98.76 218.04,-63.73"/>
<polygon fill="green" stroke="green" stroke-width="0.11" points="221.28,-65.11 220.9,-54.52 214.59,-63.03 221.28,-65.11"/>
</g>
<!-- 92388&#45;&gt;0 -->
<g id="edge12" class="edge">
<title>92388&#45;&gt;0</title>
<path fill="none" stroke="green" stroke-width="0.15" d="M664.86,-183.1C660.85,-170.32 656.04,-155.03 652.16,-142.66"/>
<polygon fill="green" stroke="green" stroke-width="0.15" points="655.56,-141.79 649.22,-133.3 648.88,-143.89 655.56,-141.79"/>
</g>
<!-- 92388&#45;&gt;87369 -->
<g id="edge35" class="edge">
<title>92388&#45;&gt;87369</title>
<path fill="none" stroke="green" stroke-width="0.32" d="M646.7,-200C631.11,-194.77 610.94,-188.07 592.96,-182.31 534.96,-163.74 467.33,-143.09 426.61,-130.77"/>
<polygon fill="green" stroke="green" stroke-width="0.32" points="427.67,-127.43 417.08,-127.89 425.64,-134.13 427.67,-127.43"/>
</g>
<!-- 97729&#45;&gt;0 -->
<g id="edge46" class="edge">
<title>97729&#45;&gt;0</title>
<path fill="none" stroke="red" stroke-width="0.11" d="M659.52,-287.29C677.17,-276.62 699.61,-259.58 709.96,-237.46 720.35,-215.26 719.56,-204.87 709.96,-182.31 700.96,-161.15 680.9,-143.68 665.43,-132.62"/>
<polygon fill="red" stroke="red" stroke-width="0.11" points="667.78,-129.99 657.55,-127.25 663.84,-135.77 667.78,-129.99"/>
</g>
<!-- 98792&#45;&gt;92388 -->
<g id="edge56" class="edge">
<title>98792&#45;&gt;92388</title>
<path fill="none" stroke="red" stroke-width="0.18" d="M763.63,-283.06C746.19,-269.18 721.36,-249.41 702.09,-234.07"/>
<polygon fill="red" stroke="red" stroke-width="0.18" points="704.43,-231.46 694.43,-227.97 700.07,-236.94 704.43,-231.46"/>
</g>
<!-- 92055&#45;&gt;0 -->
<g id="edge10" class="edge">
<title>92055&#45;&gt;0</title>
<path fill="none" stroke="red" stroke-width="0.16" stroke-dasharray="1,5" d="M503,-279.71C534.48,-244.24 598.92,-171.61 628.93,-137.8"/>
<polygon fill="red" stroke="red" stroke-width="0.16" points="631.26,-140.44 635.28,-130.64 626.03,-135.8 631.26,-140.44"/>
</g>
<!-- 92055&#45;&gt;92388 -->
<g id="edge34" class="edge">
<title>92055&#45;&gt;92388</title>
<path fill="none" stroke="red" stroke-width="0.42" stroke-dasharray="1,5" d="M509.92,-288.2C543.02,-272.5 601.58,-244.74 638.77,-227.1"/>
<polygon fill="red" stroke="red" stroke-width="0.42" points="640.08,-230.35 647.61,-222.91 637.08,-224.03 640.08,-230.35"/>
</g>
<!-- 92055&#45;&gt;87369 -->
<g id="edge11" class="edge">
<title>92055&#45;&gt;87369</title>
<path fill="none" stroke="red" stroke-width="0.19" d="M468.6,-278.38C460.1,-266.62 449.86,-251.62 441.96,-237.46 426.84,-210.37 412.82,-178.02 403.16,-154.1"/>
<polygon fill="red" stroke="red" stroke-width="0.19" points="406.48,-152.98 399.53,-144.99 399.98,-155.57 406.48,-152.98"/>
</g>
<!-- 93500&#45;&gt;87368 -->
<g id="edge21" class="edge">
<title>93500&#45;&gt;87368</title>
<path fill="none" stroke="green" stroke-width="0.76" d="M902.94,-183.05C893.29,-151.99 877.04,-99.67 866.16,-64.64"/>
<polygon fill="green" stroke="green" stroke-width="0.76" points="869.62,-63.97 863.31,-55.46 862.93,-66.05 869.62,-63.97"/>
</g>
</g>
</svg>
