<?xml version="1.0" encoding="UTF-8" standalone="no"?>
<!DOCTYPE svg PUBLIC "-//W3C//DTD SVG 1.1//EN"
 "http://www.w3.org/Graphics/SVG/1.1/DTD/svg11.dtd">
<!-- Generated by graphviz version 7.1.0 (20230121.1956)
 -->
<!-- Pages: 1 -->
<svg width="2642pt" height="998pt"
 viewBox="0.00 0.00 2642.41 997.58" xmlns="http://www.w3.org/2000/svg" xmlns:xlink="http://www.w3.org/1999/xlink">
<g id="graph0" class="graph" transform="scale(1 1) rotate(0) translate(4 993.58)">
<polygon fill="white" stroke="none" points="-4,4 -4,-993.58 2638.41,-993.58 2638.41,4 -4,4"/>
<!-- &#45;1 -->
<g id="node1" class="node">
<title>&#45;1</title>
<polygon fill="lightgray" stroke="black" points="280.41,-552.39 256.41,-552.39 256.41,-534.39 280.41,-534.39 280.41,-552.39"/>
<text text-anchor="middle" x="268.41" y="-541.19" font-family="Times,serif" font-size="9.00">&#45;1</text>
</g>
<!-- 2 -->
<g id="node27" class="node">
<title>2</title>
<ellipse fill="lightblue" stroke="black" cx="1404.41" cy="-14.85" rx="14.7" ry="14.7"/>
<text text-anchor="middle" x="1404.41" y="-12.65" font-family="Times,serif" font-size="9.00">2</text>
</g>
<!-- &#45;1&#45;&gt;2 -->
<g id="edge3" class="edge">
<title>&#45;1&#45;&gt;2</title>
<path fill="none" stroke="green" stroke-width="0.18" stroke-dasharray="1,5" d="M268.41,-534.03C268.41,-508.88 268.41,-431.72 268.41,-367.74 268.41,-367.74 268.41,-367.74 268.41,-183.43 268.41,-140.2 259.61,-121.57 417.41,-65.7 510.51,-32.74 1234.58,-18.74 1379.29,-16.26"/>
<polygon fill="green" stroke="green" stroke-width="0.18" points="1379.19,-19.76 1389.13,-16.09 1379.07,-12.76 1379.19,-19.76"/>
</g>
<!-- 5140 -->
<g id="node38" class="node">
<title>5140</title>
<ellipse fill="white" stroke="black" cx="574.41" cy="-455.06" rx="25" ry="25"/>
<text text-anchor="middle" x="574.41" y="-452.86" font-family="Times,serif" font-size="9.00">5140</text>
</g>
<!-- &#45;1&#45;&gt;5140 -->
<g id="edge29" class="edge">
<title>&#45;1&#45;&gt;5140</title>
<path fill="none" stroke="red" stroke-width="0.32" stroke-dasharray="1,5" d="M274.51,-533.9C279.26,-527.93 286.38,-520.23 294.41,-515.81 374.22,-471.87 483.27,-460.22 538.79,-457.15"/>
<polygon fill="red" stroke="red" stroke-width="0.32" points="538.85,-460.65 548.67,-456.67 538.51,-453.66 538.85,-460.65"/>
</g>
<!-- &#45;2 -->
<g id="node2" class="node">
<title>&#45;2</title>
<polygon fill="lightgray" stroke="black" points="978.41,-734.7 954.41,-734.7 954.41,-716.7 978.41,-716.7 978.41,-734.7"/>
<text text-anchor="middle" x="966.41" y="-723.5" font-family="Times,serif" font-size="9.00">&#45;2</text>
</g>
<!-- 0 -->
<g id="node25" class="node">
<title>0</title>
<ellipse fill="lightblue" stroke="black" cx="2097.41" cy="-634.54" rx="14.7" ry="14.7"/>
<text text-anchor="middle" x="2097.41" y="-632.34" font-family="Times,serif" font-size="9.00">0</text>
</g>
<!-- &#45;2&#45;&gt;0 -->
<g id="edge24" class="edge">
<title>&#45;2&#45;&gt;0</title>
<path fill="none" stroke="green" stroke-width="2.59" d="M970.76,-716.33C974.51,-710.08 980.57,-701.98 988.41,-698.12 1092.88,-646.77 1921.81,-687.49 2035.41,-662.12 2048.25,-659.26 2061.76,-653.79 2072.88,-648.55"/>
<polygon fill="green" stroke="green" stroke-width="2.59" points="2074.16,-651.83 2081.54,-644.23 2071.03,-645.57 2074.16,-651.83"/>
</g>
<!-- 1 -->
<g id="node26" class="node">
<title>1</title>
<ellipse fill="lightblue" stroke="black" cx="926.41" cy="-543.39" rx="14.7" ry="14.7"/>
<text text-anchor="middle" x="926.41" y="-541.19" font-family="Times,serif" font-size="9.00">1</text>
</g>
<!-- &#45;2&#45;&gt;1 -->
<g id="edge18" class="edge">
<title>&#45;2&#45;&gt;1</title>
<path fill="none" stroke="green" stroke-width="2.6" d="M964.59,-716.42C960.36,-697.19 949.54,-648.04 940.41,-606.97 937.79,-595.18 934.88,-582.15 932.39,-571.04"/>
<polygon fill="green" stroke="green" stroke-width="2.6" points="935.89,-570.65 930.29,-561.66 929.06,-572.18 935.89,-570.65"/>
</g>
<!-- &#45;2&#45;&gt;2 -->
<g id="edge11" class="edge">
<title>&#45;2&#45;&gt;2</title>
<path fill="none" stroke="green" stroke-width="0.75" stroke-dasharray="1,5" d="M954.01,-723.45C867.63,-714.74 359.08,-663.45 355.41,-662.12 245.12,-622.11 190.41,-573.39 190.41,-456.06 190.41,-456.06 190.41,-456.06 190.41,-183.43 190.41,-127.41 189.96,-98.44 235.41,-65.7 283.38,-31.15 1210.78,-18.21 1378.52,-16.15"/>
<polygon fill="green" stroke="green" stroke-width="0.75" points="1378.37,-19.65 1388.32,-16.03 1378.28,-12.65 1378.37,-19.65"/>
</g>
<!-- 39149 -->
<g id="node33" class="node">
<title>39149</title>
<ellipse fill="white" stroke="black" cx="1258.41" cy="-634.54" rx="27.65" ry="27.65"/>
<text text-anchor="middle" x="1258.41" y="-632.34" font-family="Times,serif" font-size="9.00">39149</text>
</g>
<!-- &#45;2&#45;&gt;39149 -->
<g id="edge116" class="edge">
<title>&#45;2&#45;&gt;39149</title>
<path fill="none" stroke="red" stroke-width="1.36" d="M971.06,-716.34C974.9,-710.27 980.92,-702.39 988.41,-698.12 1077.55,-647.33 1120.42,-698.3 1216.41,-662.12 1219.78,-660.85 1223.16,-659.3 1226.46,-657.57"/>
<polygon fill="red" stroke="red" stroke-width="1.36" points="1227.96,-660.75 1234.86,-652.71 1224.45,-654.7 1227.96,-660.75"/>
</g>
<!-- 31951 -->
<g id="node34" class="node">
<title>31951</title>
<ellipse fill="white" stroke="black" cx="1376.41" cy="-366.74" rx="27.65" ry="27.65"/>
<text text-anchor="middle" x="1376.41" y="-364.54" font-family="Times,serif" font-size="9.00">31951</text>
</g>
<!-- &#45;2&#45;&gt;31951 -->
<g id="edge96" class="edge">
<title>&#45;2&#45;&gt;31951</title>
<path fill="none" stroke="green" stroke-width="1.44" d="M971.01,-716.26C974.82,-710.14 980.84,-702.24 988.41,-698.12 1109.1,-632.5 1191.19,-751.62 1295.41,-662.12 1334.29,-628.74 1360.64,-477.91 1371.21,-406.04"/>
<polygon fill="green" stroke="green" stroke-width="1.44" points="1374.62,-406.96 1372.58,-396.56 1367.69,-405.96 1374.62,-406.96"/>
</g>
<!-- &#45;2&#45;&gt;5140 -->
<g id="edge43" class="edge">
<title>&#45;2&#45;&gt;5140</title>
<path fill="none" stroke="green" stroke-width="3.28" stroke-dasharray="1,5" d="M954.02,-723.75C903.31,-719.65 712.26,-701.74 669.41,-662.12 619.65,-616.11 658.97,-575.26 626.41,-515.81 620.12,-504.32 611.31,-493.11 602.73,-483.56"/>
<polygon fill="green" stroke="green" stroke-width="3.28" points="605.4,-481.29 595.98,-476.44 600.32,-486.1 605.4,-481.29"/>
</g>
<!-- 13206 -->
<g id="node39" class="node">
<title>13206</title>
<ellipse fill="white" stroke="black" cx="1683.41" cy="-543.39" rx="27.65" ry="27.65"/>
<text text-anchor="middle" x="1683.41" y="-541.19" font-family="Times,serif" font-size="9.00">13206</text>
</g>
<!-- &#45;2&#45;&gt;13206 -->
<g id="edge46" class="edge">
<title>&#45;2&#45;&gt;13206</title>
<path fill="none" stroke="red" stroke-width="0.25" d="M970.98,-716.2C974.78,-710.05 980.78,-702.15 988.41,-698.12 1143.56,-616.3 1219.19,-728.81 1381.41,-662.12 1417.09,-647.46 1414.11,-624.59 1448.41,-606.97 1513.36,-573.61 1597.79,-556.77 1645.75,-549.35"/>
<polygon fill="red" stroke="red" stroke-width="0.25" points="1646.23,-552.81 1655.6,-547.88 1645.19,-545.89 1646.23,-552.81"/>
</g>
<!-- &#45;3 -->
<g id="node3" class="node">
<title>&#45;3</title>
<polygon fill="lightgray" stroke="black" points="1259.41,-917.01 1235.41,-917.01 1235.41,-899.01 1259.41,-899.01 1259.41,-917.01"/>
<text text-anchor="middle" x="1247.41" y="-905.81" font-family="Times,serif" font-size="9.00">&#45;3</text>
</g>
<!-- &#45;3&#45;&gt;1 -->
<g id="edge5" class="edge">
<title>&#45;3&#45;&gt;1</title>
<path fill="none" stroke="red" stroke-width="3.99" d="M1234.95,-905.25C1195.9,-899.51 1072.8,-879.63 976.41,-844.43 955.54,-836.81 810,-772.23 798.41,-753.28 764.49,-697.8 763.98,-662.13 798.41,-606.97 819.64,-572.96 865.3,-556.93 895.95,-549.74"/>
<polygon fill="red" stroke="red" stroke-width="3.99" points="896.57,-553.19 905.66,-547.75 895.16,-546.33 896.57,-553.19"/>
</g>
<!-- 27890 -->
<g id="node36" class="node">
<title>27890</title>
<ellipse fill="white" stroke="black" cx="1798.41" cy="-816.85" rx="27.65" ry="27.65"/>
<text text-anchor="middle" x="1798.41" y="-814.65" font-family="Times,serif" font-size="9.00">27890</text>
</g>
<!-- &#45;3&#45;&gt;27890 -->
<g id="edge89" class="edge">
<title>&#45;3&#45;&gt;27890</title>
<path fill="none" stroke="red" stroke-width="0.68" d="M1259.69,-905.02C1326.63,-894.19 1648.5,-842.11 1760.16,-824.04"/>
<polygon fill="red" stroke="red" stroke-width="0.68" points="1760.57,-827.52 1769.89,-822.47 1759.46,-820.61 1760.57,-827.52"/>
</g>
<!-- 37363 -->
<g id="node37" class="node">
<title>37363</title>
<ellipse fill="white" stroke="black" cx="1722.41" cy="-725.7" rx="27.65" ry="27.65"/>
<text text-anchor="middle" x="1722.41" y="-723.5" font-family="Times,serif" font-size="9.00">37363</text>
</g>
<!-- &#45;3&#45;&gt;37363 -->
<g id="edge123" class="edge">
<title>&#45;3&#45;&gt;37363</title>
<path fill="none" stroke="red" stroke-width="0.29" d="M1259.59,-904.4C1294.22,-896.85 1395.99,-873.59 1477.41,-844.43 1570.53,-811.09 1593.3,-800.09 1680.41,-753.28 1683.91,-751.4 1687.5,-749.34 1691.04,-747.23"/>
<polygon fill="red" stroke="red" stroke-width="0.29" points="1692.6,-750.37 1699.29,-742.15 1688.93,-744.41 1692.6,-750.37"/>
</g>
<!-- &#45;3&#45;&gt;5140 -->
<g id="edge28" class="edge">
<title>&#45;3&#45;&gt;5140</title>
<path fill="none" stroke="red" stroke-width="1.44" stroke-dasharray="1,5" d="M1235.16,-906.38C1175.87,-903.18 919.09,-886.99 853.41,-844.43 828.85,-828.51 840.29,-807.54 817.41,-789.28 781.48,-760.58 760.13,-776.45 720.41,-753.28 666.16,-721.62 645.97,-715.22 612.41,-662.12 579.34,-609.78 573.44,-535.96 573.21,-492.35"/>
<polygon fill="red" stroke="red" stroke-width="1.44" points="576.71,-492.58 573.27,-482.56 569.71,-492.54 576.71,-492.58"/>
</g>
<!-- &#45;4 -->
<g id="node4" class="node">
<title>&#45;4</title>
<polygon fill="lightgray" stroke="black" points="1106.41,-734.7 1082.41,-734.7 1082.41,-716.7 1106.41,-716.7 1106.41,-734.7"/>
<text text-anchor="middle" x="1094.41" y="-723.5" font-family="Times,serif" font-size="9.00">&#45;4</text>
</g>
<!-- 25713 -->
<g id="node35" class="node">
<title>25713</title>
<ellipse fill="white" stroke="black" cx="1570.41" cy="-634.54" rx="27.65" ry="27.65"/>
<text text-anchor="middle" x="1570.41" y="-632.34" font-family="Times,serif" font-size="9.00">25713</text>
</g>
<!-- &#45;4&#45;&gt;25713 -->
<g id="edge76" class="edge">
<title>&#45;4&#45;&gt;25713</title>
<path fill="none" stroke="green" stroke-width="0.19" d="M1099.97,-716.43C1104.64,-710.23 1111.9,-702.15 1120.41,-698.12 1284.94,-620.22 1355.97,-720.44 1528.41,-662.12 1532.37,-660.78 1536.33,-659 1540.15,-656.99"/>
<polygon fill="green" stroke="green" stroke-width="0.19" points="1541.61,-660.19 1548.5,-652.14 1538.09,-654.14 1541.61,-660.19"/>
</g>
<!-- &#45;4&#45;&gt;5140 -->
<g id="edge22" class="edge">
<title>&#45;4&#45;&gt;5140</title>
<path fill="none" stroke="red" stroke-width="1.17" stroke-dasharray="1,5" d="M1091.53,-716.53C1079.82,-684.61 1032.39,-567.49 950.41,-515.81 894.25,-480.41 694.67,-463.78 611.36,-458.26"/>
<polygon fill="red" stroke="red" stroke-width="1.17" points="611.69,-454.77 601.48,-457.62 611.24,-461.76 611.69,-454.77"/>
</g>
<!-- &#45;5 -->
<g id="node5" class="node">
<title>&#45;5</title>
<polygon fill="lightgray" stroke="black" points="2056.41,-917.01 2032.41,-917.01 2032.41,-899.01 2056.41,-899.01 2056.41,-917.01"/>
<text text-anchor="middle" x="2044.41" y="-905.81" font-family="Times,serif" font-size="9.00">&#45;5</text>
</g>
<!-- &#45;5&#45;&gt;1 -->
<g id="edge38" class="edge">
<title>&#45;5&#45;&gt;1</title>
<path fill="none" stroke="red" stroke-width="2.04" d="M2032.05,-903.91C2009.19,-898.3 1958.67,-886.48 1915.41,-880.43 1703.55,-850.79 1647.72,-870.79 1435.41,-844.43 1406.09,-840.79 931.05,-775.36 911.41,-753.28 865.55,-701.68 895.97,-611.72 914.74,-568.68"/>
<polygon fill="red" stroke="red" stroke-width="2.04" points="917.86,-570.29 918.82,-559.74 911.49,-567.39 917.86,-570.29"/>
</g>
<!-- 36429 -->
<g id="node32" class="node">
<title>36429</title>
<ellipse fill="white" stroke="black" cx="2235.41" cy="-93.28" rx="27.65" ry="27.65"/>
<text text-anchor="middle" x="2235.41" y="-91.08" font-family="Times,serif" font-size="9.00">36429</text>
</g>
<!-- &#45;5&#45;&gt;36429 -->
<g id="edge115" class="edge">
<title>&#45;5&#45;&gt;36429</title>
<path fill="none" stroke="red" stroke-width="0.54" d="M2056.59,-904.82C2127.33,-891.76 2482.41,-821.47 2482.41,-726.7 2482.41,-726.7 2482.41,-726.7 2482.41,-454.06 2482.41,-376.34 2323.78,-192.12 2260.77,-122.01"/>
<polygon fill="red" stroke="red" stroke-width="0.54" points="2263.43,-119.73 2254.13,-114.66 2258.23,-124.42 2263.43,-119.73"/>
</g>
<!-- &#45;5&#45;&gt;31951 -->
<g id="edge90" class="edge">
<title>&#45;5&#45;&gt;31951</title>
<path fill="none" stroke="green" stroke-width="0.36" stroke-dasharray="1,5" d="M2051.02,-898.58C2079.53,-861.13 2187.61,-707.29 2121.41,-606.97 2039.57,-482.92 1553.41,-396.16 1413.85,-373.57"/>
<polygon fill="green" stroke="green" stroke-width="0.36" points="1414.64,-370.15 1404.21,-372.02 1413.53,-377.06 1414.64,-370.15"/>
</g>
<!-- &#45;5&#45;&gt;27890 -->
<g id="edge60" class="edge">
<title>&#45;5&#45;&gt;27890</title>
<path fill="none" stroke="green" stroke-width="0.82" d="M2032.21,-902.59C1996.42,-889.61 1890.67,-851.29 1834.47,-830.92"/>
<polygon fill="green" stroke="green" stroke-width="0.82" points="1836.02,-827.76 1825.42,-827.64 1833.63,-834.34 1836.02,-827.76"/>
</g>
<!-- &#45;5&#45;&gt;13206 -->
<g id="edge52" class="edge">
<title>&#45;5&#45;&gt;13206</title>
<path fill="none" stroke="red" stroke-width="0.24" stroke-dasharray="1,5" d="M2041.51,-898.76C2025.81,-854.69 1949.94,-647.38 1897.41,-606.97 1832.41,-556.95 1790.72,-605.69 1716.41,-570.97 1714.86,-570.24 1713.31,-569.42 1711.78,-568.54"/>
<polygon fill="red" stroke="red" stroke-width="0.24" points="1713.9,-565.75 1703.64,-563.12 1710.02,-571.57 1713.9,-565.75"/>
</g>
<!-- &#45;6 -->
<g id="node6" class="node">
<title>&#45;6</title>
<polygon fill="lightgray" stroke="black" points="1468.41,-825.85 1444.41,-825.85 1444.41,-807.85 1468.41,-807.85 1468.41,-825.85"/>
<text text-anchor="middle" x="1456.41" y="-814.65" font-family="Times,serif" font-size="9.00">&#45;6</text>
</g>
<!-- &#45;6&#45;&gt;0 -->
<g id="edge4" class="edge">
<title>&#45;6&#45;&gt;0</title>
<path fill="none" stroke="red" stroke-width="0.59" d="M1459.71,-807.36C1462.48,-801.38 1467.01,-793.69 1473.41,-789.28 1538.46,-744.5 1581.61,-796.93 1647.41,-753.28 1672.22,-736.82 1659.74,-713.19 1685.41,-698.12 1832.88,-611.6 1912.15,-731.49 2068.41,-662.12 2072.77,-660.19 2076.9,-657.34 2080.61,-654.21"/>
<polygon fill="red" stroke="red" stroke-width="0.59" points="2082.98,-656.79 2087.77,-647.33 2078.13,-651.74 2082.98,-656.79"/>
</g>
<!-- &#45;6&#45;&gt;1 -->
<g id="edge44" class="edge">
<title>&#45;6&#45;&gt;1</title>
<path fill="none" stroke="red" stroke-width="0.47" stroke-dasharray="1,5" d="M1444.26,-815.26C1370.18,-811.56 981.42,-790.42 945.41,-753.28 897.02,-703.35 910.25,-611.7 920.09,-568.34"/>
<polygon fill="red" stroke="red" stroke-width="0.47" points="923.49,-569.17 922.44,-558.63 916.69,-567.52 923.49,-569.17"/>
</g>
<!-- &#45;6&#45;&gt;2 -->
<g id="edge45" class="edge">
<title>&#45;6&#45;&gt;2</title>
<path fill="none" stroke="green" stroke-width="0.29" stroke-dasharray="1,5" d="M1444.07,-815.53C1330.73,-812.42 469.99,-784.88 249.41,-662.12 220.24,-645.89 224.94,-627.24 198.41,-606.97 170.93,-585.96 153.27,-596.01 129.41,-570.97 90.63,-530.24 76.41,-512.3 76.41,-456.06 76.41,-456.06 76.41,-456.06 76.41,-183.43 76.41,-127.41 75.9,-98.35 121.41,-65.7 174.42,-27.68 1203.44,-17.51 1379.04,-16.05"/>
<polygon fill="green" stroke="green" stroke-width="0.29" points="1378.93,-19.55 1388.9,-15.97 1378.88,-12.55 1378.93,-19.55"/>
</g>
<!-- &#45;6&#45;&gt;25713 -->
<g id="edge62" class="edge">
<title>&#45;6&#45;&gt;25713</title>
<path fill="none" stroke="red" stroke-width="0.45" stroke-dasharray="1,5" d="M1455.7,-807.64C1454.36,-787.29 1453.38,-733.59 1476.41,-698.12 1478.48,-694.95 1512.3,-672.8 1538.79,-655.75"/>
<polygon fill="red" stroke="red" stroke-width="0.45" points="1540.34,-658.91 1546.87,-650.56 1536.56,-653.02 1540.34,-658.91"/>
</g>
<!-- &#45;6&#45;&gt;37363 -->
<g id="edge99" class="edge">
<title>&#45;6&#45;&gt;37363</title>
<path fill="none" stroke="green" stroke-width="0.41" d="M1468.72,-811.66C1484.86,-806.21 1514.11,-796.55 1539.41,-789.28 1601.57,-771.41 1621.02,-778.88 1680.41,-753.28 1683.95,-751.75 1687.53,-749.95 1691.03,-748.02"/>
<polygon fill="green" stroke="green" stroke-width="0.41" points="1692.67,-751.11 1699.49,-743 1689.1,-745.09 1692.67,-751.11"/>
</g>
<!-- &#45;6&#45;&gt;5140 -->
<g id="edge23" class="edge">
<title>&#45;6&#45;&gt;5140</title>
<path fill="none" stroke="green" stroke-width="0.42" stroke-dasharray="1,5" d="M1443.98,-815.38C1384.25,-812.91 1121.08,-799.79 911.41,-753.28 880.19,-746.35 660.79,-684.97 638.41,-662.12 626.13,-649.58 597.53,-544.96 583.09,-489.8"/>
<polygon fill="green" stroke="green" stroke-width="0.42" points="586.55,-489.2 580.64,-480.41 579.77,-490.97 586.55,-489.2"/>
</g>
<!-- &#45;6&#45;&gt;13206 -->
<g id="edge48" class="edge">
<title>&#45;6&#45;&gt;13206</title>
<path fill="none" stroke="red" stroke-width="0.32" d="M1460.13,-807.49C1463.04,-801.73 1467.58,-794.25 1473.41,-789.28 1504.02,-763.2 1524.48,-777.72 1556.41,-753.28 1581.31,-734.22 1575.74,-717.47 1600.41,-698.12 1630.46,-674.56 1657.16,-693.84 1678.41,-662.12 1694.26,-638.48 1694.36,-605.76 1691.15,-580.82"/>
<polygon fill="red" stroke="red" stroke-width="0.32" points="1694.64,-580.49 1689.68,-571.13 1687.72,-581.54 1694.64,-580.49"/>
</g>
<!-- &#45;7 -->
<g id="node7" class="node">
<title>&#45;7</title>
<polygon fill="lightgray" stroke="black" points="888.41,-917.01 864.41,-917.01 864.41,-899.01 888.41,-899.01 888.41,-917.01"/>
<text text-anchor="middle" x="876.41" y="-905.81" font-family="Times,serif" font-size="9.00">&#45;7</text>
</g>
<!-- &#45;7&#45;&gt;25713 -->
<g id="edge79" class="edge">
<title>&#45;7&#45;&gt;25713</title>
<path fill="none" stroke="green" stroke-width="0.1" d="M875.2,-898.63C872.56,-876.92 868.9,-818.49 900.41,-789.28 947.39,-745.73 1123.54,-765.55 1186.41,-753.28 1340.8,-723.13 1384.29,-725.16 1528.41,-662.12 1532.05,-660.53 1535.73,-658.66 1539.32,-656.65"/>
<polygon fill="green" stroke="green" stroke-width="0.1" points="1541.07,-659.69 1547.87,-651.56 1537.49,-653.67 1541.07,-659.69"/>
</g>
<!-- &#45;7&#45;&gt;27890 -->
<g id="edge84" class="edge">
<title>&#45;7&#45;&gt;27890</title>
<path fill="none" stroke="red" stroke-width="0.82" d="M888.75,-905.81C983.7,-896.63 1598.96,-837.14 1759.93,-821.58"/>
<polygon fill="red" stroke="red" stroke-width="0.82" points="1759.87,-825.1 1769.48,-820.65 1759.19,-818.13 1759.87,-825.1"/>
</g>
<!-- &#45;7&#45;&gt;5140 -->
<g id="edge15" class="edge">
<title>&#45;7&#45;&gt;5140</title>
<path fill="none" stroke="green" stroke-width="0.29" d="M869.26,-898.57C859.16,-886.62 840.18,-864.02 824.41,-844.43 804.92,-820.22 807.48,-806.21 781.41,-789.28 725.73,-753.11 692.69,-788.52 636.41,-753.28 591.71,-725.28 578.38,-711.72 560.41,-662.12 539.36,-604 553.01,-530.72 564.17,-489.05"/>
<polygon fill="green" stroke="green" stroke-width="0.29" points="567.5,-490.16 566.82,-479.58 560.76,-488.27 567.5,-490.16"/>
</g>
<!-- &#45;7&#45;&gt;13206 -->
<g id="edge42" class="edge">
<title>&#45;7&#45;&gt;13206</title>
<path fill="none" stroke="green" stroke-width="0.46" d="M888.72,-904.68C973.48,-888.58 1468.94,-793.2 1523.41,-753.28 1546.45,-736.39 1534.9,-716.92 1556.41,-698.12 1587,-671.39 1612.49,-691.62 1640.41,-662.12 1661.36,-640 1672.25,-606.86 1677.83,-581.38"/>
<polygon fill="green" stroke="green" stroke-width="0.46" points="1681.24,-582.15 1679.77,-571.66 1674.38,-580.78 1681.24,-582.15"/>
</g>
<!-- 35769 -->
<g id="node40" class="node">
<title>35769</title>
<ellipse fill="white" stroke="black" cx="744.41" cy="-816.85" rx="27.65" ry="27.65"/>
<text text-anchor="middle" x="744.41" y="-814.65" font-family="Times,serif" font-size="9.00">35769</text>
</g>
<!-- &#45;7&#45;&gt;35769 -->
<g id="edge114" class="edge">
<title>&#45;7&#45;&gt;35769</title>
<path fill="none" stroke="green" stroke-width="0.43" d="M864.23,-898.78C844.31,-885.32 804.13,-858.18 775.81,-839.06"/>
<polygon fill="green" stroke="green" stroke-width="0.43" points="777.85,-836.21 767.6,-833.52 773.93,-842.01 777.85,-836.21"/>
</g>
<!-- &#45;8 -->
<g id="node8" class="node">
<title>&#45;8</title>
<polygon fill="lightgray" stroke="black" points="675.41,-917.01 651.41,-917.01 651.41,-899.01 675.41,-899.01 675.41,-917.01"/>
<text text-anchor="middle" x="663.41" y="-905.81" font-family="Times,serif" font-size="9.00">&#45;8</text>
</g>
<!-- &#45;8&#45;&gt;2 -->
<g id="edge17" class="edge">
<title>&#45;8&#45;&gt;2</title>
<path fill="none" stroke="red" stroke-width="0.8" d="M650.98,-902.97C593.71,-883.92 351.58,-798.13 198.41,-662.12 176.15,-642.36 183.13,-626.2 160.41,-606.97 131.58,-582.56 109.26,-598.52 83.41,-570.97 45.89,-530.96 38.41,-510.91 38.41,-456.06 38.41,-456.06 38.41,-456.06 38.41,-183.43 38.41,-128.31 33.34,-98.8 77.41,-65.7 131.36,-25.18 1196.5,-17.08 1378.17,-15.99"/>
<polygon fill="red" stroke="red" stroke-width="0.8" points="1378.09,-19.49 1388.07,-15.93 1378.05,-12.49 1378.09,-19.49"/>
</g>
<!-- &#45;8&#45;&gt;25713 -->
<g id="edge86" class="edge">
<title>&#45;8&#45;&gt;25713</title>
<path fill="none" stroke="green" stroke-width="2.87" stroke-dasharray="1,5" d="M663.68,-898.73C664.89,-876.72 671.47,-816.63 707.41,-789.28 779.84,-734.15 1038.29,-801.61 1115.41,-753.28 1139.62,-738.11 1124.26,-713.37 1148.41,-698.12 1220.14,-652.85 1448.15,-689.55 1528.41,-662.12 1531.05,-661.22 1533.68,-660.13 1536.28,-658.9"/>
<polygon fill="green" stroke="green" stroke-width="2.87" points="1537.9,-662 1544.94,-654.08 1534.5,-655.89 1537.9,-662"/>
</g>
<!-- &#45;8&#45;&gt;27890 -->
<g id="edge56" class="edge">
<title>&#45;8&#45;&gt;27890</title>
<path fill="none" stroke="green" stroke-width="0.6" d="M675.5,-904.99C705.74,-900.03 787.09,-887.13 855.41,-880.43 1131,-853.43 1201.19,-863.86 1477.41,-844.43 1579.55,-837.25 1699.8,-826.74 1760,-821.34"/>
<polygon fill="green" stroke="green" stroke-width="0.6" points="1759.97,-824.86 1769.62,-820.48 1759.35,-817.89 1759.97,-824.86"/>
</g>
<!-- &#45;8&#45;&gt;5140 -->
<g id="edge31" class="edge">
<title>&#45;8&#45;&gt;5140</title>
<path fill="none" stroke="green" stroke-width="1.44" stroke-dasharray="1,5" d="M656.51,-898.85C632.1,-869.41 549.91,-764.97 522.41,-662.12 505.62,-599.3 499.62,-576.71 522.41,-515.81 527.43,-502.4 536.97,-490.02 546.52,-480.04"/>
<polygon fill="green" stroke="green" stroke-width="1.44" points="548.9,-482.61 553.61,-473.12 544.01,-477.61 548.9,-482.61"/>
</g>
<!-- &#45;8&#45;&gt;13206 -->
<g id="edge91" class="edge">
<title>&#45;8&#45;&gt;13206</title>
<path fill="none" stroke="red" stroke-width="1.24" stroke-dasharray="1,5" d="M660.76,-898.77C654.46,-877.39 641.17,-819.68 670.41,-789.28 726.91,-730.53 965.21,-794.68 1035.41,-753.28 1061.05,-738.15 1047.68,-713.09 1073.41,-698.12 1234.21,-604.59 1326.93,-750.87 1490.41,-662.12 1517.73,-647.29 1508.71,-625.83 1533.41,-606.97 1567.17,-581.2 1613.09,-564.1 1645.19,-554.38"/>
<polygon fill="red" stroke="red" stroke-width="1.24" points="1645.93,-557.82 1654.55,-551.66 1643.97,-551.09 1645.93,-557.82"/>
</g>
<!-- &#45;8&#45;&gt;35769 -->
<g id="edge87" class="edge">
<title>&#45;8&#45;&gt;35769</title>
<path fill="none" stroke="red" stroke-width="0.59" d="M670.89,-898.78C681.69,-886.89 702.18,-864.33 718.8,-846.05"/>
<polygon fill="red" stroke="red" stroke-width="0.59" points="721.38,-848.42 725.51,-838.66 716.19,-843.71 721.38,-848.42"/>
</g>
<!-- &#45;9 -->
<g id="node9" class="node">
<title>&#45;9</title>
<polygon fill="lightgray" stroke="black" points="1906.41,-917.01 1882.41,-917.01 1882.41,-899.01 1906.41,-899.01 1906.41,-917.01"/>
<text text-anchor="middle" x="1894.41" y="-905.81" font-family="Times,serif" font-size="9.00">&#45;9</text>
</g>
<!-- &#45;9&#45;&gt;0 -->
<g id="edge30" class="edge">
<title>&#45;9&#45;&gt;0</title>
<path fill="none" stroke="red" stroke-width="5.92" d="M1900.71,-898.59C1927.86,-862.28 2035.48,-718.36 2079,-660.16"/>
<polygon fill="red" stroke="red" stroke-width="5.92" points="2083.13,-663.31 2084.96,-652.19 2074.82,-657.1 2083.13,-663.31"/>
</g>
<!-- &#45;9&#45;&gt;1 -->
<g id="edge6" class="edge">
<title>&#45;9&#45;&gt;1</title>
<path fill="none" stroke="green" stroke-width="0.22" stroke-dasharray="1,5" d="M1882.05,-902.68C1863.8,-896.5 1828.45,-885.37 1797.41,-880.43 1633.73,-854.37 1206.81,-904.71 1052.41,-844.43 1016.8,-830.53 1019.9,-807.72 986.41,-789.28 940.62,-764.05 905.21,-795.53 874.41,-753.28 836.11,-700.73 852.32,-668.13 874.41,-606.97 881.11,-588.44 895.94,-571.53 908.06,-559.97"/>
<polygon fill="green" stroke="green" stroke-width="0.22" points="910.23,-562.73 915.27,-553.41 905.52,-557.55 910.23,-562.73"/>
</g>
<!-- &#45;9&#45;&gt;2 -->
<g id="edge26" class="edge">
<title>&#45;9&#45;&gt;2</title>
<path fill="none" stroke="green" stroke-width="0.48" stroke-dasharray="1,5" d="M1906.61,-904.42C1977.87,-889.16 2340.41,-809.75 2438.41,-753.28 2503.15,-715.98 2558.41,-710.26 2558.41,-635.54 2558.41,-635.54 2558.41,-635.54 2558.41,-183.43 2558.41,-115.63 2522.03,-96.06 2461.41,-65.7 2366.56,-18.19 1582.37,-15.83 1430.01,-15.82"/>
<polygon fill="green" stroke="green" stroke-width="0.48" points="1430.13,-12.32 1420.13,-15.83 1430.13,-19.32 1430.13,-12.32"/>
</g>
<!-- &#45;9&#45;&gt;27890 -->
<g id="edge68" class="edge">
<title>&#45;9&#45;&gt;27890</title>
<path fill="none" stroke="green" stroke-width="0.48" d="M1885.55,-898.78C1872.11,-886.3 1846,-862.05 1825.85,-843.34"/>
<polygon fill="green" stroke="green" stroke-width="0.48" points="1828.43,-840.95 1818.72,-836.71 1823.66,-846.08 1828.43,-840.95"/>
</g>
<!-- &#45;9&#45;&gt;13206 -->
<g id="edge39" class="edge">
<title>&#45;9&#45;&gt;13206</title>
<path fill="none" stroke="red" stroke-width="0.49" d="M1896.81,-898.53C1907.29,-859.58 1945.13,-695.81 1868.41,-606.97 1823.04,-554.42 1778.77,-601.49 1716.41,-570.97 1715.01,-570.28 1713.61,-569.52 1712.23,-568.71"/>
<polygon fill="red" stroke="red" stroke-width="0.49" points="1714.27,-565.87 1704.02,-563.2 1710.36,-571.68 1714.27,-565.87"/>
</g>
<!-- &#45;10 -->
<g id="node10" class="node">
<title>&#45;10</title>
<polygon fill="lightgray" stroke="black" points="436.91,-989.58 407.91,-989.58 407.91,-971.58 436.91,-971.58 436.91,-989.58"/>
<text text-anchor="middle" x="422.41" y="-978.38" font-family="Times,serif" font-size="9.00">&#45;10</text>
</g>
<!-- &#45;10&#45;&gt;2 -->
<g id="edge8" class="edge">
<title>&#45;10&#45;&gt;2</title>
<path fill="none" stroke="red" stroke-width="0.42" stroke-dasharray="1,5" d="M407.64,-976.2C385.74,-970.63 344.15,-957.85 315.41,-935.58 113.84,-779.42 0.41,-711.06 0.41,-456.06 0.41,-456.06 0.41,-456.06 0.41,-183.43 0.41,-128.58 -6.2,-98.95 37.41,-65.7 92.82,-23.45 1195.77,-16.77 1378.79,-15.95"/>
<polygon fill="red" stroke="red" stroke-width="0.42" points="1378.65,-19.45 1388.64,-15.91 1378.62,-12.45 1378.65,-19.45"/>
</g>
<!-- 36584 -->
<g id="node29" class="node">
<title>36584</title>
<ellipse fill="white" stroke="black" cx="1648.41" cy="-908.01" rx="27.65" ry="27.65"/>
<text text-anchor="middle" x="1648.41" y="-905.81" font-family="Times,serif" font-size="9.00">36584</text>
</g>
<!-- &#45;10&#45;&gt;36584 -->
<g id="edge103" class="edge">
<title>&#45;10&#45;&gt;36584</title>
<path fill="none" stroke="red" stroke-width="0.23" d="M437.11,-979.57C565.59,-979.33 1496.18,-976.24 1612.41,-935.58 1614.85,-934.73 1617.26,-933.65 1619.62,-932.42"/>
<polygon fill="red" stroke="red" stroke-width="0.23" points="1621.34,-935.47 1628.02,-927.24 1617.67,-929.51 1621.34,-935.47"/>
</g>
<!-- 35276 -->
<g id="node31" class="node">
<title>35276</title>
<ellipse fill="white" stroke="black" cx="2087.41" cy="-184.43" rx="27.65" ry="27.65"/>
<text text-anchor="middle" x="2087.41" y="-182.23" font-family="Times,serif" font-size="9.00">35276</text>
</g>
<!-- &#45;10&#45;&gt;35276 -->
<g id="edge109" class="edge">
<title>&#45;10&#45;&gt;35276</title>
<path fill="none" stroke="green" stroke-width="0.59" d="M437.33,-979.58C581.28,-979.48 1725.92,-977.38 2065.41,-935.58 2305.33,-906.05 2596.41,-1059.58 2596.41,-817.85 2596.41,-817.85 2596.41,-817.85 2596.41,-633.54 2596.41,-381.51 2240.51,-237.64 2123.91,-197.27"/>
<polygon fill="green" stroke="green" stroke-width="0.59" points="2125.15,-194 2114.55,-194.08 2122.89,-200.62 2125.15,-194"/>
</g>
<!-- &#45;10&#45;&gt;31951 -->
<g id="edge67" class="edge">
<title>&#45;10&#45;&gt;31951</title>
<path fill="none" stroke="green" stroke-width="0.51" d="M429.75,-971.39C456.25,-942.24 550.67,-842.53 648.41,-789.28 769.66,-723.22 810.78,-728.79 945.41,-698.12 1049.72,-674.36 1099.79,-728.84 1183.41,-662.12 1226.67,-627.61 1238.88,-472.74 1274.41,-430.32 1292.35,-408.91 1319.57,-392.73 1341.38,-382.19"/>
<polygon fill="green" stroke="green" stroke-width="0.51" points="1342.66,-385.45 1350.26,-378.07 1339.72,-379.1 1342.66,-385.45"/>
</g>
<!-- &#45;10&#45;&gt;5140 -->
<g id="edge19" class="edge">
<title>&#45;10&#45;&gt;5140</title>
<path fill="none" stroke="green" stroke-width="0.61" stroke-dasharray="1,5" d="M409.14,-971.21C377.15,-949.88 298.41,-890.03 298.41,-817.85 298.41,-817.85 298.41,-817.85 298.41,-724.7 298.41,-624.96 307.29,-583.63 380.41,-515.81 424.42,-475.01 495.71,-462.05 538.53,-457.95"/>
<polygon fill="green" stroke="green" stroke-width="0.61" points="538.7,-461.45 548.37,-457.13 538.11,-454.47 538.7,-461.45"/>
</g>
<!-- &#45;11 -->
<g id="node11" class="node">
<title>&#45;11</title>
<polygon fill="lightgray" stroke="black" points="1513.91,-734.7 1484.91,-734.7 1484.91,-716.7 1513.91,-716.7 1513.91,-734.7"/>
<text text-anchor="middle" x="1499.41" y="-723.5" font-family="Times,serif" font-size="9.00">&#45;11</text>
</g>
<!-- &#45;11&#45;&gt;0 -->
<g id="edge2" class="edge">
<title>&#45;11&#45;&gt;0</title>
<path fill="none" stroke="green" stroke-width="0.62" stroke-dasharray="1,5" d="M1514.29,-719.91C1533.83,-713.82 1569.32,-703.46 1600.41,-698.12 1791.61,-665.31 1847.15,-708.94 2035.41,-662.12 2048.99,-658.75 2063.39,-652.73 2074.9,-647.28"/>
<polygon fill="green" stroke="green" stroke-width="0.62" points="2076.28,-650.5 2083.7,-642.94 2073.18,-644.23 2076.28,-650.5"/>
</g>
<!-- &#45;11&#45;&gt;1 -->
<g id="edge40" class="edge">
<title>&#45;11&#45;&gt;1</title>
<path fill="none" stroke="red" stroke-width="2.55" d="M1484.77,-724.63C1431.49,-723.92 1243.74,-717.42 1102.41,-662.12 1040.79,-638.01 978.81,-589.6 947.44,-562.98"/>
<polygon fill="red" stroke="red" stroke-width="2.55" points="949.76,-560.36 939.91,-556.47 945.19,-565.66 949.76,-560.36"/>
</g>
<!-- &#45;11&#45;&gt;25713 -->
<g id="edge69" class="edge">
<title>&#45;11&#45;&gt;25713</title>
<path fill="none" stroke="red" stroke-width="0.35" d="M1505.97,-716.47C1515.25,-704.81 1532.72,-682.87 1547.13,-664.78"/>
<polygon fill="red" stroke="red" stroke-width="0.35" points="1549.67,-667.21 1553.16,-657.2 1544.2,-662.85 1549.67,-667.21"/>
</g>
<!-- &#45;11&#45;&gt;13206 -->
<g id="edge51" class="edge">
<title>&#45;11&#45;&gt;13206</title>
<path fill="none" stroke="green" stroke-width="0.89" d="M1506.97,-716.52C1512.52,-710.85 1520.44,-703.4 1528.41,-698.12 1560.59,-676.82 1578.22,-687.35 1607.41,-662.12 1621.89,-649.62 1647.25,-608.06 1664.67,-577.86"/>
<polygon fill="green" stroke="green" stroke-width="0.89" points="1667.65,-579.7 1669.57,-569.28 1661.57,-576.22 1667.65,-579.7"/>
</g>
<!-- &#45;12 -->
<g id="node12" class="node">
<title>&#45;12</title>
<polygon fill="lightgray" stroke="black" points="1797.91,-989.58 1768.91,-989.58 1768.91,-971.58 1797.91,-971.58 1797.91,-989.58"/>
<text text-anchor="middle" x="1783.41" y="-978.38" font-family="Times,serif" font-size="9.00">&#45;12</text>
</g>
<!-- &#45;12&#45;&gt;1 -->
<g id="edge49" class="edge">
<title>&#45;12&#45;&gt;1</title>
<path fill="none" stroke="green" stroke-width="2.01" d="M1768.53,-976.96C1757.49,-975.13 1742.06,-972.8 1728.41,-971.58 1668.28,-966.23 684.39,-978.97 642.41,-935.58 631.56,-924.36 640.04,-813.74 648.41,-789.28 664.23,-743.04 733.43,-637.72 771.41,-606.97 810.1,-575.65 866.51,-558.21 899.54,-550.11"/>
<polygon fill="green" stroke="green" stroke-width="2.01" points="900.23,-553.54 909.19,-547.88 898.66,-546.72 900.23,-553.54"/>
</g>
<!-- &#45;12&#45;&gt;2 -->
<g id="edge16" class="edge">
<title>&#45;12&#45;&gt;2</title>
<path fill="none" stroke="red" stroke-width="0.93" d="M1798.18,-979.73C1862.83,-980.11 2127.24,-978.79 2338.41,-935.58 2477.12,-907.21 2634.41,-959.43 2634.41,-817.85 2634.41,-817.85 2634.41,-817.85 2634.41,-183.43 2634.41,-108.71 2582.93,-95.51 2514.41,-65.7 2412.16,-21.21 1588.98,-16.42 1430.69,-15.91"/>
<polygon fill="red" stroke="red" stroke-width="0.93" points="1430.74,-12.41 1420.73,-15.88 1430.72,-19.41 1430.74,-12.41"/>
</g>
<!-- &#45;12&#45;&gt;36584 -->
<g id="edge94" class="edge">
<title>&#45;12&#45;&gt;36584</title>
<path fill="none" stroke="green" stroke-width="0.55" d="M1768.45,-971.76C1747.69,-960.91 1709.59,-940.99 1681.87,-926.5"/>
<polygon fill="green" stroke="green" stroke-width="0.55" points="1683.76,-923.54 1673.27,-922 1680.51,-929.74 1683.76,-923.54"/>
</g>
<!-- &#45;12&#45;&gt;27890 -->
<g id="edge81" class="edge">
<title>&#45;12&#45;&gt;27890</title>
<path fill="none" stroke="green" stroke-width="0.77" d="M1786.86,-971.33C1790.3,-962.62 1795.37,-948.41 1797.41,-935.58 1801.63,-909.17 1801.8,-878.99 1800.95,-855.8"/>
<polygon fill="green" stroke="green" stroke-width="0.77" points="1804.45,-855.69 1800.5,-845.86 1797.46,-856.01 1804.45,-855.69"/>
</g>
<!-- &#45;12&#45;&gt;5140 -->
<g id="edge75" class="edge">
<title>&#45;12&#45;&gt;5140</title>
<path fill="none" stroke="red" stroke-width="0.3" d="M1768.53,-976.96C1757.49,-975.13 1742.06,-972.8 1728.41,-971.58 1667.79,-966.2 685.47,-967.12 633.41,-935.58 480.97,-843.23 496.36,-746.68 466.41,-570.97 462.3,-546.8 453.96,-536.93 466.41,-515.81 482.2,-489.04 514.76,-473.43 540.02,-464.92"/>
<polygon fill="red" stroke="red" stroke-width="0.3" points="541.05,-468.27 549.55,-461.94 538.96,-461.59 541.05,-468.27"/>
</g>
<!-- &#45;12&#45;&gt;13206 -->
<g id="edge37" class="edge">
<title>&#45;12&#45;&gt;13206</title>
<path fill="none" stroke="green" stroke-width="0.44" d="M1789.97,-971.39C1807.54,-948.54 1854.41,-881.64 1854.41,-817.85 1854.41,-817.85 1854.41,-817.85 1854.41,-724.7 1854.41,-665.56 1835.11,-647.89 1792.41,-606.97 1765.43,-581.1 1748.08,-590.83 1716.41,-570.97 1715.13,-570.16 1713.84,-569.31 1712.55,-568.43"/>
<polygon fill="green" stroke="green" stroke-width="0.44" points="1714.85,-565.78 1704.71,-562.71 1710.72,-571.44 1714.85,-565.78"/>
</g>
<!-- &#45;13 -->
<g id="node13" class="node">
<title>&#45;13</title>
<polygon fill="lightgray" stroke="black" points="313.91,-989.58 284.91,-989.58 284.91,-971.58 313.91,-971.58 313.91,-989.58"/>
<text text-anchor="middle" x="299.41" y="-978.38" font-family="Times,serif" font-size="9.00">&#45;13</text>
</g>
<!-- 38341 -->
<g id="node28" class="node">
<title>38341</title>
<ellipse fill="white" stroke="black" cx="1348.41" cy="-275.58" rx="27.65" ry="27.65"/>
<text text-anchor="middle" x="1348.41" y="-273.38" font-family="Times,serif" font-size="9.00">38341</text>
</g>
<!-- &#45;13&#45;&gt;38341 -->
<g id="edge127" class="edge">
<title>&#45;13&#45;&gt;38341</title>
<path fill="none" stroke="red" stroke-width="0.25" d="M284.43,-975.06C239.4,-960.43 108.41,-909.97 108.41,-817.85 108.41,-817.85 108.41,-817.85 108.41,-724.7 108.41,-356.21 481.71,-414.47 842.41,-339.16 1015.04,-303.12 1225.44,-285.28 1310.27,-279.13"/>
<polygon fill="red" stroke="red" stroke-width="0.25" points="1310.35,-282.64 1320.08,-278.44 1309.86,-275.65 1310.35,-282.64"/>
</g>
<!-- &#45;13&#45;&gt;36584 -->
<g id="edge113" class="edge">
<title>&#45;13&#45;&gt;36584</title>
<path fill="none" stroke="red" stroke-width="0.7" d="M314.16,-978.16C333.49,-976.34 368.46,-973.24 398.41,-971.58 533.16,-964.15 1484.87,-979.67 1612.41,-935.58 1614.68,-934.8 1616.92,-933.82 1619.12,-932.7"/>
<polygon fill="red" stroke="red" stroke-width="0.7" points="1620.7,-935.83 1627.42,-927.64 1617.06,-929.86 1620.7,-935.83"/>
</g>
<!-- &#45;13&#45;&gt;5140 -->
<g id="edge27" class="edge">
<title>&#45;13&#45;&gt;5140</title>
<path fill="none" stroke="green" stroke-width="1.83" stroke-dasharray="1,5" d="M297.94,-971.29C291,-930.7 263.41,-749.16 297.41,-606.97 307.37,-565.35 296.83,-544.69 328.41,-515.81 358.71,-488.12 475.77,-469.03 536.84,-460.73"/>
<polygon fill="green" stroke="green" stroke-width="1.83" points="537.13,-464.22 546.58,-459.44 536.21,-457.28 537.13,-464.22"/>
</g>
<!-- &#45;13&#45;&gt;35769 -->
<g id="edge97" class="edge">
<title>&#45;13&#45;&gt;35769</title>
<path fill="none" stroke="green" stroke-width="0.45" d="M314.3,-978.28C383.25,-972.19 668.87,-946.37 684.41,-935.58 711.82,-916.57 727.45,-881.16 735.84,-854.13"/>
<polygon fill="green" stroke="green" stroke-width="0.45" points="739.1,-855.46 738.52,-844.88 732.38,-853.51 739.1,-855.46"/>
</g>
<!-- &#45;14 -->
<g id="node14" class="node">
<title>&#45;14</title>
<polygon fill="lightgray" stroke="black" points="1025.91,-734.7 996.91,-734.7 996.91,-716.7 1025.91,-716.7 1025.91,-734.7"/>
<text text-anchor="middle" x="1011.41" y="-723.5" font-family="Times,serif" font-size="9.00">&#45;14</text>
</g>
<!-- &#45;14&#45;&gt;1 -->
<g id="edge14" class="edge">
<title>&#45;14&#45;&gt;1</title>
<path fill="none" stroke="green" stroke-width="5.22" d="M1008.08,-716.31C1000.28,-696.84 980.02,-647.22 960.41,-606.97 954.53,-594.88 947.5,-581.77 941.38,-570.69"/>
<polygon fill="green" stroke="green" stroke-width="5.22" points="945.47,-568.65 936.59,-562.16 937.51,-573.12 945.47,-568.65"/>
</g>
<!-- &#45;14&#45;&gt;31951 -->
<g id="edge85" class="edge">
<title>&#45;14&#45;&gt;31951</title>
<path fill="none" stroke="red" stroke-width="0.66" stroke-dasharray="1,5" d="M1018.06,-716.21C1023.39,-710.07 1031.45,-702.16 1040.41,-698.12 1109.88,-666.81 1330.44,-718.76 1381.41,-662.12 1446.09,-590.26 1412.47,-463.89 1390.49,-402.78"/>
<polygon fill="red" stroke="red" stroke-width="0.66" points="1393.79,-401.61 1387.03,-393.45 1387.23,-404.04 1393.79,-401.61"/>
</g>
<!-- &#45;14&#45;&gt;25713 -->
<g id="edge57" class="edge">
<title>&#45;14&#45;&gt;25713</title>
<path fill="none" stroke="green" stroke-width="0.29" d="M1026.23,-716.75C1038.51,-710.56 1056.6,-702.34 1073.41,-698.12 1253.86,-652.9 1308.23,-699.7 1490.41,-662.12 1505.41,-659.03 1521.51,-654.03 1535.3,-649.19"/>
<polygon fill="green" stroke="green" stroke-width="0.29" points="1536.26,-652.57 1544.47,-645.88 1533.88,-645.98 1536.26,-652.57"/>
</g>
<!-- &#45;14&#45;&gt;13206 -->
<g id="edge72" class="edge">
<title>&#45;14&#45;&gt;13206</title>
<path fill="none" stroke="red" stroke-width="0.8" d="M1017.82,-716.42C1023.14,-710.22 1031.29,-702.14 1040.41,-698.12 1208.66,-624.1 1288.61,-745.51 1452.41,-662.12 1481.37,-647.38 1473.45,-625.1 1500.41,-606.97 1545.3,-576.78 1606.16,-559.81 1645.12,-551.37"/>
<polygon fill="red" stroke="red" stroke-width="0.8" points="1645.71,-554.82 1654.79,-549.36 1644.29,-547.97 1645.71,-554.82"/>
</g>
<!-- &#45;15 -->
<g id="node15" class="node">
<title>&#45;15</title>
<polygon fill="lightgray" stroke="black" points="393.91,-643.54 364.91,-643.54 364.91,-625.54 393.91,-625.54 393.91,-643.54"/>
<text text-anchor="middle" x="379.41" y="-632.34" font-family="Times,serif" font-size="9.00">&#45;15</text>
</g>
<!-- &#45;15&#45;&gt;1 -->
<g id="edge64" class="edge">
<title>&#45;15&#45;&gt;1</title>
<path fill="none" stroke="red" stroke-width="0.38" stroke-dasharray="1,5" d="M394.33,-631.11C469.44,-618.87 806.43,-563.95 901.42,-548.46"/>
<polygon fill="red" stroke="red" stroke-width="0.38" points="901.89,-551.93 911.2,-546.87 900.76,-545.03 901.89,-551.93"/>
</g>
<!-- &#45;15&#45;&gt;2 -->
<g id="edge9" class="edge">
<title>&#45;15&#45;&gt;2</title>
<path fill="none" stroke="red" stroke-width="0.91" d="M364.79,-631.16C309.23,-621.2 114.41,-577.61 114.41,-456.06 114.41,-456.06 114.41,-456.06 114.41,-183.43 114.41,-124.29 126.41,-97.28 176.41,-65.7 229.02,-32.47 1205.47,-18.41 1378.36,-16.17"/>
<polygon fill="red" stroke="red" stroke-width="0.91" points="1378.27,-19.67 1388.23,-16.05 1378.18,-12.67 1378.27,-19.67"/>
</g>
<!-- &#45;15&#45;&gt;5140 -->
<g id="edge47" class="edge">
<title>&#45;15&#45;&gt;5140</title>
<path fill="none" stroke="red" stroke-width="0.22" stroke-dasharray="1,5" d="M378.97,-625.21C378.31,-604.08 379.53,-547.87 408.41,-515.81 442.24,-478.27 501.42,-464.3 539.22,-459.12"/>
<polygon fill="red" stroke="red" stroke-width="0.22" points="539.44,-462.61 548.94,-457.91 538.58,-455.67 539.44,-462.61"/>
</g>
<!-- &#45;16 -->
<g id="node16" class="node">
<title>&#45;16</title>
<polygon fill="lightgray" stroke="black" points="1718.91,-989.58 1689.91,-989.58 1689.91,-971.58 1718.91,-971.58 1718.91,-989.58"/>
<text text-anchor="middle" x="1704.41" y="-978.38" font-family="Times,serif" font-size="9.00">&#45;16</text>
</g>
<!-- 40905 -->
<g id="node30" class="node">
<title>40905</title>
<ellipse fill="white" stroke="black" cx="1760.41" cy="-908.01" rx="27.65" ry="27.65"/>
<text text-anchor="middle" x="1760.41" y="-905.81" font-family="Times,serif" font-size="9.00">40905</text>
</g>
<!-- &#45;16&#45;&gt;40905 -->
<g id="edge128" class="edge">
<title>&#45;16&#45;&gt;40905</title>
<path fill="none" stroke="green" stroke-width="0.3" d="M1711.06,-971.21C1717.51,-963.08 1727.68,-950.26 1737.12,-938.37"/>
<polygon fill="green" stroke="green" stroke-width="0.3" points="1739.72,-940.71 1743.2,-930.7 1734.24,-936.36 1739.72,-940.71"/>
</g>
<!-- &#45;16&#45;&gt;27890 -->
<g id="edge58" class="edge">
<title>&#45;16&#45;&gt;27890</title>
<path fill="none" stroke="red" stroke-width="0.18" stroke-dasharray="1,5" d="M1704.18,-971.23C1704.07,-953.29 1705.8,-910.33 1723.41,-880.43 1733.8,-862.8 1751.06,-847.89 1766.4,-837.05"/>
<polygon fill="red" stroke="red" stroke-width="0.18" points="1768.13,-840.11 1774.45,-831.6 1764.21,-834.31 1768.13,-840.11"/>
</g>
<!-- &#45;16&#45;&gt;5140 -->
<g id="edge21" class="edge">
<title>&#45;16&#45;&gt;5140</title>
<path fill="none" stroke="red" stroke-width="1.02" stroke-dasharray="1,5" d="M1689.71,-979.47C1568.63,-978.45 738.21,-970.23 633.41,-935.58 545.11,-906.39 460.41,-910.86 460.41,-817.85 460.41,-817.85 460.41,-817.85 460.41,-633.54 460.41,-577.68 472.37,-561.57 504.41,-515.81 515.14,-500.5 530.68,-486.7 544.4,-476.24"/>
<polygon fill="red" stroke="red" stroke-width="1.02" points="546.28,-479.2 552.27,-470.46 542.14,-473.55 546.28,-479.2"/>
</g>
<!-- &#45;17 -->
<g id="node17" class="node">
<title>&#45;17</title>
<polygon fill="lightgray" stroke="black" points="1637.91,-734.7 1608.91,-734.7 1608.91,-716.7 1637.91,-716.7 1637.91,-734.7"/>
<text text-anchor="middle" x="1623.41" y="-723.5" font-family="Times,serif" font-size="9.00">&#45;17</text>
</g>
<!-- &#45;17&#45;&gt;0 -->
<g id="edge25" class="edge">
<title>&#45;17&#45;&gt;0</title>
<path fill="none" stroke="green" stroke-width="2.25" d="M1629.82,-716.42C1635.14,-710.21 1643.29,-702.13 1652.41,-698.12 1822.31,-623.45 1898.52,-736.79 2068.41,-662.12 2072.05,-660.52 2075.53,-658.28 2078.73,-655.77"/>
<polygon fill="green" stroke="green" stroke-width="2.25" points="2081.01,-658.44 2085.93,-649.06 2076.23,-653.32 2081.01,-658.44"/>
</g>
<!-- &#45;17&#45;&gt;35276 -->
<g id="edge125" class="edge">
<title>&#45;17&#45;&gt;35276</title>
<path fill="none" stroke="green" stroke-width="0.29" d="M1627.38,-716.21C1630.73,-710.07 1636.15,-702.17 1643.41,-698.12 1719.82,-655.52 1968.94,-718.98 2035.41,-662.12 2071.3,-631.42 2087.41,-503.29 2087.41,-456.06 2087.41,-456.06 2087.41,-456.06 2087.41,-365.74 2087.41,-316.16 2087.41,-258.92 2087.41,-222.47"/>
<polygon fill="green" stroke="green" stroke-width="0.29" points="2090.91,-222.75 2087.41,-212.75 2083.91,-222.75 2090.91,-222.75"/>
</g>
<!-- &#45;17&#45;&gt;25713 -->
<g id="edge50" class="edge">
<title>&#45;17&#45;&gt;25713</title>
<path fill="none" stroke="red" stroke-width="0.32" d="M1618.52,-716.47C1611.93,-705.39 1599.82,-685.02 1589.41,-667.49"/>
<polygon fill="red" stroke="red" stroke-width="0.32" points="1592.52,-665.88 1584.4,-659.07 1586.5,-669.45 1592.52,-665.88"/>
</g>
<!-- &#45;17&#45;&gt;5140 -->
<g id="edge20" class="edge">
<title>&#45;17&#45;&gt;5140</title>
<path fill="none" stroke="red" stroke-width="2.78" stroke-dasharray="1,5" d="M1608.68,-719.95C1589.32,-713.91 1554.19,-703.6 1523.41,-698.12 1438.38,-682.98 1214.38,-699.29 1136.41,-662.12 1054.33,-623 1074.51,-556.93 993.41,-515.81 927.22,-482.25 704.6,-464.45 613.64,-458.44"/>
<polygon fill="red" stroke="red" stroke-width="2.78" points="614.13,-454.96 603.92,-457.81 613.68,-461.95 614.13,-454.96"/>
</g>
<!-- &#45;17&#45;&gt;13206 -->
<g id="edge63" class="edge">
<title>&#45;17&#45;&gt;13206</title>
<path fill="none" stroke="green" stroke-width="0.93" stroke-dasharray="1,5" d="M1631.6,-716.25C1637.18,-710.73 1644.89,-703.57 1652.41,-698.12 1678.84,-678.97 1699.94,-690.29 1716.41,-662.12 1732.05,-635.39 1719.14,-600.89 1705.15,-576.15"/>
<polygon fill="green" stroke="green" stroke-width="0.93" points="1708.25,-574.52 1700.11,-567.75 1702.25,-578.12 1708.25,-574.52"/>
</g>
<!-- &#45;18 -->
<g id="node18" class="node">
<title>&#45;18</title>
<polygon fill="lightgray" stroke="black" points="1602.91,-917.01 1573.91,-917.01 1573.91,-899.01 1602.91,-899.01 1602.91,-917.01"/>
<text text-anchor="middle" x="1588.41" y="-905.81" font-family="Times,serif" font-size="9.00">&#45;18</text>
</g>
<!-- &#45;18&#45;&gt;0 -->
<g id="edge71" class="edge">
<title>&#45;18&#45;&gt;0</title>
<path fill="none" stroke="green" stroke-width="0.23" stroke-dasharray="1,5" d="M1593.93,-898.51C1598.11,-892.69 1604.32,-885.19 1611.41,-880.43 1653.08,-852.47 1677.48,-873.44 1718.41,-844.43 1743.77,-826.46 1736.68,-808.1 1761.41,-789.28 1878.93,-699.82 1943.86,-741.48 2068.41,-662.12 2072.48,-659.53 2076.5,-656.35 2080.2,-653.11"/>
<polygon fill="green" stroke="green" stroke-width="0.23" points="2082.52,-655.73 2087.41,-646.33 2077.73,-650.62 2082.52,-655.73"/>
</g>
<!-- &#45;18&#45;&gt;1 -->
<g id="edge12" class="edge">
<title>&#45;18&#45;&gt;1</title>
<path fill="none" stroke="red" stroke-width="0.24" d="M1573.53,-905.81C1488.76,-898.9 1068.66,-863.91 1014.41,-844.43 972.38,-829.33 970.16,-809.64 930.41,-789.28 890.6,-768.88 861.77,-790.14 836.41,-753.28 799.56,-699.7 806.29,-664.6 836.41,-606.97 850.34,-580.32 881.35,-562.73 903.06,-553.17"/>
<polygon fill="red" stroke="red" stroke-width="0.24" points="904.33,-556.43 912.23,-549.37 901.65,-549.96 904.33,-556.43"/>
</g>
<!-- &#45;18&#45;&gt;27890 -->
<g id="edge124" class="edge">
<title>&#45;18&#45;&gt;27890</title>
<path fill="none" stroke="green" stroke-width="1.38" stroke-dasharray="1,5" d="M1593.64,-898.59C1597.76,-892.64 1604.03,-884.96 1611.41,-880.43 1668.01,-845.7 1695.35,-870.52 1756.41,-844.43 1759.54,-843.1 1762.69,-841.54 1765.8,-839.87"/>
<polygon fill="green" stroke="green" stroke-width="1.38" points="1767.38,-843 1774.24,-834.92 1763.84,-836.96 1767.38,-843"/>
</g>
<!-- &#45;18&#45;&gt;13206 -->
<g id="edge33" class="edge">
<title>&#45;18&#45;&gt;13206</title>
<path fill="none" stroke="red" stroke-width="0.14" stroke-dasharray="1,5" d="M1594.96,-898.82C1599.41,-893.42 1605.54,-886.29 1611.41,-880.43 1613.33,-878.52 1758.14,-755.67 1759.41,-753.28 1790.13,-695.76 1801.18,-664.46 1770.41,-606.97 1756.8,-581.54 1739.67,-588.03 1716.41,-570.97 1715.07,-569.98 1713.7,-568.96 1712.33,-567.92"/>
<polygon fill="red" stroke="red" stroke-width="0.14" points="1714.7,-565.33 1704.66,-561.96 1710.41,-570.86 1714.7,-565.33"/>
</g>
<!-- &#45;19 -->
<g id="node19" class="node">
<title>&#45;19</title>
<polygon fill="lightgray" stroke="black" points="1173.91,-643.54 1144.91,-643.54 1144.91,-625.54 1173.91,-625.54 1173.91,-643.54"/>
<text text-anchor="middle" x="1159.41" y="-632.34" font-family="Times,serif" font-size="9.00">&#45;19</text>
</g>
<!-- &#45;19&#45;&gt;1 -->
<g id="edge70" class="edge">
<title>&#45;19&#45;&gt;1</title>
<path fill="none" stroke="red" stroke-width="0.63" d="M1144.48,-627.83C1105.07,-612.75 997.96,-571.77 950.09,-553.45"/>
<polygon fill="red" stroke="red" stroke-width="0.63" points="951.52,-550.25 940.93,-549.94 949.02,-556.79 951.52,-550.25"/>
</g>
<!-- &#45;19&#45;&gt;5140 -->
<g id="edge41" class="edge">
<title>&#45;19&#45;&gt;5140</title>
<path fill="none" stroke="green" stroke-width="1.8" stroke-dasharray="1,5" d="M1160.26,-625.09C1161.95,-603.19 1163.07,-544.35 1130.41,-515.81 1091.43,-481.75 731.49,-462.97 612.44,-457.66"/>
<polygon fill="green" stroke="green" stroke-width="1.8" points="612.65,-454.16 602.51,-457.22 612.34,-461.15 612.65,-454.16"/>
</g>
<!-- &#45;19&#45;&gt;13206 -->
<g id="edge122" class="edge">
<title>&#45;19&#45;&gt;13206</title>
<path fill="none" stroke="red" stroke-width="1.38" d="M1174.29,-625.81C1186.6,-619.75 1204.71,-611.59 1221.41,-606.97 1373.77,-564.83 1562.55,-550.57 1643.51,-546.17"/>
<polygon fill="red" stroke="red" stroke-width="1.38" points="1643.65,-549.67 1653.46,-545.65 1643.29,-542.68 1643.65,-549.67"/>
</g>
<!-- &#45;20 -->
<g id="node20" class="node">
<title>&#45;20</title>
<polygon fill="lightgray" stroke="black" points="2111.91,-734.7 2082.91,-734.7 2082.91,-716.7 2111.91,-716.7 2111.91,-734.7"/>
<text text-anchor="middle" x="2097.41" y="-723.5" font-family="Times,serif" font-size="9.00">&#45;20</text>
</g>
<!-- &#45;20&#45;&gt;0 -->
<g id="edge1" class="edge">
<title>&#45;20&#45;&gt;0</title>
<path fill="none" stroke="red" stroke-width="3.73" d="M2097.41,-716.47C2097.41,-704.85 2097.41,-683.02 2097.41,-664.96"/>
<polygon fill="red" stroke="red" stroke-width="3.73" points="2100.91,-665.19 2097.41,-655.19 2093.91,-665.19 2100.91,-665.19"/>
</g>
<!-- &#45;20&#45;&gt;2 -->
<g id="edge13" class="edge">
<title>&#45;20&#45;&gt;2</title>
<path fill="none" stroke="red" stroke-width="0.4" stroke-dasharray="1,5" d="M2112.11,-716.76C2130.69,-706.18 2162.83,-686 2184.41,-662.12 2316.98,-515.42 2406.41,-474.31 2406.41,-276.58 2406.41,-276.58 2406.41,-276.58 2406.41,-183.43 2406.41,-104.15 2345.76,-95.77 2272.41,-65.7 2192.69,-33.01 1564.6,-18.98 1429.82,-16.32"/>
<polygon fill="red" stroke="red" stroke-width="0.4" points="1429.99,-12.83 1419.92,-16.13 1429.85,-19.83 1429.99,-12.83"/>
</g>
<!-- &#45;20&#45;&gt;36429 -->
<g id="edge102" class="edge">
<title>&#45;20&#45;&gt;36429</title>
<path fill="none" stroke="green" stroke-width="0.5" d="M2106.56,-716.58C2118.79,-705.34 2140.52,-683.94 2154.41,-662.12 2228.62,-545.56 2254.41,-505.92 2254.41,-367.74 2254.41,-367.74 2254.41,-367.74 2254.41,-274.58 2254.41,-224.81 2247.16,-167.72 2241.62,-131.35"/>
<polygon fill="green" stroke="green" stroke-width="0.5" points="2245.09,-130.86 2240.08,-121.52 2238.17,-131.94 2245.09,-130.86"/>
</g>
<!-- &#45;20&#45;&gt;25713 -->
<g id="edge119" class="edge">
<title>&#45;20&#45;&gt;25713</title>
<path fill="none" stroke="red" stroke-width="0.11" d="M2082.49,-722.17C2012.22,-710.29 1713.3,-659.72 1607.61,-641.84"/>
<polygon fill="red" stroke="red" stroke-width="0.11" points="1608.33,-638.41 1597.88,-640.19 1607.16,-645.31 1608.33,-638.41"/>
</g>
<!-- &#45;20&#45;&gt;13206 -->
<g id="edge61" class="edge">
<title>&#45;20&#45;&gt;13206</title>
<path fill="none" stroke="red" stroke-width="0.17" d="M2082.55,-718.36C2060.46,-708.48 2018.38,-687.84 1988.41,-662.12 1964.62,-641.7 1970.88,-623.79 1944.41,-606.97 1907.35,-583.4 1783.35,-560.61 1720.55,-550.23"/>
<polygon fill="red" stroke="red" stroke-width="0.17" points="1721.33,-546.81 1710.9,-548.66 1720.2,-553.72 1721.33,-546.81"/>
</g>
<!-- &#45;21 -->
<g id="node21" class="node">
<title>&#45;21</title>
<polygon fill="lightgray" stroke="black" points="2344.91,-734.7 2315.91,-734.7 2315.91,-716.7 2344.91,-716.7 2344.91,-734.7"/>
<text text-anchor="middle" x="2330.41" y="-723.5" font-family="Times,serif" font-size="9.00">&#45;21</text>
</g>
<!-- &#45;21&#45;&gt;0 -->
<g id="edge32" class="edge">
<title>&#45;21&#45;&gt;0</title>
<path fill="none" stroke="green" stroke-width="0.28" d="M2315.48,-718.99C2275.9,-703.84 2168.06,-662.58 2120.49,-644.37"/>
<polygon fill="green" stroke="green" stroke-width="0.28" points="2122.02,-641.21 2111.43,-640.91 2119.52,-647.75 2122.02,-641.21"/>
</g>
<!-- &#45;21&#45;&gt;2 -->
<g id="edge7" class="edge">
<title>&#45;21&#45;&gt;2</title>
<path fill="none" stroke="green" stroke-width="0.66" d="M2340.53,-716.53C2368.43,-692.99 2444.41,-621.79 2444.41,-544.39 2444.41,-544.39 2444.41,-544.39 2444.41,-183.43 2444.41,-113.91 2403.94,-96.1 2341.41,-65.7 2257.43,-24.86 1572.13,-17.19 1430.12,-16.03"/>
<polygon fill="green" stroke="green" stroke-width="0.66" points="1430.48,-12.53 1420.46,-15.96 1430.43,-19.53 1430.48,-12.53"/>
</g>
<!-- &#45;21&#45;&gt;35276 -->
<g id="edge111" class="edge">
<title>&#45;21&#45;&gt;35276</title>
<path fill="none" stroke="green" stroke-width="0.5" d="M2328.59,-716.52C2322.12,-688.11 2298.96,-591.3 2267.41,-515.81 2219.57,-401.35 2143.64,-274.88 2107.64,-217.22"/>
<polygon fill="green" stroke="green" stroke-width="0.5" points="2110.69,-215.5 2102.41,-208.89 2104.76,-219.22 2110.69,-215.5"/>
</g>
<!-- &#45;21&#45;&gt;36429 -->
<g id="edge92" class="edge">
<title>&#45;21&#45;&gt;36429</title>
<path fill="none" stroke="green" stroke-width="0.45" stroke-dasharray="1,5" d="M2329.9,-716.41C2328.67,-697.17 2325.39,-647.98 2321.41,-606.97 2301.95,-406.48 2328.18,-349.21 2268.41,-156.85 2265.19,-146.47 2260.25,-135.79 2255.17,-126.26"/>
<polygon fill="green" stroke="green" stroke-width="0.45" points="2258.36,-124.79 2250.43,-117.76 2252.24,-128.2 2258.36,-124.79"/>
</g>
<!-- &#45;21&#45;&gt;31951 -->
<g id="edge78" class="edge">
<title>&#45;21&#45;&gt;31951</title>
<path fill="none" stroke="red" stroke-width="0.81" stroke-dasharray="1,5" d="M2326.07,-716.29C2304.48,-675.5 2204.13,-497.51 2063.41,-430.32 1947.48,-374.95 1543.32,-368.43 1415.49,-367.77"/>
<polygon fill="red" stroke="red" stroke-width="0.81" points="1415.59,-364.28 1405.58,-367.73 1415.56,-371.27 1415.59,-364.28"/>
</g>
<!-- &#45;21&#45;&gt;13206 -->
<g id="edge35" class="edge">
<title>&#45;21&#45;&gt;13206</title>
<path fill="none" stroke="green" stroke-width="0.17" d="M2319.35,-716.46C2289.31,-694.56 2203.04,-634.69 2121.41,-606.97 1979.36,-558.71 1799.11,-547.66 1721.64,-545.14"/>
<polygon fill="green" stroke="green" stroke-width="0.17" points="1721.75,-541.64 1711.66,-544.84 1721.55,-548.64 1721.75,-541.64"/>
</g>
<!-- &#45;22 -->
<g id="node22" class="node">
<title>&#45;22</title>
<polygon fill="lightgray" stroke="black" points="707.91,-643.54 678.91,-643.54 678.91,-625.54 707.91,-625.54 707.91,-643.54"/>
<text text-anchor="middle" x="693.41" y="-632.34" font-family="Times,serif" font-size="9.00">&#45;22</text>
</g>
<!-- &#45;22&#45;&gt;1 -->
<g id="edge10" class="edge">
<title>&#45;22&#45;&gt;1</title>
<path fill="none" stroke="green" stroke-width="1.21" d="M700.54,-625.29C705.99,-619.43 714,-611.78 722.41,-606.97 781.15,-573.36 859.93,-555.85 900.24,-548.58"/>
<polygon fill="green" stroke="green" stroke-width="1.21" points="900.62,-552.07 909.88,-546.92 899.43,-545.17 900.62,-552.07"/>
</g>
<!-- &#45;22&#45;&gt;2 -->
<g id="edge82" class="edge">
<title>&#45;22&#45;&gt;2</title>
<path fill="none" stroke="red" stroke-width="0.81" stroke-dasharray="1,5" d="M678.76,-632.51C605.29,-627.19 279.17,-601.96 247.41,-570.97 210.37,-534.82 228.41,-507.83 228.41,-456.06 228.41,-456.06 228.41,-456.06 228.41,-183.43 228.41,-123.66 242.63,-97.22 293.41,-65.7 341.02,-36.14 1216.21,-19.19 1378.6,-16.3"/>
<polygon fill="red" stroke="red" stroke-width="0.81" points="1378.27,-19.8 1388.2,-16.13 1378.14,-12.8 1378.27,-19.8"/>
</g>
<!-- &#45;23 -->
<g id="node23" class="node">
<title>&#45;23</title>
<polygon fill="lightgray" stroke="black" points="1371.91,-643.54 1342.91,-643.54 1342.91,-625.54 1371.91,-625.54 1371.91,-643.54"/>
<text text-anchor="middle" x="1357.41" y="-632.34" font-family="Times,serif" font-size="9.00">&#45;23</text>
</g>
<!-- &#45;23&#45;&gt;1 -->
<g id="edge110" class="edge">
<title>&#45;23&#45;&gt;1</title>
<path fill="none" stroke="red" stroke-width="0.45" d="M1342.5,-625.96C1330.16,-619.98 1312.04,-611.87 1295.41,-606.97 1169.23,-569.8 1011.85,-552.28 951.53,-546.58"/>
<polygon fill="red" stroke="red" stroke-width="0.45" points="952.08,-543.12 941.8,-545.69 951.44,-550.09 952.08,-543.12"/>
</g>
<!-- &#45;23&#45;&gt;13206 -->
<g id="edge34" class="edge">
<title>&#45;23&#45;&gt;13206</title>
<path fill="none" stroke="green" stroke-width="0.38" stroke-dasharray="1,5" d="M1364.41,-625.06C1369.81,-619.09 1377.79,-611.4 1386.41,-606.97 1472.01,-562.98 1586.63,-549.9 1645.3,-546.02"/>
<polygon fill="green" stroke="green" stroke-width="0.38" points="1645.24,-549.53 1655.01,-545.44 1644.82,-542.55 1645.24,-549.53"/>
</g>
<!-- &#45;24 -->
<g id="node24" class="node">
<title>&#45;24</title>
<polygon fill="lightgray" stroke="black" points="2025.91,-643.54 1996.91,-643.54 1996.91,-625.54 2025.91,-625.54 2025.91,-643.54"/>
<text text-anchor="middle" x="2011.41" y="-632.34" font-family="Times,serif" font-size="9.00">&#45;24</text>
</g>
<!-- &#45;24&#45;&gt;35276 -->
<g id="edge106" class="edge">
<title>&#45;24&#45;&gt;35276</title>
<path fill="none" stroke="red" stroke-width="1.36" d="M2011.41,-625.05C2011.41,-599.49 2011.41,-521.08 2011.41,-456.06 2011.41,-456.06 2011.41,-456.06 2011.41,-365.74 2011.41,-310.32 2042.27,-252.32 2064.66,-217.53"/>
<polygon fill="red" stroke="red" stroke-width="1.36" points="2067.56,-219.49 2070.16,-209.22 2061.72,-215.62 2067.56,-219.49"/>
</g>
<!-- &#45;24&#45;&gt;5140 -->
<g id="edge53" class="edge">
<title>&#45;24&#45;&gt;5140</title>
<path fill="none" stroke="green" stroke-width="0.76" d="M2003.38,-625.17C1997.48,-619.41 1989.01,-611.92 1980.41,-606.97 1874.33,-545.81 1840.55,-539.5 1720.41,-515.81 1500.31,-472.42 780.56,-459.13 610.61,-456.57"/>
<polygon fill="green" stroke="green" stroke-width="0.76" points="610.75,-453.07 600.7,-456.42 610.65,-460.07 610.75,-453.07"/>
</g>
<!-- &#45;24&#45;&gt;13206 -->
<g id="edge80" class="edge">
<title>&#45;24&#45;&gt;13206</title>
<path fill="none" stroke="red" stroke-width="0.2" d="M2004.42,-625.06C1999.02,-619.09 1991.04,-611.39 1982.41,-606.97 1936.97,-583.65 1790.65,-560 1720.97,-549.71"/>
<polygon fill="red" stroke="red" stroke-width="0.2" points="1721.57,-546.26 1711.17,-548.28 1720.55,-553.19 1721.57,-546.26"/>
</g>
<!-- 0&#45;&gt;31951 -->
<g id="edge74" class="edge">
<title>0&#45;&gt;31951</title>
<path fill="none" stroke="green" stroke-width="0.4" d="M2084.17,-627.2C2045.37,-608.75 1928.43,-553.98 1828.41,-515.81 1676.13,-457.7 1489.96,-401.17 1412.7,-378.33"/>
<polygon fill="green" stroke="green" stroke-width="0.4" points="1414.12,-375.1 1403.54,-375.63 1412.14,-381.82 1414.12,-375.1"/>
</g>
<!-- 38341&#45;&gt;2 -->
<g id="edge108" class="edge">
<title>38341&#45;&gt;2</title>
<path fill="none" stroke="green" stroke-width="0.33" d="M1353.08,-248.06C1360.24,-208.26 1374.75,-130.79 1390.41,-65.7 1392.49,-57.07 1395.05,-47.68 1397.41,-39.4"/>
<polygon fill="green" stroke="green" stroke-width="0.33" points="1400.77,-40.38 1400.19,-29.8 1394.04,-38.43 1400.77,-40.38"/>
</g>
<!-- 38341&#45;&gt;35276 -->
<g id="edge112" class="edge">
<title>38341&#45;&gt;35276</title>
<path fill="none" stroke="green" stroke-width="0.67" d="M1376.03,-271.25C1489.21,-257.6 1917.67,-205.91 2048.95,-190.07"/>
<polygon fill="green" stroke="green" stroke-width="0.67" points="2049.13,-193.57 2058.64,-188.9 2048.29,-186.62 2049.13,-193.57"/>
</g>
<!-- 36584&#45;&gt;27890 -->
<g id="edge95" class="edge">
<title>36584&#45;&gt;27890</title>
<path fill="none" stroke="red" stroke-width="0.86" d="M1671.35,-892.11C1677.5,-888.23 1684.17,-884.11 1690.41,-880.43 1719.21,-863.49 1727.61,-861.37 1756.41,-844.43 1759.54,-842.59 1762.77,-840.64 1765.98,-838.67"/>
<polygon fill="red" stroke="red" stroke-width="0.86" points="1767.74,-841.7 1774.37,-833.43 1764.04,-835.76 1767.74,-841.7"/>
</g>
<!-- 36584&#45;&gt;37363 -->
<g id="edge120" class="edge">
<title>36584&#45;&gt;37363</title>
<path fill="none" stroke="red" stroke-width="0.5" d="M1658.7,-881.94C1671.53,-850.67 1693.54,-797.04 1708.04,-761.73"/>
<polygon fill="red" stroke="red" stroke-width="0.5" points="1711.25,-763.12 1711.81,-752.54 1704.77,-760.47 1711.25,-763.12"/>
</g>
<!-- 40905&#45;&gt;27890 -->
<g id="edge129" class="edge">
<title>40905&#45;&gt;27890</title>
<path fill="none" stroke="red" stroke-width="0.37" d="M1771,-882.17C1774.92,-872.98 1779.44,-862.37 1783.66,-852.46"/>
<polygon fill="red" stroke="red" stroke-width="0.37" points="1786.83,-853.95 1787.54,-843.38 1780.39,-851.2 1786.83,-853.95"/>
</g>
<!-- 35276&#45;&gt;2 -->
<g id="edge83" class="edge">
<title>35276&#45;&gt;2</title>
<path fill="none" stroke="red" stroke-width="0.42" d="M2060.96,-175.68C1993.11,-155.92 1807.19,-102.66 1650.41,-65.7 1570.04,-46.75 1473.86,-28.54 1429.32,-20.36"/>
<polygon fill="red" stroke="red" stroke-width="0.42" points="1430,-16.92 1419.53,-18.57 1428.74,-23.81 1430,-16.92"/>
</g>
<!-- 35276&#45;&gt;36429 -->
<g id="edge98" class="edge">
<title>35276&#45;&gt;36429</title>
<path fill="none" stroke="green" stroke-width="0.39" d="M2110.86,-169.3C2135.76,-154.3 2175.29,-130.5 2203.12,-113.73"/>
<polygon fill="green" stroke="green" stroke-width="0.39" points="2204.8,-116.8 2211.56,-108.64 2201.19,-110.8 2204.8,-116.8"/>
</g>
<!-- 36429&#45;&gt;2 -->
<g id="edge93" class="edge">
<title>36429&#45;&gt;2</title>
<path fill="none" stroke="red" stroke-width="0.84" d="M2207.76,-89.73C2080.62,-78.04 1553.08,-29.52 1430.12,-18.21"/>
<polygon fill="red" stroke="red" stroke-width="0.84" points="1430.75,-14.76 1420.47,-17.33 1430.11,-21.73 1430.75,-14.76"/>
</g>
<!-- 39149&#45;&gt;1 -->
<g id="edge126" class="edge">
<title>39149&#45;&gt;1</title>
<path fill="none" stroke="red" stroke-width="0.36" d="M1232.6,-623.66C1218.23,-618.35 1199.96,-611.9 1183.41,-606.97 1099.26,-581.88 997.42,-559.36 951.28,-549.56"/>
<polygon fill="red" stroke="red" stroke-width="0.36" points="952.08,-546.16 941.58,-547.52 950.64,-553 952.08,-546.16"/>
</g>
<!-- 39149&#45;&gt;31951 -->
<g id="edge117" class="edge">
<title>39149&#45;&gt;31951</title>
<path fill="none" stroke="green" stroke-width="1.53" d="M1258.42,-606.49C1259.6,-565.49 1266.54,-486.46 1300.41,-430.32 1310.67,-413.31 1327.27,-398.85 1342.35,-388.13"/>
<polygon fill="green" stroke="green" stroke-width="1.53" points="1344.19,-391.11 1350.52,-382.62 1340.28,-385.31 1344.19,-391.11"/>
</g>
<!-- 31951&#45;&gt;2 -->
<g id="edge66" class="edge">
<title>31951&#45;&gt;2</title>
<path fill="none" stroke="green" stroke-width="1.9" d="M1380.72,-339C1382.38,-327.93 1384.18,-314.95 1385.41,-303.16 1395.44,-207.5 1401.13,-93.33 1403.34,-42.52"/>
<polygon fill="green" stroke="green" stroke-width="1.9" points="1406.82,-42.94 1403.74,-32.8 1399.83,-42.65 1406.82,-42.94"/>
</g>
<!-- 31951&#45;&gt;38341 -->
<g id="edge107" class="edge">
<title>31951&#45;&gt;38341</title>
<path fill="none" stroke="green" stroke-width="0.89" d="M1368.31,-339.95C1365.67,-331.54 1362.69,-322.04 1359.85,-313"/>
<polygon fill="green" stroke="green" stroke-width="0.89" points="1363.23,-312.09 1356.9,-303.6 1356.55,-314.19 1363.23,-312.09"/>
</g>
<!-- 25713&#45;&gt;1 -->
<g id="edge101" class="edge">
<title>25713&#45;&gt;1</title>
<path fill="none" stroke="green" stroke-width="0.41" stroke-dasharray="1,5" d="M1542.87,-629.65C1506.08,-624.44 1438.85,-614.96 1381.41,-606.97 1217.2,-584.13 1019.58,-557.11 951.15,-547.77"/>
<polygon fill="green" stroke="green" stroke-width="0.41" points="951.94,-544.34 941.56,-546.46 951,-551.28 951.94,-544.34"/>
</g>
<!-- 25713&#45;&gt;2 -->
<g id="edge77" class="edge">
<title>25713&#45;&gt;2</title>
<path fill="none" stroke="red" stroke-width="0.19" d="M1559.51,-608.82C1545.63,-575.01 1523.41,-512.16 1523.41,-456.06 1523.41,-456.06 1523.41,-456.06 1523.41,-183.43 1523.41,-115.67 1457.93,-56.22 1424.11,-30.04"/>
<polygon fill="red" stroke="red" stroke-width="0.19" points="1426.58,-27.52 1416.49,-24.29 1422.37,-33.11 1426.58,-27.52"/>
</g>
<!-- 25713&#45;&gt;13206 -->
<g id="edge55" class="edge">
<title>25713&#45;&gt;13206</title>
<path fill="none" stroke="green" stroke-width="0.38" stroke-dasharray="1,5" d="M1591.93,-616.57C1609.45,-602.75 1634.36,-583.09 1653.76,-567.78"/>
<polygon fill="green" stroke="green" stroke-width="0.38" points="1655.84,-570.6 1661.53,-561.66 1651.51,-565.1 1655.84,-570.6"/>
</g>
<!-- 27890&#45;&gt;2 -->
<g id="edge54" class="edge">
<title>27890&#45;&gt;2</title>
<path fill="none" stroke="red" stroke-width="0.13" d="M1826,-811.75C1863.58,-806.23 1933,-796.3 1992.41,-789.28 2152.98,-770.3 2202.98,-809.93 2354.41,-753.28 2439.13,-721.58 2520.41,-725.99 2520.41,-635.54 2520.41,-635.54 2520.41,-635.54 2520.41,-183.43 2520.41,-107.76 2466.91,-95.64 2397.41,-65.7 2306.07,-26.34 1574.3,-17.45 1429.32,-16.06"/>
<polygon fill="red" stroke="red" stroke-width="0.13" points="1429.78,-12.57 1419.75,-15.97 1429.72,-19.57 1429.78,-12.57"/>
</g>
<!-- 27890&#45;&gt;37363 -->
<g id="edge104" class="edge">
<title>27890&#45;&gt;37363</title>
<path fill="none" stroke="red" stroke-width="0.32" d="M1780.79,-795.18C1770.62,-783.25 1757.69,-768.08 1746.58,-755.05"/>
<polygon fill="red" stroke="red" stroke-width="0.32" points="1749.41,-752.97 1740.25,-747.63 1744.08,-757.51 1749.41,-752.97"/>
</g>
<!-- 37363&#45;&gt;36429 -->
<g id="edge121" class="edge">
<title>37363&#45;&gt;36429</title>
<path fill="none" stroke="green" stroke-width="0.36" d="M1750.43,-724.01C1831.7,-721.47 2065.31,-710.06 2121.41,-662.12 2147.54,-639.79 2216.41,-402.11 2216.41,-367.74 2216.41,-367.74 2216.41,-367.74 2216.41,-274.58 2216.41,-224.59 2223.73,-167.23 2229.28,-130.88"/>
<polygon fill="green" stroke="green" stroke-width="0.36" points="2232.69,-131.72 2230.78,-121.3 2225.77,-130.64 2232.69,-131.72"/>
</g>
<!-- 37363&#45;&gt;25713 -->
<g id="edge105" class="edge">
<title>37363&#45;&gt;25713</title>
<path fill="none" stroke="green" stroke-width="0.19" d="M1698.66,-710.77C1672.97,-695.7 1631.84,-671.57 1603.11,-654.72"/>
<polygon fill="green" stroke="green" stroke-width="0.19" points="1604.89,-651.71 1594.49,-649.67 1601.35,-657.75 1604.89,-651.71"/>
</g>
<!-- 37363&#45;&gt;13206 -->
<g id="edge100" class="edge">
<title>37363&#45;&gt;13206</title>
<path fill="none" stroke="green" stroke-width="0.26" d="M1737.38,-702.28C1751.56,-678.04 1768.71,-638.63 1754.41,-606.97 1746.39,-589.19 1730.54,-574.45 1715.85,-563.74"/>
<polygon fill="green" stroke="green" stroke-width="0.26" points="1717.94,-560.94 1707.72,-558.14 1713.97,-566.7 1717.94,-560.94"/>
</g>
<!-- 5140&#45;&gt;2 -->
<g id="edge59" class="edge">
<title>5140&#45;&gt;2</title>
<path fill="none" stroke="red" stroke-width="0.86" d="M549.68,-449.93C483.34,-437.28 306.41,-392.66 306.41,-276.58 306.41,-276.58 306.41,-276.58 306.41,-183.43 306.41,-71.38 1211.56,-24.65 1378.21,-17"/>
<polygon fill="red" stroke="red" stroke-width="0.86" points="1378.18,-20.5 1388.01,-16.56 1377.86,-13.51 1378.18,-20.5"/>
</g>
<!-- 5140&#45;&gt;38341 -->
<g id="edge118" class="edge">
<title>5140&#45;&gt;38341</title>
<path fill="none" stroke="red" stroke-width="0.25" d="M598.86,-448.46C711.05,-422.73 1177,-315.89 1311.76,-284.99"/>
<polygon fill="red" stroke="red" stroke-width="0.25" points="1312.28,-288.46 1321.24,-282.82 1310.71,-281.64 1312.28,-288.46"/>
</g>
<!-- 5140&#45;&gt;31951 -->
<g id="edge65" class="edge">
<title>5140&#45;&gt;31951</title>
<path fill="none" stroke="green" stroke-width="0.44" d="M599.3,-451.39C714.74,-438.96 1198.44,-386.9 1338.35,-371.84"/>
<polygon fill="green" stroke="green" stroke-width="0.44" points="1338.35,-375.36 1347.92,-370.81 1337.6,-368.4 1338.35,-375.36"/>
</g>
<!-- 13206&#45;&gt;2 -->
<g id="edge36" class="edge">
<title>13206&#45;&gt;2</title>
<path fill="none" stroke="red" stroke-width="0.52" stroke-dasharray="1,5" d="M1672.39,-517.79C1658.5,-484.48 1636.41,-422.85 1636.41,-367.74 1636.41,-367.74 1636.41,-367.74 1636.41,-183.43 1636.41,-82.14 1489.29,-35.9 1429.36,-21.27"/>
<polygon fill="red" stroke="red" stroke-width="0.52" points="1430.23,-17.87 1419.69,-19 1428.63,-24.69 1430.23,-17.87"/>
</g>
<!-- 13206&#45;&gt;5140 -->
<g id="edge73" class="edge">
<title>13206&#45;&gt;5140</title>
<path fill="none" stroke="green" stroke-width="1.19" d="M1655.45,-540.21C1503.96,-528.42 782.26,-472.24 610.95,-458.91"/>
<polygon fill="green" stroke="green" stroke-width="1.19" points="611.4,-455.43 601.16,-458.15 610.86,-462.41 611.4,-455.43"/>
</g>
<!-- 35769&#45;&gt;25713 -->
<g id="edge88" class="edge">
<title>35769&#45;&gt;25713</title>
<path fill="none" stroke="red" stroke-width="0.13" stroke-dasharray="1,5" d="M771.45,-808.98C795.27,-803.12 830.97,-794.78 862.41,-789.28 988.61,-767.18 1035.37,-813.56 1148.41,-753.28 1177.09,-737.98 1167.61,-713.17 1196.41,-698.12 1327.97,-629.41 1388.3,-711.07 1528.41,-662.12 1532.35,-660.75 1536.31,-658.94 1540.12,-656.92"/>
<polygon fill="red" stroke="red" stroke-width="0.13" points="1541.67,-660.07 1548.54,-652 1538.14,-654.02 1541.67,-660.07"/>
</g>
</g>
</svg>
